<svg id="Layer_1" data-name="Layer 1" xmlns="http://www.w3.org/2000/svg" xmlns:xlink="http://www.w3.org/1999/xlink" viewBox="0 0 1636.23 1909.96"><defs><style>.cls-1{fill:#fff;}</style></defs><path class="cls-1" d="M112.09,109.21h-70v-70h70Zm-7.78-35.06A27.3,27.3,0,1,0,77.2,101.44,27.26,27.26,0,0,0,104.31,74.15ZM100,52.45a30.6,30.6,0,0,1,7.84,28.74C103.7,96.87,92.93,104.66,77.07,106v2.1c12.59-.55,22.65-5.71,28.94-16.64,8.12-14.11,6.1-27.63-3.86-40.26h2.12V49c-1.87,0-3.71,0-5.55,0a.9.9,0,0,0-.94.9c0,1.86,0,3.72,0,5.58H100ZM43.61,79.69l2.17-.37-.27-2.07-2.21.22Zm5.83-25.25,1.82,1.28,1.25-1.67-1.7-1.38ZM44,66.48l2.15.5.54-2-2.11-.63ZM71.76,42.9l2.1-.3-.26-2.19-2.19.32Zm-17.89,56,1.44-1.55L53.8,95.84l-1.5,1.42ZM50.11,57.42l-1.88-1.16-1.12,2,2,1ZM47.36,63l.79-1.93-2-.91-.86,2.06ZM44.61,84l2.11-.67-.55-2-2.14.5Zm17.48,18.06L60.28,101l-1.17,1.88L61,104Zm1.83.9L63,105l2.07.85.78-2.07Zm9.77,4.88.21-2.2-2.07-.28-.35,2.19ZM67.11,41.73l.63,2.12,2-.56-.51-2.14ZM43.59,68.63l-.29,2.22,2.19.21L45.77,69ZM48.26,92l1.88-1.17-1.06-1.8-1.95,1Zm3,.53-1.8,1.3,1.38,1.77,1.69-1.41ZM67.8,104.42l-.64,2.13,2.15.56c.16-.65.33-1.23.43-1.83,0-.12-.2-.36-.35-.42C68.91,104.69,68.4,104.58,67.8,104.42ZM63.88,45.31l1.93-.82L65,42.43,63,43.3Zm-7,4.38,1.65-1.29-1.3-1.78L55.49,48ZM48.18,87.22l-.82-1.93-2,.79.86,2Zm9.11,14.44,1.29-1.8L56.91,98.6l-1.39,1.7ZM53.86,49.45,52.25,51l1.49,1.39L55.27,51Zm5.21-4.06,1.17,1.89,1.81-1.07-1-1.94ZM43.2,75.18h2.12V73.1H43.2Z" transform="translate(-42.09 -39.21)"/><path d="M104.31,74.15A27.3,27.3,0,1,1,77.1,46.83,27.33,27.33,0,0,1,104.31,74.15Zm-2.19,0a25.11,25.11,0,1,0-24.9,25.11A25.17,25.17,0,0,0,102.12,74.11Z" transform="translate(-42.09 -39.21)"/><path d="M100,52.45v3.06H97.77c0-1.86,0-3.72,0-5.58a.9.9,0,0,1,.94-.9c1.84,0,3.68,0,5.55,0v2.16h-2.12c10,12.63,12,26.15,3.86,40.26-6.29,10.93-16.35,16.09-28.94,16.64V106c15.86-1.31,26.63-9.1,30.73-24.78A30.6,30.6,0,0,0,100,52.45Z" transform="translate(-42.09 -39.21)"/><path d="M43.61,79.69l-.31-2.22,2.21-.22.27,2.07Z" transform="translate(-42.09 -39.21)"/><path d="M49.44,54.44l1.37-1.77,1.7,1.38-1.25,1.67Z" transform="translate(-42.09 -39.21)"/><path d="M44,66.48l.58-2.16L46.7,65l-.54,2Z" transform="translate(-42.09 -39.21)"/><path d="M71.76,42.9l-.35-2.17,2.19-.32.26,2.19Z" transform="translate(-42.09 -39.21)"/><path d="M53.87,98.86l-1.57-1.6,1.5-1.42,1.51,1.47Z" transform="translate(-42.09 -39.21)"/><path d="M50.11,57.42l-1,1.82-2-1,1.12-2Z" transform="translate(-42.09 -39.21)"/><path d="M47.36,63l-2.07-.78.86-2.06,2,.91Z" transform="translate(-42.09 -39.21)"/><path d="M44.61,84,44,81.83l2.14-.5.55,2Z" transform="translate(-42.09 -39.21)"/><path d="M62.09,102.06,61,104l-1.93-1.12L60.28,101Z" transform="translate(-42.09 -39.21)"/><path d="M63.92,103l1.94.8-.78,2.07L63,105Z" transform="translate(-42.09 -39.21)"/><path d="M73.69,107.84l-2.21-.29.35-2.19,2.07.28Z" transform="translate(-42.09 -39.21)"/><path d="M67.11,41.73l2.15-.58.51,2.14-2,.56Z" transform="translate(-42.09 -39.21)"/><path d="M43.59,68.63l2.18.36-.28,2.07-2.19-.21Z" transform="translate(-42.09 -39.21)"/><path d="M48.26,92l-1.13-1.94,1.95-1,1.06,1.8Z" transform="translate(-42.09 -39.21)"/><path d="M51.27,92.56l1.27,1.66-1.69,1.41-1.38-1.77Z" transform="translate(-42.09 -39.21)"/><path d="M67.8,104.42c.6.16,1.11.27,1.59.44.15.06.37.3.35.42-.1.6-.27,1.18-.43,1.83l-2.15-.56Z" transform="translate(-42.09 -39.21)"/><path d="M63.88,45.31l-.92-2L65,42.43l.79,2.06Z" transform="translate(-42.09 -39.21)"/><path d="M56.89,49.69,55.49,48l1.75-1.37,1.3,1.78Z" transform="translate(-42.09 -39.21)"/><path d="M48.18,87.22l-2,.91-.86-2,2-.79Z" transform="translate(-42.09 -39.21)"/><path d="M57.29,101.66l-1.77-1.36,1.39-1.7,1.67,1.26Z" transform="translate(-42.09 -39.21)"/><path d="M53.86,49.45,55.27,51l-1.53,1.43L52.25,51Z" transform="translate(-42.09 -39.21)"/><path d="M59.07,45.39,61,44.27l1,1.94-1.81,1.07Z" transform="translate(-42.09 -39.21)"/><path d="M43.2,75.18V73.1h2.12v2.08Z" transform="translate(-42.09 -39.21)"/><path class="cls-1" d="M102.12,74.11A25.11,25.11,0,1,1,77.05,49,25.06,25.06,0,0,1,102.12,74.11ZM77,51.19a22.94,22.94,0,1,0,22.9,23A22.9,22.9,0,0,0,77,51.19Z" transform="translate(-42.09 -39.21)"/><path d="M77,51.19a22.94,22.94,0,1,1-23,22.75A22.89,22.89,0,0,1,77,51.19Zm20.72,23A20.75,20.75,0,1,0,77.14,94.85,20.81,20.81,0,0,0,97.76,74.14Z" transform="translate(-42.09 -39.21)"/><path class="cls-1" d="M97.76,74.14A20.75,20.75,0,1,1,77.1,53.38,20.71,20.71,0,0,1,97.76,74.14ZM75.92,76.31c0-2.55,0-5,0-7.45a1.12,1.12,0,0,0-2.13-.64c-1.75,2.81-3.51,5.62-5.25,8.44a1.48,1.48,0,0,0-.23,1,1,1,0,0,0,1.18.89c1.4,0,2.8,0,4.27,0v2.15h2.17V78.46h2.13V76.31Zm-8.76,2.14H63c1-1.25,2-2.39,2.93-3.56a5.47,5.47,0,0,0,1.22-3.67,3.84,3.84,0,0,0-4.3-3.63,3.76,3.76,0,0,0-3.26,4.35H61.7c0-.19,0-.3,0-.42a1.67,1.67,0,0,1,1.82-1.74A1.64,1.64,0,0,1,64.9,72a5.57,5.57,0,0,1-1,1.91c-1.28,1.64-2.65,3.23-4,4.82a1.21,1.21,0,0,0-.29,1.37,1.17,1.17,0,0,0,1.25.62c1.36,0,2.73,0,4.09,0h2.17Zm24.35-8.67A23.94,23.94,0,0,0,89,80.64H91c.39-2.14.6-4.25,1.17-6.26a35.69,35.69,0,0,1,2.11-5c.46-1,.08-1.8-1-1.81H86.88a1,1,0,0,0-1.09.83,21.69,21.69,0,0,0,0,2.42H87.9l.07-1ZM79.22,80.44l2.15.52c1.1-4.4,2.19-8.72,3.29-13.11l-2.15-.54C81.41,71.7,80.32,76,79.22,80.44Z" transform="translate(-42.09 -39.21)"/><path d="M75.92,76.31h2.15v2.15H75.94v2.18H73.77V78.49c-1.47,0-2.87,0-4.27,0a1,1,0,0,1-1.18-.89,1.48,1.48,0,0,1,.23-1c1.74-2.82,3.5-5.63,5.25-8.44a1.12,1.12,0,0,1,2.13.64C75.91,71.31,75.92,73.76,75.92,76.31Zm-2.23,0V72.59l-2.31,3.69Z" transform="translate(-42.09 -39.21)"/><path d="M67.16,78.45v2.23H65c-1.36,0-2.73,0-4.09,0a1.17,1.17,0,0,1-1.25-.62,1.21,1.21,0,0,1,.29-1.37c1.34-1.59,2.71-3.18,4-4.82a5.57,5.57,0,0,0,1-1.91,1.64,1.64,0,0,0-1.35-2.18,1.67,1.67,0,0,0-1.82,1.74c0,.12,0,.23,0,.42H59.63a3.76,3.76,0,0,1,3.26-4.35,3.84,3.84,0,0,1,4.3,3.63A5.47,5.47,0,0,1,66,74.89C65,76.06,64.07,77.2,63,78.45Z" transform="translate(-42.09 -39.21)"/><path d="M91.51,69.78H88l-.07,1H85.77a21.69,21.69,0,0,1,0-2.42,1,1,0,0,1,1.09-.83h6.41c1,0,1.43.81,1,1.81a35.69,35.69,0,0,0-2.11,5c-.57,2-.78,4.12-1.17,6.26H89A23.94,23.94,0,0,1,91.51,69.78Z" transform="translate(-42.09 -39.21)"/><path d="M79.22,80.44c1.1-4.4,2.19-8.74,3.29-13.13l2.15.54c-1.1,4.39-2.19,8.71-3.29,13.11Z" transform="translate(-42.09 -39.21)"/><path class="cls-1" d="M73.69,76.28H71.38l2.31-3.69Z" transform="translate(-42.09 -39.21)"/><image width="512" height="512" transform="translate(45.88 419.24) scale(0.75)" xlink:href="../../../../../../../Volumes/Data/Downloads/anti-virus.png"/><image width="512" height="512" transform="translate(471.65 63.57) scale(0.75)" xlink:href="../../../../../../../Volumes/Data/Downloads/cotton.png"/><image width="512" height="512" transform="translate(496.39 474.91) scale(0.75)" xlink:href="../../../../../../../Volumes/Data/Downloads/eco.png"/><image width="512" height="512" transform="translate(977.51 155.52)" xlink:href="../../../../../../../Volumes/Data/Downloads/free-icon-drops-1691455.png"/><image width="512" height="512" transform="translate(990.1 716.49) scale(0.75)" xlink:href="../../../../../../../Volumes/Data/Downloads/foot.png"/><image width="512" height="512" transform="translate(84.16 944.02) scale(0.75)" xlink:href="../../../../../../../Volumes/Data/Downloads/investment.png"/><image width="512" height="512" transform="translate(697.55 1328.02) scale(0.75)" xlink:href="../../../../../../../Volumes/Data/Downloads/pedicure.png"/><image width="512" height="512" transform="translate(84.16 1525.96) scale(0.75)" xlink:href="../../../../../../../Volumes/Data/Downloads/premium-icon-yin-yang-4742368.png"/><image width="512" height="512" transform="translate(1252.23 1451.51) scale(0.75)" xlink:href="../../../../../../../Volumes/Data/Downloads/slippers.png"/></svg>