<svg xmlns="http://www.w3.org/2000/svg" viewBox="0 0 72 72"><defs><style>.cls-1{fill:none;stroke:#e9511c;stroke-miterlimit:10;stroke-width:2px;stroke-dasharray:2 2;}.cls-2{fill:#e9511c;}</style></defs><g id="Layer_2" data-name="Layer 2"><g id="Layer_1-2" data-name="Layer 1"><circle class="cls-1" cx="36" cy="36" r="35"/><path class="cls-2" d="M15.51,30.07A1.57,1.57,0,0,1,16.88,29a1.48,1.48,0,0,1,1.29.59l6.12,6.82,1.25,1.39a25.08,25.08,0,0,0-1.49-4.82,25.58,25.58,0,0,0-2.84-5.08,1.54,1.54,0,0,1-.33-1.45,1.44,1.44,0,0,1,1.86-.92,21.6,21.6,0,0,1,7.5,3.9l.35.27s0,0,.09,0c.12-.77.23-1.54.37-2.3A24.64,24.64,0,0,1,34.37,19a1.39,1.39,0,0,1,2.6.73,14.62,14.62,0,0,0,.73,4.64,24.25,24.25,0,0,1,1.21,6.37c0,.22,0,.43.06.64l.14.12a1.84,1.84,0,0,1,.24-.41,22,22,0,0,1,9.13-5.54,1.49,1.49,0,0,1,2,1.32A2.06,2.06,0,0,1,50.15,28a25.9,25.9,0,0,0-3.43,6.88c-.33,1.06-.57,2.16-.85,3.24a2.85,2.85,0,0,0,0,.3L47,37.18l6.84-7.63A1.45,1.45,0,0,1,55.34,29a1.33,1.33,0,0,1,1.11,1.07,1.73,1.73,0,0,1-.05.93q-1.9,5.57-3.84,11.13A.82.82,0,1,1,51,41.55q1.71-5,3.43-9.92a.91.91,0,0,0,.07-.42l-.35.38c-3.43,3.83-6.83,7.68-10.3,11.47a13.76,13.76,0,0,1-9,4.54,31.2,31.2,0,0,1-3.35,0h-.3a2.53,2.53,0,0,0,.21.34A9.63,9.63,0,0,0,40.15,52,11,11,0,0,0,48,48.1a1.23,1.23,0,0,1,.49-.39.8.8,0,0,1,.84,1.3,24.23,24.23,0,0,1-2.13,2.05,12.31,12.31,0,0,1-8.32,2.61,23,23,0,0,1-2.56-.4,1.57,1.57,0,0,0-.61,0,12.73,12.73,0,0,1-15.15-8q-2.47-7.18-5-14.36a1,1,0,0,0-.08-.14Zm7.23-2.88.28.43a27.24,27.24,0,0,1,4.11,9.85,26,26,0,0,0,2.88,8,.78.78,0,0,0,.58.42,12.13,12.13,0,0,0,3.5.23c.94-.08,1.88-.28,2.8-.42A20.44,20.44,0,0,0,22.74,27.19Zm25.94,0-.27.07A20.43,20.43,0,0,0,36.8,37.35a.72.72,0,0,0,0,.54,21.33,21.33,0,0,1,1.42,4.69c.13.77.24,1.56.36,2.36a3.17,3.17,0,0,0,.37-.16,13.4,13.4,0,0,0,3.84-2.84,3.42,3.42,0,0,0,.91-1.6c.16-.67.38-1.33.51-2a27.67,27.67,0,0,1,2.64-7.87C47.4,29.36,48.06,28.29,48.68,27.22ZM33.44,52l-.4-.27a10.38,10.38,0,0,1-2.87-2.81c-.53-.8-1-1.66-1.44-2.49a26.86,26.86,0,0,1-2.25-5,1.81,1.81,0,0,0-.33-.57q-3.67-4.12-7.37-8.24l-1.3-1.44a.54.54,0,0,0,0,.29l2.4,6.9c.77,2.24,1.44,4.52,2.35,6.7A10.83,10.83,0,0,0,31.33,52,16.39,16.39,0,0,0,33.44,52Zm1.94-31.37h-.1c-.25.49-.51,1-.75,1.45a23.55,23.55,0,0,0-2.28,8.51,1.1,1.1,0,0,0,.34,1,9.48,9.48,0,0,1,1,1.17c.74,1,1.44,2,2.15,3,.47-.71,1-1.46,1.47-2.21a.78.78,0,0,0,.07-.35,21.84,21.84,0,0,0-.64-6.49C36.17,24.69,35.39,22.75,35.38,20.64Z"/><path class="cls-2" d="M49.77,45.36a.77.77,0,0,1,.81-.79.79.79,0,0,1,.8.77.82.82,0,0,1-.8.83A.79.79,0,0,1,49.77,45.36Z"/></g></g></svg>