<svg xmlns="http://www.w3.org/2000/svg" viewBox="0 0 69.83 69.89"><defs><style>.cls-1{fill:#e9511c;}</style></defs><g id="Layer_2" data-name="Layer 2"><g id="Layer_1-2" data-name="Layer 1"><path class="cls-1" d="M32.85,69.89c-1-.13-2-.25-3-.4A34.29,34.29,0,0,1,9.46,58.84,33.56,33.56,0,0,1,.37,40C-1.17,28.63,2.12,18.82,9.91,10.5l.37-.34,1.5,1.57A32.49,32.49,0,0,0,2.17,35.19a31.83,31.83,0,0,0,6.47,19.3A32.68,32.68,0,0,0,45.36,66,32.08,32.08,0,0,0,62.65,52.28a32.55,32.55,0,0,0,4.72-21.55l2.15-.31.31,2.07v5c-.15,1.07-.27,2.15-.45,3.22A34.94,34.94,0,0,1,40,69.48c-1,.16-2.06.27-3.09.41Z"/><path class="cls-1" d="M22.1,50.4l1.52,1.49L17.9,57.57C27,64.94,43,66.18,54.29,55.63a28.23,28.23,0,0,0,3.39-37.52L39.8,36A6.65,6.65,0,0,1,43,37.24a3.81,3.81,0,0,1,0,6.32,6.35,6.35,0,0,1-7.5,0,13.47,13.47,0,0,1-1.62-1.76L25.79,50l-1.61-1.84a2.42,2.42,0,0,0,.46-.32L56.49,16c1.1-1.1,1.54-1.08,2.49.13a29.84,29.84,0,0,1,6.44,20.6A30.41,30.41,0,0,1,41.36,64.82a29.81,29.81,0,0,1-25.63-6c-.69-.54-.83-1.18-.28-1.74C17.65,54.81,19.88,52.6,22.1,50.4Zm17.18-7.59a14.49,14.49,0,0,0,2.51-1.1,1.56,1.56,0,0,0,0-2.64,4.34,4.34,0,0,0-5.06,0,1.58,1.58,0,0,0,0,2.69A15.27,15.27,0,0,0,39.28,42.81Z"/><path class="cls-1" d="M4.24,34.9A30.55,30.55,0,0,1,27,5.41C37.48,2.73,46.9,5,55.14,12c.9.76.91,1.33.08,2.16l-41,41c-.9.9-1.41.87-2.25-.09A30.22,30.22,0,0,1,4.66,39.5C4.42,38,4.37,36.43,4.24,34.9ZM13.05,53l39.89-39.9A28.34,28.34,0,0,0,13.05,53Z"/><path class="cls-1" d="M28.77,50.21l.81-2c1.12.28,2.21.51,3.25.85a1.5,1.5,0,0,1,.73.81c.35.84.6,1.71.92,2.56a1.26,1.26,0,0,1-.5,1.65,1.36,1.36,0,0,0-.58,1.72,1.64,1.64,0,0,0,1.64,1,1.57,1.57,0,0,0,1.42-1.27,1.4,1.4,0,0,0-.6-1.42c-.75-.59-.83-.86-.52-1.75s.58-1.62.85-2.44a1.37,1.37,0,0,1,1.17-1A13.63,13.63,0,0,0,43,46.55a1.38,1.38,0,0,1,1.54-.11c.79.39,1.58.79,2.38,1.16a1.21,1.21,0,0,1,.8,1.52,1.38,1.38,0,0,0,.76,1.59,1.62,1.62,0,0,0,1.82-.35,1.58,1.58,0,0,0,.3-1.82A1.39,1.39,0,0,0,49,47.81a1.16,1.16,0,0,1-1.43-.71c-.41-.84-.81-1.68-1.22-2.51a1.33,1.33,0,0,1,.1-1.47,13.7,13.7,0,0,0,2.37-5.74,1.38,1.38,0,0,1,1-1.17c.82-.26,1.62-.56,2.44-.83s1.14-.2,1.7.51a1.41,1.41,0,0,0,1.67.57,1.65,1.65,0,0,0,1.06-1.53,1.62,1.62,0,0,0-1.09-1.5A1.4,1.4,0,0,0,54,34c-.61.75-.87.84-1.75.54s-1.69-.53-2.49-.89a1.69,1.69,0,0,1-.83-.88c-.33-1-.53-2-.8-3.1l2-.81c.24.8.49,1.54.7,2.3a1.48,1.48,0,0,0,2.11.78,3.63,3.63,0,0,1,4.43-.06,3.87,3.87,0,0,1,1.32,4.39A3.61,3.61,0,0,1,55,38.73a6.54,6.54,0,0,1-2.11-.83c-.55-.3-1.85.1-2,.72a16.37,16.37,0,0,1-2.06,5,1.64,1.64,0,0,0,.91,2A3.63,3.63,0,0,1,53,49a3.93,3.93,0,0,1-2.89,4,3.64,3.64,0,0,1-4.62-3.18.87.87,0,0,0-.37-.57A1.85,1.85,0,0,0,43,49.15a29.7,29.7,0,0,1-4.33,1.75A1.66,1.66,0,0,0,37.88,53,3.58,3.58,0,0,1,38,57.4a3.85,3.85,0,0,1-4.43,1.35,3.57,3.57,0,0,1-2.46-3.68A6.17,6.17,0,0,1,31.94,53a1.76,1.76,0,0,0-.74-2.05C30.41,50.7,29.64,50.46,28.77,50.21Z"/><path class="cls-1" d="M69.13,28.22l-2,.38C64.21,16.69,57.32,8.2,45.72,4.12s-22.29-1.74-32,5.76L12.38,8.31c7.85-7,21.13-10.84,33.93-6.4A34.77,34.77,0,0,1,69.13,28.22Z"/><path class="cls-1" d="M45.83,36c0-.17,0-.3,0-.43V33.9H48V36Z"/><path class="cls-1" d="M22,41.1,20,42c-.37-1.15-.74-2.22-1.06-3.3a1.57,1.57,0,0,0-2.1-.76,3.61,3.61,0,0,1-5-.41,3.88,3.88,0,0,1,0-5.21,3.6,3.6,0,0,1,5-.39,1.59,1.59,0,0,0,2.08-.72A16.52,16.52,0,0,1,21,26.28a1.52,1.52,0,0,0-.95-2,3.65,3.65,0,0,1-3.27-3.79,3.94,3.94,0,0,1,3.68-3.72,3.65,3.65,0,0,1,3.83,3.3,1.54,1.54,0,0,0,2,.91,16.44,16.44,0,0,1,4.81-2,1.48,1.48,0,0,0,.8-2.1,3.62,3.62,0,0,1-.07-4.43,3.86,3.86,0,0,1,4.38-1.34,3.6,3.6,0,0,1,2.49,3.73,5.43,5.43,0,0,1-.79,2.05,1.61,1.61,0,0,0,.8,2.09c1.08.32,2.14.69,3.28,1.06L41,22c-1.36-.37-2.67-.69-3.95-1.11a1.66,1.66,0,0,1-.87-.84c-.37-.83-.6-1.71-.92-2.56a1.27,1.27,0,0,1,.52-1.65,1.37,1.37,0,0,0,.57-1.72,1.65,1.65,0,0,0-1.56-1,1.6,1.6,0,0,0-1.48,1.2A1.4,1.4,0,0,0,34,15.86c.7.54.79.84.5,1.7s-.56,1.58-.81,2.38A1.4,1.4,0,0,1,32.45,21a13.37,13.37,0,0,0-5.67,2.34,1.42,1.42,0,0,1-1.59.12c-.75-.38-1.5-.75-2.27-1.1a1.27,1.27,0,0,1-.86-1.56,1.37,1.37,0,0,0-.7-1.56,1.49,1.49,0,0,0-1.72.15,1.54,1.54,0,0,0-.59,1.7,1.33,1.33,0,0,0,1.55,1,1.5,1.5,0,0,1,1.83,1.1,22.1,22.1,0,0,0,1,2,1.42,1.42,0,0,1-.12,1.59A13.54,13.54,0,0,0,21,32.5a1.37,1.37,0,0,1-1,1.16c-.84.27-1.68.56-2.5.87A1.26,1.26,0,0,1,15.78,34a1.37,1.37,0,0,0-1.72-.59,1.64,1.64,0,0,0-1,1.64,1.56,1.56,0,0,0,1.26,1.42,1.39,1.39,0,0,0,1.42-.6c.6-.75.86-.83,1.75-.52s1.66.6,2.5.88a1.31,1.31,0,0,1,.91,1C21.25,38.52,21.6,39.76,22,41.1Z"/><path class="cls-1" d="M30.53,29.45a3.28,3.28,0,1,1-3.25-3.24A3.25,3.25,0,0,1,30.53,29.45Zm-3.31,1.12a1.15,1.15,0,0,0,1.12-1.07,1.17,1.17,0,0,0-1.09-1.1,1.15,1.15,0,0,0-1.08,1A1.13,1.13,0,0,0,27.22,30.57Z"/><path class="cls-1" d="M34.84,25.11H32.76V23h2.08Z"/><path class="cls-1" d="M25,37.1h-2.1V35H25Z"/></g></g></svg>