<svg xmlns="http://www.w3.org/2000/svg" viewBox="0 0 72 72"><defs><style>.cls-1{fill:none;stroke:#e9511c;stroke-miterlimit:10;stroke-width:2px;stroke-dasharray:2 2;}.cls-2{fill:#e9511c;}</style></defs><g id="Layer_2" data-name="Layer 2"><g id="Layer_1-2" data-name="Layer 1"><circle class="cls-1" cx="36" cy="36" r="35"/><path class="cls-2" d="M36,58.28c-5.45,0-14-8.46-18.11-21.12a.7.7,0,0,1,1.29-.53.36.36,0,0,1,0,.11C23.06,48.63,31.11,56.88,36,56.88c7.13,0,18.32-14.4,18.88-32.31a7,7,0,0,1-5.45-5.45H22.57a7,7,0,0,1-5.45,5.45,44.33,44.33,0,0,0,1.47,9.86.7.7,0,1,1-1.26.61.77.77,0,0,1-.07-.26A45.52,45.52,0,0,1,15.72,24a.69.69,0,0,1,.63-.7,5.62,5.62,0,0,0,4.9-5,.69.69,0,0,1,.7-.63h28.1a.69.69,0,0,1,.7.63,5.62,5.62,0,0,0,4.9,5,.69.69,0,0,1,.63.7C55.93,43.52,43.76,58.28,36,58.28Z"/><path class="cls-2" d="M37,45a9.79,9.79,0,1,1,9.79-9.79A9.79,9.79,0,0,1,37,45Zm0-18.18a8.39,8.39,0,1,0,8.39,8.39A8.39,8.39,0,0,0,37,26.81Z"/><path class="cls-2" d="M36.28,26.81a.7.7,0,0,1-.7-.7V24A.7.7,0,0,1,37,24v2.09A.7.7,0,0,1,36.28,26.81Z"/><path class="cls-2" d="M42.92,29a.71.71,0,0,1-.69-.71.77.77,0,0,1,.2-.48l1.47-1.47a.7.7,0,0,1,1,.14.69.69,0,0,1,0,.84l-1.47,1.47A.69.69,0,0,1,42.92,29Z"/><path class="cls-2" d="M48.17,35.9h-2.1a.7.7,0,1,1,0-1.4h2.1a.7.7,0,1,1,0,1.4Z"/><path class="cls-2" d="M44.74,44a.67.67,0,0,1-.49-.21l-1.47-1.46a.7.7,0,0,1,.14-1,.69.69,0,0,1,.84,0l1.47,1.46a.7.7,0,0,1,0,1A.67.67,0,0,1,44.74,44Z"/><path class="cls-2" d="M35.79,47.58a.7.7,0,0,1-.7-.7v-2.1a.7.7,0,1,1,1.4,0v2.1A.7.7,0,0,1,35.79,47.58Z"/><path class="cls-2" d="M28.17,44.29a.69.69,0,0,1-.69-.71.67.67,0,0,1,.2-.48l1.47-1.46a.69.69,0,0,1,1,.14.72.72,0,0,1,0,.84l-1.47,1.46A.67.67,0,0,1,28.17,44.29Z"/><path class="cls-2" d="M27.19,35.9h-2.1a.7.7,0,1,1,0-1.4h2.1a.7.7,0,1,1,0,1.4Z"/><path class="cls-2" d="M29.36,30a.69.69,0,0,1-.49-.21L27.4,28.28a.7.7,0,0,1,.14-1,.72.72,0,0,1,.84,0l1.47,1.47a.71.71,0,0,1,0,1A.72.72,0,0,1,29.36,30Z"/><path class="cls-2" d="M39.08,33.11A2.1,2.1,0,1,1,41.17,31,2.1,2.1,0,0,1,39.08,33.11Zm0-2.8a.7.7,0,1,0,0,1.4.7.7,0,0,0,0-1.4Z"/><path class="cls-2" d="M33,33.18A.75.75,0,0,1,32.5,33,2.1,2.1,0,1,1,35,29.61a2.09,2.09,0,0,1,.42.42.69.69,0,0,1-.26.95.68.68,0,0,1-.65,0,.7.7,0,0,0-1,0,.77.77,0,0,0-.2.48.75.75,0,0,0,.21.49.7.7,0,0,1,0,1,.77.77,0,0,1-.48.2Z"/><path class="cls-2" d="M41.38,39.61A2.1,2.1,0,0,1,39.92,39a.7.7,0,0,1,.83-1.12.62.62,0,0,1,.14.14.69.69,0,0,0,1-1A.7.7,0,0,1,42,36a.72.72,0,0,1,.84,0,2.1,2.1,0,0,1-1.47,3.57Z"/><path class="cls-2" d="M34.18,40.8a2.8,2.8,0,0,1,0-5.6.7.7,0,0,1,0,1.4,1.4,1.4,0,1,0,1,.42.7.7,0,0,1,.14-1,.72.72,0,0,1,.84,0,2.8,2.8,0,0,1-2,4.76Z"/></g></g></svg>