<svg xmlns="http://www.w3.org/2000/svg" viewBox="0 0 72 72"><defs><style>.cls-1{fill:none;stroke:#e9511c;stroke-miterlimit:10;stroke-width:2px;stroke-dasharray:2 2;}.cls-2{fill:#e9511c;}</style></defs><g id="Layer_2" data-name="Layer 2"><g id="Layer_1-2" data-name="Layer 1"><circle class="cls-1" cx="36" cy="36" r="35"/><path class="cls-2" d="M35.68,56.93c-.77-.3-1.55-.56-2.31-.9A25.53,25.53,0,0,1,18.7,39.47a23.5,23.5,0,0,1-1-6.66c0-1.86,0-3.71,0-5.56a1.19,1.19,0,0,1,1-1.29,6.55,6.55,0,0,0,5-5.46,7.3,7.3,0,0,0,.08-.93,1.12,1.12,0,0,1,1-1.18c1.65-.32,3.3-.66,5-.9a45.08,45.08,0,0,1,7.25-.41,50.25,50.25,0,0,1,10.23,1.28,1.19,1.19,0,0,1,1.06,1.28A6.61,6.61,0,0,0,53.31,26a1.18,1.18,0,0,1,1,1.27c0,1.84,0,3.68,0,5.52a25.54,25.54,0,0,1-9.43,19.51,24.5,24.5,0,0,1-8.22,4.52l-.32.14ZM26.07,20.49a9,9,0,0,1-5.74,7.41.41.41,0,0,0-.3.46c0,1.32,0,2.65,0,4a21.81,21.81,0,0,0,.65,5.46,23.06,23.06,0,0,0,15,16.62.89.89,0,0,0,.58,0,23.06,23.06,0,0,0,13-11.31,22,22,0,0,0,2.52-8.85c.13-2,.07-4,.1-6,0-.27-.13-.32-.32-.39a8.57,8.57,0,0,1-3.05-2,9.07,9.07,0,0,1-2.65-5.43A46.51,46.51,0,0,0,26.07,20.49Z"/><path class="cls-2" d="M37.17,24.94v2.4a8.32,8.32,0,0,1,3.65,1.51l1.76-1.76a5.73,5.73,0,0,1-.51-.41A1.18,1.18,0,1,1,43.73,25c.9.89,1.8,1.79,2.69,2.7a1.15,1.15,0,0,1,0,1.67,1.17,1.17,0,0,1-1.7,0,3.77,3.77,0,0,1-.42-.51l-1.76,1.75a8.38,8.38,0,0,1,1.5,3.65H46.5v-.77a1.15,1.15,0,0,1,1.16-1.16,1.14,1.14,0,0,1,1.17,1.15q0,2,0,3.93a1.13,1.13,0,0,1-1.16,1.15,1.15,1.15,0,0,1-1.17-1.15v-.77H44.09a8.28,8.28,0,0,1-1.5,3.63L44.35,42a4.58,4.58,0,0,1,.41-.51,1.17,1.17,0,1,1,1.67,1.65q-1.34,1.37-2.7,2.7a1.17,1.17,0,1,1-1.66-1.66c.16-.16.35-.29.5-.42l-1.71-1.72A19.5,19.5,0,0,1,39.1,43c-.61.25-1.25.4-1.92.61V46H38a1.17,1.17,0,0,1,0,2.33H34A1.17,1.17,0,0,1,34,46h.77v-2.4a8.4,8.4,0,0,1-3.63-1.5L29.4,43.81a5,5,0,0,1,.54.44,1.17,1.17,0,1,1-1.68,1.63q-1.36-1.34-2.7-2.7a1.15,1.15,0,0,1,0-1.67,1.17,1.17,0,0,1,1.7,0c.16.16.29.36.42.51l1.75-1.75a8.29,8.29,0,0,1-1.5-3.64H25.48c0,.25,0,.51,0,.76a1.17,1.17,0,0,1-2.33,0c0-1.31,0-2.62,0-3.93a1.17,1.17,0,0,1,2.33,0c0,.24,0,.49,0,.76h2.41a8.33,8.33,0,0,1,1.5-3.63l-1.73-1.73a6.78,6.78,0,0,1-.46.5,1.17,1.17,0,1,1-1.64-1.68c.89-.9,1.79-1.8,2.69-2.69a1.17,1.17,0,1,1,1.69,1.62,4.23,4.23,0,0,1-.53.45l1.71,1.72a19.62,19.62,0,0,1,1.77-.91c.6-.25,1.25-.41,1.91-.61V24.94H34a1.15,1.15,0,0,1-1.16-1.16A1.14,1.14,0,0,1,34,22.61H38a1.13,1.13,0,0,1,1.15,1.16A1.15,1.15,0,0,1,38,24.94Zm-7,10.5A5.84,5.84,0,1,0,36,29.61,5.86,5.86,0,0,0,30.16,35.44Z"/><path class="cls-2" d="M36,34.28a1.15,1.15,0,0,1-1.15-1.2A1.13,1.13,0,0,1,36,32a1.15,1.15,0,0,1,1.16,1.19A1.16,1.16,0,0,1,36,34.28Z"/><path class="cls-2" d="M34.82,37a1.17,1.17,0,1,1-1.13-1.18A1.15,1.15,0,0,1,34.82,37Z"/><path class="cls-2" d="M39.49,37a1.17,1.17,0,1,1-1.14-1.17A1.15,1.15,0,0,1,39.49,37Z"/></g></g></svg>