<svg xmlns="http://www.w3.org/2000/svg" viewBox="0 0 72 72"><defs><style>.cls-1{fill:none;stroke:#e9511c;stroke-miterlimit:10;stroke-width:2px;stroke-dasharray:2 2;}.cls-2{fill:#e9511c;}</style></defs><g id="Layer_2" data-name="Layer 2"><g id="Layer_1-2" data-name="Layer 1"><circle class="cls-1" cx="36" cy="36" r="35"/><path class="cls-2" d="M36.18,47a11.27,11.27,0,0,1,0-22.53h0A11.28,11.28,0,0,1,47.45,35.74a10.55,10.55,0,0,1-.06,1.13,11.09,11.09,0,0,1-.4,2.05,11.42,11.42,0,0,1-4,5.79A11.17,11.17,0,0,1,36.18,47Zm0-22a10.7,10.7,0,0,0-10.7,10.68v0a10.7,10.7,0,0,0,21.35,1.07,9.59,9.59,0,0,0,.06-1.07A10.73,10.73,0,0,0,36.18,25Z"/><path class="cls-2" d="M34,34a2.87,2.87,0,0,1-.57,1.16,3.87,3.87,0,0,1-4.56.71,4,4,0,0,1-2.52-3.36,2.71,2.71,0,0,1,.88-2.13,4,4,0,0,1,4.31-.45A3.84,3.84,0,0,1,34,34Z"/><path class="cls-2" d="M43.45,37.3a2.61,2.61,0,0,1-.08.56,2.8,2.8,0,0,1-1,1.49h0a4.19,4.19,0,0,1-3.68.67c-2.07-.54-3.4-2.31-3.05-4a.35.35,0,0,1,0-.13,2.56,2.56,0,0,1,.45-.94,4,4,0,0,1,4.2-1.21A3.82,3.82,0,0,1,43.45,37.3Z"/><path class="cls-2" d="M47.11,36.84a11.23,11.23,0,0,1-.39,2l-4.33.51a2.8,2.8,0,0,0,1-1.49,3.43,3.43,0,0,0,.08-.56Z"/><path class="cls-2" d="M36.13,34.93a2.92,2.92,0,0,0-.45.94l0,.13-2.18-.83A2.87,2.87,0,0,0,34,34Z"/><path class="cls-2" d="M34.3,42.34a5.18,5.18,0,0,1-3.12-.9A3.48,3.48,0,0,1,30,40l.53-.19-.26.09.26-.1c0,.11,1,2.59,5.31,1.83l.1.54A9.77,9.77,0,0,1,34.3,42.34Z"/><path class="cls-2" d="M29.94,40.19a2.16,2.16,0,0,1-1.05-.3l.29-.47-.14.23.14-.24a1.56,1.56,0,0,0,1,.2,1,1,0,0,0,.64-.52l.48.29a1.58,1.58,0,0,1-1,.77A1.34,1.34,0,0,1,29.94,40.19Z"/><path class="cls-2" d="M37,42.65a1.58,1.58,0,0,1-1.17-.44,2.06,2.06,0,0,1-.52-1.34h.56a1.51,1.51,0,0,0,.35.94,1,1,0,0,0,.78.28h0v.55Z"/><path class="cls-2" d="M40.17,24.62l-.16,0c-.47-.14-.63-.85-.51-2.22a23.86,23.86,0,0,1,.9-4.24c.67-2.24,2.1-5.94,3.22-5.61.48.14.64.85.51,2.23A22.81,22.81,0,0,1,43.24,19a23.54,23.54,0,0,1-1.58,4C41.09,24.1,40.61,24.62,40.17,24.62Zm3.29-11.56c-.05,0-.4.15-1.05,1.42a23,23,0,0,0-1.48,3.81,24,24,0,0,0-.86,4c-.14,1.42.07,1.73.11,1.77s.4-.15,1-1.42a23.15,23.15,0,0,0,1.48-3.82,22.92,22.92,0,0,0,.85-4C43.71,13.4,43.5,13.1,43.46,13.06Z"/><path class="cls-2" d="M28.94,59.5l-.15,0c-1.12-.34-.29-4.22.38-6.46s2.11-6,3.23-5.61c.47.14.64.85.51,2.22A23.57,23.57,0,0,1,32,53.87h0C31.37,56,30,59.5,28.94,59.5Zm3.29-11.56s-.4.15-1,1.42a24.08,24.08,0,0,0-1.48,3.82,22.92,22.92,0,0,0-.85,4c-.15,1.42.06,1.72.1,1.76s.4-.15,1.05-1.42a23,23,0,0,0,1.48-3.81h0a23.23,23.23,0,0,0,.86-4c.15-1.42-.07-1.72-.1-1.77Z"/><path class="cls-2" d="M28.72,25.53A3.48,3.48,0,0,1,27,24.62a23.62,23.62,0,0,1-3.07-3.05,22.82,22.82,0,0,1-2.53-3.51c-.67-1.2-.81-1.92-.44-2.24s1.06-.07,2.15.78a22.44,22.44,0,0,1,3.07,3c1.52,1.78,3.86,5,3,5.75A.56.56,0,0,1,28.72,25.53Zm-7.43-9.29c0,.06-.09.42.62,1.66a23.47,23.47,0,0,0,2.4,3.31,22.44,22.44,0,0,0,2.9,2.89c1.11.89,1.48.89,1.54.87s.09-.42-.62-1.65A23.84,23.84,0,0,0,25.72,20h0a23.23,23.23,0,0,0-2.89-2.9C21.72,16.22,21.34,16.23,21.29,16.24Z"/><path class="cls-2" d="M18.18,36.26c-2.34,0-6.3-.31-6.3-1.48s4-1.48,6.3-1.48,6.3.31,6.3,1.48S20.52,36.26,18.18,36.26Zm-5.74-1.48s.26.34,1.66.6a23,23,0,0,0,4.08.33,22.81,22.81,0,0,0,4.08-.33c1.4-.26,1.64-.55,1.66-.6s-.26-.34-1.66-.6a22.89,22.89,0,0,0-4.08-.32,22.85,22.85,0,0,0-4.07.32C12.7,34.44,12.47,34.73,12.44,34.78Z"/><path class="cls-2" d="M24,30.36h-.17a5.09,5.09,0,0,1-1.95-.59A5.18,5.18,0,0,1,20.3,28.5,1.33,1.33,0,0,1,20,27.09a1.32,1.32,0,0,1,1.35-.55,5,5,0,0,1,2,.6,5.09,5.09,0,0,1,1.6,1.26,1.33,1.33,0,0,1,.34,1.42A1.26,1.26,0,0,1,24,30.36ZM21.16,27.1c-.36,0-.61.08-.69.24s0,.49.27.82A5,5,0,0,0,23.9,29.8c.42,0,.73-.06.82-.24s0-.48-.27-.81A4.4,4.4,0,0,0,23,27.63h0a4.49,4.49,0,0,0-1.73-.53Z"/><path class="cls-2" d="M34.87,23.6c-.77,0-1.57-1-1.92-2.56s-.05-3,.77-3.22,1.73.9,2.12,2.54h0c.38,1.65,0,3-.78,3.22A.58.58,0,0,1,34.87,23.6Zm-1-5.24h-.07c-.42.1-.67,1.2-.35,2.54s1,2.23,1.44,2.13.67-1.21.36-2.55S34.34,18.36,33.91,18.36Z"/><path class="cls-2" d="M38,53.72c-.77,0-1.57-1-1.93-2.56a5.13,5.13,0,0,1-.09-2c.13-.66.44-1.08.86-1.18.83-.19,1.74.9,2.12,2.54h0a5.13,5.13,0,0,1,.09,2c-.13.66-.43,1.08-.86,1.18Zm-1-5.24H37c-.19.05-.36.33-.44.74A4.53,4.53,0,0,0,36.6,51c.32,1.34,1,2.23,1.45,2.13.2,0,.36-.32.44-.74a4.53,4.53,0,0,0-.08-1.81h0c-.3-1.27-.95-2.13-1.38-2.13Z"/><path class="cls-2" d="M44.85,26.33a.84.84,0,0,1-.51-.14A1.33,1.33,0,0,1,44,24.78a4.86,4.86,0,0,1,.81-1.87,4.94,4.94,0,0,1,1.43-1.45,1.31,1.31,0,0,1,1.45-.17c.7.47.52,1.88-.42,3.28h0A3.48,3.48,0,0,1,44.85,26.33Zm2.29-4.63a1.38,1.38,0,0,0-.65.23,4.44,4.44,0,0,0-1.26,1.29,4.49,4.49,0,0,0-.73,1.66c-.07.42,0,.73.15.85.36.24,1.34-.34,2.11-1.48h0c.77-1.13.94-2.26.58-2.5a.29.29,0,0,0-.2-.05Z"/><path class="cls-2" d="M26,51.1a.89.89,0,0,1-.5-.15c-.71-.47-.52-1.88.42-3.28s2.18-2.09,2.88-1.62a1.33,1.33,0,0,1,.39,1.41,5,5,0,0,1-.81,1.87A3.48,3.48,0,0,1,26,51.1Zm2.29-4.64A3.12,3.12,0,0,0,26.33,48c-.77,1.13-.94,2.26-.57,2.5s1.34-.33,2.11-1.47h0a4.46,4.46,0,0,0,.72-1.66c.07-.42,0-.73-.15-.85A.46.46,0,0,0,28.24,46.46Z"/><path class="cls-2" d="M50.66,34.19c-1.32,0-2.29-.45-2.38-1.16s1.09-1.62,2.76-1.82a5.17,5.17,0,0,1,2,.13c.64.21,1,.56,1.07,1s-.23.86-.81,1.21a5.15,5.15,0,0,1-2,.61A6,6,0,0,1,50.66,34.19Zm1.11-2.47a4.87,4.87,0,0,0-.66,0c-1.37.16-2.33.77-2.27,1.2s1.12.8,2.49.64h0a4.58,4.58,0,0,0,1.73-.53c.36-.22.57-.47.54-.67s-.28-.39-.68-.52A3.76,3.76,0,0,0,51.77,31.72Z"/><path class="cls-2" d="M21,42.23c-1.31,0-2.29-.46-2.37-1.17s1.08-1.62,2.76-1.82a4.92,4.92,0,0,1,2,.14c.65.2,1,.55,1.08,1s-.24.87-.81,1.21a5,5,0,0,1-2,.61h0A6.13,6.13,0,0,1,21,42.23Zm1.11-2.48c-.22,0-.44,0-.66,0-1.37.17-2.32.77-2.27,1.21s1.12.8,2.49.64h0a4.41,4.41,0,0,0,1.73-.54c.37-.22.57-.47.55-.67s-.28-.39-.69-.52A4,4,0,0,0,22.09,39.75Z"/><path class="cls-2" d="M49.63,46.36h-.28a5,5,0,0,1-1.93-.68c-1.46-.84-2.24-2-1.82-2.76s1.85-.65,3.3.19a4.82,4.82,0,0,1,1.55,1.34,1.33,1.33,0,0,1,.27,1.43A1.16,1.16,0,0,1,49.63,46.36ZM46.7,43c-.31,0-.52.07-.61.22-.22.38.43,1.31,1.62,2h0a4.56,4.56,0,0,0,1.7.61c.43,0,.74,0,.84-.21s0-.48-.24-.83a4.53,4.53,0,0,0-1.38-1.17A4.07,4.07,0,0,0,46.7,43Z"/><path class="cls-2" d="M16.33,51.07a.69.69,0,0,1-.6-.24c-.29-.4,0-1.06,1-2.07A23.13,23.13,0,0,1,20,46a22.21,22.21,0,0,1,3.72-2.22c1.26-.57,2-.65,2.27-.24.68,1-2.36,3.51-4.26,4.87C20.15,49.49,17.58,51.07,16.33,51.07Zm-.14-.57s.41.13,1.7-.47a23.5,23.5,0,0,0,3.5-2.12,22.91,22.91,0,0,0,3.13-2.63c1-1,1-1.4,1-1.46s-.41-.12-1.7.48a22.59,22.59,0,0,0-3.51,2.11h0a21.53,21.53,0,0,0-3.12,2.64c-1,1-1,1.4-1,1.45Z"/><path class="cls-2" d="M47.24,57.48c-.41,0-1-.4-1.69-1.23a23.65,23.65,0,0,1-2.47-3.56,22.24,22.24,0,0,1-1.84-3.91c-.45-1.31-.45-2,0-2.28s1.05.12,2,1.16a26.38,26.38,0,0,1,4.31,7.46c.44,1.31.45,2,0,2.29A.55.55,0,0,1,47.24,57.48ZM41.5,47c0,.05-.16.4.31,1.74a22.29,22.29,0,0,0,1.76,3.69h0a22.38,22.38,0,0,0,2.32,3.38c.93,1.08,1.29,1.13,1.35,1.13s.16-.39-.31-1.74a23.12,23.12,0,0,0-1.76-3.69,22.24,22.24,0,0,0-2.32-3.37C41.92,47,41.55,47,41.5,47Z"/><path class="cls-2" d="M58.45,42.1l-.56,0a23.18,23.18,0,0,1-4.26-.73h0a23.43,23.43,0,0,1-4.09-1.43c-1.24-.61-1.77-1.11-1.64-1.59.3-1.13,4.21-.44,6.47.15a22.63,22.63,0,0,1,4.09,1.43c1.24.6,1.77,1.1,1.64,1.58S59.47,42.1,58.45,42.1Zm-4.68-1.29a23.7,23.7,0,0,0,4,.71c1.42.1,1.72-.13,1.76-.17s-.17-.39-1.46-1a25.82,25.82,0,0,0-7.89-2.05c-1.43-.09-1.73.13-1.77.17s.17.39,1.46,1A22.74,22.74,0,0,0,53.77,40.81Z"/><path class="cls-2" d="M47,29.08a.79.79,0,0,1-.74-.31c-.58-1,2.69-3.26,4.72-4.43a23.11,23.11,0,0,1,3.91-1.85c1.31-.44,2-.45,2.28,0s-.12,1.06-1.16,2a23,23,0,0,1-3.55,2.47C50.81,27.83,48.26,29.08,47,29.08Zm-.25-.59s.39.16,1.74-.31a22.29,22.29,0,0,0,3.69-1.76,23,23,0,0,0,3.37-2.31c1.09-.94,1.14-1.3,1.14-1.36s-.39-.16-1.74.31a25.93,25.93,0,0,0-7.06,4.08C46.75,28.07,46.7,28.44,46.7,28.49Z"/><path class="cls-2" d="M27.28,30.39a2.72,2.72,0,0,0-.89,2.13l-.46-.69a11.1,11.1,0,0,1,1-2Z"/></g></g></svg>