<svg xmlns="http://www.w3.org/2000/svg" viewBox="0 0 72 72"><defs><style>.cls-1{fill:none;stroke:#e9511c;stroke-miterlimit:10;stroke-width:2px;stroke-dasharray:2 2;}.cls-2{fill:#e9511c;}</style></defs><g id="Layer_2" data-name="Layer 2"><g id="Layer_1-2" data-name="Layer 1"><circle class="cls-1" cx="36" cy="36" r="35"/><path class="cls-2" d="M28.85,15a.9.9,0,0,0-.9.9V26.26l-2.95-3a.86.86,0,0,0-1.25,0,.88.88,0,0,0,0,1.25h0l5.1,5.09,5.09-5.09a.88.88,0,0,0-1.25-1.25h0l-2.95,3V15.89a.9.9,0,0,0-.89-.9Zm14.3,0a.9.9,0,0,0-.89.9V26.26l-2.95-3a.88.88,0,0,0-1.25,1.25h0l5.09,5.09,5.1-5.09a.88.88,0,0,0,0-1.25.86.86,0,0,0-1.25,0h0l-3,3V15.89a.9.9,0,0,0-.9-.9ZM36,25.09l-.72,1S34.12,27.69,33,29.65a27.18,27.18,0,0,0-2,4.29c-1.43-.26-2.77-.62-4.11-.89-.09-.27-.27-.54-.36-.8-.71-1.43-1.34-2.6-1.34-2.6l-.8-1.25-.81,1.34s-.71,1.25-1.34,2.59a4.77,4.77,0,0,0-.44,1,6.51,6.51,0,0,0-4.56,5.81V50.75A6,6,0,0,0,18.93,55a7.6,7.6,0,0,0,5.45,2C28,57,31.8,55.22,36,55.22S43.15,57,46.73,57c4.82,0,8-2.95,8-6.26V39.13c0-2.41-2-4.38-4.38-5.45a10.13,10.13,0,0,0-.62-1.35c-.72-1.43-1.34-2.59-1.34-2.59l-.81-1.34-.8,1.34S46.1,31,45.48,32.33c-.09.18-.18.45-.27.63a37.48,37.48,0,0,0-4.2,1,27.18,27.18,0,0,0-2-4.29,34.71,34.71,0,0,0-2.32-3.57Zm0,3.22a16,16,0,0,1,1.43,2.33c1.07,2,2.15,4.29,2.15,5.72A3.63,3.63,0,0,1,36,40.11a3.69,3.69,0,0,1-3.58-3.75c0-1.34,1.08-3.76,2.15-5.72A12.06,12.06,0,0,1,36,28.31ZM24.38,32.07a5.55,5.55,0,0,1,.54,1.07c.35.71.62,1.43.89,2a4.1,4.1,0,0,1,.36,1.34,1.79,1.79,0,0,1-3.58,0A4.46,4.46,0,0,1,23,35.2a18.1,18.1,0,0,1,.89-2A6.75,6.75,0,0,1,24.38,32.07Zm23.24.09a5.55,5.55,0,0,1,.54,1.07c.36.71.62,1.43.89,2a4.46,4.46,0,0,1,.36,1.25,1.79,1.79,0,0,1-3.58,0,4.46,4.46,0,0,1,.36-1.25,20.24,20.24,0,0,1,.89-2A3.73,3.73,0,0,1,47.62,32.16ZM44.4,35a3.67,3.67,0,0,0-.35,1.43,3.58,3.58,0,0,0,7.15,0v-.18A4.27,4.27,0,0,1,53,39.13V43.6c0,2-2.15,4.47-6.26,4.47-2.86,0-6-1.79-10.73-1.79s-8.76,1.79-11.62,1.79a5.73,5.73,0,0,1-4.2-1.43,4.18,4.18,0,0,1-1.17-3V39.13a4.44,4.44,0,0,1,1.88-3.31,1.53,1.53,0,0,0-.09.63,3.58,3.58,0,0,0,7.15,0,3.08,3.08,0,0,0-.26-1.25c.89.17,2,.44,2.95.62v.45a5.36,5.36,0,1,0,10.72,0v-.54C42.44,35.46,43.42,35.2,44.4,35Zm-9.29.35a.9.9,0,0,0-.9.9,1.89,1.89,0,0,0,1.79,2,.89.89,0,1,0,0-1.78h0c.09,0,0,0,0-.18a.85.85,0,0,0-.89-.9Zm-6.26,5.55a.89.89,0,1,0,.89.89A.84.84,0,0,0,28.85,40.92Zm14.3,0a.89.89,0,1,0,.9.89A.84.84,0,0,0,43.15,40.92ZM22.59,42.7a.9.9,0,1,0,.89.9A.84.84,0,0,0,22.59,42.7Zm26.82.9a.9.9,0,1,0,.89.89A.84.84,0,0,0,49.41,43.6Zm-23.24.89a.9.9,0,1,0,.89.9A.85.85,0,0,0,26.17,44.49Zm18.77,0a.9.9,0,1,0,.89.9A.84.84,0,0,0,44.94,44.49ZM53,47.62v3.13c0,2.06-2.15,4.47-6.26,4.47-2.86,0-6-1.79-10.73-1.79s-8.76,1.79-11.62,1.79a5.73,5.73,0,0,1-4.2-1.43,4.16,4.16,0,0,1-1.17-3V48a7.52,7.52,0,0,0,5.37,1.88c3.57,0,7.42-1.79,11.62-1.79s7.15,1.79,10.73,1.79A9,9,0,0,0,53,47.62Z"/></g></g></svg>