<svg xmlns="http://www.w3.org/2000/svg" viewBox="0 0 72 72"><defs><style>.cls-1,.cls-2{fill:none;stroke:#e9511c;stroke-width:2px;}.cls-1{stroke-miterlimit:10;stroke-dasharray:2 2;}</style></defs><g id="Layer_2" data-name="Layer 2"><g id="Layer_1-2" data-name="Layer 1"><circle class="cls-1" cx="36" cy="36" r="35"/><polyline class="cls-2" points="54.18 29.55 54.18 52.42 17.82 52.42 17.82 29.55"/><polyline class="cls-2" points="51.25 21.93 54.18 21.93 54.18 27.79 17.82 27.79 17.82 21.93 20.17 21.93"/><line class="cls-2" x1="21.93" y1="24.27" x2="21.93" y2="19.58"/><line class="cls-2" x1="21.93" y1="21.93" x2="23.69" y2="21.93"/><line class="cls-2" x1="25.45" y1="24.27" x2="25.45" y2="19.58"/><line class="cls-2" x1="25.45" y1="21.93" x2="27.2" y2="21.93"/><line class="cls-2" x1="28.96" y1="24.27" x2="28.96" y2="19.58"/><line class="cls-2" x1="28.96" y1="21.93" x2="30.72" y2="21.93"/><line class="cls-2" x1="32.48" y1="24.27" x2="32.48" y2="19.58"/><line class="cls-2" x1="32.48" y1="21.93" x2="34.24" y2="21.93"/><line class="cls-2" x1="36" y1="24.27" x2="36" y2="19.58"/><line class="cls-2" x1="36" y1="21.93" x2="37.76" y2="21.93"/><line class="cls-2" x1="39.52" y1="24.27" x2="39.52" y2="19.58"/><line class="cls-2" x1="39.52" y1="21.93" x2="41.28" y2="21.93"/><line class="cls-2" x1="43.04" y1="24.27" x2="43.04" y2="19.58"/><line class="cls-2" x1="43.04" y1="21.93" x2="44.8" y2="21.93"/><line class="cls-2" x1="46.55" y1="24.27" x2="46.55" y2="19.58"/><line class="cls-2" x1="46.55" y1="21.93" x2="48.31" y2="21.93"/><line class="cls-2" x1="50.07" y1="24.27" x2="50.07" y2="19.58"/><line class="cls-2" x1="50.07" y1="21.93" x2="51.83" y2="21.93"/><path class="cls-2" d="M43.27,37.17a7.73,7.73,0,0,1,.35,2.35A7.62,7.62,0,1,1,36,31.9a7.92,7.92,0,0,1,4.1,1.17"/><polyline class="cls-2" points="33.36 39.23 35.41 41.28 42.45 34.24"/></g></g></svg>