<svg xmlns="http://www.w3.org/2000/svg" viewBox="0 0 72 72"><defs><style>.cls-1{fill:none;stroke:#e9511c;stroke-miterlimit:10;stroke-width:2px;stroke-dasharray:2 2;}.cls-2{fill:#e9511c;}</style></defs><g id="Layer_2" data-name="Layer 2"><g id="Layer_1-2" data-name="Layer 1"><circle class="cls-1" cx="36" cy="36" r="35"/><path class="cls-2" d="M49.05,39.8c.29.94.61,1.8.81,2.68a7.24,7.24,0,0,1-4.8,8.65,7.05,7.05,0,0,1-9.17-6.68,9.74,9.74,0,0,1,.79-3.81H30.93c.17.68.35,1.3.48,1.93a7.39,7.39,0,0,1-4.13,8.3,7.08,7.08,0,0,1-9.85-5.76,9.17,9.17,0,0,1,.89-4.79l.25-.54c-1,0-1.93,0-2.85,0s-1.85.15-2.77.23a.6.6,0,0,1-.74-.51c-.07-.4.2-.63.58-.67.84-.09,1.69-.2,2.53-.21,1.35,0,2.69,0,4,.08.75,0,1,.45.59,1.09a8.77,8.77,0,0,0-1.36,5.06,5.92,5.92,0,1,0,11.78-1.24,8.48,8.48,0,0,0-.82-3c-.35-.74-.14-1.09.67-1.1l7.21-.1c.77,0,1,.37.65,1.07a9,9,0,0,0-1,3.28,5.86,5.86,0,0,0,5.5,6.52,6,6,0,0,0,6.23-6.93,10.11,10.11,0,0,0-1.17-3.47c-.39-.71-.18-1.08.64-1.14a45.58,45.58,0,0,1,8.58.19c.4,0,.68.31.62.64a.57.57,0,0,1-.68.52c-1.15-.09-2.3-.21-3.45-.25C51.92,39.77,50.48,39.8,49.05,39.8Z"/><path class="cls-2" d="M43,48.75a4.39,4.39,0,0,1-4.23-5.42,9.24,9.24,0,0,1,1.14-2.82,10.92,10.92,0,0,0,1.21-3.75,41.56,41.56,0,0,1,7-16.39,18.11,18.11,0,0,1,3.48-3.57c.32-.25.63-.41,1-.06s.12.64-.12.93a32.47,32.47,0,0,0-6.48,12.81,23.52,23.52,0,0,0-.7,7.47A5.58,5.58,0,0,0,45.93,40a10.75,10.75,0,0,1,1.26,3.08,4.5,4.5,0,0,1-2.82,5.35A13.27,13.27,0,0,1,43,48.75Zm3.18-23.12h.06a.76.76,0,0,0-.08.11,43.15,43.15,0,0,0-3.9,11.34,11.14,11.14,0,0,1-1.38,4.09,7.69,7.69,0,0,0-1,2.47,3.15,3.15,0,0,0,4,3.72,3.35,3.35,0,0,0,2.14-3.93,10.18,10.18,0,0,0-1.16-2.86,7.14,7.14,0,0,1-.8-2.28,20.52,20.52,0,0,1,.52-7.24C45.05,29.22,45.64,27.43,46.16,25.63Z"/><path class="cls-2" d="M28.8,44.24a4.34,4.34,0,0,1-8.62.8,4.93,4.93,0,0,1,.28-2.55,7.52,7.52,0,0,1,.8-1.78,9.36,9.36,0,0,0,1.29-3.57,41.36,41.36,0,0,1,6.93-16.62,17.59,17.59,0,0,1,3.6-3.71,1.07,1.07,0,0,1,.64-.25c.51.05.62.61.23,1.07a32.31,32.31,0,0,0-3.91,6,28.8,28.8,0,0,0-3.14,9.9,29.27,29.27,0,0,0-.12,4.59A4.94,4.94,0,0,0,27.44,40a8.88,8.88,0,0,1,1.29,3.37C28.76,43.67,28.78,44,28.8,44.24Zm-1.08-18.6a1.21,1.21,0,0,0-.11.19,42.09,42.09,0,0,0-3.81,11,12.74,12.74,0,0,1-1.61,4.66,7.05,7.05,0,0,0-.86,2.56A3.13,3.13,0,0,0,24.7,47.5a3.24,3.24,0,0,0,2.91-3.7,7.47,7.47,0,0,0-1.21-3.2,5.79,5.79,0,0,1-.87-2.8,26.5,26.5,0,0,1,.91-8.12C26.83,28.31,27.3,27,27.72,25.64Z"/><path class="cls-2" d="M14.24,36.11a1,1,0,0,1,1,.91,1,1,0,0,1-1,1,1,1,0,0,1-.94-1A.92.92,0,0,1,14.24,36.11Z"/><path class="cls-2" d="M18.14,36.11a.92.92,0,0,1,.93.94,1,1,0,1,1-1.91,0A1,1,0,0,1,18.14,36.11Z"/><path class="cls-2" d="M30.72,36.11a.93.93,0,0,1,.94.94,1,1,0,1,1-1.91,0A.93.93,0,0,1,30.72,36.11Z"/><path class="cls-2" d="M35.51,37a1,1,0,0,1-.91,1,1,1,0,0,1-1-1,1,1,0,0,1,.95-.93A.91.91,0,0,1,35.51,37Z"/><path class="cls-2" d="M49.73,34a.92.92,0,0,1,.91-1,1,1,0,0,1,1,1,1,1,0,0,1-1,.95A1,1,0,0,1,49.73,34Z"/><path class="cls-2" d="M54.52,33a1,1,0,0,1,1,.93,1,1,0,0,1-1,1,1,1,0,0,1-.93-1A.93.93,0,0,1,54.52,33Z"/><path class="cls-2" d="M49.64,37.07a1,1,0,0,1-1,.93,1,1,0,0,1-.94-1,1,1,0,0,1,1-.93A.91.91,0,0,1,49.64,37.07Z"/><path class="cls-2" d="M35.6,34a.92.92,0,0,1,.94-.93,1,1,0,0,1,1,.94,1,1,0,0,1-1,1A1,1,0,0,1,35.6,34Z"/><path class="cls-2" d="M38.41,36.11a.9.9,0,0,1,1,.91,1,1,0,0,1-1,1,1,1,0,0,1-.95-1A1,1,0,0,1,38.41,36.11Z"/><path class="cls-2" d="M17.09,34a1,1,0,0,1-.91,1,1,1,0,0,1-1-1,.94.94,0,0,1,1.88,0Z"/><path class="cls-2" d="M33.62,34a.95.95,0,1,1-1.89,0,.95.95,0,0,1,1.89,0Z"/><path class="cls-2" d="M53.49,37.05a1,1,0,0,1-.93,1,1,1,0,0,1-1-1,.94.94,0,0,1,1-.91A.9.9,0,0,1,53.49,37.05Z"/><path class="cls-2" d="M57.35,37.06A.94.94,0,1,1,55.47,37a.92.92,0,0,1,1-.89A.9.9,0,0,1,57.35,37.06Z"/></g></g></svg>