<svg xmlns="http://www.w3.org/2000/svg" viewBox="0 0 72 72"><defs><style>.cls-1{fill:none;stroke:#e9511c;stroke-miterlimit:10;stroke-width:2px;stroke-dasharray:2 2;}.cls-2{fill:#e9511c;}</style></defs><g id="Layer_2" data-name="Layer 2"><g id="Layer_1-2" data-name="Layer 1"><circle class="cls-1" cx="36" cy="36" r="35"/><path class="cls-2" d="M45.56,50.35c-.17-6.5-2.5-10.54-7.54-13.15.59-.24,1.2-.51,1.82-.81,4.79,2.87,7.14,7.33,7.31,14Zm-17.2-3.19a13.91,13.91,0,0,1,1-3.19H42.65a13.22,13.22,0,0,1,1,3.19ZM36,38a12.75,12.75,0,0,1,5.77,4.39H30.21A12.52,12.52,0,0,1,36,38ZM24.85,50.35c.28-10.47,6.14-14,11.27-15.84,6.46-2.37,9.24-6.12,9.44-12.86h1.59C46.94,29,43.67,33.44,36.66,36s-10,6.75-10.22,14.34Zm0-28.7h1.59c.18,6,2.43,9.63,7.48,12-.6.26-1.2.54-1.79.86-4.76-2.67-7.1-6.78-7.28-12.88ZM36,32.84a13.54,13.54,0,0,1-5.17-3.22H41.18A13.86,13.86,0,0,1,36,32.84Zm7.61-8A10.48,10.48,0,0,1,42.37,28H29.64a11.22,11.22,0,0,1-1.22-3.19ZM41.41,35.51c3.83-2.36,7.35-6.52,7.35-14.66a.8.8,0,0,0-.8-.8H44.77a.8.8,0,0,0-.8.8,22.34,22.34,0,0,1-.12,2.39H28.16A19.81,19.81,0,0,1,28,20.85a.8.8,0,0,0-.8-.8H24a.8.8,0,0,0-.8.8c0,6.74,2.43,11.52,7.34,14.6-4,2.62-7.34,7.1-7.34,15.7a.8.8,0,0,0,.8.8h3.19a.8.8,0,0,0,.8-.8c0-.86,0-1.64.11-2.39H43.86c.07.75.11,1.55.11,2.39a.8.8,0,0,0,.8.8H48a.8.8,0,0,0,.8-.8c0-7.23-2.43-12.34-7.35-15.64Z"/></g></g></svg>