<svg xmlns="http://www.w3.org/2000/svg" viewBox="0 0 71.82 72"><defs><style>.cls-1{fill:none;stroke:#e9511c;stroke-miterlimit:10;stroke-width:2px;stroke-dasharray:2 2;}.cls-2{fill:#e9511c;}</style></defs><g id="Layer_2" data-name="Layer 2"><g id="Layer_1-2" data-name="Layer 1"><path class="cls-1" d="M70.82,36a35,35,0,0,1-35,35c-46.43-1.84-46.42-68.16,0-70a35,35,0,0,1,35,35Z"/><path class="cls-2" d="M39,15.05c1.25.81,2.51,1.61,3.75,2.45,3,2,5.92,4,8.88,6.05a1.94,1.94,0,0,1,.56,3c-.53.79-1.07,1.57-1.63,2.39.31,0,.56,0,.81.09A1.94,1.94,0,0,1,53,31a1.6,1.6,0,0,0,.5,1.29A2.24,2.24,0,0,1,54.15,34c0,1.72,0,3.43,0,5.15v.49h.63A1.3,1.3,0,0,1,56.11,41v6.3a1.36,1.36,0,0,1-1.34,1.41h-.62v5.57A2.64,2.64,0,0,1,51.44,57H18.21a2.62,2.62,0,0,1-2.69-2.68V34a2.56,2.56,0,0,1,1.26-2.28.51.51,0,0,0,.29-.52A2.07,2.07,0,0,1,19.29,29c.42,0,.84,0,1.31,0,.08-.78.16-1.53.24-2.28.18-1.85.37-3.69.55-5.53,0-.38.08-.76.1-1.14a1.89,1.89,0,0,1,2-1.85c1.32.07,2.63.22,3.95.35l4.59.46.73.08c.41,0,.67.3.64.65a.63.63,0,0,1-.76.56l-1.83-.18-5.48-.55c-.6-.05-1.2-.12-1.79-.16s-.8.21-.86.75l-1,9.59c-.05.5-.09,1-.13,1.5.74.13.72.13.78-.57q.32-3.31.66-6.63a1.31,1.31,0,0,1,.83-1.12,3.77,3.77,0,0,0,1.75-1.43,1.28,1.28,0,0,1,1.24-.58c1.5.13,3,.29,4.51.45.45.05.69.31.65.67s-.37.58-.82.53c-1.43-.15-2.87-.3-4.31-.43a.5.5,0,0,0-.36.19,4.94,4.94,0,0,1-2,1.65.52.52,0,0,0-.25.36Q24,27.16,23.7,30c0,.41-.08.81-.13,1.27.94,0,1.85,0,2.76,0,.13,0,.28-.19.37-.32q5-7.26,9.9-14.53a3.14,3.14,0,0,1,1.51-1.35ZM16.74,52.65a15.55,15.55,0,0,0,0,1.82,1.87,1.87,0,0,0,.48.91,1.37,1.37,0,0,0,1.13.36H51.55a1.36,1.36,0,0,0,1.34-1.1,18.62,18.62,0,0,0,0-2H24.23a5.43,5.43,0,0,1-.57,0,.59.59,0,0,1,0-1.17,4.61,4.61,0,0,1,.53,0H52.9V48.67H48.24c-.51,0-1,0-1.55-.07a4.51,4.51,0,0,1,.39-9c1.79,0,3.58,0,5.36,0h.46V36.84H16.76v14.6H18.3c.56,0,1.12,0,1.68,0a.52.52,0,0,1,.54.55.54.54,0,0,1-.51.62,4,4,0,0,1-.49,0Zm0-17.09h36.2v-1.3c0-1.25-.52-1.77-1.76-1.77H18.48c-.11,0-.22,0-.32,0A1.45,1.45,0,0,0,16.73,34Zm16.55-4.31a3.63,3.63,0,0,0,.07-.39,4.92,4.92,0,0,1,9.74.11c0,.26.13.31.36.3.46,0,.93,0,1.39,0a.79.79,0,0,0,.48-.26c.69-1,1.34-2,2-2.93a.54.54,0,0,0,0-.63,4,4,0,0,1-.46-2.28.61.61,0,0,0-.31-.67q-2.91-2-5.81-4a.63.63,0,0,0-.74-.05,4,4,0,0,1-2.22.41.62.62,0,0,0-.69.33l-6.58,9.66-.23.37ZM54.9,40.84l-.34,0c-2.43,0-4.86,0-7.29,0a3.78,3.78,0,0,0-1,.15A3.3,3.3,0,0,0,44,44.7a3.33,3.33,0,0,0,3.32,2.75c2.39,0,4.78,0,7.16,0,.33,0,.43-.1.42-.42,0-1.48,0-2.95,0-4.42Zm-8.24-9.62a1,1,0,0,0,1.21-.45c1.08-1.65,2.21-3.27,3.32-4.9.41-.6.35-.93-.24-1.33l-11.76-8c-.63-.43-.95-.37-1.38.27l-9.6,14.08a3,3,0,0,0-.21.35c.79.11.79.11,1.19-.49L31.08,28c1.71-2.51,3.43-5,5.13-7.53a1.49,1.49,0,0,1,1.42-.78,3.81,3.81,0,0,0,2.18-.39,1.31,1.31,0,0,1,1.4.08c2.12,1.43,4.23,2.88,6.35,4.33A1.35,1.35,0,0,1,48.14,25a3.12,3.12,0,0,0,.34,1.9,1.58,1.58,0,0,1-.14,1.83C47.77,29.55,47.23,30.37,46.66,31.22Zm-12.11,0h7.3C42,29.69,40.26,28,38.4,27.91A3.69,3.69,0,0,0,34.55,31.25Zm17.22,0c0-.46,0-.67-.26-.87a3.71,3.71,0,0,0-1.78-.16l-.09.08-.64.95Zm-31.39,0,.1-1.06c-.45,0-.88,0-1.31,0-.63,0-.94.39-.85,1.06Z"/><path class="cls-2" d="M49.83,44.18a2.42,2.42,0,0,1-2.5,2.37,2.43,2.43,0,0,1,.12-4.86A2.42,2.42,0,0,1,49.83,44.18Zm-1.21,0a1.21,1.21,0,1,0-2.42,0,1.21,1.21,0,1,0,2.42,0Z"/></g></g></svg>