<svg xmlns="http://www.w3.org/2000/svg" viewBox="0 0 72 72"><defs><style>.cls-1{fill:none;stroke:#1d1d1b;stroke-miterlimit:10;stroke-width:2px;stroke-dasharray:2 2;}</style></defs><g id="Layer_2" data-name="Layer 2"><g id="Layer_1-2" data-name="Layer 1"><path d="M44.18,41.53v3.23l.12.11c0-.07,0-.17.07-.22a5.54,5.54,0,0,1,4.28-1.86h4.27a5.64,5.64,0,0,1-5.61,6.28H44.19v3.14H55.43v1.25H18.54a1.86,1.86,0,0,1-2-2c0-.25,0-.5,0-.75a2,2,0,0,1,1.3-2.2V45.86l-.27-.14a1.81,1.81,0,0,1-1-1.68c0-.43,0-.86,0-1.29a1.85,1.85,0,0,1,1.85-1.84H28.52a1.84,1.84,0,0,1,1.83,1.82,14.14,14.14,0,0,1-.08,2s0,0,0,.06a2,2,0,0,1,1.3,2.18,5,5,0,0,0,0,.55,2,2,0,0,1-1.3,2.15v2.56H42.88V51h-3a5.59,5.59,0,0,1-5.6-4.43,13.14,13.14,0,0,1-.19-1.85h4.37a5.56,5.56,0,0,1,4.22,1.82c.06.06.1.14.22.17V41.54a6.83,6.83,0,0,1-5.77-4.41A6.74,6.74,0,0,1,38.39,30c-.61-.46-1.22-.54-3-.36v1.2H26.62V17.08h8.75v1.23h2.24c.09,0,.18-.09.26-.15.46-.34.92-.66,1.35-1a4,4,0,0,1,2.27-.86c.93-.09,1.86-.24,2.79-.33a4.64,4.64,0,0,0,2.19-1,1.85,1.85,0,0,1,1.2-.42,1.6,1.6,0,0,1,1.51,1.51,4.44,4.44,0,0,1-1.13,3.32,2,2,0,0,0-.15.2h2.52a9.35,9.35,0,0,0,1.06,0,1.92,1.92,0,0,1,2,2.49,2,2,0,0,1,1.61.81,1.91,1.91,0,0,1,.35,1.29,2,2,0,0,1-2,1.72,1.93,1.93,0,0,1-1.89,2.5,1.92,1.92,0,0,1-.39,1.87,2,2,0,0,1-1.88.6,7,7,0,0,1-5.16,10.69Zm3.14-16.94h.47c1.85,0,3.71,0,5.56,0a1.14,1.14,0,0,0,.71-.3.62.62,0,0,0,0-.59,1,1,0,0,0-.68-.34c-1.9,0-3.79,0-5.69,0h-.41V22.08h3.85a5,5,0,0,0,.55,0,.65.65,0,0,0,.6-.62.66.66,0,0,0-.6-.62,1.69,1.69,0,0,0-.32,0h-6a.75.75,0,0,0-.64.26A2.78,2.78,0,0,1,43,22c-.84.06-1.69,0-2.54,0V20.82c.49,0,.95,0,1.4,0a2.67,2.67,0,0,0,2.46-1,.88.88,0,0,1,.56-.25,3.16,3.16,0,0,0,3.08-3.13.71.71,0,0,0-.19-.54c-.11-.07-.39,0-.54.12A6,6,0,0,1,45,17.11c-.84.14-1.68.26-2.52.33a4.41,4.41,0,0,0-3,1.13c-.21.2-.48.33-.69.52a1.79,1.79,0,0,1-1.45.49c-.64,0-1.27,0-1.91,0v8.78c.44,0,.85,0,1.27,0a3.94,3.94,0,0,1,2.57.58.53.53,0,0,0,.44,0,6.87,6.87,0,0,1,8.39.51c.09.08.19.19.29.19a13.53,13.53,0,0,0,1.56,0,.57.57,0,0,0,.52-.6.61.61,0,0,0-.52-.61,1.67,1.67,0,0,0-.39,0h-2.2V27.1H51.5c.51,0,.83-.25.82-.64s-.32-.62-.81-.62H47.32ZM43.55,40.28a5.65,5.65,0,1,0-5.66-5.62A5.68,5.68,0,0,0,43.55,40.28Zm-15.7-22c0,1.55-.05,3.05,0,4.55a3.12,3.12,0,0,0,6.24-.16c0-1.41,0-2.82,0-4.23a1.1,1.1,0,0,0,0-.16ZM21.56,42.18H20.3V43.4H19.06V42.16h-.39c-.65,0-.86.22-.87.88v.74c0,.68.21.89.89.89H28.3c.55,0,.79-.24.8-.78,0-.35,0-.71,0-1.06a.66.66,0,0,0-.68-.67h-.58v1.23H26.58v-1.2H25.32V43.4H24.07V42.19H22.81v1.2H21.56Zm-1.24,3.75h-.4c-.63,0-.86.22-.86.84v.78c0,.68.21.89.89.89H29.6a.67.67,0,0,0,.75-.75c0-.37,0-.73,0-1.1a.64.64,0,0,0-.64-.66h-.62v1.22H27.83V46H26.57v1.21H25.32V46H24.06v1.19H22.81V46H21.55v1.21H20.32Zm-1.27,3.76h-.37c-.66,0-.87.22-.88.87,0,.31,0,.62,0,.94a.64.64,0,0,0,.71.7h9.84a.94.94,0,0,0,.51-.17c.35-.27.37-1.94,0-2.16a3.7,3.7,0,0,0-1-.24v1.3H26.58V49.71H25.33v1.21H24.07v-1.2H22.81v1.21H21.56v-1.2H20.3v1.19H19.05Zm25.2-1.9c1.14,0,2.27.08,3.38,0a4.26,4.26,0,0,0,3.79-2.89,6.91,6.91,0,0,0,.21-.77c-1.31,0-2.58-.09-3.83,0A4.23,4.23,0,0,0,44.25,47.79Zm-8.79-1.93a2,2,0,0,0,0,.26,4.08,4.08,0,0,0,3.2,3.38,30.07,30.07,0,0,0,4.16.27,4.15,4.15,0,0,0-3.2-3.66A38.08,38.08,0,0,0,35.46,45.86Zm-7.6-16.28h6.23V25.83a4.44,4.44,0,0,1-6.23,0Z"/><path d="M41,31.5H42.9V30.26h1.24v1.2a1.88,1.88,0,0,1,1.53.8,8.22,8.22,0,0,1,.48,1.1H44.82c-.13-.54-.53-.64-1-.62s-1,0-1.49,0c0,.23,0,.45,0,.66A.64.64,0,0,0,43,34h1.21A1.86,1.86,0,0,1,46,35.86c0,.62,0,1.23,0,1.91H44.17V39H42.93V37.8A1.88,1.88,0,0,1,41.4,37a7.42,7.42,0,0,1-.48-1.09h1.33c.13.53.53.63,1,.61s1,0,1.49,0c0-.23,0-.45,0-.66a.64.64,0,0,0-.67-.59H42.9A1.85,1.85,0,0,1,41,33.4C41,32.78,41,32.17,41,31.5Z"/><path d="M32.86,22.7A1.88,1.88,0,1,1,31,20.82,1.86,1.86,0,0,1,32.86,22.7ZM31,22.08a.63.63,0,0,0,0,1.25.65.65,0,0,0,.63-.62A.65.65,0,0,0,31,22.08Z"/><circle class="cls-1" cx="36" cy="36" r="35"/></g></g></svg>