<svg xmlns="http://www.w3.org/2000/svg" viewBox="0 0 70 70.04"><g id="Layer_2" data-name="Layer 2"><g id="Layer_1-2" data-name="Layer 1"><path d="M30.33,70,26,69.76A78.77,78.77,0,0,1,7.31,66.61a16.84,16.84,0,0,1-5.15-2.45C.89,63.21-.11,62.09.08,60.34A4,4,0,0,1,1.65,57.7a17.55,17.55,0,0,1,6.4-3.1c1.26-.39,2.54-.7,3.84-1.05C4.27,44.29,2.35,34,6,22.48l2,.7c-3.08,9.49-2.06,18.39,3.67,26.6A27.73,27.73,0,0,0,26.91,60.59a39.57,39.57,0,0,1-3.11-4.12A16,16,0,0,1,32,33.53c1.31-.5,2.7-.78,4.06-1.16a13.31,13.31,0,0,0,9.46-9.55A13.89,13.89,0,0,0,42.18,8.41a12.71,12.71,0,0,0-8.29-3.75C30,4.3,26.46,5.48,23,7.05A28.16,28.16,0,0,0,9.09,20.75c-.07.15-.15.28-.26.49L6.9,20.36c5-9.93,12.75-16.2,23.72-17.67C43.18,1,53.28,5.67,60.55,16.06a29.06,29.06,0,0,1,5.1,19.15A30.41,30.41,0,0,1,58.1,53.43c2.28.76,4.57,1.42,6.78,2.28a13.63,13.63,0,0,1,3.39,2c2.21,1.78,2.2,4.12.06,6a13.34,13.34,0,0,1-4.65,2.53c-1.89.63-3.81,1.17-5.8,1.78l-.49-2.1c1-.27,2-.45,3-.8,1.85-.68,3.69-1.39,5.49-2.2a5.26,5.26,0,0,0,1.61-1.33,1.13,1.13,0,0,0,0-1.72,7.79,7.79,0,0,0-1.72-1.42,32.28,32.28,0,0,0-7.15-2.63,3.67,3.67,0,0,0-4,.9A28.11,28.11,0,0,1,39.4,63.56,30.17,30.17,0,0,1,14.23,55.8a1.29,1.29,0,0,0-1.34-.32,35.37,35.37,0,0,0-7.52,2.38,12.54,12.54,0,0,0-2.52,1.61c-1,.83-1,1.73,0,2.51a16.15,16.15,0,0,0,3.45,2,45.4,45.4,0,0,0,10.42,2.64,110.66,110.66,0,0,0,20.16,1.3c4.75-.11,9.5-.51,14.37-.79L51.56,69c-1.43.16-2.8.35-4.17.46-2.34.18-4.69.3-7,.46a4.24,4.24,0,0,0-.46.1ZM41.64,5.21c.55.46,1,.79,1.43,1.18,4.91,4.7,6.34,10.42,4.51,16.85a15.24,15.24,0,0,1-11,11.16,32,32,0,0,0-4.66,1.48A13.79,13.79,0,0,0,24,51.31c1,4.9,4.11,8.15,8.51,10.27a1.76,1.76,0,0,0,.65.14A26.74,26.74,0,0,0,41.46,61,28.6,28.6,0,0,0,63.24,28.36C61.67,19.1,56.53,12.23,48.3,7.71A25.4,25.4,0,0,0,41.64,5.21Z"/><path d="M70,2.05H68V0h2Z"/><path d="M70,14.36H68v-2h2Z"/><path d="M35,21.86a3.11,3.11,0,1,1,3.09-3.1A3.16,3.16,0,0,1,35,21.86Zm0-4.09a.94.94,0,0,0-1,.95.92.92,0,0,0,1,1,1,1,0,1,0,.06-2Z"/><path d="M6.17,10.21v-2h-2V6.16h2v-2H8.27v2h2V8.19h-2v2Z"/><path d="M61.8,10.22v-2h-2V6.16h2v-2h2.06v2h2V8.2h-2v2Z"/><path d="M17.06,13.65,18.28,15l-1.4,1.41L15.4,15.06Z"/><path d="M55.69,68.34l-2.08.37-.34-2,2-.37Z"/><path d="M18.53,12.16l1.75-1.28,1.15,1.73-1.6,1.17Z"/><path d="M2,2H0V0H2Z"/><path d="M2,12.35v2H0v-2Z"/><path d="M35,46.47a3.11,3.11,0,0,1,3.07,3.1A3.11,3.11,0,1,1,35,46.47Zm1,3.08a1,1,0,0,0-1-1,1,1,0,0,0,0,2A1,1,0,0,0,36,49.55Z"/><path d="M53,52.66,51.7,51.24l1.41-1.41,1.43,1.31Z"/><path d="M51.43,54.06l-1.75,1.27-1.16-1.72,1.61-1.18Z"/></g></g></svg>