<svg xmlns="http://www.w3.org/2000/svg" viewBox="0 0 70 70"><defs><style>.cls-1{fill:none;}</style></defs><g id="Layer_2" data-name="Layer 2"><g id="Layer_1-2" data-name="Layer 1"><circle class="cls-1" cx="35" cy="35" r="35"/><path d="M31.36,62.25,28,62a61.61,61.61,0,0,1-14.57-2.45,13.52,13.52,0,0,1-4-1.91,2.93,2.93,0,0,1-.4-5,13.66,13.66,0,0,1,5-2.42c1-.3,2-.54,3-.81-5.93-7.2-7.42-15.24-4.56-24.18l1.53.55c-2.39,7.38-1.6,14.31,2.86,20.7a21.62,21.62,0,0,0,11.85,8.4,31.06,31.06,0,0,1-2.41-3.2,12.46,12.46,0,0,1,6.39-17.85c1-.39,2.11-.6,3.16-.9a10.36,10.36,0,0,0,7.36-7.43A10.78,10.78,0,0,0,40.58,14.3a9.83,9.83,0,0,0-6.44-2.92,16.49,16.49,0,0,0-8.45,1.86A21.9,21.9,0,0,0,14.84,23.9c-.05.11-.12.22-.2.38l-1.5-.69C17,15.87,23.05,11,31.6,9.85c9.77-1.31,17.63,2.32,23.28,10.4a22.66,22.66,0,0,1,4,14.9A23.69,23.69,0,0,1,53,49.33c1.78.58,3.56,1.1,5.28,1.77a10.41,10.41,0,0,1,2.63,1.55c1.73,1.39,1.71,3.21,0,4.67a10.36,10.36,0,0,1-3.62,2c-1.47.49-3,.91-4.51,1.39L52.42,59c.79-.21,1.57-.35,2.31-.62,1.44-.52,2.87-1.08,4.27-1.71a4,4,0,0,0,1.26-1,.88.88,0,0,0,0-1.34,6,6,0,0,0-1.35-1.1,24.8,24.8,0,0,0-5.55-2,2.86,2.86,0,0,0-3.1.7,22,22,0,0,1-11.84,5.33,23.49,23.49,0,0,1-19.58-6.05,1,1,0,0,0-1-.24A27.65,27.65,0,0,0,12,52.77,10,10,0,0,0,10,54c-.78.65-.8,1.35,0,2a12.7,12.7,0,0,0,2.69,1.57,35.27,35.27,0,0,0,8.1,2.05,85,85,0,0,0,15.69,1c3.69-.08,7.39-.39,11.18-.61l.23,1.46c-1.12.12-2.18.27-3.25.35-1.82.14-3.65.24-5.47.36a2.33,2.33,0,0,0-.36.08Zm8.8-50.44c.44.35.8.61,1.12.91a12.38,12.38,0,0,1,3.51,13.12,11.88,11.88,0,0,1-8.59,8.68,25.11,25.11,0,0,0-3.63,1.15,10.73,10.73,0,0,0-6.1,12c.79,3.82,3.19,6.34,6.61,8a1.5,1.5,0,0,0,.52.1A21.08,21.08,0,0,0,40,55.25,22.26,22.26,0,0,0,57,29.82,21.8,21.8,0,0,0,45.35,13.75,19.53,19.53,0,0,0,40.16,11.81Z"/><path d="M62.23,9.35H60.67V7.75h1.56Z"/><path d="M62.23,18.93H60.67v-1.6h1.56Z"/><path d="M35,24.76a2.42,2.42,0,1,1,2.41-2.41A2.47,2.47,0,0,1,35,24.76Zm0-3.18a.77.77,0,1,0,.73.79A.72.72,0,0,0,35,21.58Z"/><path d="M12.57,15.69V14.14H11v-1.6h1.56V11H14.2v1.54h1.56v1.62H14.21v1.56Z"/><path d="M55.85,15.71V14.16H54.3V12.55h1.53V11h1.61v1.54H59v1.62H57.46v1.58Z"/><path d="M21.05,18.37,22,19.42,20.9,20.51l-1.15-1Z"/><path d="M51.1,60.93l-1.62.28-.27-1.59,1.59-.28Z"/><path d="M22.18,17.21l1.37-1,.89,1.35-1.25.9Z"/><path d="M9.3,9.33H7.77V7.79H9.3Z"/><path d="M9.3,17.36v1.53H7.77V17.36Z"/><path d="M35,43.91a2.42,2.42,0,0,1,2.4,2.41,2.42,2.42,0,1,1-4.84,0A2.42,2.42,0,0,1,35,43.91Zm.75,2.39a.76.76,0,0,0-.77-.77.78.78,0,0,0,0,1.55A.75.75,0,0,0,35.75,46.3Z"/><path d="M49,48.72l-1-1.1,1.1-1.09,1.11,1Z"/><path d="M47.78,49.81l-1.36,1-.9-1.34,1.25-.91Z"/></g></g></svg>