<svg xmlns="http://www.w3.org/2000/svg" viewBox="0 0 70 70"><defs><style>.cls-1{fill:none;}</style></defs><g id="Layer_2" data-name="Layer 2"><g id="Layer_1-2" data-name="Layer 1"><circle class="cls-1" cx="35" cy="35" r="35"/><path d="M31.76,59.31l-3-.19a55,55,0,0,1-13-2.19,12.15,12.15,0,0,1-3.58-1.7,2.86,2.86,0,0,1-1.44-2.66,2.78,2.78,0,0,1,1.09-1.82,12.16,12.16,0,0,1,4.44-2.16c.87-.27,1.76-.48,2.67-.73-5.29-6.42-6.62-13.59-4.07-21.57l1.37.49c-2.14,6.59-1.43,12.77,2.54,18.47a19.35,19.35,0,0,0,10.58,7.5,27.7,27.7,0,0,1-2.15-2.86A11.1,11.1,0,0,1,32.93,34c.91-.35,1.88-.54,2.82-.81a9.24,9.24,0,0,0,6.57-6.63,9.62,9.62,0,0,0-2.34-10,8.83,8.83,0,0,0-5.75-2.61,14.84,14.84,0,0,0-7.54,1.67A19.52,19.52,0,0,0,17,25.1a2.92,2.92,0,0,1-.18.33l-1.33-.61C19,17.93,24.34,13.58,32,12.56c8.72-1.17,15.73,2.07,20.78,9.28a20.25,20.25,0,0,1,3.54,13.29A21.14,21.14,0,0,1,51,47.78c1.59.53,3.18,1,4.71,1.58a9,9,0,0,1,2.35,1.39c1.54,1.23,1.53,2.86,0,4.16a9.15,9.15,0,0,1-3.23,1.75c-1.31.44-2.65.82-4,1.24l-.34-1.46c.71-.19,1.41-.31,2.06-.55,1.29-.47,2.57-1,3.81-1.53a3.82,3.82,0,0,0,1.13-.92.8.8,0,0,0,0-1.2,5.37,5.37,0,0,0-1.2-1,22.38,22.38,0,0,0-5-1.83,2.55,2.55,0,0,0-2.76.63,19.6,19.6,0,0,1-10.56,4.75,21,21,0,0,1-17.48-5.39.88.88,0,0,0-.92-.22,25,25,0,0,0-5.23,1.65A9.06,9.06,0,0,0,12.69,52c-.7.58-.72,1.2,0,1.75a11.21,11.21,0,0,0,2.39,1.39A31.21,31.21,0,0,0,22.32,57a77.21,77.21,0,0,0,14,.9c3.3-.08,6.59-.35,10-.55l.2,1.3c-1,.11-2,.25-2.9.32-1.63.12-3.25.21-4.88.32a1.83,1.83,0,0,0-.32.07Zm7.85-45c.38.32.71.55,1,.82a11,11,0,0,1,3.13,11.7,10.58,10.58,0,0,1-7.66,7.74,23.33,23.33,0,0,0-3.23,1,9.59,9.59,0,0,0-5.45,10.72,10,10,0,0,0,5.9,7.13,1.39,1.39,0,0,0,.46.09,18.48,18.48,0,0,0,5.74-.47A19.84,19.84,0,0,0,54.6,30.38,19.47,19.47,0,0,0,44.23,16,17.72,17.72,0,0,0,39.61,14.31Z"/><path d="M59.3,12.12H57.9V10.69h1.4Z"/><path d="M59.3,20.66H57.9V19.24h1.4Z"/><path d="M35,25.87a2.16,2.16,0,1,1,2.15-2.16A2.19,2.19,0,0,1,35,25.87ZM35,23a.66.66,0,0,0-.7.67.65.65,0,0,0,.66.7.64.64,0,0,0,.7-.66A.65.65,0,0,0,35,23Z"/><path d="M15,17.78V16.39h-1.4V15H15v-1.4h1.47v1.38h1.39v1.44H16.45v1.4Z"/><path d="M53.6,17.79V16.41H52.22V15h1.37V13.56H55v1.37h1.41v1.45H55v1.41Z"/><path d="M22.55,20.17l.84.93-1,1-1-.93Z"/><path d="M49.36,58.13l-1.44.26L47.68,57l1.42-.26Z"/><path d="M23.56,19.13l1.23-.88.79,1.2-1.11.8Z"/><path d="M12.07,12.09H10.71V10.72h1.36Z"/><path d="M12.07,19.27v1.36H10.7V19.27Z"/><path d="M35,43a2.16,2.16,0,0,1,2.14,2.15,2.16,2.16,0,1,1-4.31,0A2.15,2.15,0,0,1,35,43Zm.67,2.13A.68.68,0,0,0,35,44.4a.69.69,0,0,0,0,1.38A.68.68,0,0,0,35.67,45.08Z"/><path d="M47.48,47.24l-.89-1,1-1,1,.91Z"/><path d="M46.4,48.21l-1.21.89-.8-1.2,1.11-.81Z"/></g></g></svg>