<svg width="40" height="39" viewBox="0 0 40 39" fill="none" xmlns="http://www.w3.org/2000/svg">
<path d="M12.375 9.10051L1.99998 19.4755L11.8995 29.375" stroke="#F46440" stroke-width="2"/>
<path d="M29.6251 36.5435C29.6251 36.3882 29.5958 36.2505 29.5372 36.1304C29.4756 36.0103 29.3907 35.9165 29.2823 35.8491C29.171 35.7788 29.0406 35.7422 28.8912 35.7393V34.5483C29.2252 34.5513 29.5225 34.6406 29.7833 34.8164C30.0411 34.9922 30.2447 35.228 30.3941 35.5239C30.5406 35.8198 30.6138 36.1509 30.6138 36.5171C30.6138 36.8862 30.5523 37.2085 30.4293 37.4839C30.3062 37.7563 30.1363 37.9834 29.9195 38.165C29.6998 38.3467 29.4449 38.4829 29.1548 38.5737C28.8619 38.6646 28.5484 38.71 28.2144 38.71H28.087C27.7501 38.71 27.4366 38.6646 27.1465 38.5737C26.8536 38.4829 26.5987 38.3467 26.3819 38.165C26.1622 37.9834 25.9908 37.7563 25.8677 37.4839C25.7447 37.2114 25.6832 36.8921 25.6832 36.5259C25.6832 36.1362 25.7579 35.7949 25.9073 35.502C26.0567 35.2061 26.2706 34.9746 26.5489 34.8076C26.8243 34.6377 27.1509 34.5513 27.5289 34.5483V35.7393C27.3707 35.7422 27.2271 35.7759 27.0982 35.8403C26.9693 35.9019 26.8668 35.9927 26.7906 36.1128C26.7115 36.23 26.6719 36.375 26.6719 36.5479C26.6719 36.7324 26.7115 36.8833 26.7906 37.0005C26.8668 37.1177 26.9722 37.2085 27.107 37.2729C27.2388 37.3374 27.3897 37.3828 27.5596 37.4092C27.7266 37.4326 27.9024 37.4443 28.087 37.4443H28.2144C28.399 37.4443 28.5762 37.4326 28.7462 37.4092C28.9161 37.3857 29.067 37.3418 29.1988 37.2773C29.3306 37.21 29.4346 37.1177 29.5108 37.0005C29.587 36.8833 29.6251 36.731 29.6251 36.5435ZM28.5396 31.4458V32.9355L27.709 32.9443V31.7139C27.709 31.5498 27.6929 31.4165 27.6607 31.314C27.6255 31.2114 27.5743 31.1367 27.5069 31.0898C27.4366 31.04 27.3516 31.0151 27.252 31.0151C27.1641 31.0151 27.0894 31.0312 27.0279 31.0635C26.9634 31.0928 26.9107 31.1382 26.8697 31.1997C26.8287 31.2612 26.7994 31.3389 26.7818 31.4326C26.7613 31.5234 26.751 31.6304 26.751 31.7534V32.4653H30.5259V33.731H25.7711V31.7534C25.7711 31.4429 25.7989 31.1646 25.8546 30.9185C25.9073 30.6724 25.9879 30.4629 26.0963 30.29C26.2047 30.1143 26.3423 29.981 26.5093 29.8901C26.6734 29.7964 26.8682 29.7495 27.0938 29.7495C27.2403 29.7495 27.378 29.7832 27.5069 29.8506C27.6358 29.915 27.7501 30.0117 27.8497 30.1406C27.9493 30.2695 28.0313 30.4292 28.0958 30.6196C28.1573 30.8071 28.1954 31.0239 28.21 31.27L28.5396 31.4458ZM30.5259 31.4458V33.2476L29.546 32.8125V31.4458C29.546 31.2905 29.5269 31.1631 29.4888 31.0635C29.4507 30.9639 29.3951 30.8906 29.3218 30.8438C29.2457 30.7939 29.1548 30.769 29.0494 30.769C28.9468 30.769 28.8575 30.791 28.7813 30.835C28.7051 30.8789 28.6465 30.9507 28.6055 31.0503C28.5616 31.147 28.5396 31.2788 28.5396 31.4458V32.6279L27.709 32.6191V31.2744L28.043 30.9668C28.0635 30.6328 28.1265 30.3574 28.232 30.1406C28.3375 29.9238 28.4722 29.7642 28.6363 29.6616C28.7974 29.5562 28.9747 29.5034 29.168 29.5034C29.3936 29.5034 29.5914 29.5459 29.7613 29.6309C29.9312 29.7158 30.0733 29.8418 30.1876 30.0088C30.2989 30.1729 30.3839 30.375 30.4424 30.6152C30.4981 30.8555 30.5259 31.1323 30.5259 31.4458ZM30.6138 26.5371C30.6138 26.9062 30.5552 27.2373 30.438 27.5303C30.3179 27.8232 30.1524 28.0723 29.9415 28.2773C29.7305 28.4795 29.4859 28.6348 29.2076 28.7432C28.9263 28.8516 28.6275 28.9058 28.3111 28.9058H28.1353C27.775 28.9058 27.4454 28.8545 27.1465 28.752C26.8477 28.6494 26.5884 28.5029 26.3687 28.3125C26.149 28.1191 25.9805 27.8848 25.8633 27.6094C25.7432 27.334 25.6832 27.0234 25.6832 26.6777C25.6832 26.3408 25.7388 26.042 25.8502 25.7812C25.9615 25.5205 26.1197 25.3022 26.3248 25.1265C26.5298 24.9478 26.7759 24.813 27.063 24.7222C27.3472 24.6313 27.6636 24.5859 28.0123 24.5859H28.5396V28.3652H27.6959V25.8296H27.5992C27.4234 25.8296 27.2667 25.8618 27.129 25.9263C26.9883 25.9878 26.877 26.0815 26.795 26.2075C26.713 26.3335 26.6719 26.4946 26.6719 26.6909C26.6719 26.8579 26.7086 27.0015 26.7818 27.1216C26.855 27.2417 26.9576 27.3398 27.0894 27.416C27.2213 27.4893 27.3765 27.5449 27.5552 27.583C27.731 27.6182 27.9244 27.6357 28.1353 27.6357H28.3111C28.5015 27.6357 28.6773 27.6094 28.8384 27.5566C28.9996 27.501 29.1387 27.4233 29.2559 27.3237C29.3731 27.2212 29.4639 27.0981 29.5284 26.9546C29.5928 26.8081 29.6251 26.6426 29.6251 26.458C29.6251 26.2295 29.5811 26.0171 29.4932 25.8208C29.4024 25.6216 29.2662 25.4502 29.0845 25.3066L29.7525 24.6914C29.8961 24.791 30.0338 24.9272 30.1656 25.1001C30.2974 25.27 30.4058 25.4751 30.4908 25.7153C30.5728 25.9556 30.6138 26.2295 30.6138 26.5371ZM26.6851 22.5996H32.3541V23.8652H25.7711V22.6919L26.6851 22.5996ZM28.0958 19.5894H28.188C28.5338 19.5894 28.8546 19.6304 29.1505 19.7124C29.4464 19.7915 29.7042 19.9087 29.9239 20.064C30.1407 20.2192 30.3106 20.4126 30.4337 20.644C30.5538 20.8726 30.6138 21.1362 30.6138 21.4351C30.6138 21.7251 30.5552 21.9771 30.438 22.1909C30.3209 22.4048 30.1568 22.585 29.9459 22.7314C29.732 22.875 29.4844 22.9907 29.2032 23.0786C28.9219 23.1665 28.6202 23.2339 28.2979 23.2808H28.0562C27.7105 23.2339 27.3941 23.1665 27.107 23.0786C26.817 22.9907 26.5665 22.875 26.3555 22.7314C26.1417 22.585 25.9761 22.4062 25.8589 22.1953C25.7418 21.9814 25.6832 21.731 25.6832 21.4438C25.6832 21.1421 25.7403 20.877 25.8546 20.6484C25.9688 20.417 26.1329 20.2236 26.3467 20.0684C26.5606 19.9102 26.8155 19.7915 27.1114 19.7124C27.4073 19.6304 27.7354 19.5894 28.0958 19.5894ZM28.188 20.8594H28.0958C27.8936 20.8594 27.7076 20.877 27.5377 20.9121C27.3648 20.9443 27.2139 20.9971 27.085 21.0703C26.9561 21.1406 26.8565 21.2344 26.7862 21.3516C26.713 21.4658 26.6763 21.605 26.6763 21.769C26.6763 21.9419 26.7042 22.0898 26.7598 22.2129C26.8155 22.333 26.8961 22.4312 27.0015 22.5073C27.107 22.5835 27.233 22.6406 27.3795 22.6787C27.5259 22.7168 27.6915 22.7402 27.876 22.749H28.4869C28.7037 22.7344 28.8985 22.6934 29.0714 22.626C29.2413 22.5586 29.376 22.4546 29.4756 22.314C29.5753 22.1733 29.6251 21.9888 29.6251 21.7603C29.6251 21.5933 29.5884 21.4526 29.5152 21.3384C29.439 21.2241 29.335 21.1318 29.2032 21.0615C29.0714 20.9883 28.919 20.937 28.7462 20.9077C28.5733 20.8755 28.3873 20.8594 28.188 20.8594ZM27.6915 15.5464H28.6758V17.9634H27.6915V15.5464ZM25.7711 17.5415H30.5259V18.8071H25.7711V17.5415ZM25.7711 14.6895H30.5259V15.9595H25.7711V14.6895ZM29.9898 12.2944L25.7711 11.0332V9.67529L31.2422 11.5869C31.3624 11.6279 31.4913 11.6836 31.629 11.7539C31.7667 11.8213 31.897 11.9136 32.0201 12.0308C32.1461 12.145 32.2486 12.29 32.3277 12.4658C32.4068 12.6387 32.4464 12.8511 32.4464 13.103C32.4464 13.2231 32.439 13.3213 32.4244 13.3975C32.4097 13.4736 32.3892 13.5645 32.3629 13.6699H31.4356C31.4356 13.6377 31.4356 13.604 31.4356 13.5688C31.4385 13.5337 31.44 13.5 31.44 13.4678C31.44 13.3008 31.421 13.1646 31.3829 13.0591C31.3448 12.9536 31.2862 12.8687 31.2071 12.8042C31.1309 12.7397 31.0313 12.6885 30.9083 12.6504L29.9898 12.2944ZM25.7711 12.8218L29.2164 11.7891L30.5567 11.6089L30.649 12.4702L25.7711 14.1797V12.8218ZM25.7711 6.74854H30.5259V8.01855H25.7711V6.74854ZM25.7711 5.21924H26.751V9.52588H25.7711V5.21924ZM27.1817 3.69873V2.31885C27.1817 1.88525 27.2535 1.51611 27.397 1.21143C27.5377 0.903809 27.7339 0.669434 27.9859 0.508301C28.2379 0.344238 28.5294 0.262207 28.8604 0.262207C29.1006 0.262207 29.3233 0.309082 29.5284 0.402832C29.7305 0.493652 29.9063 0.626953 30.0557 0.802734C30.2051 0.978516 30.3209 1.19385 30.4029 1.44873C30.4849 1.70361 30.5259 1.99365 30.5259 2.31885V4.48975H25.7711V3.21973H29.5416V2.31885C29.5416 2.12842 29.5108 1.97607 29.4493 1.86182C29.3848 1.74463 29.3013 1.65967 29.1988 1.60693C29.0963 1.55127 28.9849 1.52344 28.8648 1.52344C28.7388 1.52344 28.6246 1.55127 28.522 1.60693C28.4166 1.65967 28.3316 1.74463 28.2672 1.86182C28.2027 1.97607 28.1705 2.12842 28.1705 2.31885V3.69873H27.1817Z" fill="#F46440"/>
</svg>
