<svg xmlns="http://www.w3.org/2000/svg" viewBox="0 0 25 22.58"><defs><style>.cls-1{fill:#e9511c;}</style></defs><g id="Layer_2" data-name="Layer 2"><g id="Layer_1-2" data-name="Layer 1"><path class="cls-1" d="M21.05,2.65v.4c0,3.37,0,6.74,0,10.1A5.12,5.12,0,0,1,17.94,18a4.72,4.72,0,0,1-2.09.46H5.35a1.32,1.32,0,1,1,0-2.64c3.43,0,6.86,0,10.29,0A2.71,2.71,0,0,0,18.42,13c0-3.85,0-7.7,0-11.55A1.33,1.33,0,0,1,19.87,0h3.78a1.27,1.27,0,0,1,1.21.76,1.23,1.23,0,0,1-.16,1.38,1.24,1.24,0,0,1-1,.5Z"/><path class="cls-1" d="M7.89,6.59H1.42A1.32,1.32,0,0,1,0,5.26,1.34,1.34,0,0,1,1.41,4q6.5,0,13,0A1.31,1.31,0,0,1,15.77,5.1a1.29,1.29,0,0,1-1,1.45,1.57,1.57,0,0,1-.43,0Z"/><path class="cls-1" d="M9.85,10.53H5.33a1.32,1.32,0,1,1,0-2.64h9.14a1.32,1.32,0,1,1,0,2.64Z"/><path class="cls-1" d="M11.18,14.48H8a1.32,1.32,0,1,1,0-2.64h6.56a1.31,1.31,0,0,1,1.32,1.33,1.32,1.32,0,0,1-1.35,1.31Z"/><path class="cls-1" d="M9.29,21a1.57,1.57,0,1,1-1.56-1.56A1.57,1.57,0,0,1,9.29,21Z"/><path class="cls-1" d="M12.74,21a1.58,1.58,0,0,1,1.58-1.59A1.61,1.61,0,0,1,15.88,21a1.59,1.59,0,0,1-1.58,1.6A1.56,1.56,0,0,1,12.74,21Z"/></g></g></svg>