<svg width="26" height="26" viewBox="0 0 26 26" fill="none" xmlns="http://www.w3.org/2000/svg">
<g clip-path="url(#clip0_339_693)">
<path d="M13.5479 12.9519L25.7868 0.713105C25.9499 0.549952 25.9499 0.28548 25.7868 0.122326C25.6236 -0.0407754 25.3592 -0.0407754 25.196 0.122326L12.9572 12.3612L0.718327 0.122326C0.552353 -0.0379552 0.28788 -0.0333593 0.127547 0.132615C-0.0288178 0.294515 -0.0288178 0.551205 0.127547 0.713105L12.3664 12.9519L0.127547 25.1908C-0.0384273 25.3511 -0.0430232 25.6156 0.11731 25.7815C0.277644 25.9475 0.542116 25.9521 0.708091 25.7918C0.71159 25.7884 0.714984 25.785 0.718327 25.7815L12.9572 13.5427L25.196 25.7815C25.362 25.9419 25.6265 25.9373 25.7868 25.7713C25.9432 25.6094 25.9432 25.3527 25.7868 25.1908L13.5479 12.9519Z" fill="black"/>
</g>
<defs>
<clipPath id="clip0_339_693">
<rect width="25.9091" height="25.9091" fill="white"/>
</clipPath>
</defs>
</svg>
