<svg xmlns="http://www.w3.org/2000/svg" viewBox="0 0 72 72"><defs><style>.cls-1{fill:none;stroke:#7b7b7b;stroke-miterlimit:10;stroke-width:2px;stroke-dasharray:2 2;}.cls-2{fill:#7b7b7b;}</style></defs><g id="Layer_2" data-name="Layer 2"><g id="Layer_1-2" data-name="Layer 1"><circle class="cls-1" cx="36" cy="36" r="35"/><path class="cls-2" d="M33.51,29.14c-.09,2.68-.16,4.71-.2,6.74a1.27,1.27,0,0,0,.17.66,1.68,1.68,0,0,1-.5,2.33.73.73,0,0,0-.37.69q-.13,4.34-.29,8.68a11.35,11.35,0,0,1-.52,3.7,8,8,0,0,1-8.27,5.27,7.92,7.92,0,0,1-7.13-6.5,33.64,33.64,0,0,1-.27-4c-.1-2.44-.18-4.89-.28-7.33a.56.56,0,0,0-.23-.41,1.73,1.73,0,0,1-.53-2.5,1,1,0,0,0,.13-.49c-.07-2.19-.15-4.38-.22-6.58-.05-1.88-.16-3.76-.12-5.64a9.4,9.4,0,0,1,18.67-1,11.69,11.69,0,0,1,.11,2C33.62,26.43,33.54,28.11,33.51,29.14ZM32,35.61c0-.23,0-.56,0-.88.08-2.56.19-5.13.24-7.69a22.22,22.22,0,0,0-.09-4.32,7.59,7.59,0,0,0-5.88-6.39A7.77,7.77,0,0,0,18,19a8.46,8.46,0,0,0-1.88,6.3c.14,2.56.18,5.13.27,7.69,0,.92.07,1.84.11,2.65,2.61-.14,5.18-.38,7.75-.38S29.39,35.47,32,35.61ZM19.29,38.88c.11,3.4.23,6.74.35,10.07a8.33,8.33,0,0,0,.15,1.33,4.59,4.59,0,0,0,9.05-.88c.1-3,.23-6,.34-8.94,0-.52,0-1,0-1.59A55.37,55.37,0,0,0,19.29,38.88ZM30.51,39c0,.36-.05.67-.06,1-.1,2.94-.19,5.88-.3,8.81a8.84,8.84,0,0,1-.22,1.86,5.86,5.86,0,0,1-6.33,4.39,5.93,5.93,0,0,1-5.23-5.72c-.1-2.86-.19-5.73-.29-8.59,0-.57-.06-1.13-.09-1.69-.81-.05-.84,0-.81.69.06,2.12.12,4.24.2,6.35a41.42,41.42,0,0,0,.26,4.33,6.61,6.61,0,0,0,7,5.52A6.69,6.69,0,0,0,31,49.36c.05-2.09.17-4.18.23-6.27,0-1.31,0-2.62,0-4ZM24.57,36.4c-2.35.15-4.37.27-6.39.41-.54,0-1.07.12-1.6.19-.3,0-.58.15-.53.52s.32.4.62.36h.13c2-.17,4-.45,6-.47,2.45,0,4.91.17,7.37.29.58,0,1.15.13,1.73.19.28,0,.52,0,.57-.35s-.18-.47-.48-.52l-.13,0Z"/><path class="cls-2" d="M57,29.72c-.07,2.07-.15,4.14-.2,6.22a1.07,1.07,0,0,0,.16.57,1.68,1.68,0,0,1-.52,2.38.58.58,0,0,0-.3.53c-.11,3.33-.24,6.66-.35,10a8,8,0,0,1-16,.42c-.16-3.23-.25-6.47-.37-9.7a3,3,0,0,0,0-.67,1,1,0,0,0-.31-.52,1.73,1.73,0,0,1-.5-2.44A.91.91,0,0,0,38.7,36q-.11-3.78-.23-7.56c0-1.51-.13-3-.13-4.52A9.4,9.4,0,0,1,57,22.48a21.8,21.8,0,0,1,.12,3.88c0,1.12,0,2.24,0,3.36Zm-1.48,6c0-.17,0-.28,0-.4.08-2.45.18-4.89.24-7.34a38.77,38.77,0,0,0,0-4.82,8,8,0,0,0-8.89-7.09,8.13,8.13,0,0,0-7.3,8.3Q39.77,29.72,40,35c0,.22,0,.44,0,.7A57.54,57.54,0,0,1,55.51,35.74ZM42.8,38.88c0,.15,0,.27,0,.39.1,2.95.19,5.9.3,8.85a14.37,14.37,0,0,0,.15,2,4.57,4.57,0,0,0,9,.14,13.28,13.28,0,0,0,.18-2c.09-2.26.17-4.53.24-6.79,0-.84,0-1.69,0-2.56A54.71,54.71,0,0,0,42.8,38.88ZM54,39c0,.12,0,.19,0,.26-.09,2.52-.17,5-.27,7.56,0,1,0,2.07-.16,3.09a5.85,5.85,0,0,1-10.81,2.35,7,7,0,0,1-.92-3.68c-.08-2.92-.19-5.84-.29-8.77,0-.26,0-.52-.06-.83l-.83.11v.5c.1,2.87.19,5.73.31,8.59a12.89,12.89,0,0,0,.3,2.79,6.73,6.73,0,0,0,13.2-1.34c.16-3.4.25-6.8.38-10.2,0-.27-.08-.39-.33-.4ZM48.3,36.42c-2.28.11-4,.19-5.76.3a25.52,25.52,0,0,0-2.61.34.56.56,0,0,0-.35.44c0,.14.27.27.44.38s.17,0,.26,0c2-.16,3.92-.44,5.88-.46,2.49,0,5,.16,7.46.27.62,0,1.24.16,1.86.18a.6.6,0,0,0,.45-.37c0-.1-.19-.31-.32-.43s-.2-.06-.3-.07Z"/><path class="cls-2" d="M42.78,20.63c-.09.24-.15.37-.2.51-.2.46-.41.92-.59,1.39s-.46.63-.8.54a.64.64,0,0,1-.43-.88,19.06,19.06,0,0,1,.79-1.79.51.51,0,0,1,.71-.27A2.47,2.47,0,0,1,42.78,20.63Z"/></g></g></svg>