<svg width="42" height="41" viewBox="0 0 42 41" fill="none" xmlns="http://www.w3.org/2000/svg">
<path d="M38.7783 3.20948C39.0712 3.13678 39.289 2.99005 39.289 2.77194C39.289 2.48046 39.1443 2.33374 38.7783 2.33374V1.82812C39.2891 1.82812 39.5089 1.8995 39.7288 2.04358C39.8192 2.12791 39.8917 2.22946 39.9419 2.34221C39.9921 2.45495 40.019 2.57659 40.021 2.6999C40.021 2.99005 39.8038 3.28086 39.4392 3.35489V3.42627C39.7288 3.50095 39.8769 3.7184 39.9493 4.0806C40.021 4.58952 40.0947 4.73426 40.1691 4.80763H39.4385C39.3634 4.73294 39.2884 4.44609 39.2173 4.15396C39.1462 3.86183 38.9981 3.71708 38.7776 3.71708L38.7783 3.20948ZM38.7783 6.26169C39.1731 6.26647 39.565 6.19266 39.9308 6.0446C40.2966 5.89653 40.6289 5.6772 40.9083 5.39949C41.1877 5.12178 41.4085 4.79129 41.5577 4.42746C41.7069 4.06363 41.7815 3.67379 41.7772 3.28086C41.7772 1.68139 40.4607 0.372731 38.7783 0.372731V0.95634C40.0947 1.0264 40.9702 2.04425 40.9702 3.28152C40.9702 4.59018 40.021 5.68073 38.7783 5.68073V6.26169ZM38.2675 3.20948H38.7783V3.7184C38.7503 3.69009 38.7162 3.66856 38.6785 3.6555C38.6408 3.64243 38.6007 3.63817 38.5611 3.64306H38.2675V4.80895H37.6093V1.90082C37.8298 1.90082 38.1944 1.82944 38.7052 1.82944H38.7783V2.33506H38.2675V3.20948ZM38.7783 0.37207H38.7052C37.0248 0.37207 35.7076 1.68139 35.7076 3.2802C35.7033 3.67302 35.7778 4.06275 35.927 4.42649C36.0761 4.79024 36.2968 5.12066 36.576 5.39835C36.8553 5.67604 37.1875 5.8954 37.5531 6.04355C37.9187 6.19169 38.3105 6.26564 38.7052 6.26103H38.7783V5.67808C37.3887 5.67808 36.4389 4.58754 36.4389 3.27888C36.4389 2.0416 37.3888 0.953696 38.7052 0.953696H38.7783V0.37207Z" fill="#F46440"/>
<path d="M37.2984 19.9352C35.5449 20.8803 33.5682 20.5908 32.8396 19.2782C32.109 17.8968 32.9133 16.0812 34.6668 15.2055C36.423 14.261 38.3964 14.5531 39.1263 15.8591C39.8563 17.1652 39.0533 18.9887 37.2984 19.9352Z" fill="#757679"/>
<path d="M39.5601 23.3522C38.4655 23.9358 37.2247 23.7164 36.7837 22.8433C36.3467 22.0442 36.8561 20.8803 37.8803 20.2987C38.9783 19.7157 40.2197 19.9352 40.66 20.7349C41.1701 21.6087 40.66 22.7739 39.5601 23.3522Z" fill="#757679"/>
<path d="M40.66 26.9187C39.7076 27.4263 38.6109 27.2082 38.245 26.4825C37.8079 25.7555 38.245 24.7376 39.1961 24.2267C40.0729 23.7165 41.1675 23.9359 41.6098 24.6623C41.9765 25.3893 41.5361 26.4098 40.66 26.9187Z" fill="#757679"/>
<path d="M40.66 30.335C39.8537 30.7726 38.9782 30.6272 38.6109 29.9735C38.2436 29.3198 38.6109 28.5194 39.4166 28.0806C40.1472 27.647 41.0227 27.8644 41.39 28.4461C41.7546 29.0991 41.3906 29.9735 40.66 30.335Z" fill="#757679"/>
<path d="M39.6351 33.0277C39.0506 33.3186 38.32 33.1732 38.0994 32.7363C37.8078 32.23 38.0994 31.5724 38.6846 31.2102C39.2678 30.9187 39.9991 31.0628 40.2196 31.5724C40.5118 32.0106 40.2196 32.6636 39.6351 33.0264" fill="#757679"/>
<path d="M33.8605 33.9002C33.8605 33.8282 33.8605 33.8282 33.9329 33.7528C36.6362 32.0093 37.4413 28.2247 35.6878 25.0985C33.9329 21.8255 30.0586 20.4441 27.0637 22.0436C25.6024 22.7706 24.6506 24.08 24.2076 25.536C24.2076 25.536 21.8689 32.1533 16.7512 31.4243V31.4997C15.5098 30.9888 14.1216 30.9888 12.9513 31.6444C10.7594 32.8096 10.0288 35.7898 11.3426 38.1877C12.5142 40.2968 14.8522 41.3886 16.8993 40.8057C17.7754 40.6603 27.1281 38.9154 33.8572 33.8976" fill="#757679"/>
<path d="M10.8338 10.2604C11.7125 10.1877 10.6166 3.27758 10.3981 2.03898C10.2499 0.878372 9.37186 -0.069414 8.56883 0.00527211C7.69009 0.149357 7.17798 1.16918 7.40115 2.40514C7.62433 3.64109 10.0294 10.4025 10.8338 10.2604Z" fill="#F46440"/>
<path d="M3.30631 6.40515C3.81708 7.64243 5.13221 9.97091 6.08469 11.0628C6.44801 11.4243 6.74225 11.6424 6.8897 11.6424C7.69007 11.4243 6.52173 6.84203 6.08469 5.38863L6.01029 5.16853C5.64432 4.0033 4.6945 3.13284 3.89081 3.35095C3.67229 3.35095 3.4511 3.49768 3.30631 3.71381C2.94033 4.15069 2.79354 4.95241 3.08845 5.82286C3.17125 6.01304 3.24396 6.2074 3.30631 6.40515Z" fill="#F46440"/>
<path d="M15.9515 10.4058C16.8296 10.3338 16.2438 3.42366 16.0963 2.11435C16.0232 0.87839 15.2209 -0.0667527 14.4172 0.00396776C13.5398 0.0753491 12.9559 1.09452 13.0994 2.33113C13.1738 3.56775 15.1491 10.4058 15.9515 10.4058Z" fill="#F46440"/>
<path d="M19.5329 18.2598C19.0946 17.8969 17.9959 17.536 17.8505 14.8427C17.6333 12.1514 15.8765 11.5691 15.8765 11.5691C10.6883 10.6967 7.62036 13.0965 6.08472 15.1329C5.71608 15.7152 5.42516 16.2241 5.20464 16.6603C4.62014 17.8969 5.27837 20.807 6.08472 23.2102C6.59483 24.5902 7.10693 25.8996 7.54597 26.5546C8.64192 28.4448 11.9297 28.5922 12.6604 27.9372C13.3179 27.3536 13.9768 26.9187 15.1485 27.3536C16.2431 27.7178 15.9509 27.6471 17.9262 27.5731C19.8976 27.5731 22.676 23.0628 22.8951 21.0298C23.1867 18.9921 19.8976 18.7006 19.5323 18.2624" fill="#F46440"/>
<path d="M2.94033 10.6959C2.42756 9.60474 1.47908 8.80632 0.748447 9.09581C0.0842387 9.31326 -0.0565694 10.4058 0.453542 11.5697C0.963654 12.7336 2.57502 14.4058 3.30964 14.261C3.89414 14.0429 3.67694 12.7343 3.30964 11.5697C3.23657 11.2789 3.09177 10.9887 2.94366 10.6959" fill="#F46440"/>
<path d="M26.185 10.1877C25.2365 9.97026 24.0655 10.8414 23.4823 12.2968C22.8991 13.7522 23.1874 15.1342 24.1379 15.425C25.0146 15.7151 26.2574 14.7693 26.8432 13.3153C27.429 11.8612 27.1335 10.4779 26.185 10.1877Z" fill="#F46440"/>
</svg>
