<svg width="30" height="155" viewBox="0 0 30 155" fill="none" xmlns="http://www.w3.org/2000/svg">
<path d="M3.27366 133.567C1.6835 135.664 0.728673 138.246 0.331132 141.715C0.253069 142.844 0.172119 144.056 0.172119 145.427C0.172119 148.818 0.410642 151.962 0.807461 154.303H28.8883C29.1268 152.69 29.2859 150.271 29.2859 146.881C29.2859 145.025 29.2071 143.332 28.9664 141.715C28.4098 138.326 27.2962 135.583 25.6256 133.485C23.3191 130.66 19.5013 128.646 14.0131 128.646C9.00259 128.646 5.42183 130.585 3.27366 133.569V133.567ZM23.8012 141.717C24.1185 142.846 24.2797 144.058 24.2797 145.429C24.2797 146.317 24.2797 147.205 24.1186 147.771H5.42183C5.26209 147.205 5.18186 146.238 5.18186 144.786C5.18186 143.654 5.26209 142.605 5.49845 141.717C6.45616 137.843 9.47892 135.587 14.2501 135.666C19.5013 135.666 22.605 137.925 23.7976 141.717" fill="#757679"/>
<path d="M20.9339 107.774C18.3087 108.501 16.4012 109.629 15.6039 111.647H15.4428C14.5703 109.146 12.1027 106.484 8.44387 106.484C5.81793 106.484 3.75071 107.452 2.39835 109.227C1.04599 111.002 0.331133 113.505 0.250902 116.891C0.172117 117.458 0.172119 118.022 0.172119 118.589C0.172119 122.055 0.410642 125.203 0.807461 127.3H29.0466L29.0466 120.848H17.7521V118.83C17.7521 118.106 17.8309 117.461 18.0687 116.894C18.545 115.523 19.7405 114.719 22.3665 114.151C25.8656 113.264 28.172 112.618 29.0466 112.134V105.438C27.9349 106.001 24.1959 106.889 20.9339 107.776V107.774ZM12.9773 116.891C13.0597 117.376 13.0597 117.781 13.0597 118.263V120.845H5.18114C5.10235 120.363 4.94406 119.474 4.94406 117.859C4.94406 117.539 5.02284 117.214 5.02284 116.891C5.34088 114.472 6.61301 113.018 8.99826 113.018C11.1464 113.018 12.5768 114.471 12.9737 116.891" fill="#757679"/>
<path d="M28.8081 95.1047H17.0351L0.172144 104.3L0.172144 96.7984L7.01202 93.8158C9.0814 92.9279 10.6701 92.2813 12.501 91.5547V91.474C10.7518 90.8274 9.0814 90.1851 7.01202 89.295L0.172144 86.3916L0.172144 78.9689L16.8775 88.5736H28.8081V95.1047Z" fill="#757679"/>
<path d="M3.29099 55.7769C1.70083 57.876 0.746007 60.3783 0.348466 63.847C0.270403 65.0553 0.189453 66.2665 0.189453 67.6383C0.189453 70.9486 0.427976 74.0903 0.824795 76.5156H28.9057C29.1442 74.9026 29.3032 72.4787 29.3032 69.0914C29.3032 67.235 29.2244 65.4607 28.9837 63.847C28.4272 60.5389 27.3133 57.7139 25.6429 55.6984C23.3365 52.8757 19.5186 50.8594 14.0304 50.8594C9.01993 50.8594 5.43916 52.7136 3.29099 55.7783V55.7769ZM23.8186 63.8485C24.1359 64.9783 24.2971 66.268 24.2971 67.6397C24.2971 68.4462 24.2971 69.3356 24.1359 69.9001H5.43916C5.27942 69.3356 5.19919 68.4477 5.19919 66.9953C5.19919 65.8662 5.27943 64.8155 5.51578 63.8485C6.55373 60.0564 9.49625 57.7961 14.2675 57.7961C19.5186 57.7961 22.6223 60.1371 23.815 63.8485" fill="#F46440"/>
<path d="M20.9512 27.7825C18.326 28.5077 16.4185 29.639 15.6213 31.653H15.4601C14.5877 29.1543 12.12 26.4914 8.4612 26.4914C5.83526 26.4914 3.76805 27.4585 2.41568 29.1543C1.06332 30.9286 0.348467 33.4295 0.268236 36.8989C0.189451 37.4657 0.189453 38.0317 0.189453 38.5948C0.189453 42.0642 0.427976 45.211 0.824795 47.3072H29.0639V40.7709H17.7694V38.8367C17.7694 38.1072 17.8482 37.4657 18.086 36.8989C18.5624 35.5279 19.7579 34.7221 22.3838 34.1554C25.8829 33.2682 28.1894 32.5424 29.0639 32.1391V25.3608C27.9523 25.9254 24.2132 26.8147 20.9512 27.7803V27.7825ZM12.9946 36.8989C13.077 37.3044 13.077 37.7853 13.077 38.1915V40.7709H5.19847C5.11969 40.3705 4.96139 39.402 4.96139 37.866C4.96139 37.5449 5.04018 37.223 5.04018 36.8989C5.35821 34.4794 6.63034 33.027 9.01559 33.027C11.1638 33.027 12.5942 34.3988 12.991 36.8989" fill="#F46440"/>
<path d="M29.064 16.9696H17.291L0.428003 26.0831L0.428003 18.5797L7.26788 15.6741C9.33726 14.7063 10.926 14.1425 12.7568 13.4166V13.336C11.0077 12.6893 9.33726 11.9627 7.26788 11.157L0.428003 8.17071L0.428003 0.827911L17.1334 10.3534H29.064V16.9696Z" fill="#F46440"/>
</svg>
