<svg xmlns="http://www.w3.org/2000/svg" viewBox="0 0 69.86 69.28"><defs><style>.cls-1{fill:#7b7b7b;}</style></defs><g id="Layer_2" data-name="Layer 2"><g id="Layer_1-2" data-name="Layer 1"><path class="cls-1" d="M69.86,35.18c-.31.39-.71.73-1.2.5a1.5,1.5,0,0,1-.68-.82.85.85,0,0,1,.54-1.11,1.07,1.07,0,0,1,1.34.48Z"/><path class="cls-1" d="M25,49.55a8.24,8.24,0,0,0-.74-5c-.08-.19-.19-.36-.28-.55a1,1,0,0,1,.34-1.36,1,1,0,0,1,1.36.49,10.14,10.14,0,0,1,1.13,7.17.87.87,0,0,0,.33,1c2.13,1.7,4.23,3.44,6.34,5.16l.53.4v-.63c0-3.68,0-7.37,0-11.05a.87.87,0,0,0-.53-.89,13.14,13.14,0,0,1-6.82-9.75c-1.13-6.55.74-12.39,4.58-17.68a36.5,36.5,0,0,1,2.9-3.34c.66-.71,1.08-.68,1.79,0a25.26,25.26,0,0,1,7.56,14.61,16.88,16.88,0,0,1-2,11.38,13.09,13.09,0,0,1-5.19,4.9.85.85,0,0,0-.41.58c0,3.86,0,7.73,0,11.59a1.28,1.28,0,0,0,.07.26l2.93-2.48c1.2-1,2.4-2,3.58-3.06a.83.83,0,0,0,.24-.66c-1-4.48.65-8.07,3.88-11.06a17.78,17.78,0,0,1,10.34-4.58,32.05,32.05,0,0,1,3.53-.14.84.84,0,0,1,.94.94C61.24,42.21,59,47.58,53.68,51.3a10.16,10.16,0,0,1-9.22,1.4.93.93,0,0,0-.77.17q-4,3.33-7.9,6.7c-.73.62-1,.55-1.74-.07-1.85-1.58-3.75-3.1-5.63-4.64-.86-.71-1.72-1.42-2.59-2.1a.8.8,0,0,0-.59-.17c-5.07,1.65-9.07-.17-12.46-3.85A18.33,18.33,0,0,1,8.19,38.39,22,22,0,0,1,8,36.09c0-.87.27-1.16,1.12-1.19a19.84,19.84,0,0,1,10.48,2.41c.66.36.85.86.56,1.38s-.83.64-1.48.29a18.05,18.05,0,0,0-8.06-2.18H9.89c.17,1,.27,2,.49,3a15.67,15.67,0,0,0,6,9.62,8.77,8.77,0,0,0,6.86,1.75,1.1,1.1,0,0,0,.26-.06s.07-.06.16-.14Q22.29,49.84,21,48.76c-1.6-1.31-3.21-2.61-4.81-3.93a1,1,0,0,1-.23-1.43,1,1,0,0,1,1.46,0l.21.17,6.76,5.52Zm8.88-23.89.13-.07c0-1.7,0-3.4,0-5.11a1,1,0,0,1,1-1.07c.55.06.86.47.86,1.18,0,3.91,0,7.81,0,11.72V33a14.92,14.92,0,0,0,1.28-1.77c.4-.61.93-.77,1.43-.46s.56.86.17,1.5c-.75,1.19-1.48,2.4-2.27,3.56A3.38,3.38,0,0,0,35.87,38c.05,1.47,0,2.93,0,4.55.43-.3.75-.49,1-.72,3.37-2.58,4.7-6.14,4.8-10.23a21.49,21.49,0,0,0-4-12.83C36.89,17.6,36,16.5,35,15.29c-4.73,5.32-7.49,11.18-6.62,18.3A11.63,11.63,0,0,0,33.21,42c.22.16.46.3.77.49,0-4.37,0-8.6,0-12.83a1.5,1.5,0,0,0-.29-.8c-.72-1.09-1.48-2.17-2.22-3.26-.48-.7-.44-1.27.08-1.61s1-.15,1.48.5ZM45.78,51.08A8.68,8.68,0,0,0,52.18,50a13.58,13.58,0,0,0,4.66-4.69,18.39,18.39,0,0,0,2.64-8.5l-.38,0A17.51,17.51,0,0,0,50,39.43a11.43,11.43,0,0,0-5.45,6.94,6.84,6.84,0,0,0-.06,3.28c.22-.18.36-.29.49-.41l6.81-5.78c.61-.51,1.16-.52,1.55-.06s.3,1-.32,1.52L49.28,48.1Z"/><path class="cls-1" d="M34.94,7.69A22.94,22.94,0,0,1,57.4,26.36c.14.74-.14,1.26-.74,1.38s-1-.25-1.13-1C54,19.57,50,14.34,43.27,11.37A21,21,0,0,0,14.35,26.69c-.19,1-.22,2.12-.32,3.18,0,.2,0,.41,0,.61-.08.7-.45,1.06-1,1a.91.91,0,0,1-.86-1.1,29.52,29.52,0,0,1,.53-4.72C15,16.38,20.86,10.57,30.15,8.22a11.68,11.68,0,0,1,1.67-.3C32.86,7.82,33.9,7.76,34.94,7.69Z"/><path class="cls-1" d="M30,67.3a1.08,1.08,0,0,1,1.11,1,1,1,0,0,1-1,1,1.06,1.06,0,0,1-1.1-1A1,1,0,0,1,30,67.3Z"/><path class="cls-1" d="M13.74,8.86a1.22,1.22,0,0,1-1.12,1.07,1,1,0,0,1-.92-1A1.13,1.13,0,0,1,12.8,7.9,1,1,0,0,1,13.74,8.86Z"/><path class="cls-1" d="M6.3,17.23a1,1,0,0,1-1-1,1.22,1.22,0,0,1,1.1-1.1,1,1,0,0,1,.92,1A1.16,1.16,0,0,1,6.3,17.23Z"/><path class="cls-1" d="M0,34.6a.92.92,0,0,1,.89-1.05,1,1,0,0,1,1,1,.93.93,0,0,1-.9,1A.93.93,0,0,1,0,34.6Z"/><path class="cls-1" d="M64.54,16.33a.94.94,0,0,1-.93,1,1.13,1.13,0,0,1-1.06-1.11.89.89,0,0,1,.9-.92A1.07,1.07,0,0,1,64.54,16.33Z"/><path class="cls-1" d="M20.79,66.54a1.17,1.17,0,0,1-1.08-1,1,1,0,0,1,.95-1,1.21,1.21,0,0,1,1.13,1.07A1,1,0,0,1,20.79,66.54Z"/><path class="cls-1" d="M39.77,0a1,1,0,0,1,1.06,1,.94.94,0,0,1-1,1,1,1,0,0,1-1.07-1A1,1,0,0,1,39.77,0Z"/><path class="cls-1" d="M40.74,68.27a1.08,1.08,0,0,1-1.08,1,1,1,0,0,1-1-1,1,1,0,0,1,1.12-1A1,1,0,0,1,40.74,68.27Z"/><path class="cls-1" d="M30.07,1.94a1,1,0,0,1-1-1A1.07,1.07,0,0,1,30.21,0a1,1,0,0,1,.95,1A1,1,0,0,1,30.07,1.94Z"/><path class="cls-1" d="M20.77,4.68a1,1,0,0,1-1-.95,1.15,1.15,0,0,1,1.16-1,.94.94,0,0,1,.91,1A1.07,1.07,0,0,1,20.77,4.68Z"/><path class="cls-1" d="M57.29,10a1.09,1.09,0,0,1-1.07-1.09A.92.92,0,0,1,57.13,8,1.16,1.16,0,0,1,58.25,9,1,1,0,0,1,57.29,10Z"/><path class="cls-1" d="M68.53,25.16a.94.94,0,0,1-.92,1,1.1,1.1,0,0,1-1-1.13,1,1,0,0,1,.94-1A1.06,1.06,0,0,1,68.53,25.16Z"/><path class="cls-1" d="M2.31,45.18a1,1,0,0,1-1-1.08.94.94,0,0,1,.91-1,1.07,1.07,0,0,1,1,1.13A.93.93,0,0,1,2.31,45.18Z"/><path class="cls-1" d="M6.31,54a1.14,1.14,0,0,1-1-1.16.88.88,0,0,1,1-.88,1.08,1.08,0,0,1,1,1.1A1,1,0,0,1,6.31,54Z"/><path class="cls-1" d="M57.19,59.36a1,1,0,0,1,.94,1,1.14,1.14,0,0,1-1.05,1.05,1,1,0,0,1-1-.91A1.22,1.22,0,0,1,57.19,59.36Z"/><path class="cls-1" d="M50.12,3.75a1,1,0,0,1-.93,1,1.18,1.18,0,0,1-1.14-1,1,1,0,0,1,.94-1A1.13,1.13,0,0,1,50.12,3.75Z"/><path class="cls-1" d="M3.28,24.92A1,1,0,0,1,2.34,26a.93.93,0,0,1-1-1,1,1,0,0,1,1-1.08A.9.9,0,0,1,3.28,24.92Z"/><path class="cls-1" d="M68.49,44.26a1,1,0,0,1-1,1.09.94.94,0,0,1-.92-1,1.05,1.05,0,0,1,1-1.12A1,1,0,0,1,68.49,44.26Z"/><path class="cls-1" d="M63.46,54.13a1,1,0,0,1-1-.93,1.08,1.08,0,0,1,1-1.11,1,1,0,0,1,1,.87A1.19,1.19,0,0,1,63.46,54.13Z"/><path class="cls-1" d="M50,65.56a1.12,1.12,0,0,1-1.16,1,.91.91,0,0,1-.93-.91c-.06-.51.54-1,1.12-1A1,1,0,0,1,50,65.56Z"/><path class="cls-1" d="M13.64,60.33a.92.92,0,0,1-.94,1,1.12,1.12,0,0,1-1.1-1,.94.94,0,0,1,.9-1A1.17,1.17,0,0,1,13.64,60.33Z"/><path class="cls-1" d="M57.72,30.54a.9.9,0,0,1-.92,1,.93.93,0,0,1-1-.9,1,1,0,0,1,.93-1A1,1,0,0,1,57.72,30.54Z"/><path class="cls-1" d="M23.34,40.55a.91.91,0,0,1-1,.91,1,1,0,0,1-.93-1,1,1,0,0,1,1-.93A1,1,0,0,1,23.34,40.55Z"/></g></g></svg>