<svg width="20" height="20" viewBox="0 0 20 20" fill="none" xmlns="http://www.w3.org/2000/svg">
<g clip-path="url(#clip0_1_84)">
<path d="M5.03188 18.4375H2.32243C1.99572 18.4375 1.79861 18.2514 1.71022 18.1404C1.55762 17.9487 1.4985 17.6994 1.54813 17.4561C2.34286 13.5591 5.71174 10.7133 9.60087 10.6209C9.66567 10.6233 9.7306 10.625 9.79593 10.625C9.8618 10.625 9.92733 10.6233 9.99267 10.6208C10.9437 10.643 11.8726 10.8255 12.7568 11.1645C13.1525 11.3162 13.5937 11.1117 13.7423 10.7077C13.8909 10.3038 13.6905 9.85333 13.2949 9.70167C13.1681 9.65307 13.0406 9.6076 12.9124 9.56447C14.179 8.5946 15 7.0496 15 5.3125C15 2.3832 12.6655 0 9.79593 0C6.92633 0 4.59183 2.3832 4.59183 5.3125C4.59183 7.05113 5.41423 8.59733 6.68273 9.56713C5.52061 9.95767 4.43005 10.565 3.47563 11.3664C1.72568 12.8358 0.508957 14.8854 0.0496584 17.1376C-0.094296 17.8433 0.078128 18.5681 0.522733 19.1262C0.96508 19.6815 1.62106 20 2.32243 20H5.03188C5.45456 20 5.79719 19.6503 5.79719 19.2187C5.79719 18.7873 5.45456 18.4375 5.03188 18.4375ZM6.12245 5.3125C6.12245 3.24473 7.77033 1.5625 9.79593 1.5625C11.8215 1.5625 13.4694 3.24473 13.4694 5.3125C13.4694 7.319 11.9176 8.9624 9.9748 9.058C9.9152 9.05693 9.8556 9.056 9.79593 9.056C9.73607 9.056 9.67627 9.05687 9.61647 9.058C7.67393 8.96213 6.12245 7.3188 6.12245 5.3125Z" fill="#737373"/>
<path d="M19.4074 13.6912C19.076 12.9695 18.3296 12.5019 17.504 12.5H15.0898C15.088 12.5 15.0864 12.5 15.0846 12.5C14.2137 12.5 13.4539 12.9997 13.1482 13.7741C13.1075 13.8772 13.0577 14.007 13.0058 14.1583H7.93731C7.72804 14.1583 7.52771 14.2408 7.38191 14.387L6.05209 15.7207C5.75919 16.0145 5.76066 16.4821 6.05537 16.7741L7.41011 18.1163C7.55564 18.2605 7.75457 18.3417 7.96224 18.3417H10.4782C10.9057 18.3417 11.2523 18.0043 11.2523 17.5879C11.2523 17.1716 10.9057 16.8341 10.4782 16.8341H8.28684L7.68964 16.2425L8.26471 15.6659H13.5866C13.9432 15.6659 14.2536 15.4286 14.3384 15.0913C14.4011 14.8423 14.4796 14.6029 14.5933 14.3151C14.6682 14.1253 14.8564 14.0075 15.0865 14.0075H15.088H17.5022C17.7211 14.0081 17.9095 14.1226 17.9939 14.3065C18.2018 14.7592 18.4499 15.4601 18.4518 16.2281C18.4536 17.0018 18.2057 17.7187 17.9974 18.1839C17.9134 18.3715 17.7234 18.4925 17.5112 18.4925H17.51H15.0666C14.8524 18.492 14.6518 18.3578 14.5674 18.1587C14.4769 17.9449 14.3984 17.7009 14.3276 17.4125C14.228 17.0077 13.8102 16.758 13.3945 16.8549C12.9787 16.9518 12.7223 17.3585 12.8218 17.7634C12.9116 18.1289 13.0145 18.4463 13.1362 18.7335C13.4612 19.5009 14.2176 19.9981 15.0648 20H17.5082C17.5098 20 17.5114 20 17.513 20C18.3394 19.9999 19.0864 19.524 19.4166 18.7864C19.6842 18.189 20.0025 17.2596 20 16.2245C19.9976 15.1923 19.6764 14.2771 19.4074 13.6912Z" fill="#737373"/>
<path d="M16.6667 16.6667C17.127 16.6667 17.5 16.2936 17.5 15.8333C17.5 15.3731 17.127 15 16.6667 15C16.2064 15 15.8334 15.3731 15.8334 15.8333C15.8334 16.2936 16.2064 16.6667 16.6667 16.6667Z" fill="#737373"/>
</g>
<defs>
<clipPath id="clip0_1_84">
<rect width="20" height="20" fill="white"/>
</clipPath>
</defs>
</svg>
