<svg id="Layer_1" data-name="Layer 1" xmlns="http://www.w3.org/2000/svg" xmlns:xlink="http://www.w3.org/1999/xlink" viewBox="0 0 1636.23 1909.96"><defs><style>.cls-1{fill:#fff;}</style></defs><path class="cls-1" d="M112.09,109.21h-70v-70h70Zm-7.78-35.06A27.3,27.3,0,1,0,77.2,101.44,27.26,27.26,0,0,0,104.31,74.15ZM100,52.45a30.6,30.6,0,0,1,7.84,28.74C103.7,96.87,92.93,104.66,77.07,106v2.1c12.59-.55,22.65-5.71,28.94-16.64,8.12-14.11,6.1-27.63-3.86-40.26h2.12V49c-1.87,0-3.71,0-5.55,0a.9.9,0,0,0-.94.9c0,1.86,0,3.72,0,5.58H100ZM43.61,79.69l2.17-.37-.27-2.07-2.21.22Zm5.83-25.25,1.82,1.28,1.25-1.67-1.7-1.38ZM44,66.48l2.15.5.54-2-2.11-.63ZM71.76,42.9l2.1-.3-.26-2.19-2.19.32Zm-17.89,56,1.44-1.55L53.8,95.84l-1.5,1.42ZM50.11,57.42l-1.88-1.16-1.12,2,2,1ZM47.36,63l.79-1.93-2-.91-.86,2.06ZM44.61,84l2.11-.67-.55-2-2.14.5Zm17.48,18.06L60.28,101l-1.17,1.88L61,104Zm1.83.9L63,105l2.07.85.78-2.07Zm9.77,4.88.21-2.2-2.07-.28-.35,2.19ZM67.11,41.73l.63,2.12,2-.56-.51-2.14ZM43.59,68.63l-.29,2.22,2.19.21L45.77,69ZM48.26,92l1.88-1.17-1.06-1.8-1.95,1Zm3,.53-1.8,1.3,1.38,1.77,1.69-1.41ZM67.8,104.42l-.64,2.13,2.15.56c.16-.65.33-1.23.43-1.83,0-.12-.2-.36-.35-.42C68.91,104.69,68.4,104.58,67.8,104.42ZM63.88,45.31l1.93-.82L65,42.43,63,43.3Zm-7,4.38,1.65-1.29-1.3-1.78L55.49,48ZM48.18,87.22l-.82-1.93-2,.79.86,2Zm9.11,14.44,1.29-1.8L56.91,98.6l-1.39,1.7ZM53.86,49.45,52.25,51l1.49,1.39L55.27,51Zm5.21-4.06,1.17,1.89,1.81-1.07-1-1.94ZM43.2,75.18h2.12V73.1H43.2Z" transform="translate(-42.09 -39.21)"/><path d="M104.31,74.15A27.3,27.3,0,1,1,77.1,46.83,27.33,27.33,0,0,1,104.31,74.15Zm-2.19,0a25.11,25.11,0,1,0-24.9,25.11A25.17,25.17,0,0,0,102.12,74.11Z" transform="translate(-42.09 -39.21)"/><path d="M100,52.45v3.06H97.77c0-1.86,0-3.72,0-5.58a.9.9,0,0,1,.94-.9c1.84,0,3.68,0,5.55,0v2.16h-2.12c10,12.63,12,26.15,3.86,40.26-6.29,10.93-16.35,16.09-28.94,16.64V106c15.86-1.31,26.63-9.1,30.73-24.78A30.6,30.6,0,0,0,100,52.45Z" transform="translate(-42.09 -39.21)"/><path d="M43.61,79.69l-.31-2.22,2.21-.22.27,2.07Z" transform="translate(-42.09 -39.21)"/><path d="M49.44,54.44l1.37-1.77,1.7,1.38-1.25,1.67Z" transform="translate(-42.09 -39.21)"/><path d="M44,66.48l.58-2.16L46.7,65l-.54,2Z" transform="translate(-42.09 -39.21)"/><path d="M71.76,42.9l-.35-2.17,2.19-.32.26,2.19Z" transform="translate(-42.09 -39.21)"/><path d="M53.87,98.86l-1.57-1.6,1.5-1.42,1.51,1.47Z" transform="translate(-42.09 -39.21)"/><path d="M50.11,57.42l-1,1.82-2-1,1.12-2Z" transform="translate(-42.09 -39.21)"/><path d="M47.36,63l-2.07-.78.86-2.06,2,.91Z" transform="translate(-42.09 -39.21)"/><path d="M44.61,84,44,81.83l2.14-.5.55,2Z" transform="translate(-42.09 -39.21)"/><path d="M62.09,102.06,61,104l-1.93-1.12L60.28,101Z" transform="translate(-42.09 -39.21)"/><path d="M63.92,103l1.94.8-.78,2.07L63,105Z" transform="translate(-42.09 -39.21)"/><path d="M73.69,107.84l-2.21-.29.35-2.19,2.07.28Z" transform="translate(-42.09 -39.21)"/><path d="M67.11,41.73l2.15-.58.51,2.14-2,.56Z" transform="translate(-42.09 -39.21)"/><path d="M43.59,68.63l2.18.36-.28,2.07-2.19-.21Z" transform="translate(-42.09 -39.21)"/><path d="M48.26,92l-1.13-1.94,1.95-1,1.06,1.8Z" transform="translate(-42.09 -39.21)"/><path d="M51.27,92.56l1.27,1.66-1.69,1.41-1.38-1.77Z" transform="translate(-42.09 -39.21)"/><path d="M67.8,104.42c.6.16,1.11.27,1.59.44.15.06.37.3.35.42-.1.6-.27,1.18-.43,1.83l-2.15-.56Z" transform="translate(-42.09 -39.21)"/><path d="M63.88,45.31l-.92-2L65,42.43l.79,2.06Z" transform="translate(-42.09 -39.21)"/><path d="M56.89,49.69,55.49,48l1.75-1.37,1.3,1.78Z" transform="translate(-42.09 -39.21)"/><path d="M48.18,87.22l-2,.91-.86-2,2-.79Z" transform="translate(-42.09 -39.21)"/><path d="M57.29,101.66l-1.77-1.36,1.39-1.7,1.67,1.26Z" transform="translate(-42.09 -39.21)"/><path d="M53.86,49.45,55.27,51l-1.53,1.43L52.25,51Z" transform="translate(-42.09 -39.21)"/><path d="M59.07,45.39,61,44.27l1,1.94-1.81,1.07Z" transform="translate(-42.09 -39.21)"/><path d="M43.2,75.18V73.1h2.12v2.08Z" transform="translate(-42.09 -39.21)"/><path class="cls-1" d="M102.12,74.11A25.11,25.11,0,1,1,77.05,49,25.06,25.06,0,0,1,102.12,74.11ZM77,51.19a22.94,22.94,0,1,0,22.9,23A22.9,22.9,0,0,0,77,51.19Z" transform="translate(-42.09 -39.21)"/><path d="M77,51.19a22.94,22.94,0,1,1-23,22.75A22.89,22.89,0,0,1,77,51.19Zm20.72,23A20.75,20.75,0,1,0,77.14,94.85,20.81,20.81,0,0,0,97.76,74.14Z" transform="translate(-42.09 -39.21)"/><path class="cls-1" d="M97.76,74.14A20.75,20.75,0,1,1,77.1,53.38,20.71,20.71,0,0,1,97.76,74.14ZM75.92,76.31c0-2.55,0-5,0-7.45a1.12,1.12,0,0,0-2.13-.64c-1.75,2.81-3.51,5.62-5.25,8.44a1.48,1.48,0,0,0-.23,1,1,1,0,0,0,1.18.89c1.4,0,2.8,0,4.27,0v2.15h2.17V78.46h2.13V76.31Zm-8.76,2.14H63c1-1.25,2-2.39,2.93-3.56a5.47,5.47,0,0,0,1.22-3.67,3.84,3.84,0,0,0-4.3-3.63,3.76,3.76,0,0,0-3.26,4.35H61.7c0-.19,0-.3,0-.42a1.67,1.67,0,0,1,1.82-1.74A1.64,1.64,0,0,1,64.9,72a5.57,5.57,0,0,1-1,1.91c-1.28,1.64-2.65,3.23-4,4.82a1.21,1.21,0,0,0-.29,1.37,1.17,1.17,0,0,0,1.25.62c1.36,0,2.73,0,4.09,0h2.17Zm24.35-8.67A23.94,23.94,0,0,0,89,80.64H91c.39-2.14.6-4.25,1.17-6.26a35.69,35.69,0,0,1,2.11-5c.46-1,.08-1.8-1-1.81H86.88a1,1,0,0,0-1.09.83,21.69,21.69,0,0,0,0,2.42H87.9l.07-1ZM79.22,80.44l2.15.52c1.1-4.4,2.19-8.72,3.29-13.11l-2.15-.54C81.41,71.7,80.32,76,79.22,80.44Z" transform="translate(-42.09 -39.21)"/><path d="M75.92,76.31h2.15v2.15H75.94v2.18H73.77V78.49c-1.47,0-2.87,0-4.27,0a1,1,0,0,1-1.18-.89,1.48,1.48,0,0,1,.23-1c1.74-2.82,3.5-5.63,5.25-8.44a1.12,1.12,0,0,1,2.13.64C75.91,71.31,75.92,73.76,75.92,76.31Zm-2.23,0V72.59l-2.31,3.69Z" transform="translate(-42.09 -39.21)"/><path d="M67.16,78.45v2.23H65c-1.36,0-2.73,0-4.09,0a1.17,1.17,0,0,1-1.25-.62,1.21,1.21,0,0,1,.29-1.37c1.34-1.59,2.71-3.18,4-4.82a5.57,5.57,0,0,0,1-1.91,1.64,1.64,0,0,0-1.35-2.18,1.67,1.67,0,0,0-1.82,1.74c0,.12,0,.23,0,.42H59.63a3.76,3.76,0,0,1,3.26-4.35,3.84,3.84,0,0,1,4.3,3.63A5.47,5.47,0,0,1,66,74.89C65,76.06,64.07,77.2,63,78.45Z" transform="translate(-42.09 -39.21)"/><path d="M91.51,69.78H88l-.07,1H85.77a21.69,21.69,0,0,1,0-2.42,1,1,0,0,1,1.09-.83h6.41c1,0,1.43.81,1,1.81a35.69,35.69,0,0,0-2.11,5c-.57,2-.78,4.12-1.17,6.26H89A23.94,23.94,0,0,1,91.51,69.78Z" transform="translate(-42.09 -39.21)"/><path d="M79.22,80.44c1.1-4.4,2.19-8.74,3.29-13.13l2.15.54c-1.1,4.39-2.19,8.71-3.29,13.11Z" transform="translate(-42.09 -39.21)"/><path class="cls-1" d="M73.69,76.28H71.38l2.31-3.69Z" transform="translate(-42.09 -39.21)"/><path d="M76.08,209.41c-1-.14-2-.25-3-.4A34.35,34.35,0,0,1,52.7,198.36a33.66,33.66,0,0,1-9.1-18.9c-1.53-11.32,1.76-21.12,9.55-29.44.11-.12.23-.21.37-.34l1.5,1.57a32.48,32.48,0,0,0-9.61,23.46A31.83,31.83,0,0,0,51.88,194,32.66,32.66,0,0,0,88.6,205.47a32,32,0,0,0,17.28-13.67,32.51,32.51,0,0,0,4.73-21.55l2.15-.31.31,2.07v5.05c-.15,1.07-.27,2.15-.46,3.22A34.92,34.92,0,0,1,83.27,209c-1,.15-2.06.27-3.09.41Z" transform="translate(-42.09 -39.21)"/><path class="cls-1" d="M80.18,209.41c1-.14,2.06-.26,3.09-.41a34.92,34.92,0,0,0,29.34-28.72c.19-1.07.31-2.15.46-3.22v32.35Z" transform="translate(-42.09 -39.21)"/><path d="M65.33,189.92l1.52,1.49-5.71,5.68c9.11,7.36,25.14,8.61,36.38-1.94a28.22,28.22,0,0,0,3.4-37.52L83,175.54a6.59,6.59,0,0,1,3.25,1.22,3.81,3.81,0,0,1,0,6.32,6.35,6.35,0,0,1-7.5,0,12.86,12.86,0,0,1-1.62-1.76L69,189.5l-1.61-1.85a2,2,0,0,0,.46-.32l31.84-31.84c1.11-1.11,1.55-1.09,2.5.13a29.82,29.82,0,0,1,6.44,20.6A30.41,30.41,0,0,1,84.6,204.33a29.82,29.82,0,0,1-25.63-6c-.7-.55-.83-1.19-.29-1.74C60.89,194.32,63.12,192.12,65.33,189.92Zm17.19-7.6A14.82,14.82,0,0,0,85,181.23a1.56,1.56,0,0,0,0-2.64,4.34,4.34,0,0,0-5.07,0,1.57,1.57,0,0,0,0,2.69A14.91,14.91,0,0,0,82.52,182.32Z" transform="translate(-42.09 -39.21)"/><path d="M47.47,174.41a30.57,30.57,0,0,1,22.81-29.48c10.43-2.69,19.86-.37,28.1,6.61.9.77.91,1.33.08,2.16l-41,41.05c-.9.9-1.42.87-2.25-.09A30.35,30.35,0,0,1,47.89,179C47.66,177.5,47.61,176,47.47,174.41Zm8.82,18.1,39.89-39.9a28.34,28.34,0,0,0-39.89,39.9Z" transform="translate(-42.09 -39.21)"/><path d="M72,189.72l.81-2c1.12.28,2.2.5,3.25.84a1.5,1.5,0,0,1,.72.82c.36.83.61,1.71.93,2.56a1.26,1.26,0,0,1-.5,1.65,1.36,1.36,0,0,0-.58,1.72,1.67,1.67,0,0,0,1.64,1A1.59,1.59,0,0,0,79.7,195a1.4,1.4,0,0,0-.61-1.42c-.74-.59-.82-.86-.51-1.76s.58-1.62.84-2.44a1.38,1.38,0,0,1,1.18-1,13.51,13.51,0,0,0,5.67-2.35A1.4,1.4,0,0,1,87.8,186c.79.4,1.59.79,2.39,1.17a1.2,1.2,0,0,1,.8,1.51,1.39,1.39,0,0,0,.76,1.6,1.63,1.63,0,0,0,2.12-2.18,1.38,1.38,0,0,0-1.61-.72,1.15,1.15,0,0,1-1.43-.72c-.41-.83-.81-1.67-1.22-2.51a1.32,1.32,0,0,1,.1-1.47,13.66,13.66,0,0,0,2.37-5.73,1.38,1.38,0,0,1,1-1.17c.82-.26,1.63-.56,2.45-.84a1.2,1.2,0,0,1,1.69.52,1.44,1.44,0,0,0,1.68.57,1.67,1.67,0,0,0,1.06-1.53,1.62,1.62,0,0,0-1.09-1.5,1.42,1.42,0,0,0-1.63.53c-.6.76-.86.85-1.74.55a26.32,26.32,0,0,1-2.49-.9,1.6,1.6,0,0,1-.83-.87c-.33-1-.53-2-.81-3.1l2-.81c.25.8.5,1.54.7,2.3a1.49,1.49,0,0,0,2.11.78,3.65,3.65,0,0,1,4.44-.06,3.89,3.89,0,0,1,1.32,4.39,3.59,3.59,0,0,1-3.73,2.48,6,6,0,0,1-2.11-.83c-.56-.29-1.86.11-2,.72a16.27,16.27,0,0,1-2.06,5,1.63,1.63,0,0,0,.91,2,3.63,3.63,0,0,1,3.32,3.39,3.93,3.93,0,0,1-2.9,4,3.63,3.63,0,0,1-4.61-3.19.92.92,0,0,0-.37-.56,1.85,1.85,0,0,0-2.19-.05,29.66,29.66,0,0,1-4.33,1.74,1.66,1.66,0,0,0-.75,2.08,3.59,3.59,0,0,1,.13,4.43,3.87,3.87,0,0,1-4.43,1.35,3.57,3.57,0,0,1-2.47-3.68,6.12,6.12,0,0,1,.83-2.11,1.76,1.76,0,0,0-.75-2Z" transform="translate(-42.09 -39.21)"/><path d="M112.37,167.74l-2,.38c-2.88-11.92-9.77-20.41-21.38-24.48s-22.28-1.75-32,5.75l-1.33-1.57c7.84-7,21.12-10.84,33.93-6.39A34.79,34.79,0,0,1,112.37,167.74Z" transform="translate(-42.09 -39.21)"/><path d="M89.07,175.52c0-.17,0-.3,0-.43v-1.67h2.14v2.1Z" transform="translate(-42.09 -39.21)"/><path d="M65.2,180.62l-2,.92c-.38-1.15-.75-2.22-1.06-3.3a1.59,1.59,0,0,0-2.11-.77,3.6,3.6,0,0,1-5-.4,3.9,3.9,0,0,1,0-5.22,3.6,3.6,0,0,1,5-.38,1.59,1.59,0,0,0,2.08-.73,16.21,16.21,0,0,1,2-4.94,1.54,1.54,0,0,0-1-2A3.63,3.63,0,0,1,60,160a3.93,3.93,0,0,1,3.67-3.71,3.64,3.64,0,0,1,3.83,3.29,1.53,1.53,0,0,0,2,.91,16.64,16.64,0,0,1,4.81-2,1.47,1.47,0,0,0,.8-2.1A3.63,3.63,0,0,1,75,152a3.87,3.87,0,0,1,4.38-1.34,3.6,3.6,0,0,1,2.5,3.72,5.72,5.72,0,0,1-.79,2.06,1.61,1.61,0,0,0,.8,2.09c1.08.32,2.14.69,3.28,1.06l-.92,1.95c-1.36-.38-2.67-.69-4-1.12a1.62,1.62,0,0,1-.86-.83c-.37-.83-.6-1.71-.92-2.56a1.26,1.26,0,0,1,.52-1.65,1.4,1.4,0,0,0,.57-1.73,1.65,1.65,0,0,0-1.56-1,1.58,1.58,0,0,0-1.48,1.2,1.41,1.41,0,0,0,.6,1.54,1.19,1.19,0,0,1,.51,1.69c-.27.8-.56,1.59-.81,2.39a1.43,1.43,0,0,1-1.2,1.06A13.48,13.48,0,0,0,70,162.85a1.42,1.42,0,0,1-1.6.13c-.74-.38-1.49-.76-2.26-1.1a1.29,1.29,0,0,1-.87-1.56,1.35,1.35,0,0,0-.7-1.56,1.46,1.46,0,0,0-1.72.15,1.54,1.54,0,0,0-.58,1.69,1.31,1.31,0,0,0,1.55,1,1.49,1.49,0,0,1,1.82,1.11c.29.69.64,1.35,1,2a1.42,1.42,0,0,1-.11,1.59A13.55,13.55,0,0,0,64.18,172a1.36,1.36,0,0,1-1,1.16c-.84.27-1.68.56-2.5.87a1.26,1.26,0,0,1-1.66-.5A1.36,1.36,0,0,0,57.3,173a1.66,1.66,0,0,0-1,1.64A1.58,1.58,0,0,0,57.58,176a1.4,1.4,0,0,0,1.42-.6c.6-.75.86-.83,1.75-.52s1.66.6,2.5.87a1.32,1.32,0,0,1,.91,1C64.49,178,64.83,179.28,65.2,180.62Z" transform="translate(-42.09 -39.21)"/><path d="M73.76,169a3.27,3.27,0,1,1-3.24-3.23A3.24,3.24,0,0,1,73.76,169Zm-3.3,1.13a1.09,1.09,0,1,0,0-2.17,1.09,1.09,0,0,0,0,2.17Z" transform="translate(-42.09 -39.21)"/><path d="M78.07,164.62H76V162.5h2.07Z" transform="translate(-42.09 -39.21)"/><path d="M68.26,176.62h-2.1v-2.1h2.1Z" transform="translate(-42.09 -39.21)"/><path class="cls-1" d="M179.11,43.47h32.47v70h-70V81c0,.17.1.34.13.52.29,1.79.45,3.61.89,5.36a35,35,0,0,0,68.53-13.35,35,35,0,0,0-29.28-29.66Z" transform="translate(-42.09 -39.21)"/><path d="M179.11,43.47l2.74.4a35,35,0,0,1,29.28,29.66A35,35,0,0,1,142.6,86.88c-.44-1.75-.6-3.57-.89-5.36,0-.18-.09-.35-.13-.52V75.82c.15-1.08.27-2.15.45-3.22a35,35,0,0,1,29.15-28.73l2.74-.4Zm-2.57,67.83a32.89,32.89,0,1,0-32.9-32.83A32.9,32.9,0,0,0,176.54,111.3Z" transform="translate(-42.09 -39.21)"/><path class="cls-1" d="M173.92,43.47l-2.74.4A35,35,0,0,0,142,72.6c-.18,1.07-.3,2.14-.45,3.22V43.47Z" transform="translate(-42.09 -39.21)"/><path class="cls-1" d="M176.54,111.3a32.89,32.89,0,1,1,32.85-32.89A32.87,32.87,0,0,1,176.54,111.3ZM155.41,80.05a2.07,2.07,0,0,1-.21.08,2.07,2.07,0,0,0-2,2.51,10,10,0,0,0,10,9.55c3.84,0,7.69,0,11.53,0h.79V97.3c0,.16,0,.32,0,.48a1.12,1.12,0,0,0,1,1.2,1.1,1.1,0,0,0,1.05-1.19c0-1.62,0-3.23,0-4.85v-.75c1.5,0,2.88,0,4.27,0,.8,0,1.23-.37,1.22-1s-.43-1-1.25-1-1.59,0-2.39,0h-1.86c0-.33.05-.56.1-.78a8.94,8.94,0,0,1,8.78-7.15c3.59,0,7.18,0,10.78,0l.61,0c-.05.47-.1.89-.16,1.3a7.83,7.83,0,0,1-6.6,6.45c-1.55.16-3.13.11-4.69.15-.81,0-1.26.36-1.27,1s.45,1,1.24,1c1.18,0,2.36,0,3.55,0a10,10,0,0,0,9.92-8.74c.28-2.11-.17-2.88-2-3.38,0,0-.06-.08-.06-.12,0-.23,0-.46,0-.68a11.65,11.65,0,0,0-6.43-10.49,7.83,7.83,0,0,1-3.81-4.16,11.49,11.49,0,0,0-5.63-6.06,11.93,11.93,0,0,0-5-1.27c-.78,0-1.27.35-1.3,1s.39,1,1.19,1.12l.27,0a9.44,9.44,0,0,1,8.59,6,9.62,9.62,0,0,0,4.77,5.17,9.25,9.25,0,0,1,4.45,4.71,9,9,0,0,1,.77,4.78h-5.92a4.67,4.67,0,0,1,.07-.57,7.54,7.54,0,0,0-4-8.23,4.67,4.67,0,0,1-2.19-2.4,7.63,7.63,0,0,0-14,0,4.84,4.84,0,0,1-2.24,2.44A7.38,7.38,0,0,0,163.29,78c0,.68.12,1.37.18,2.06h-5.91c0-.26,0-.48,0-.7A9.48,9.48,0,0,1,163,70.54a8.88,8.88,0,0,0,4.42-4.69,10,10,0,0,1,5.43-5.72l.07,0a1,1,0,1,0-.84-1.9,11.46,11.46,0,0,0-6.37,6.39,7.66,7.66,0,0,1-3.86,4.19,11.45,11.45,0,0,0-5.49,6A12.89,12.89,0,0,0,155.41,80.05Zm29.33,16.84a1,1,0,0,0,0,2.09,1.08,1.08,0,0,0,1-1.06A1.06,1.06,0,0,0,184.74,96.89Zm9.38-32.14a1,1,0,0,0-1-1.06,1.07,1.07,0,0,0-1.06,1,1,1,0,0,0,1,1.05A1,1,0,0,0,194.12,64.75ZM162,62.69a1.07,1.07,0,0,0-1-1,1.09,1.09,0,0,0-1,1,1.05,1.05,0,0,0,1,1A1,1,0,0,0,162,62.69Z" transform="translate(-42.09 -39.21)"/><path d="M155.41,80.05a12.89,12.89,0,0,1,.9-5.25,11.45,11.45,0,0,1,5.49-6,7.66,7.66,0,0,0,3.86-4.19A11.46,11.46,0,0,1,172,58.21a1,1,0,1,1,.84,1.9l-.07,0a10,10,0,0,0-5.43,5.72A8.88,8.88,0,0,1,163,70.54a9.48,9.48,0,0,0-5.42,8.86c0,.22,0,.44,0,.7h5.91c-.06-.69-.19-1.38-.18-2.06a7.38,7.38,0,0,1,4.05-6.71,4.84,4.84,0,0,0,2.24-2.44,7.63,7.63,0,0,1,14,0,4.67,4.67,0,0,0,2.19,2.4,7.54,7.54,0,0,1,4,8.23,4.67,4.67,0,0,0-.07.57h5.92a9,9,0,0,0-.77-4.78,9.25,9.25,0,0,0-4.45-4.71,9.62,9.62,0,0,1-4.77-5.17,9.44,9.44,0,0,0-8.59-6l-.27,0c-.8-.07-1.23-.48-1.19-1.12s.52-1,1.3-1a11.93,11.93,0,0,1,5,1.27,11.49,11.49,0,0,1,5.63,6.06,7.83,7.83,0,0,0,3.81,4.16,11.65,11.65,0,0,1,6.43,10.49c0,.22,0,.45,0,.68,0,0,0,.08.06.12,1.8.5,2.25,1.27,2,3.38a10,10,0,0,1-9.92,8.74c-1.19,0-2.37,0-3.55,0-.79,0-1.24-.38-1.24-1s.46-1,1.27-1c1.56,0,3.14,0,4.69-.15a7.83,7.83,0,0,0,6.6-6.45c.06-.41.11-.83.16-1.3l-.61,0c-3.6,0-7.19,0-10.78,0a8.94,8.94,0,0,0-8.78,7.15c0,.22-.06.45-.1.78h1.86c.8,0,1.59,0,2.39,0s1.25.35,1.25,1-.42,1-1.22,1c-1.39,0-2.77,0-4.27,0v.75c0,1.62,0,3.23,0,4.85A1.1,1.1,0,0,1,176.51,99a1.12,1.12,0,0,1-1-1.2c0-.16,0-.32,0-.48V92.19h-.79c-3.84,0-7.69,0-11.53,0a10,10,0,0,1-10-9.55,2.07,2.07,0,0,1,2-2.51A2.07,2.07,0,0,0,155.41,80.05Zm21.06,6.17a1.19,1.19,0,0,0,.17-.14,10.93,10.93,0,0,1,10.21-5.93.67.67,0,0,0,.76-.56A5.43,5.43,0,0,0,185,73.21a7,7,0,0,1-3.28-3.56,5.54,5.54,0,0,0-10.09-.1,7.3,7.3,0,0,1-3.41,3.71,5.39,5.39,0,0,0-2.58,6.35.62.62,0,0,0,.71.54,10.8,10.8,0,0,1,4.52.83A11.21,11.21,0,0,1,176.47,86.22Zm-21.31-4c.1.64.13,1.18.26,1.71a8,8,0,0,0,7.86,6.22h12.18c0-.33-.06-.58-.11-.82a8.92,8.92,0,0,0-8.8-7.11c-2.73,0-5.46,0-8.19,0Z" transform="translate(-42.09 -39.21)"/><path d="M184.74,96.89a1.06,1.06,0,0,1,1,1,1.08,1.08,0,0,1-1,1.06,1,1,0,0,1,0-2.09Z" transform="translate(-42.09 -39.21)"/><path d="M194.12,64.75a1,1,0,0,1-1,1,1,1,0,0,1-1-1.05,1.07,1.07,0,0,1,1.06-1A1,1,0,0,1,194.12,64.75Z" transform="translate(-42.09 -39.21)"/><path d="M162,62.69a1,1,0,0,1-1,1,1.05,1.05,0,0,1-1-1,1.09,1.09,0,0,1,1-1A1.07,1.07,0,0,1,162,62.69Z" transform="translate(-42.09 -39.21)"/><path class="cls-1" d="M176.47,86.22A11.21,11.21,0,0,0,170.82,81a10.8,10.8,0,0,0-4.52-.83.62.62,0,0,1-.71-.54,5.39,5.39,0,0,1,2.58-6.35,7.3,7.3,0,0,0,3.41-3.71,5.54,5.54,0,0,1,10.09.1A7,7,0,0,0,185,73.21a5.43,5.43,0,0,1,2.66,6.38.67.67,0,0,1-.76.56,10.93,10.93,0,0,0-10.21,5.93A1.19,1.19,0,0,1,176.47,86.22Zm.17-10.57a3.51,3.51,0,0,1,2.74,1.28,1,1,0,0,0,1.52.14A1,1,0,0,0,181,75.6a5.62,5.62,0,0,0-8.76.14,1.3,1.3,0,0,0-.12,1.07,1.06,1.06,0,0,0,.81.58,1.73,1.73,0,0,0,1-.54A3.57,3.57,0,0,1,176.64,75.65Z" transform="translate(-42.09 -39.21)"/><path class="cls-1" d="M155.16,82.22h3.2c2.73,0,5.46,0,8.19,0a8.92,8.92,0,0,1,8.8,7.11c.05.24.07.49.11.82H163.28a8,8,0,0,1-7.86-6.22C155.29,83.4,155.26,82.86,155.16,82.22Z" transform="translate(-42.09 -39.21)"/><path d="M176.64,75.65a3.57,3.57,0,0,0-2.71,1.2,1.73,1.73,0,0,1-1,.54,1.06,1.06,0,0,1-.81-.58,1.3,1.3,0,0,1,.12-1.07A5.62,5.62,0,0,1,181,75.6a1,1,0,0,1-.07,1.47,1,1,0,0,1-1.52-.14A3.51,3.51,0,0,0,176.64,75.65Z" transform="translate(-42.09 -39.21)"/><path d="M211.58,175c-.32.39-.72.72-1.21.49a1.45,1.45,0,0,1-.67-.82.84.84,0,0,1,.54-1.1,1.06,1.06,0,0,1,1.34.47Z" transform="translate(-42.09 -39.21)"/><path d="M166.68,189.39a8.19,8.19,0,0,0-.73-5l-.28-.54a1,1,0,1,1,1.69-.87,10.06,10.06,0,0,1,1.13,7.16.9.9,0,0,0,.33,1c2.13,1.7,4.24,3.44,6.35,5.17l.52.4v-.63c0-3.69,0-7.37,0-11.05a.85.85,0,0,0-.52-.9,13.16,13.16,0,0,1-6.83-9.74c-1.13-6.56.75-12.4,4.58-17.68a38.33,38.33,0,0,1,2.9-3.34c.66-.71,1.09-.68,1.79,0a25.24,25.24,0,0,1,7.57,14.6,17,17,0,0,1-2,11.39,13.16,13.16,0,0,1-5.19,4.9.81.81,0,0,0-.41.57c0,3.87,0,7.73,0,11.6a1.47,1.47,0,0,0,.07.26c1-.86,2-1.67,2.93-2.49,1.2-1,2.4-2,3.58-3.06a.82.82,0,0,0,.23-.66c-1-4.48.65-8.07,3.89-11.06a17.75,17.75,0,0,1,10.34-4.58c1.16-.13,2.35-.12,3.53-.14a.84.84,0,0,1,.93.94c-.15,6.35-2.36,11.72-7.71,15.45a10.19,10.19,0,0,1-9.22,1.4,1,1,0,0,0-.77.16q-4,3.33-7.91,6.71c-.72.62-1,.55-1.73-.07-1.85-1.58-3.75-3.11-5.63-4.65-.86-.71-1.72-1.41-2.6-2.1a.76.76,0,0,0-.58-.17c-5.07,1.66-9.08-.16-12.47-3.84a18.38,18.38,0,0,1-4.58-10.35,22.43,22.43,0,0,1-.17-2.31c0-.86.26-1.16,1.12-1.19a20,20,0,0,1,10.48,2.42c.66.36.85.85.56,1.38s-.83.64-1.48.29a18,18,0,0,0-8.07-2.19h-.74c.16,1,.26,2,.48,3a15.66,15.66,0,0,0,6,9.62,8.81,8.81,0,0,0,6.87,1.76l.26-.06a.88.88,0,0,0,.16-.15l-2.67-2.19c-1.61-1.31-3.21-2.61-4.81-3.93a.94.94,0,0,1-.23-1.42,1,1,0,0,1,1.45,0l.22.18,6.75,5.52Zm8.88-23.9.13-.06c0-1.7,0-3.41,0-5.11a1,1,0,0,1,1-1.07c.55.05.87.47.87,1.17v12.44a13.78,13.78,0,0,0,1.28-1.76c.4-.61.94-.78,1.43-.46s.57.85.17,1.49c-.74,1.19-1.47,2.4-2.27,3.56a3.38,3.38,0,0,0-.62,2.16c0,1.46,0,2.93,0,4.54.43-.29.76-.49,1.06-.72,3.37-2.57,4.69-6.14,4.8-10.22a21.39,21.39,0,0,0-4.05-12.83c-.8-1.19-1.74-2.29-2.67-3.5-4.73,5.33-7.49,11.18-6.63,18.31a11.71,11.71,0,0,0,4.82,8.37c.22.16.46.29.76.48,0-4.37,0-8.59,0-12.82a1.59,1.59,0,0,0-.29-.8c-.73-1.1-1.49-2.18-2.23-3.27-.47-.7-.44-1.26.08-1.6s1-.15,1.49.49Zm11.93,25.43a8.64,8.64,0,0,0,6.4-1.07,13.42,13.42,0,0,0,4.67-4.68,18.67,18.67,0,0,0,2.64-8.51l-.38,0a17.38,17.38,0,0,0-9.1,2.62,11.47,11.47,0,0,0-5.45,7,6.93,6.93,0,0,0-.07,3.27l.5-.4,6.81-5.78c.6-.51,1.16-.52,1.55-.06s.3,1-.32,1.52L191,187.93Z" transform="translate(-42.09 -39.21)"/><path d="M176.66,147.52a23,23,0,0,1,22.46,18.68c.14.74-.14,1.26-.74,1.38s-1-.25-1.13-1c-1.51-7.19-5.54-12.41-12.26-15.39a21,21,0,0,0-28.92,15.33c-.19,1-.23,2.11-.33,3.17,0,.21,0,.41,0,.62-.08.69-.45,1.05-1,1a.9.9,0,0,1-.85-1.09,28.42,28.42,0,0,1,.53-4.72c2.33-9.3,8.21-15.11,17.5-17.47a10.54,10.54,0,0,1,1.68-.29C174.57,147.66,175.62,147.6,176.66,147.52Z" transform="translate(-42.09 -39.21)"/><path d="M171.69,207.14a1.05,1.05,0,0,1,1.1,1,1,1,0,0,1-1,1,1.07,1.07,0,0,1-1.11-1A1,1,0,0,1,171.69,207.14Z" transform="translate(-42.09 -39.21)"/><path d="M155.46,148.7a1.22,1.22,0,0,1-1.12,1.07,1,1,0,0,1-.93-1,1.13,1.13,0,0,1,1.1-1.06A1,1,0,0,1,155.46,148.7Z" transform="translate(-42.09 -39.21)"/><path d="M148,157.07a1,1,0,0,1-1-1,1.23,1.23,0,0,1,1.1-1.11,1,1,0,0,1,.91,1A1.16,1.16,0,0,1,148,157.07Z" transform="translate(-42.09 -39.21)"/><path d="M141.72,174.43a.93.93,0,0,1,.89-1.05,1,1,0,0,1,1,1,1,1,0,1,1-1.9,0Z" transform="translate(-42.09 -39.21)"/><path d="M206.25,156.17a.94.94,0,0,1-.92,1,1.16,1.16,0,0,1-1.07-1.12.91.91,0,0,1,.91-.92A1.07,1.07,0,0,1,206.25,156.17Z" transform="translate(-42.09 -39.21)"/><path d="M162.51,206.37a1.17,1.17,0,0,1-1.09-1,1,1,0,0,1,1-1,1.18,1.18,0,0,1,1.12,1.07A1,1,0,0,1,162.51,206.37Z" transform="translate(-42.09 -39.21)"/><path d="M181.48,139.84a1,1,0,0,1,1.07,1,.94.94,0,0,1-1,.95,1,1,0,0,1-1.07-1A1,1,0,0,1,181.48,139.84Z" transform="translate(-42.09 -39.21)"/><path d="M182.46,208.11a1.06,1.06,0,0,1-1.09,1,1,1,0,0,1-1-1,1,1,0,0,1,1.12-.95A1,1,0,0,1,182.46,208.11Z" transform="translate(-42.09 -39.21)"/><path d="M171.79,141.77a1,1,0,0,1-1-1,1.07,1.07,0,0,1,1.14-.95,1,1,0,1,1-.14,1.93Z" transform="translate(-42.09 -39.21)"/><path d="M162.48,144.51a1,1,0,0,1-1-.95,1.14,1.14,0,0,1,1.16-1,.94.94,0,0,1,.92,1A1.06,1.06,0,0,1,162.48,144.51Z" transform="translate(-42.09 -39.21)"/><path d="M199,149.79a1.08,1.08,0,0,1-1.07-1.09.91.91,0,0,1,.91-.92,1.18,1.18,0,0,1,1.12,1.07A1,1,0,0,1,199,149.79Z" transform="translate(-42.09 -39.21)"/><path d="M210.25,165a1,1,0,0,1-.92,1,1.11,1.11,0,0,1-1-1.14,1,1,0,0,1,.93-1A1.07,1.07,0,0,1,210.25,165Z" transform="translate(-42.09 -39.21)"/><path d="M144,185a1,1,0,0,1-1-1.08.94.94,0,0,1,.91-1,1.06,1.06,0,0,1,1,1.12A.93.93,0,0,1,144,185Z" transform="translate(-42.09 -39.21)"/><path d="M148,193.84a1.14,1.14,0,0,1-1-1.17.89.89,0,0,1,1-.88,1.07,1.07,0,0,1,1,1.1A1,1,0,0,1,148,193.84Z" transform="translate(-42.09 -39.21)"/><path d="M198.9,199.19a1,1,0,0,1,.94,1,1.12,1.12,0,0,1-1,1.06,1,1,0,0,1-1-.92A1.23,1.23,0,0,1,198.9,199.19Z" transform="translate(-42.09 -39.21)"/><path d="M191.84,143.58a1,1,0,0,1-.93,1,1.18,1.18,0,0,1-1.15-1,1,1,0,0,1,.94-1A1.14,1.14,0,0,1,191.84,143.58Z" transform="translate(-42.09 -39.21)"/><path d="M145,164.75a1,1,0,0,1-.93,1.12.92.92,0,0,1-1-1,1,1,0,0,1,1-1.07A.89.89,0,0,1,145,164.75Z" transform="translate(-42.09 -39.21)"/><path d="M210.21,184.1a1,1,0,0,1-1,1.08.93.93,0,0,1-.92-1,1.06,1.06,0,0,1,1-1.13A1,1,0,0,1,210.21,184.1Z" transform="translate(-42.09 -39.21)"/><path d="M205.18,194a1,1,0,0,1-1-.92,1.08,1.08,0,0,1,1-1.11,1,1,0,0,1,1,.87A1.18,1.18,0,0,1,205.18,194Z" transform="translate(-42.09 -39.21)"/><path d="M191.73,205.39a1.1,1.1,0,0,1-1.16,1,.91.91,0,0,1-.92-.9c-.06-.52.54-1.05,1.12-1.06A1,1,0,0,1,191.73,205.39Z" transform="translate(-42.09 -39.21)"/><path d="M155.35,200.17a.91.91,0,0,1-.93,1,1.13,1.13,0,0,1-1.1-1,.94.94,0,0,1,.9-1A1.16,1.16,0,0,1,155.35,200.17Z" transform="translate(-42.09 -39.21)"/><path d="M199.43,170.38a.9.9,0,0,1-.91,1,.94.94,0,0,1-1-.91,1,1,0,0,1,.92-1A1,1,0,0,1,199.43,170.38Z" transform="translate(-42.09 -39.21)"/><path d="M165.05,180.38a.9.9,0,0,1-1,.91,1,1,0,0,1-.93-1,1,1,0,0,1,1-.92A.93.93,0,0,1,165.05,180.38Z" transform="translate(-42.09 -39.21)"/><path d="M293.12,40.18a17.45,17.45,0,0,1,1.18,1.54,170.92,170.92,0,0,1,11.87,21.86,33.38,33.38,0,0,1,2.64,8,14.4,14.4,0,0,1-1.94,9.85,16,16,0,0,1-15.54,8.34A16.39,16.39,0,0,1,276.82,78a1.38,1.38,0,1,1,2.63-.8,13.5,13.5,0,0,0,10.18,9.49A13.7,13.7,0,0,0,306,75.91c.56-3.1-.25-5.91-1.34-8.7a137.51,137.51,0,0,0-9.55-18.83c-.8-1.37-1.64-2.73-2.48-4.14a1.46,1.46,0,0,0-.25.24,168.69,168.69,0,0,0-11.28,21.09c-.21.48-.38,1-.58,1.46-.39,1-1.09,1.37-1.89,1a1.38,1.38,0,0,1-.68-2c1.55-3.39,3-6.84,4.74-10.12,2.63-4.88,5.5-9.63,8.29-14.43a10.58,10.58,0,0,1,1-1.3Z" transform="translate(-42.09 -39.21)"/><path d="M261.14,90.29a9.55,9.55,0,0,1-9.53-10.13,14.5,14.5,0,0,1,1.29-4.35,72,72,0,0,1,7-12.23,1.36,1.36,0,0,1,2.38-.07A76.93,76.93,0,0,1,270,77.17,9.44,9.44,0,0,1,263.23,90C262.54,90.13,261.84,90.19,261.14,90.29Zm.06-23.47c-.11.06-.16.06-.18.1-.23.34-.46.68-.67,1a61.35,61.35,0,0,0-5.44,10.21,6.24,6.24,0,0,0-.51,3.52A6.59,6.59,0,0,0,259,87.09a6.37,6.37,0,0,0,7-1.66,6.18,6.18,0,0,0,1.57-6.83,49.08,49.08,0,0,0-4.29-8.5C262.58,69,261.88,67.91,261.2,66.82Z" transform="translate(-42.09 -39.21)"/><path d="M276.15,110.18a8.52,8.52,0,0,1-8.06-7,9.38,9.38,0,0,1,.81-5.38A66,66,0,0,1,275,86.75a1.32,1.32,0,0,1,2.25-.08c2.66,4.1,5.32,8.22,6.78,12.94A8.4,8.4,0,0,1,276.15,110.18Zm0-20.15a61.4,61.4,0,0,0-5.11,9.84,5.84,5.84,0,0,0,2.29,6.64,5,5,0,0,0,3.41.88,5.83,5.83,0,0,0,4.52-7.49A62.54,62.54,0,0,0,276.17,90Z" transform="translate(-42.09 -39.21)"/><path d="M293.06,84.37a5.87,5.87,0,0,1-1-.11,1.37,1.37,0,0,1,.52-2.65,8.29,8.29,0,0,0,8.15-8.07c.05-1,.55-1.51,1.39-1.5s1.34.59,1.35,1.54a10.94,10.94,0,0,1-9.18,10.62Z" transform="translate(-42.09 -39.21)"/><path d="M277.53,73.4A1.37,1.37,0,1,1,278.9,72,1.34,1.34,0,0,1,277.53,73.4Z" transform="translate(-42.09 -39.21)"/><path class="cls-1" d="M261.2,66.82c.68,1.09,1.38,2.17,2,3.28a49.08,49.08,0,0,1,4.29,8.5A6.18,6.18,0,0,1,266,85.43a6.37,6.37,0,0,1-7,1.66,6.59,6.59,0,0,1-4.59-5.42,6.24,6.24,0,0,1,.51-3.52,61.35,61.35,0,0,1,5.44-10.21c.21-.34.44-.68.67-1C261,66.88,261.09,66.88,261.2,66.82Z" transform="translate(-42.09 -39.21)"/><path class="cls-1" d="M276.17,90a62.54,62.54,0,0,1,5.11,9.87,5.83,5.83,0,0,1-4.52,7.49,5,5,0,0,1-3.41-.88,5.84,5.84,0,0,1-2.29-6.64A61.4,61.4,0,0,1,276.17,90Z" transform="translate(-42.09 -39.21)"/><path d="M321.81,203.51a6.45,6.45,0,0,1-5,5.24,13.53,13.53,0,0,1-3.44.57q-10.39.09-20.78,0a8.52,8.52,0,0,1-5-2,28.67,28.67,0,0,1-5.52-5.91c-1.17-1.53-2.3-3.08-3.49-4.59a21.31,21.31,0,0,0-7.18-5.77,36.21,36.21,0,0,1-7.53-4.63,14.26,14.26,0,0,1-5-11.95,13.33,13.33,0,0,1,3.77-8.7c2-2.21,4.12-4.32,6.11-6.54a35.05,35.05,0,0,0,8.1-16,4.67,4.67,0,0,1,4.94-3.88c5.39.1,10.78.15,16.17,0a4.44,4.44,0,0,1,4.12,6.59,63.13,63.13,0,0,0-5.49,15.42,31.72,31.72,0,0,0,4,24,49.35,49.35,0,0,0,6.27,8.64q.58.6,1.2,1.17a4.56,4.56,0,0,0,3.39,1.32,28.27,28.27,0,0,1,4.5.29c2.67.35,4.94,1.33,5.86,4.17Zm-18.81,3v0c3.15,0,6.31.1,9.46,0a16.14,16.14,0,0,0,4.54-.91,3.05,3.05,0,0,0,1.93-3.44c-.14-1.19-.92-2-2.55-2.25a30,30,0,0,0-4.82-.4,7.24,7.24,0,0,1-4.92-1.74,22.75,22.75,0,0,1-1.87-1.67,47.86,47.86,0,0,1-8-11.65,33.16,33.16,0,0,1-3.4-21.19,66,66,0,0,1,6.06-18.37c.79-1.61.22-2.54-1.56-2.54H281.77c-1.33,0-1.71.29-2,1.61a39.21,39.21,0,0,1-9.56,18.18c-1.91,2-3.85,4-5.73,6.09-4.28,4.7-3.34,12.88,1.89,16.57a36.5,36.5,0,0,0,5.43,3.26,28.48,28.48,0,0,1,11.3,9.91,34.42,34.42,0,0,0,5.75,6.71,7.57,7.57,0,0,0,5.21,1.91C297,206.48,300,206.52,303,206.52Z" transform="translate(-42.09 -39.21)"/><path d="M236,172.07c.22-1.31.42-2.62.66-3.92a34.74,34.74,0,0,1,6.87-15c.68-.87,1.53-1.06,2.22-.52s.77,1.39.07,2.28a30.41,30.41,0,0,0-6.2,13.34c-2.3,12.78.85,23.91,10.67,32.75a86.68,86.68,0,0,0,7.41,5.4c.16.11.34.2.5.31a1.44,1.44,0,1,1-1.51,2.45c-1.92-1.23-3.88-2.42-5.7-3.79-6.38-4.8-11.09-10.87-13.32-18.61-.73-2.55-1-5.22-1.51-7.84,0-.21-.11-.42-.16-.63Z" transform="translate(-42.09 -39.21)"/><path d="M262.61,158.08a6.7,6.7,0,0,1,1.21,1.06,1.21,1.21,0,0,1-.26,1.59c-.85.92-1.74,1.81-2.58,2.74-2.39,2.63-4.25,5.54-4.7,9.14-.91,7.33,1.45,13.27,7.68,17.46a43.55,43.55,0,0,0,5.5,3.17,21.53,21.53,0,0,1,7.75,6.35q2.87,3.69,5.78,7.36a1.4,1.4,0,0,1,.18,1.76,1.31,1.31,0,0,1-1.59.61,2.26,2.26,0,0,1-1-.73c-1.93-2.42-3.86-4.84-5.74-7.29a18.56,18.56,0,0,0-6.66-5.45,33,33,0,0,1-9.56-6.5,19.43,19.43,0,0,1-5.36-11.77c-.72-6.51,1.59-11.89,6-16.54.71-.75,1.42-1.5,2.16-2.21A7.11,7.11,0,0,1,262.61,158.08Z" transform="translate(-42.09 -39.21)"/><path d="M244.58,174.62c-.08-7.12,3-13.6,8.21-19.2,1.21-1.3,2.44-2.6,3.71-3.85a22.56,22.56,0,0,0,6.29-10.74c.17-.67.46-1.21,1.19-1.35a1.44,1.44,0,0,1,1.63,2,48.7,48.7,0,0,1-1.69,4.7,26.1,26.1,0,0,1-5.7,7.77,48.5,48.5,0,0,0-7.06,8.34,24.21,24.21,0,0,0-3.44,16.4c.23,1.73.68,3.43,1.07,5.14.23,1-.06,1.73-.92,2s-1.53-.19-1.86-1.2A32.9,32.9,0,0,1,244.58,174.62Z" transform="translate(-42.09 -39.21)"/><path d="M272.5,208.13c-.39.4-.71.93-1.17,1.16a1.31,1.31,0,0,1-1.63-.51c-.85-1.1-1.67-2.23-2.56-3.3a5,5,0,0,0-1.39-1.15c-3.2-1.75-6.5-3.32-9.35-5.64-1.42-1.16-2.79-2.39-4.15-3.62a1.42,1.42,0,0,1-.11-2.08,1.37,1.37,0,0,1,2.08,0,43.77,43.77,0,0,0,12.2,8.36,9.12,9.12,0,0,1,3.44,2.84c.68.92,1.39,1.81,2.05,2.74A8.39,8.39,0,0,1,272.5,208.13Z" transform="translate(-42.09 -39.21)"/><path d="M274.58,141.23c-.41,1.45-.77,3.22-1.42,4.9-.82,2.14-1.83,4.21-2.83,6.28a1.46,1.46,0,0,1-2.11.86,1.49,1.49,0,0,1-.41-2.24,34.87,34.87,0,0,0,3.73-9.75,4.62,4.62,0,0,1,.38-1.1,1.34,1.34,0,0,1,1.64-.68C274.25,139.68,274.61,140.19,274.58,141.23Z" transform="translate(-42.09 -39.21)"/><path d="M256.76,140.94c-.07.2-.16.49-.26.78-1.07,2.87-3.14,5-5.28,7.09a1.38,1.38,0,0,1-2-.07,1.39,1.39,0,0,1,0-2c.28-.34.61-.65.92-1a15.67,15.67,0,0,0,3.8-5.41,1.36,1.36,0,0,1,1.66-.93C256.31,139.62,256.65,140.14,256.76,140.94Z" transform="translate(-42.09 -39.21)"/><path class="cls-1" d="M303,206.52c-3,0-6,0-9,0a7.57,7.57,0,0,1-5.21-1.91,34.42,34.42,0,0,1-5.75-6.71,28.48,28.48,0,0,0-11.3-9.91,36.5,36.5,0,0,1-5.43-3.26c-5.23-3.69-6.17-11.87-1.89-16.57,1.88-2.06,3.82-4.06,5.73-6.09a39.21,39.21,0,0,0,9.56-18.18c.31-1.32.69-1.61,2-1.61h16.08c1.78,0,2.35.93,1.56,2.54a66,66,0,0,0-6.06,18.37,33.16,33.16,0,0,0,3.4,21.19,47.86,47.86,0,0,0,8,11.65,22.75,22.75,0,0,0,1.87,1.67,7.24,7.24,0,0,0,4.92,1.74,30,30,0,0,1,4.82.4c1.63.26,2.41,1.06,2.55,2.25a3.05,3.05,0,0,1-1.93,3.44,16.14,16.14,0,0,1-4.54.91c-3.15.14-6.31,0-9.46,0Zm-29.16-38.34-.21.07c.37,1.07.68,2.15,1.14,3.17a1.52,1.52,0,0,0,1.07.78,2.06,2.06,0,0,0,1.36-.55c.49-.48.32-1.11,0-1.71-1.1-2.2-.41-3.9,1.9-4.77l.31-.12a1.43,1.43,0,0,0-.92-2.71A6,6,0,0,0,273.84,168.18Z" transform="translate(-42.09 -39.21)"/><path d="M273.84,168.18a6,6,0,0,1,4.67-5.84,1.43,1.43,0,0,1,.92,2.71l-.31.12c-2.31.87-3,2.57-1.9,4.77.3.6.47,1.23,0,1.71a2.06,2.06,0,0,1-1.36.55,1.52,1.52,0,0,1-1.07-.78c-.46-1-.77-2.1-1.14-3.17Z" transform="translate(-42.09 -39.21)"/><image width="512" height="512" transform="translate(84.16 944.02) scale(0.75)" xlink:href="../../../../../../../Volumes/Data/Downloads/investment.png"/><image width="512" height="512" transform="translate(697.55 1328.02) scale(0.75)" xlink:href="../../../../../../../Volumes/Data/Downloads/pedicure.png"/><image width="512" height="512" transform="translate(84.16 1525.96) scale(0.75)" xlink:href="../../../../../../../Volumes/Data/Downloads/premium-icon-yin-yang-4742368.png"/><image width="512" height="512" transform="translate(1252.23 1451.51) scale(0.75)" xlink:href="../../../../../../../Volumes/Data/Downloads/slippers.png"/></svg>