<svg xmlns="http://www.w3.org/2000/svg" viewBox="0 0 70.01 70"><defs><style>.cls-1{fill:#e9511c;}</style></defs><g id="Layer_2" data-name="Layer 2"><g id="Layer_1-2" data-name="Layer 1"><path class="cls-1" d="M34.15,70l-3-.3A33.45,33.45,0,0,1,15.5,64,34.46,34.46,0,0,1,1,43.3,35,35,0,1,1,68.94,26.73c.51,2.15.63,4.4.93,6.61,0,.27.09.53.14.8v1.64c-.05.27-.1.53-.14.8-.31,2.22-.43,4.49-1,6.67A34.21,34.21,0,0,1,54.45,64,33.49,33.49,0,0,1,38.77,69.7l-3,.3Zm.78-2a33.05,33.05,0,1,0-33-33.14A33.09,33.09,0,0,0,34.93,68Z"/><path class="cls-1" d="M23.94,35c0-4.17,0-8.35,0-12.52,0-2.31,1.65-3.3,3.67-2.21q8.13,4.44,16.25,8.88c.28.15.63.35.71.6a1.27,1.27,0,0,1-.14,1,1.13,1.13,0,0,1-1,.21,22.75,22.75,0,0,1-2.3-1.19L26.83,22c-.88-.48-.95-.44-.95.54V47.43c0,.92.1,1,.92.53L49.48,35.58l.42-.23c.46-.26.47-.52,0-.78-.69-.39-1.4-.75-2.09-1.16a.9.9,0,0,1-.52-1.13.86.86,0,0,1,1.23-.59,22.05,22.05,0,0,1,2.74,1.52,2.13,2.13,0,0,1,0,3.5,5,5,0,0,1-.69.43l-23,12.54c-2,1.1-3.67.1-3.67-2.2C23.93,43.31,23.94,39.13,23.94,35Z"/><path class="cls-1" d="M24.54,61.64a.89.89,0,0,1-1.4.78,49.24,49.24,0,0,1-4.79-2.62A29.21,29.21,0,0,1,8.27,48.42c-.14-.26-.35-.57-.31-.81a1.27,1.27,0,0,1,.54-.85,1.22,1.22,0,0,1,1,.14,1.92,1.92,0,0,1,.53.77A27.89,27.89,0,0,0,23.46,60.49C24,60.73,24.57,60.9,24.54,61.64Z"/><path class="cls-1" d="M48.78,8.52a5.84,5.84,0,0,1,.73.29A30.06,30.06,0,0,1,61.78,21.68c.36.7.24,1.25-.31,1.52s-1,.05-1.37-.65a27.92,27.92,0,0,0-7.85-9.61c-1.18-.92-2.49-1.68-3.74-2.52-.68-.46-.83-1-.35-1.53A2.68,2.68,0,0,1,48.78,8.52Z"/><path class="cls-1" d="M43.49,8.25c-.72-.2-1.67-.43-2.59-.75a.81.81,0,0,1-.5-1.12.88.88,0,0,1,1.07-.64c.87.2,1.72.44,2.57.7a.9.9,0,0,1,.63,1.13C44.57,8.09,44.21,8.26,43.49,8.25Z"/></g></g></svg>