<svg xmlns="http://www.w3.org/2000/svg" viewBox="0 0 71 71"><defs><style>.cls-1{fill:#7b7b7b;}.cls-2{fill:none;stroke:#7b7b7b;stroke-miterlimit:10;stroke-dasharray:1 2.01;}</style></defs><g id="Layer_2" data-name="Layer 2"><g id="Layer_1-2" data-name="Layer 1"><path class="cls-1" d="M45.77,42.06v3.87l.14.13c0-.09,0-.21.09-.27a6.71,6.71,0,0,1,5.13-2.23c1.69,0,3.38,0,5.11,0a6.6,6.6,0,0,1-.38,3.12,6.78,6.78,0,0,1-6.34,4.4H45.78v3.76H59.25v1.5H15.05a2.23,2.23,0,0,1-2.39-2.41c0-.3,0-.6,0-.89a2.38,2.38,0,0,1,1.55-2.64V47.24l-.32-.16a2.18,2.18,0,0,1-1.23-2c0-.52,0-1,0-1.55a2.22,2.22,0,0,1,2.22-2.21H27a2.22,2.22,0,0,1,2.2,2.18,16.66,16.66,0,0,1-.1,2.34s0,.06,0,.07a2.39,2.39,0,0,1,1.56,2.61,3.64,3.64,0,0,0,0,.66,2.36,2.36,0,0,1-1.56,2.58v3.07H44.22V53.34H40.6A6.7,6.7,0,0,1,33.88,48a18.3,18.3,0,0,1-.23-2.21h5.24A6.7,6.7,0,0,1,44,48c.07.08.12.18.27.21V42.06a8.34,8.34,0,0,1-5.39-13.82c-.73-.56-1.46-.65-3.6-.44v1.45H24.73V12.76H35.21v1.46H37.9a.72.72,0,0,0,.32-.19c.54-.4,1.09-.78,1.61-1.21a4.8,4.8,0,0,1,2.71-1c1.12-.12,2.24-.29,3.36-.41a5.47,5.47,0,0,0,2.62-1.17A2.28,2.28,0,0,1,50,9.71a1.93,1.93,0,0,1,1.82,1.81,5.38,5.38,0,0,1-1.36,4l-.18.23h3a10.76,10.76,0,0,0,1.27,0,2.29,2.29,0,0,1,2.42,3,2.36,2.36,0,0,1,1.93,1,2.24,2.24,0,0,1,.41,1.55,2.34,2.34,0,0,1-2.34,2.06,2.32,2.32,0,0,1-.36,2.07,2.27,2.27,0,0,1-1.9.92,2.32,2.32,0,0,1-.48,2.25,2.4,2.4,0,0,1-2.25.72,8.35,8.35,0,0,1-6.18,12.81Zm3.76-20.31h.56c2.23,0,4.45,0,6.68,0a1.4,1.4,0,0,0,.85-.35.72.72,0,0,0,0-.71,1.24,1.24,0,0,0-.81-.42c-2.27,0-4.54,0-6.81,0h-.5V18.74h4.62a4.85,4.85,0,0,0,.66,0,.77.77,0,0,0,.71-.74.78.78,0,0,0-.71-.74,2.44,2.44,0,0,0-.38,0H47.29a1,1,0,0,0-.78.32,3.31,3.31,0,0,1-2.2,1.15c-1,.08-2,0-3,0V17.24c.58,0,1.13,0,1.67,0a3.21,3.21,0,0,0,3-1.21,1.07,1.07,0,0,1,.67-.3A3.79,3.79,0,0,0,50.25,12a.82.82,0,0,0-.22-.64c-.14-.09-.47,0-.65.15a7.11,7.11,0,0,1-2.68,1.3c-1,.17-2,.31-3,.39a5.29,5.29,0,0,0-3.59,1.36c-.25.24-.57.39-.82.63a2.2,2.2,0,0,1-1.75.58c-.76-.06-1.52,0-2.28,0V26.27c.52,0,1,0,1.51,0a4.73,4.73,0,0,1,3.09.69.59.59,0,0,0,.53,0,8.21,8.21,0,0,1,10.05.62c.11.08.23.21.34.22.63,0,1.26,0,1.88,0a.68.68,0,0,0,.62-.72.72.72,0,0,0-.62-.73,1.78,1.78,0,0,0-.46,0H49.54v-1.5h5c.62,0,1-.3,1-.77s-.38-.73-1-.73c-1.51,0-3,0-4.52,0h-.51ZM45,40.56a6.77,6.77,0,1,0-6.79-6.74A6.83,6.83,0,0,0,45,40.56ZM26.2,14.25c0,1.84-.06,3.64,0,5.44a3.75,3.75,0,0,0,7.49-.19c0-1.69,0-3.38,0-5.07a1.13,1.13,0,0,0,0-.18ZM18.67,42.84H17.16v1.45h-1.5V42.81H15.2c-.78,0-1,.26-1,1v.89c0,.82.25,1.07,1.06,1.07H26.74c.66,0,1-.28,1-.93,0-.43,0-.85,0-1.27a.77.77,0,0,0-.8-.8c-.22,0-.43,0-.7,0v1.47H24.68V42.84H23.17v1.45h-1.5V42.85H20.16v1.44H18.67Zm-1.49,4.49h-.49c-.75,0-1,.26-1,1,0,.32,0,.63,0,.94,0,.82.25,1.06,1.07,1.07H28.3a.79.79,0,0,0,.9-.89c0-.44,0-.88,0-1.32a.77.77,0,0,0-.77-.79c-.23,0-.46,0-.74,0v1.46H26.18V47.36H24.67V48.8h-1.5V47.36H21.66V48.8H20.17V47.35H18.66v1.46H17.18Zm-1.52,4.51h-.45c-.78,0-1.05.25-1.05,1,0,.38,0,.75,0,1.13a.78.78,0,0,0,.86.84h11.8a1.08,1.08,0,0,0,.6-.2c.43-.33.44-2.32,0-2.59a4.52,4.52,0,0,0-1.24-.29v1.56H24.68V51.86h-1.5v1.45H21.67V51.87H20.16v1.45h-1.5V51.88H17.15v1.43H15.66Zm30.19-2.28c1.37,0,2.72.09,4.06,0a5.09,5.09,0,0,0,4.54-3.46,9.08,9.08,0,0,0,.25-.92c-1.57,0-3.09-.11-4.59,0A5.07,5.07,0,0,0,45.85,49.56ZM35.32,47.24a3,3,0,0,0,0,.32,4.9,4.9,0,0,0,3.84,4,37.2,37.2,0,0,0,5,.32,4.94,4.94,0,0,0-3.83-4.38A43.27,43.27,0,0,0,35.32,47.24Zm-9.1-19.5h7.45v-4.5a5.31,5.31,0,0,1-7.45,0Z"/><path class="cls-1" d="M42,30h2.24V28.55h1.5V30a2.26,2.26,0,0,1,1.83,1,9.68,9.68,0,0,1,.57,1.32H46.54c-.16-.65-.64-.77-1.25-.74s-1.15,0-1.79,0a7.06,7.06,0,0,0,0,.8.76.76,0,0,0,.8.7c.48,0,1,0,1.45,0A2.23,2.23,0,0,1,48,35.26c0,.74,0,1.48,0,2.29H45.76V39H44.27V37.58a2.25,2.25,0,0,1-1.83-.95,8.17,8.17,0,0,1-.57-1.32h1.59c.15.65.64.77,1.24.74s1.16,0,1.79,0a6.93,6.93,0,0,0,0-.79.77.77,0,0,0-.8-.71H44.23A2.23,2.23,0,0,1,42,32.31Z"/><path class="cls-1" d="M32.21,19.49A2.26,2.26,0,1,1,30,17.24,2.24,2.24,0,0,1,32.21,19.49ZM30,18.75a.78.78,0,0,0-.74.76.75.75,0,1,0,.74-.76Z"/><circle class="cls-2" cx="35.5" cy="35.5" r="35" transform="translate(-1.91 2.02) rotate(-3.17)"/></g></g></svg>