<svg width="56" height="56" viewBox="0 0 56 56" fill="none" xmlns="http://www.w3.org/2000/svg">
<path d="M30.625 37.625C33.1768 37.6221 35.6233 36.6071 37.4277 34.8027C39.2321 32.9983 40.2471 30.5518 40.25 28V10.5C40.2471 7.94818 39.2321 5.50171 37.4277 3.69729C35.6233 1.89288 33.1768 0.877895 30.625 0.875H25.375C22.8232 0.877895 20.3767 1.89288 18.5723 3.69729C16.7679 5.50171 15.7529 7.94818 15.75 10.5V28C15.7529 30.5505 16.7668 32.9958 18.5696 34.8C20.3723 36.6042 22.8169 37.6201 25.3673 37.625V45.3513L22.423 42.4069C22.2589 42.2429 22.0364 42.1508 21.8045 42.1508C21.5725 42.1508 21.35 42.2429 21.1859 42.4069L18.7108 44.882C18.5468 45.0461 18.4547 45.2686 18.4547 45.5005C18.4547 45.7325 18.5468 45.955 18.7108 46.1191L27.3733 54.7816C27.5374 54.9455 27.7598 55.0376 27.9918 55.0376C28.2238 55.0376 28.4462 54.9455 28.6103 54.7816L37.2728 46.1191C37.4368 45.955 37.5289 45.7325 37.5289 45.5005C37.5289 45.2686 37.4368 45.0461 37.2728 44.882L34.7977 42.4069C34.6336 42.2429 34.4111 42.1508 34.1791 42.1508C33.9472 42.1508 33.7247 42.2429 33.5606 42.4069L30.6163 45.3513V37.625H30.625ZM17.5 10.5C17.5024 8.41216 18.3329 6.41052 19.8092 4.93419C21.2855 3.45786 23.2872 2.6274 25.375 2.625H30.625C32.7128 2.6274 34.7145 3.45786 36.1908 4.93419C37.6671 6.41052 38.4976 8.41216 38.5 10.5V14.875H17.5V10.5ZM34.1786 44.263L35.4167 45.5L27.9913 52.9244L20.5669 45.5L21.805 44.263L25.6233 48.0823C25.7457 48.2049 25.9016 48.2883 26.0715 48.3221C26.2413 48.3559 26.4173 48.3386 26.5773 48.2723C26.7373 48.206 26.874 48.0938 26.9701 47.9498C27.0662 47.8057 27.1175 47.6364 27.1173 47.4633V27.0867H28.8663V47.4633C28.8661 47.6364 28.9174 47.8057 29.0135 47.9498C29.1096 48.0938 29.2463 48.206 29.4063 48.2723C29.5663 48.3386 29.7423 48.3559 29.9121 48.3221C30.082 48.2883 30.2379 48.2049 30.3603 48.0823L34.1786 44.263ZM29.7413 25.3367H26.2423C26.0103 25.3367 25.7877 25.4289 25.6236 25.593C25.4595 25.7571 25.3673 25.9797 25.3673 26.2117V35.875C23.2808 35.8706 21.2811 35.0393 19.8064 33.5632C18.3317 32.0871 17.5023 30.0865 17.5 28V16.625H38.5V28C38.4976 30.0878 37.6671 32.0895 36.1908 33.5658C34.7145 35.0421 32.7128 35.8726 30.625 35.875H30.6163V26.2117C30.6163 25.9797 30.5241 25.7571 30.36 25.593C30.1959 25.4289 29.9733 25.3367 29.7413 25.3367Z" fill="#8E8E8E"/>
<path d="M26.25 13.125H29.75C29.9821 13.125 30.2046 13.0328 30.3687 12.8687C30.5328 12.7046 30.625 12.4821 30.625 12.25V5.25C30.625 5.01794 30.5328 4.79538 30.3687 4.63128C30.2046 4.46719 29.9821 4.375 29.75 4.375H26.25C26.0179 4.375 25.7954 4.46719 25.6313 4.63128C25.4672 4.79538 25.375 5.01794 25.375 5.25V12.25C25.375 12.4821 25.4672 12.7046 25.6313 12.8687C25.7954 13.0328 26.0179 13.125 26.25 13.125ZM27.125 6.125H28.875V11.375H27.125V6.125Z" fill="#8E8E8E"/>
</svg>
