<svg width="40" height="40" viewBox="0 0 40 40" fill="none" xmlns="http://www.w3.org/2000/svg">
<circle cx="20" cy="20" r="20" fill="#F46440"/>
<path d="M34 29.4171C33.9289 29.666 33.8625 29.9174 33.7819 30.1639C33.4025 31.3481 32.6298 32.367 31.5918 33.0518C30.5539 33.7366 29.3131 34.046 28.0752 33.9289C25.9414 33.6918 24.4241 32.5656 23.5255 30.6096C23.5018 30.5622 23.4828 30.5101 23.4591 30.4603C23.4463 30.4418 23.4321 30.4243 23.4164 30.4081C21.2435 31.0968 18.9107 31.0968 16.7377 30.4081C16.5812 30.7092 16.4366 31.0198 16.2635 31.3114C15.8501 31.9974 15.2911 32.5841 14.626 33.0303C13.9609 33.4765 13.206 33.7711 12.4145 33.8935C11.623 34.0158 10.8143 33.9628 10.0455 33.7383C9.27677 33.5138 8.56669 33.1232 7.96547 32.5941C7.69282 32.357 7.662 32.0606 7.8896 31.8828C8.07453 31.7358 8.2642 31.7595 8.49892 31.961C9.27906 32.6514 10.2682 33.0603 11.3081 33.1222C12.348 33.1841 13.3786 32.8955 14.2352 32.3025C15.0917 31.7096 15.7247 30.8465 16.0328 29.8514C16.341 28.8562 16.3065 27.7865 15.935 26.8133C15.5634 25.84 14.8762 25.0195 13.9833 24.4829C13.0904 23.9463 12.0433 23.7246 11.0095 23.8533C9.97577 23.982 9.01501 24.4536 8.28092 25.1928C7.54682 25.932 7.0818 26.8959 6.96022 27.9306C6.86594 28.7639 6.99438 29.6074 7.33245 30.3749C7.46759 30.6855 7.40832 30.925 7.17123 31.0293C6.93414 31.1336 6.71839 31.0293 6.57614 30.7163C6.28165 30.0575 6.11999 29.347 6.10041 28.6256C6.08083 27.9042 6.20372 27.186 6.46204 26.5121C6.72035 25.8383 7.10902 25.222 7.6058 24.6985C8.10259 24.175 8.69773 23.7547 9.35717 23.4615L9.63456 23.3406C9.2918 22.2518 9.11438 21.1177 9.10823 19.9763C9.11117 18.833 9.28866 17.6969 9.63456 16.6073C8.93644 16.3385 8.30003 15.931 7.76377 15.4094C7.22752 14.8878 6.80253 14.263 6.51449 13.5726C6.06897 12.5364 5.96679 11.3849 6.22288 10.2865C6.44463 9.20913 6.99318 8.2263 7.79376 7.47196C8.59435 6.71762 9.60804 6.22845 10.6967 6.07112C13.4493 5.7226 15.5926 6.95072 16.7116 9.52312C18.8918 8.82847 21.2339 8.82847 23.4141 9.52312L23.5184 9.30262C24.3387 7.52921 25.6925 6.36274 27.6271 6.07823C30.9463 5.60406 33.3291 7.6359 33.936 10.3766C33.9492 10.4273 33.9675 10.4766 33.9905 10.5236V12.4345C33.9695 12.4718 33.9512 12.5107 33.936 12.5507C33.6873 13.86 32.9542 15.0275 31.8828 15.8202C31.4608 16.1379 30.9819 16.3773 30.5196 16.6594C31.2045 18.8324 31.1979 21.1644 30.5006 23.3334L30.6879 23.4164C32.003 23.967 33.0488 25.0128 33.5993 26.3279C33.7629 26.7072 33.8625 27.1126 33.9905 27.5133L34 29.4171ZM10.4383 23.0916C12.3753 22.7621 14.0728 23.2196 15.4551 24.6066C16.8373 25.9936 17.2901 27.6887 16.9629 29.6091C18.9893 30.2516 21.1648 30.2516 23.1912 29.6091C22.8593 27.6698 23.324 25.977 24.7133 24.5947C26.1026 23.2125 27.7954 22.7668 29.6921 23.0916C30.3915 21.0764 30.3062 18.5182 29.6921 16.8586C27.7812 17.1858 26.0837 16.7258 24.6991 15.3412C23.3145 13.9566 22.8593 12.2591 23.1888 10.3458C21.3111 9.66062 18.6439 9.70093 16.9677 10.3577C16.9642 10.4098 16.9642 10.462 16.9677 10.5141C17.1146 11.2669 17.0912 12.043 16.8989 12.7854C16.7116 13.5672 16.3501 14.2966 15.8415 14.9192C15.8116 14.9684 15.7714 15.0105 15.7237 15.0426C15.676 15.0747 15.6219 15.0962 15.5652 15.1054C15.5084 15.1146 15.4503 15.1115 15.3949 15.0961C15.3394 15.0807 15.288 15.0536 15.244 15.0164C15.1987 14.9815 15.1611 14.9376 15.1335 14.8874C15.106 14.8372 15.0892 14.7819 15.084 14.7249C15.0789 14.6679 15.0856 14.6104 15.1038 14.5561C15.1219 14.5019 15.1511 14.4519 15.1895 14.4095C15.2417 14.336 15.2986 14.2672 15.3531 14.1914C16.0527 13.2358 16.3505 12.0445 16.1829 10.8721C16.0508 9.89253 15.6099 8.98054 14.9243 8.26853C14.2386 7.55653 13.3439 7.08159 12.3699 6.91266C11.396 6.74372 10.3936 6.88958 9.50818 7.32908C8.62279 7.76857 7.90051 8.47882 7.44621 9.35671C6.9919 10.2346 6.82921 11.2344 6.98176 12.211C7.13431 13.1877 7.59416 14.0903 8.29454 14.7878C8.99493 15.4853 9.8994 15.9415 10.8766 16.09C11.8539 16.2386 12.853 16.0718 13.7291 15.6139C14.0586 15.4479 14.2933 15.4835 14.4142 15.7229C14.5352 15.9624 14.438 16.1829 14.1155 16.3465C13.1715 16.8507 12.0972 17.0582 11.0334 16.9416L10.4288 16.8728C9.79032 18.8971 9.79364 21.0693 10.4383 23.0916V23.0916ZM28.5612 16.1189C29.4809 16.1203 30.3804 15.8492 31.1461 15.3398C31.9118 14.8304 32.5094 14.1055 32.8635 13.2568C33.2176 12.408 33.3123 11.4734 33.1356 10.5708C32.9589 9.66828 32.5188 8.83832 31.8709 8.1857C31.2229 7.53309 30.3961 7.08709 29.4948 6.904C28.5935 6.72091 27.6582 6.80895 26.807 7.15699C25.9557 7.50504 25.2266 8.09749 24.7118 8.85955C24.197 9.62161 23.9195 10.5191 23.9143 11.4388C23.9112 12.0515 24.029 12.6587 24.261 13.2258C24.4931 13.7929 24.8347 14.3086 25.2664 14.7433C25.6981 15.1781 26.2113 15.5234 26.7767 15.7595C27.3421 15.9955 27.9485 16.1176 28.5612 16.1189V16.1189ZM28.5778 23.8218C27.6567 23.8195 26.7555 24.0906 25.9885 24.6008C25.2215 25.1109 24.6231 25.8372 24.2692 26.6877C23.9153 27.5382 23.8217 28.4746 24.0003 29.3783C24.1789 30.282 24.6217 31.1123 25.2726 31.7642C25.9234 32.4161 26.7531 32.8601 27.6566 33.0402C28.56 33.2202 29.4965 33.128 30.3475 32.7754C31.1986 32.4228 31.9258 31.8255 32.4371 31.0593C32.9485 30.2931 33.2209 29.3923 33.22 28.4711C33.215 27.2419 32.7242 26.0646 31.8545 25.1958C30.9849 24.3271 29.807 23.8374 28.5778 23.8337V23.8218Z" fill="white"/>
<path d="M10.0898 28.4095C10.0898 27.8903 10.0898 27.3734 10.0898 26.8566C10.0778 26.749 10.0971 26.6403 10.1454 26.5435C10.1938 26.4466 10.269 26.3658 10.3622 26.3107C10.4553 26.2556 10.5624 26.2286 10.6705 26.2329C10.7787 26.2372 10.8832 26.2727 10.9717 26.335C11.8774 26.8471 12.7799 27.3679 13.6793 27.8974C13.779 27.9404 13.8641 28.0114 13.9243 28.1018C13.9846 28.1923 14.0173 28.2982 14.0185 28.4068C14.0198 28.5154 13.9895 28.6221 13.9314 28.7139C13.8733 28.8057 13.7898 28.8786 13.6911 28.924C12.7854 29.4598 11.875 29.9853 10.9599 30.5006C10.8725 30.5599 10.7701 30.5932 10.6645 30.5965C10.559 30.5998 10.4547 30.5731 10.3637 30.5194C10.2728 30.4658 10.199 30.3874 10.1509 30.2934C10.1028 30.1994 10.0824 30.0936 10.0921 29.9885C10.0874 29.4621 10.0898 28.9358 10.0898 28.4095ZM10.9148 29.5712L12.9135 28.4142L10.9148 27.2596V29.5712Z" fill="white"/>
<path d="M22.6079 21.643V17.347L19.4926 18.5325V20.4291C19.8008 20.5216 20.1185 20.6164 20.441 20.716C20.7634 20.8156 20.8677 21.0053 20.7942 21.2566C20.7207 21.5079 20.5002 21.5909 20.1944 21.5055H20.1707C19.5851 21.2186 18.9734 21.3443 18.3333 21.3893C18.3601 21.9141 18.3846 22.4373 18.4067 22.9589C18.4233 23.305 18.4471 23.6488 18.4565 23.9949C18.4642 24.0529 18.4596 24.1118 18.4432 24.1679C18.4267 24.2239 18.3987 24.276 18.361 24.3206C18.3233 24.3652 18.2767 24.4015 18.2241 24.4271C18.1716 24.4527 18.1143 24.467 18.0559 24.4691C17.9965 24.467 17.9381 24.453 17.8842 24.4278C17.8304 24.4026 17.7822 24.3668 17.7426 24.3225C17.7029 24.2782 17.6727 24.2263 17.6536 24.1701C17.6345 24.1138 17.627 24.0542 17.6315 23.9949L17.5177 21.6501C17.5177 21.5624 17.5011 21.4723 17.4916 21.3775C17.309 21.3609 17.1478 21.3538 16.9866 21.3277C16.8041 21.3041 16.6361 21.2161 16.5126 21.0797C16.3892 20.9432 16.3185 20.7672 16.3133 20.5833C16.299 19.8293 16.2967 19.073 16.3133 18.3191C16.3148 18.2163 16.3367 18.1149 16.3776 18.0207C16.4186 17.9265 16.4778 17.8413 16.5519 17.7701C16.626 17.6989 16.7134 17.643 16.8092 17.6058C16.905 17.5686 17.0072 17.5508 17.1099 17.5533C17.6087 17.5165 18.1095 17.5165 18.6083 17.5533C19.4974 17.6718 20.2845 17.3826 21.0669 17.0507C21.541 16.8491 22.001 16.6097 22.4609 16.3726C22.5449 16.318 22.6044 16.233 22.6269 16.1355C22.6838 15.8344 22.8332 15.6755 23.0774 15.6945C23.3216 15.7135 23.4662 15.8937 23.4662 16.1971C23.4662 17.637 23.4662 19.0746 23.4662 20.5098C23.4662 21.221 23.4662 21.9109 23.4662 22.6127C23.4716 22.7027 23.4636 22.793 23.4425 22.8806C23.4209 22.9752 23.3645 23.0581 23.2846 23.113C23.2046 23.1679 23.107 23.1907 23.011 23.177C22.9649 23.1789 22.919 23.1716 22.8758 23.1555C22.8326 23.1394 22.7931 23.1148 22.7595 23.0832C22.7259 23.0517 22.699 23.0137 22.6803 22.9716C22.6616 22.9295 22.6515 22.884 22.6506 22.8379C22.6505 22.7483 22.6217 22.661 22.5684 22.5889C22.515 22.5167 22.44 22.4636 22.3543 22.4373C22.1717 22.3519 21.9986 22.2523 21.8232 22.1599C21.5197 21.9987 21.4249 21.7877 21.5505 21.5482C21.6762 21.3087 21.8943 21.2732 22.1836 21.4131L22.6079 21.643ZM17.1407 20.5145H18.6272V18.4044H17.1407V20.5145Z" fill="white"/>
<path d="M10.9859 10.3031C11.2467 9.35478 11.8703 8.88061 12.7498 9.00153C12.9308 9.01936 13.1052 9.07858 13.2596 9.1746C13.3278 9.22832 13.4129 9.25611 13.4997 9.25308C13.5865 9.25004 13.6694 9.21636 13.7338 9.158C13.8096 9.10822 13.8855 9.02998 13.9708 9.02524C14.1157 8.99625 14.2661 9.01714 14.3976 9.08451C14.4962 9.204 14.5454 9.35667 14.5351 9.51126C14.528 9.67615 14.4691 9.83461 14.3668 9.9641C14.0277 10.3577 14.0752 10.8437 13.9946 11.2989C13.5797 13.6982 11.1495 14.8813 8.91614 13.9377C8.78338 13.8808 8.65298 13.8144 8.52495 13.748C8.43446 13.7114 8.36043 13.643 8.31678 13.5557C8.27312 13.4684 8.26284 13.3682 8.28786 13.2738C8.3062 13.1789 8.35732 13.0934 8.43229 13.0323C8.50726 12.9712 8.60132 12.9383 8.69803 12.9395C8.95882 12.9135 9.21962 12.8969 9.53257 12.8708C9.48867 12.8081 9.44034 12.7487 9.38795 12.693C8.40878 11.8323 8.3993 10.4786 8.79523 9.50178C8.94223 9.14378 9.29075 9.12244 9.55154 9.43303C9.98541 9.97596 10.4288 10.2391 10.9859 10.3031ZM10.3458 13.4351C10.5422 13.4351 10.7386 13.4241 10.9338 13.4019C12.3918 13.1221 13.2501 12.0173 13.2288 10.4975C13.2316 10.378 13.2006 10.26 13.1394 10.1572C13.0781 10.0545 12.9891 9.9711 12.8826 9.91668C12.7817 9.85478 12.6665 9.81998 12.5482 9.81566C12.4299 9.81134 12.3125 9.83763 12.2073 9.892C12.1022 9.94637 12.0128 10.027 11.948 10.126C11.8831 10.225 11.8449 10.3391 11.8371 10.4572C11.8371 10.5497 11.8371 10.6398 11.8371 10.7299C11.8417 10.7925 11.8324 10.8554 11.8099 10.914C11.7874 10.9726 11.7523 11.0255 11.707 11.069C11.6617 11.1124 11.6074 11.1454 11.5479 11.1655C11.4884 11.1855 11.4253 11.1922 11.3629 11.1851C10.7124 11.1932 10.0766 10.992 9.54917 10.6114C9.50412 10.5805 9.45196 10.5544 9.39269 10.5213C9.31919 11.3771 9.62978 11.977 10.3244 12.3634C11.0191 12.7499 11.0049 12.9277 10.3458 13.4351V13.4351Z" fill="white"/>
<path d="M27.7883 11.7968C27.5915 11.7968 27.4208 11.7968 27.2501 11.7968C27.1935 11.7993 27.1369 11.7905 27.0837 11.771C27.0305 11.7514 26.9817 11.7214 26.9402 11.6828C26.8987 11.6442 26.8653 11.5977 26.842 11.546C26.8187 11.4943 26.8059 11.4385 26.8044 11.3819C26.8068 11.325 26.8205 11.2691 26.8446 11.2175C26.8687 11.166 26.9028 11.1197 26.9449 11.0813C26.987 11.043 27.0363 11.0133 27.0899 10.9941C27.1435 10.9749 27.2003 10.9665 27.2572 10.9693C27.4208 10.9693 27.5844 10.9693 27.7883 10.9693C27.7883 10.6066 27.7883 10.2581 27.7883 9.90481C27.7773 9.61624 27.847 9.33032 27.9893 9.07907C28.1317 8.82783 28.3412 8.62119 28.5944 8.48229C29.0211 8.2452 29.4906 8.26891 29.9505 8.30685C29.9989 8.31213 30.0458 8.32698 30.0884 8.35052C30.131 8.37407 30.1685 8.40585 30.1987 8.44401C30.2289 8.48217 30.2512 8.52595 30.2644 8.57282C30.2776 8.61968 30.2813 8.66869 30.2753 8.717C30.2776 8.76749 30.2696 8.81791 30.252 8.86526C30.2343 8.91261 30.2073 8.95594 30.1726 8.99265C30.1379 9.02937 30.0961 9.05873 30.0498 9.07898C30.0035 9.09924 29.9536 9.10998 29.9031 9.11057C29.7395 9.12242 29.5759 9.11057 29.4123 9.11057C28.905 9.12716 28.6418 9.38796 28.6347 9.89059C28.6347 10.2344 28.6347 10.5781 28.6347 10.9575C28.8244 10.9575 28.9951 10.9575 29.1634 10.9575C29.4692 10.9575 29.6684 11.1282 29.6708 11.3748C29.6731 11.6213 29.4811 11.7802 29.1658 11.7897C29.0045 11.7897 28.8433 11.7897 28.6513 11.7897C28.6513 11.9082 28.6347 12.003 28.6347 12.0979C28.6347 12.7902 28.6347 13.4801 28.6347 14.1724C28.6402 14.2317 28.6335 14.2915 28.615 14.348C28.5964 14.4046 28.5664 14.4568 28.5268 14.5012C28.4872 14.5457 28.4389 14.5816 28.3849 14.6066C28.3308 14.6316 28.2722 14.6452 28.2127 14.6466C28.1025 14.6412 27.9984 14.5946 27.921 14.516C27.8437 14.4373 27.7989 14.3324 27.7954 14.2222C27.7954 14.1487 27.7954 14.0752 27.7954 14.0041V11.792L27.7883 11.7968Z" fill="white"/>
<path d="M28.5707 31.3778H26.8542C26.6977 31.3848 26.5414 31.3593 26.3952 31.3029C26.249 31.2466 26.1161 31.1606 26.0048 31.0504C25.8934 30.9401 25.8061 30.8081 25.7483 30.6624C25.6904 30.5168 25.6634 30.3608 25.6688 30.2042C25.6688 29.0488 25.6688 27.8942 25.6688 26.7404C25.6608 26.5844 25.6853 26.4285 25.7407 26.2825C25.7961 26.1365 25.8812 26.0036 25.9906 25.8922C26.1 25.7808 26.2314 25.6933 26.3764 25.6352C26.5213 25.5772 26.6768 25.5498 26.8329 25.555C27.9978 25.5376 29.1611 25.5376 30.3228 25.555C30.4808 25.5497 30.6381 25.5775 30.7847 25.6367C30.9312 25.6958 31.0638 25.7849 31.1739 25.8984C31.284 26.0118 31.3691 26.147 31.4238 26.2953C31.4785 26.4435 31.5016 26.6016 31.4916 26.7594C31.4916 27.8942 31.4916 29.0307 31.4916 30.1687C31.5007 30.3305 31.4754 30.4923 31.4171 30.6435C31.3589 30.7948 31.2692 30.9319 31.154 31.0458C31.0387 31.1597 30.9006 31.2477 30.7487 31.3042C30.5968 31.3606 30.4347 31.3841 30.273 31.3731L28.5707 31.3778ZM28.5707 26.399C27.9993 26.399 27.4256 26.399 26.8542 26.399C26.8067 26.3909 26.758 26.3942 26.7121 26.4087C26.6661 26.4231 26.6243 26.4483 26.59 26.4821C26.5557 26.5159 26.53 26.5574 26.5149 26.6032C26.4998 26.6489 26.4959 26.6976 26.5033 26.7451C26.5033 27.8895 26.5033 29.0338 26.5033 30.1782C26.4958 30.2283 26.5 30.2794 26.5158 30.3276C26.5316 30.3757 26.5584 30.4195 26.5941 30.4555C26.6298 30.4914 26.6734 30.5185 26.7215 30.5346C26.7695 30.5506 26.8207 30.5552 26.8708 30.548H30.2777C30.3278 30.5544 30.3787 30.5491 30.4264 30.5326C30.4741 30.516 30.5174 30.4886 30.5527 30.4526C30.5881 30.4165 30.6146 30.3728 30.6303 30.3248C30.6459 30.2767 30.6502 30.2258 30.6429 30.1758C30.6429 29.0402 30.6429 27.9045 30.6429 26.7689C30.6429 26.4725 30.5622 26.4037 30.2635 26.4014C29.6945 26.399 29.1326 26.4014 28.5683 26.4014L28.5707 26.399Z" fill="white"/>
<path d="M29.8059 28.4664C29.8069 28.711 29.7353 28.9503 29.6003 29.1543C29.4653 29.3582 29.2729 29.5176 29.0474 29.6122C28.8219 29.7069 28.5734 29.7326 28.3333 29.6862C28.0932 29.6397 27.8722 29.5232 27.6983 29.3512C27.5243 29.1793 27.4053 28.9597 27.3561 28.7201C27.3069 28.4805 27.3297 28.2317 27.4218 28.0052C27.5139 27.7786 27.671 27.5844 27.8734 27.447C28.0758 27.3097 28.3143 27.2354 28.5589 27.2335C28.7219 27.2317 28.8838 27.2622 29.035 27.3233C29.1862 27.3844 29.3238 27.4749 29.4398 27.5896C29.5558 27.7042 29.6479 27.8408 29.7107 27.9913C29.7736 28.1418 29.8059 28.3033 29.8059 28.4664V28.4664ZM28.5683 28.0539C28.4591 28.0587 28.3557 28.1051 28.2795 28.1835C28.2033 28.2619 28.1599 28.3665 28.1582 28.4759C28.1594 28.5303 28.1715 28.5839 28.1937 28.6335C28.2159 28.6831 28.2479 28.7278 28.2876 28.765C28.3274 28.8021 28.3742 28.8309 28.4252 28.8496C28.4763 28.8684 28.5306 28.8767 28.5849 28.8742C28.6898 28.8717 28.7895 28.8285 28.863 28.7537C28.9365 28.6789 28.9779 28.5784 28.9785 28.4735C28.9773 28.3642 28.934 28.2596 28.8576 28.1814C28.7812 28.1032 28.6776 28.0575 28.5683 28.0539V28.0539Z" fill="white"/>
</svg>
