<svg xmlns="http://www.w3.org/2000/svg" viewBox="0 0 72 72"><defs><style>.cls-1{fill:#7b7b7b;}.cls-2{fill:none;stroke:#7b7b7b;stroke-miterlimit:10;stroke-width:2px;stroke-dasharray:2 2;}</style></defs><g id="Layer_2" data-name="Layer 2"><g id="Layer_1-2" data-name="Layer 1"><path class="cls-1" d="M45.33,10.53a11.48,11.48,0,0,1,.86,1.12,124.73,124.73,0,0,1,8.64,15.91,24.53,24.53,0,0,1,1.92,5.82,10.52,10.52,0,0,1-1.41,7.17A11.67,11.67,0,0,1,44,46.62a11.94,11.94,0,0,1-10.56-8.55,1,1,0,1,1,1.92-.58,9.83,9.83,0,0,0,7.4,6.91,10,10,0,0,0,11.92-7.87,11.44,11.44,0,0,0-1-6.33,99.53,99.53,0,0,0-7-13.7c-.58-1-1.19-2-1.81-3a1.52,1.52,0,0,0-.18.17A124.22,124.22,0,0,0,36.59,29c-.15.35-.27.71-.42,1.06-.28.72-.79,1-1.37.77a1,1,0,0,1-.5-1.5c1.13-2.46,2.17-5,3.45-7.36,1.91-3.55,4-7,6-10.5a7.53,7.53,0,0,1,.76-1Z"/><path class="cls-1" d="M22.06,47a6.94,6.94,0,0,1-6.93-7.37,10.6,10.6,0,0,1,.93-3.16,52.74,52.74,0,0,1,5.11-8.9,1,1,0,0,1,1.73,0,55.36,55.36,0,0,1,5.57,9.94,6.87,6.87,0,0,1-4.89,9.33C23.08,46.88,22.57,46.92,22.06,47Zm.05-17.07C22,30,22,30,22,30l-.49.74a44.44,44.44,0,0,0-3.95,7.43,4.58,4.58,0,0,0-.38,2.56,4.81,4.81,0,0,0,3.35,4,4.65,4.65,0,0,0,5.06-1.21,4.49,4.49,0,0,0,1.14-5,35.2,35.2,0,0,0-3.12-6.19C23.11,31.5,22.6,30.71,22.11,29.92Z"/><path class="cls-1" d="M33,61.47a6.2,6.2,0,0,1-5.86-5.07,6.89,6.89,0,0,1,.59-3.91,48.32,48.32,0,0,1,4.44-8.07,1,1,0,0,1,1.64-.06,38.51,38.51,0,0,1,4.94,9.42A6.12,6.12,0,0,1,33,61.47Zm0-14.66A44.33,44.33,0,0,0,29.28,54a4.25,4.25,0,0,0,1.66,4.83,3.72,3.72,0,0,0,2.49.64A4.25,4.25,0,0,0,36.72,54,45.36,45.36,0,0,0,33,46.81Z"/><path class="cls-1" d="M45.29,42.69a5.16,5.16,0,0,1-.7-.08A1,1,0,0,1,45,40.68a6,6,0,0,0,5.93-5.87c0-.7.4-1.1,1-1.1a1,1,0,0,1,1,1.13,8,8,0,0,1-6.68,7.73Z"/><path class="cls-1" d="M34,34.71a1,1,0,1,1,1-1A1,1,0,0,1,34,34.71Z"/><circle class="cls-2" cx="36" cy="36" r="35"/></g></g></svg>