<?xml version="1.0" encoding="UTF-8"?>
<svg id="Layer_2" data-name="Layer 2" xmlns="http://www.w3.org/2000/svg" viewBox="0 0 159.97 159.99">
  <defs>
    <style>
      .cls-1 {
        fill: #040404;
      }

      .cls-2 {
        fill: #fefefd;
      }

      .cls-3 {
        fill: #0f0e0e;
      }
    </style>
  </defs>
  <g id="Layer_1-2" data-name="Layer 1">
    <g>
      <path class="cls-1" d="M55.95,159.97c.79-.6,1.81-.63,2.67-1.05,5.28-2.55,7.99-6.75,8.09-12.61,.03-1.67,.08-3.34-.02-5-.06-1.12,.31-1.37,1.38-1.36,7.08,.05,14.17-.15,21.24,.07,8.93,.28,17.27-6.72,17.37-16.61,.04-4.37,.07-8.75,0-13.12-.04-2.81-2.42-4.46-4.74-3.36-1.34,.64-1.97,1.75-1.96,3.27,.03,4.06,.01,8.12,0,12.18,0,6.75-4.12,10.87-10.89,10.88-6.87,.02-13.74-.03-20.62,.04-1.38,.01-1.82-.28-1.82-1.76,.05-23.17,.04-46.33,.04-69.5,0-11.4,0-22.8,0-34.2,0-7.37-3.24-11.81-10.28-14.16-6.38-2.13-12.76-4.29-19.14-6.42-.3-.1-.61-.13-.81-.53,5.93,0,11.82,0,17.71,0,11.71,0,23.43-.01,35.14,0,5.07,0,8.72,2.54,10.14,6.94,.39,1.2,.54,2.42,.53,3.68-.01,4.22-.03,8.43,0,12.65,.01,1.86,1.42,3.3,3.19,3.39,1.61,.08,3.3-1.16,3.37-2.83,.21-5.61,.71-11.3-.22-16.83-1.2-7.11-5.78-11.51-12.75-13.37-.28-.07-.65,.05-.78-.34-27.18,0-54.36,0-81.53,0-.1,.1-.19,.26-.3,.28C5.51,1.27,2.21,4.62,.48,9.74c-.14,.4,.13,.98-.45,1.22v124.96c.08,.05,.22,.09,.24,.15,1.39,5.66,5.17,8.76,10.57,10.5,13.51,4.37,26.95,8.92,40.42,13.4h4.69ZM6.73,73.29c0-.21,0-.42,0-.62,0-19.52,.06-39.03-.04-58.55-.02-4.97,3.9-8.67,9.32-6.86,12.92,4.31,25.83,8.63,38.74,12.96,3.72,1.25,5.25,3.4,5.25,7.31,0,39.45,0,78.9,0,118.35,0,5.56-4.17,8.56-9.46,6.79-12.62-4.2-25.23-8.43-37.84-12.64-4.65-1.55-5.98-3.35-5.98-8.19,0-19.52,0-39.03,0-58.55Z"/>
      <path class="cls-3" d="M86.55,68.75c1.14-1.68,2.71-2.19,4.74-2.19,18.32,.06,36.64,.03,54.95,.03h1.82c-.15-.66-.67-.95-1.04-1.32-6.32-6.34-12.65-12.67-18.99-18.99-.83-.83-1.52-1.68-1.51-2.95,.04-2.57,2.78-4.2,5-2.89,.53,.31,.98,.77,1.42,1.21,8.59,8.56,17.17,17.13,25.74,25.7,1.71,1.71,1.72,3.58,0,5.3-8.65,8.65-17.31,17.28-25.95,25.93-.83,.83-1.72,1.47-2.99,1.42-2.49-.1-4.05-2.82-2.79-4.97,.33-.57,.84-1.06,1.32-1.53,6.21-6.23,12.43-12.44,18.66-18.65,.39-.39,.89-.68,1.34-1.01-.08-.14-.16-.29-.23-.43-.54,0-1.09,0-1.63,0-18.32,0-36.64-.02-54.95,.03-2.06,0-3.72-.43-4.89-2.19v-2.5Z"/>
      <path class="cls-2" d="M51.26,159.97c-13.47-4.48-26.91-9.03-40.42-13.4-5.4-1.75-9.19-4.84-10.57-10.5-.02-.07-.16-.1-.24-.15,0,7.65,.02,15.31-.03,22.96,0,.93,.19,1.12,1.12,1.12,16.71-.04,33.43-.03,50.14-.03Z"/>
      <path class="cls-2" d="M.03,10.96c.58-.24,.31-.81,.45-1.22C2.21,4.62,5.51,1.27,10.97,.3c.11-.02,.2-.19,.3-.28-3.46,0-6.93,.03-10.39-.02C.15,0,0,.14,0,.87c.05,3.36,.02,6.72,.02,10.08Z"/>
    </g>
  </g>
</svg>