<svg xmlns="http://www.w3.org/2000/svg" viewBox="0 0 70 70"><defs><style>.cls-1{fill:#fff;}</style></defs><g id="Layer_2" data-name="Layer 2"><g id="Layer_1-2" data-name="Layer 1"><path class="cls-1" d="M70,70H0V0H70ZM62.22,34.94A27.3,27.3,0,1,0,35.11,62.23,27.26,27.26,0,0,0,62.22,34.94ZM57.87,13.25A30.6,30.6,0,0,1,65.71,42C61.61,57.66,50.84,65.45,35,66.77v2.09c12.59-.54,22.65-5.7,28.94-16.63C72,38.11,70,24.6,60.06,12h2.12V9.81c-1.87,0-3.71,0-5.55,0a.91.91,0,0,0-.94.91c0,1.85,0,3.71,0,5.58h2.19ZM1.52,40.48l2.17-.36L3.42,38l-2.21.22ZM7.36,15.23l1.81,1.29,1.25-1.68-1.7-1.38ZM1.92,27.28l2.15.5.54-2L2.5,25.12ZM29.67,3.69l2.1-.29-.26-2.2-2.19.32Zm-17.89,56,1.44-1.55-1.51-1.47-1.5,1.42ZM8,18.21,6.14,17.06,5,19l2,1Zm-2.75,5.6.79-1.94-2-.91L3.2,23Zm-2.75,21,2.11-.67-.55-2-2.14.5ZM20,62.85,18.19,61.8,17,63.68,19,64.8Zm1.83.91-.91,2,2.07.86.78-2.07Zm9.77,4.87.21-2.2-2.07-.27-.35,2.18ZM25,2.52l.63,2.12,2-.55-.51-2.15ZM1.5,29.43l-.29,2.21,2.19.21.28-2.07Zm4.67,23.4,1.88-1.18L7,49.85,5,50.89Zm3,.52-1.8,1.3,1.38,1.77L10.45,55ZM25.71,65.22l-.64,2.12,2.15.56c.16-.64.33-1.23.43-1.82,0-.13-.2-.37-.35-.42C26.82,65.48,26.31,65.38,25.71,65.22ZM21.79,6.11l1.93-.82-.79-2.06-2.05.87Zm-7,4.37,1.65-1.29-1.3-1.78L13.4,8.78ZM6.09,48l-.82-1.93-2,.79.86,2.06ZM15.2,62.45l1.29-1.8-1.67-1.26L13.43,61.1ZM11.77,10.24,10.16,11.8l1.49,1.39,1.53-1.44Zm5.21-4,1.17,1.88L20,7,18.91,5.07ZM1.11,36H3.23V33.89H1.11Z"/><path d="M62.22,34.94A27.3,27.3,0,1,1,35,7.62,27.32,27.32,0,0,1,62.22,34.94ZM60,34.9A25.11,25.11,0,1,0,35.13,60,25.17,25.17,0,0,0,60,34.9Z"/><path d="M57.87,13.25v3.06H55.68c0-1.87,0-3.73,0-5.58a.91.91,0,0,1,.94-.91c1.84,0,3.68,0,5.55,0V12H60.06C70,24.6,72,38.11,63.92,52.23,57.63,63.16,47.57,68.32,35,68.86V66.77C50.84,65.45,61.61,57.66,65.71,42A30.6,30.6,0,0,0,57.87,13.25Z"/><path d="M1.52,40.48l-.31-2.22L3.42,38l.27,2.08Z"/><path d="M7.36,15.23l1.36-1.77,1.7,1.38L9.17,16.52Z"/><path d="M1.92,27.28l.58-2.16,2.11.63-.54,2Z"/><path d="M29.67,3.69l-.35-2.17,2.19-.32.26,2.2Z"/><path d="M11.78,59.65l-1.57-1.6,1.5-1.42,1.51,1.47Z"/><path d="M8,18.21,7,20,5,19l1.12-1.94Z"/><path d="M5.27,23.81,3.2,23,4.06,21l2,.91Z"/><path d="M2.52,44.79l-.58-2.17,2.14-.5.55,2Z"/><path d="M20,62.85,19,64.8,17,63.68l1.17-1.88Z"/><path d="M21.83,63.76l1.94.8L23,66.63l-2.07-.86Z"/><path d="M31.6,68.63l-2.21-.29.35-2.18,2.07.27Z"/><path d="M25,2.52l2.15-.58.51,2.15-2,.55Z"/><path d="M1.5,29.43l2.18.35L3.4,31.85l-2.19-.21Z"/><path d="M6.17,52.83,5,50.89l2-1,1.06,1.8Z"/><path d="M9.18,53.35,10.45,55,8.76,56.42,7.38,54.65Z"/><path d="M25.71,65.22c.6.16,1.11.26,1.59.44.15,0,.37.29.35.42-.1.59-.27,1.18-.43,1.82l-2.15-.56Z"/><path d="M21.79,6.11l-.91-2,2.05-.87.79,2.06Z"/><path d="M14.8,10.48l-1.4-1.7,1.75-1.37,1.3,1.78Z"/><path d="M6.09,48l-2,.92-.86-2.06,2-.79Z"/><path d="M15.2,62.45,13.43,61.1l1.39-1.71,1.67,1.26Z"/><path d="M11.77,10.24l1.41,1.51-1.53,1.44L10.16,11.8Z"/><path d="M17,6.19l1.93-1.12L20,7,18.15,8.07Z"/><path d="M1.11,36V33.89H3.23V36Z"/><path class="cls-1" d="M60,34.9A25.11,25.11,0,1,1,35,9.8,25.06,25.06,0,0,1,60,34.9ZM35,12a22.93,22.93,0,1,0,22.9,23A22.9,22.9,0,0,0,35,12Z"/><path d="M35,12A22.93,22.93,0,1,1,12,34.74,22.88,22.88,0,0,1,35,12ZM55.67,34.93A20.75,20.75,0,1,0,35.05,55.65,20.81,20.81,0,0,0,55.67,34.93Z"/><path class="cls-1" d="M55.67,34.93A20.75,20.75,0,1,1,35,14.17,20.72,20.72,0,0,1,55.67,34.93ZM33.83,37.11c0-2.55,0-5,0-7.46A1.12,1.12,0,0,0,31.71,29c-1.75,2.82-3.51,5.62-5.25,8.44a1.51,1.51,0,0,0-.23,1,1,1,0,0,0,1.18.88h4.27v2.14h2.17V39.25H36V37.11Zm-8.76,2.13H21c1-1.25,2-2.39,2.93-3.56A5.44,5.44,0,0,0,25.1,32a3.85,3.85,0,0,0-4.3-3.64,3.77,3.77,0,0,0-3.26,4.36h2.07c0-.2,0-.31,0-.42a1.67,1.67,0,0,1,1.82-1.74,1.63,1.63,0,0,1,1.35,2.17,5.48,5.48,0,0,1-1,1.91c-1.28,1.64-2.65,3.23-4,4.83a1.14,1.14,0,0,0,1,2c1.36,0,2.73,0,4.09,0h2.17Zm24.35-8.66A23.87,23.87,0,0,0,47,41.43h1.94c.39-2.14.6-4.25,1.17-6.26a36.2,36.2,0,0,1,2.11-5c.46-1,.08-1.8-1-1.81-2.13,0-4.27,0-6.41,0a1,1,0,0,0-1.09.82,21.69,21.69,0,0,0,0,2.42h2.13l.07-1ZM37.13,41.23l2.15.53c1.1-4.4,2.19-8.72,3.29-13.11l-2.15-.55C39.32,32.5,38.23,36.83,37.13,41.23Z"/><path d="M33.83,37.11H36v2.14H33.85v2.18H31.68V39.29H27.41a1,1,0,0,1-1.18-.88,1.51,1.51,0,0,1,.23-1C28.2,34.63,30,31.83,31.71,29a1.12,1.12,0,0,1,2.13.64C33.82,32.1,33.83,34.56,33.83,37.11Zm-2.23,0v-3.7l-2.31,3.7Z"/><path d="M25.07,39.24v2.23H22.9c-1.36,0-2.73,0-4.09,0a1.14,1.14,0,0,1-1-2c1.34-1.6,2.71-3.19,4-4.83a5.48,5.48,0,0,0,1-1.91,1.63,1.63,0,0,0-1.35-2.17,1.67,1.67,0,0,0-1.82,1.74c0,.11,0,.22,0,.42H17.54a3.77,3.77,0,0,1,3.26-4.36A3.85,3.85,0,0,1,25.1,32a5.44,5.44,0,0,1-1.22,3.66C23,36.85,22,38,21,39.24Z"/><path d="M49.42,30.58H45.88l-.07,1H43.68a21.69,21.69,0,0,1,0-2.42,1,1,0,0,1,1.09-.82c2.14,0,4.28,0,6.41,0,1,0,1.43.81,1,1.81a36.2,36.2,0,0,0-2.11,5c-.57,2-.78,4.12-1.17,6.26H47A23.87,23.87,0,0,1,49.42,30.58Z"/><path d="M37.13,41.23c1.1-4.4,2.19-8.73,3.29-13.13l2.15.55c-1.1,4.39-2.19,8.71-3.29,13.11Z"/><path class="cls-1" d="M31.6,37.08H29.29l2.31-3.7Z"/></g></g></svg>