<svg xmlns="http://www.w3.org/2000/svg" viewBox="0 0 71.82 72"><defs><style>.cls-1{fill:#e9511c;}.cls-2{fill:none;stroke:#e9511c;stroke-miterlimit:10;stroke-width:2px;stroke-dasharray:2 2;}</style></defs><g id="Layer_2" data-name="Layer 2"><g id="Layer_1-2" data-name="Layer 1"><path class="cls-1" d="M45.15,10.53A13.3,13.3,0,0,1,46,11.65a124.73,124.73,0,0,1,8.64,15.91,24.53,24.53,0,0,1,1.92,5.82,10.53,10.53,0,0,1-1.42,7.17,11.65,11.65,0,0,1-11.3,6.07,11.93,11.93,0,0,1-10.56-8.55,1,1,0,0,1,.63-1.36,1,1,0,0,1,1.28.78,9.83,9.83,0,0,0,7.41,6.91,10,10,0,0,0,11.92-7.87,11.53,11.53,0,0,0-1-6.33,100.72,100.72,0,0,0-7-13.7c-.58-1-1.19-2-1.8-3-.08.07-.15.11-.18.17A122.9,122.9,0,0,0,36.41,29c-.15.35-.28.71-.42,1.06-.29.72-.8,1-1.38.77a1,1,0,0,1-.49-1.5c1.12-2.46,2.16-5,3.44-7.36,1.92-3.55,4-7,6-10.5a8.45,8.45,0,0,1,.75-1Z"/><path class="cls-1" d="M21.88,47A6.93,6.93,0,0,1,15,39.62a10.32,10.32,0,0,1,.93-3.16A52.06,52.06,0,0,1,21,27.56a1,1,0,0,1,1.73,0,56,56,0,0,1,5.57,9.94,6.88,6.88,0,0,1-4.89,9.33C22.9,46.88,22.39,46.92,21.88,47Zm0-17.07c-.08,0-.12,0-.13.07-.17.24-.33.49-.49.74a45.23,45.23,0,0,0-4,7.43A4.66,4.66,0,0,0,17,40.72a4.8,4.8,0,0,0,3.34,4,4.67,4.67,0,0,0,5.07-1.21,4.52,4.52,0,0,0,1.14-5A36.63,36.63,0,0,0,23.4,32.3C22.92,31.5,22.41,30.71,21.92,29.92Z"/><path class="cls-1" d="M32.8,61.47a6.19,6.19,0,0,1-5.86-5.07,6.8,6.8,0,0,1,.58-3.91A48.37,48.37,0,0,1,32,44.42a1,1,0,0,1,1.64-.06,38.47,38.47,0,0,1,4.93,9.42A6.11,6.11,0,0,1,32.8,61.47Zm0-14.66A44.27,44.27,0,0,0,29.1,54a4.25,4.25,0,0,0,1.66,4.83,3.72,3.72,0,0,0,2.49.64A4.24,4.24,0,0,0,36.53,54,45.36,45.36,0,0,0,32.81,46.81Z"/><path class="cls-1" d="M45.11,42.69a4.82,4.82,0,0,1-.7-.08,1,1,0,0,1-.65-1.11,1,1,0,0,1,1-.82,6,6,0,0,0,5.12-3,6,6,0,0,0,.82-2.87c0-.7.4-1.1,1-1.1s1,.44,1,1.13A8,8,0,0,1,46,42.57Z"/><path class="cls-1" d="M33.81,34.71a1,1,0,1,1,0-2,1,1,0,0,1,0,2Z"/><path class="cls-2" d="M70.82,36a35,35,0,0,1-35,35c-46.43-1.84-46.42-68.16,0-70a35,35,0,0,1,35,35Z"/></g></g></svg>