<svg width="25" height="21" viewBox="0 0 25 21" fill="none" xmlns="http://www.w3.org/2000/svg">
<path d="M25 5.31994C24.84 5.91994 24.67 6.51994 24.51 7.11994C24.21 8.27994 23.92 9.44994 23.62 10.6099C23.57 10.8199 23.48 10.9999 23.22 10.9899C23.03 10.9899 22.91 10.8799 22.88 10.6999C22.86 10.5999 22.88 10.4899 22.91 10.3899C23.34 8.71994 23.76 7.03994 24.19 5.36994C24.33 4.82995 24.22 4.67995 23.64 4.67995C19.53 4.67995 15.42 4.67995 11.31 4.67995C11.22 4.67995 11.13 4.67995 11.04 4.67995C10.83 4.65995 10.72 4.52995 10.72 4.31995C10.72 4.10995 10.84 3.98995 11.04 3.95995C11.12 3.94995 11.2 3.95995 11.28 3.95995C15.36 3.95995 19.45 3.96995 23.53 3.94995C24.21 3.94995 24.71 4.12995 24.98 4.78995V5.32994L25 5.31994Z" fill="#F46440"/>
<path d="M7.06 4.69C7.22 5.33 7.37 5.93 7.53 6.53C8.08 8.66 8.63 10.79 9.17 12.92C9.3 13.43 9.54 13.62 10.07 13.62C13.84 13.62 17.6 13.62 21.37 13.62C21.89 13.62 22.13 13.43 22.26 12.93C22.32 12.69 22.38 12.46 22.44 12.22C22.51 11.98 22.7 11.87 22.9 11.93C23.11 11.99 23.21 12.18 23.15 12.41C23.09 12.68 23.02 12.95 22.94 13.21C22.74 13.93 22.2 14.34 21.46 14.34C17.11 14.34 12.75 14.34 8.4 14.34C7.85 14.34 7.51 14.67 7.55 15.17C7.57 15.53 7.87 15.83 8.23 15.85C8.34 15.85 8.44 15.85 8.55 15.85C13.38 15.85 18.2 15.85 23.03 15.85C23.59 15.85 24.02 16.16 24.12 16.64C24.26 17.29 23.81 17.87 23.13 17.89C22.85 17.89 22.57 17.89 22.28 17.89C22.65 19.09 22.5 19.8 21.76 20.33C21.13 20.79 20.28 20.8 19.64 20.34C18.9 19.81 18.74 19.1 19.1 17.89H11.36C11.63 18.43 11.71 18.97 11.48 19.52C11.33 19.88 11.1 20.16 10.78 20.37C10.13 20.79 9.29 20.76 8.68 20.29C7.97 19.74 7.82 19.02 8.2 17.88C7.32 17.8 6.59 17.45 6.06 16.73C5.66 16.19 5.49 15.59 5.52 14.92C5.56 13.88 6.38 12.41 8.25 12.27C8.13 11.8 8.01 11.33 7.89 10.86C7.18 8.09 6.46 5.33 5.76 2.56C5.7 2.34 5.62 2.24 5.39 2.27C5.25 2.29 5.11 2.27 4.98 2.27C4.76 2.26 4.56 2.3 4.37 2.43C4.22 2.53 4 2.56 3.81 2.57C2.87 2.58 1.94 2.57 1 2.57C0.35 2.62 0 2.26 0 1.6C0 1.36 0 1.11 0 0.87C0.01 0.39 0.39 0 0.87 0C1.9 0 2.92 2.29105e-07 3.95 0.0100002C4.12 0.0100002 4.28 0.11 4.45 0.17C4.57 0.21 4.7 0.29 4.82 0.29C5.23 0.31 5.65 0.29 6.06 0.29C6.81 0.29 7.36 0.72 7.55 1.45C7.75 2.2 7.94 2.96 8.14 3.71C8.16 3.79 8.18 3.86 8.21 3.96C8.57 3.96 8.93 3.96 9.29 3.96C9.57 3.96 9.74 4.1 9.75 4.32C9.75 4.54 9.58 4.69 9.3 4.69C8.65 4.69 8 4.69 7.35 4.69C7.26 4.69 7.18 4.69 7.06 4.69ZM8.62 13.6C8.58 13.49 8.52 13.4 8.51 13.3C8.48 13.11 8.39 13.07 8.21 13.08C7.2 13.12 6.39 13.88 6.26 14.95C6.15 15.86 6.8 16.84 7.72 17.09C8.25 17.23 8.79 17.21 9.34 17.13C9.64 17.08 9.96 17.13 10.28 17.13C10.4 17.13 10.52 17.17 10.64 17.17C13.71 17.17 16.78 17.17 19.84 17.17C19.95 17.17 20.06 17.14 20.18 17.13C20.48 17.11 20.77 17.09 21.07 17.1C21.33 17.1 21.58 17.16 21.84 17.17C22.21 17.18 22.59 17.17 22.96 17.17C23.04 17.17 23.14 17.18 23.2 17.14C23.28 17.07 23.38 16.96 23.38 16.87C23.38 16.79 23.27 16.68 23.19 16.64C23.1 16.6 22.98 16.62 22.88 16.62C18.12 16.62 13.36 16.62 8.6 16.62C8.46 16.62 8.32 16.62 8.19 16.61C7.44 16.55 6.89 15.98 6.82 15.2C6.76 14.53 7.25 13.85 7.94 13.67C8.16 13.62 8.39 13.62 8.64 13.59L8.62 13.6ZM2.41 1.87C2.88 1.87 3.35 1.87 3.82 1.87C4.01 1.87 4.08 1.8 4.08 1.61C4.08 1.39 4.08 1.17 4.08 0.95C4.08 0.8 4.01 0.73 3.86 0.73C2.89 0.73 1.93 0.73 0.96 0.73C0.81 0.73 0.74 0.81 0.74 0.96C0.74 1.17 0.74 1.38 0.74 1.59C0.73 1.81 0.82 1.87 1.03 1.87C1.49 1.87 1.96 1.87 2.42 1.87H2.41ZM9.79 17.8C9.19 17.8 8.7 18.29 8.7 18.88C8.7 19.47 9.2 19.97 9.79 19.97C10.38 19.97 10.88 19.47 10.88 18.88C10.88 18.28 10.39 17.8 9.79 17.8ZM19.62 18.87C19.62 19.47 20.09 19.96 20.69 19.97C21.27 19.97 21.78 19.48 21.79 18.89C21.79 18.29 21.31 17.81 20.71 17.8C20.1 17.8 19.63 18.26 19.62 18.87ZM7.44 3.92C7.23 3.11 7.02 2.31 6.8 1.52C6.73 1.27 6.54 1.08 6.28 1.06C5.8 1.03 5.32 1.06 4.84 1.06V1.57C5.2 1.57 5.54 1.57 5.88 1.57C6.13 1.57 6.29 1.68 6.35 1.94C6.48 2.47 6.62 2.99 6.75 3.52C6.83667 3.84 7.04667 3.98333 7.38 3.95C7.38 3.95 7.39 3.95 7.43 3.93L7.44 3.92Z" fill="#F46440"/>
<path d="M20.14 11.38C19.82 11.38 19.67 11.18 19.73 10.9C19.85 10.35 19.99 9.8 20.13 9.25C20.34 8.39 20.55 7.53 20.76 6.68C20.83 6.38 21.05 6.24 21.29 6.34C21.48 6.42 21.55 6.6 21.48 6.88C21.28 7.69 21.08 8.5 20.88 9.31C20.74 9.88 20.6 10.46 20.46 11.03C20.41 11.23 20.31 11.37 20.14 11.38Z" fill="#F46440"/>
<path d="M11.67 11.02C11.65 11.21 11.56 11.35 11.35 11.38C11.13 11.41 10.99 11.29 10.94 11.09C10.81 10.6 10.69 10.1 10.57 9.60001C10.34 8.67001 10.11 7.74001 9.89001 6.81001C9.83001 6.56001 9.94001 6.36001 10.15 6.31001C10.36 6.26001 10.54 6.37001 10.6 6.62001C10.96 8.05001 11.31 9.48001 11.66 10.91C11.66 10.94 11.66 10.97 11.67 11.02Z" fill="#F46440"/>
<path d="M14.6 11.03C14.6 11.19 14.48 11.36 14.26 11.38C14.03 11.4 13.89 11.27 13.86 10.99C13.78 10.08 13.71 9.17999 13.63 8.26999C13.59 7.76999 13.55 7.26999 13.51 6.76999C13.49 6.50999 13.61 6.32999 13.83 6.30999C14.05 6.28999 14.22 6.42999 14.24 6.68999C14.36 8.10999 14.47 9.51999 14.59 11.04L14.6 11.03Z" fill="#F46440"/>
<path d="M16.79 10.81C16.91 9.42999 17.02 8.03999 17.14 6.65999C17.16 6.41999 17.32 6.27999 17.54 6.29999C17.74 6.31999 17.88 6.46999 17.87 6.70999C17.83 7.37999 17.77 8.04999 17.72 8.71999C17.66 9.46999 17.6 10.22 17.53 10.98C17.51 11.24 17.36 11.39 17.13 11.38C16.9 11.37 16.78 11.21 16.79 10.94C16.79 10.9 16.79 10.86 16.79 10.82V10.81Z" fill="#F46440"/>
</svg>
