<svg width="180" height="41" viewBox="0 0 180 41" fill="none" xmlns="http://www.w3.org/2000/svg">
<g clip-path="url(#clip0_137_207)">
<path d="M136.958 34.3703C137.249 34.2981 137.466 34.1544 137.466 33.9397C137.466 33.6528 137.322 33.5077 136.958 33.5077V33.0088C137.466 33.0088 137.684 33.079 137.903 33.2209C137.993 33.3038 138.065 33.4038 138.114 33.5148C138.164 33.6257 138.191 33.7455 138.193 33.8668C138.193 34.1524 137.977 34.438 137.615 34.5115V34.5817C137.903 34.6553 138.05 34.8693 138.122 35.2251C138.193 35.7267 138.266 35.8691 138.34 35.9407H137.614C137.54 35.8672 137.465 35.5842 137.395 35.2967C137.324 35.0091 137.177 34.8673 136.958 34.8673L136.958 34.3703ZM136.958 37.3738C137.351 37.3785 137.74 37.3058 138.103 37.1601C138.467 37.0144 138.797 36.7985 139.075 36.5252C139.352 36.2518 139.571 35.9266 139.72 35.5685C139.868 35.2104 139.942 34.8267 139.938 34.4399C139.938 32.8663 138.63 31.5776 136.958 31.5776V32.1521C138.266 32.2217 139.136 33.2235 139.136 34.4406C139.136 35.7293 138.193 36.8026 136.958 36.8026V37.3738ZM136.451 34.3703H136.958V34.8712C136.931 34.8434 136.897 34.8222 136.859 34.8093C136.822 34.7965 136.782 34.7923 136.743 34.7971H136.451V35.9446H135.797V33.0823C136.016 33.0823 136.378 33.012 136.886 33.012H136.958V33.509H136.451V34.3703ZM136.958 31.577H136.886C135.216 31.577 133.908 32.8663 133.908 34.4393C133.904 34.8259 133.978 35.2095 134.126 35.5675C134.274 35.9255 134.493 36.2507 134.771 36.524C135.048 36.7974 135.378 37.0133 135.741 37.1591C136.105 37.3049 136.494 37.3777 136.886 37.3731H136.958V36.8013C135.578 36.8013 134.634 35.728 134.634 34.4393C134.634 33.2222 135.578 32.1507 136.886 32.1507H136.958V31.577Z" fill="#F46440"/>
<path d="M18.6598 13.5914C16.7726 12.1602 14.4492 11.3009 11.3267 10.9431C10.3106 10.8728 9.2198 10.8 7.98586 10.8C4.93465 10.8 2.1045 11.0146 -0.00244141 11.3718V36.6445C1.44926 36.8592 3.6268 37.0023 6.67735 37.0023C8.34812 37.0023 9.87175 36.9314 11.3267 36.7148C14.3766 36.2139 16.8456 35.2117 18.7337 33.7081C21.2762 31.6323 23.0888 28.1962 23.0888 23.2568C23.0888 18.7474 21.3441 15.5247 18.6585 13.5914H18.6598ZM11.3254 32.0662C10.3092 32.3518 9.21848 32.4968 7.98454 32.4968C7.18544 32.4968 6.38569 32.4968 5.87628 32.3518V15.5247C6.38569 15.3809 7.25605 15.3087 8.56324 15.3087C9.58207 15.3087 10.5263 15.3809 11.3254 15.5937C14.8115 16.4556 16.8425 19.1761 16.7713 23.4702C16.7713 28.1962 14.7382 30.9896 11.3254 32.0629" fill="#757679"/>
<path d="M41.8743 29.4856C41.2197 27.1229 40.2042 25.4061 38.3882 24.6886V24.5435C40.639 23.7584 43.035 21.5375 43.035 18.2445C43.035 15.8812 42.164 14.0207 40.5664 12.8036C38.9689 11.5864 36.7161 10.9431 33.6682 10.8709C33.1581 10.8 32.6507 10.8 32.1406 10.8C29.0208 10.8 26.188 11.0146 24.3002 11.3718V36.787H30.1069V26.622H31.9235C32.5755 26.622 33.1555 26.6929 33.6656 26.9069C34.9002 27.3356 35.6234 28.4115 36.1348 30.7749C36.9332 33.9241 37.5146 35.9999 37.9501 36.787H43.9759C43.4698 35.7865 42.6707 32.4214 41.8716 29.4856H41.8743ZM33.6682 22.3246C33.232 22.3988 32.8678 22.3988 32.4336 22.3988H30.1096V15.3081C30.5438 15.2372 31.3435 15.0947 32.7972 15.0947C33.0856 15.0947 33.3779 15.1656 33.6682 15.1656C35.8458 15.4518 37.1543 16.5968 37.1543 18.7435C37.1543 20.6768 35.8464 21.9642 33.6682 22.3214" fill="#757679"/>
<path d="M53.2762 36.5724V25.9767L45.0002 10.8H51.7519L54.4362 16.9559C55.2353 18.8183 55.8173 20.2482 56.4712 21.8959H56.5438C57.1258 20.3217 57.7039 18.8183 58.5049 16.9559L61.118 10.8H67.7984L59.1542 25.8348V36.5724H53.2762Z" fill="#757679"/>
<path d="M88.6712 13.607C86.782 12.1758 84.5299 11.3165 81.4081 10.9587C80.3207 10.8884 79.2306 10.8156 77.996 10.8156C75.0167 10.8156 72.1892 11.0302 70.0063 11.3874V36.6601C71.458 36.8748 73.6396 37.0179 76.6881 37.0179C78.3589 37.0179 79.9558 36.947 81.4081 36.7304C84.3854 36.2295 86.9279 35.227 88.7418 33.7237C91.2823 31.6479 93.0969 28.2118 93.0969 23.2724C93.0969 18.763 91.4281 15.5403 88.6699 13.607H88.6712ZM81.4068 32.0818C80.3899 32.3674 79.2292 32.5124 77.9946 32.5124C77.2688 32.5124 76.4684 32.5124 75.9603 32.3674V15.5403C76.4684 15.3965 77.2675 15.3243 78.5747 15.3243C79.5909 15.3243 80.5364 15.3965 81.4068 15.6093C84.8196 16.5434 86.854 19.1917 86.854 23.4858C86.854 28.2118 84.747 31.0052 81.4068 32.0785" fill="#F46440"/>
<path d="M113.866 29.5012C113.214 27.1385 112.195 25.4217 110.383 24.7042V24.5591C112.632 23.774 115.028 21.5531 115.028 18.2601C115.028 15.8968 114.158 14.0363 112.632 12.8192C111.035 11.602 108.784 10.9587 105.661 10.8865C105.151 10.8156 104.642 10.8156 104.135 10.8156C101.013 10.8156 98.1805 11.0302 96.294 11.3874V36.8026H102.177V26.6376H103.917C104.574 26.6376 105.151 26.7085 105.661 26.9225C106.895 27.3512 107.621 28.4271 108.131 30.7905C108.929 33.9397 109.582 36.0155 109.945 36.8026H116.046C115.538 35.8021 114.737 32.437 113.868 29.5012H113.866ZM105.661 22.3402C105.296 22.4144 104.864 22.4144 104.498 22.4144H102.177V15.3237C102.537 15.2528 103.409 15.1103 104.791 15.1103C105.08 15.1103 105.37 15.1812 105.661 15.1812C107.839 15.4674 109.146 16.6124 109.146 18.7591C109.146 20.6924 107.912 21.9798 105.661 22.337" fill="#F46440"/>
<path d="M123.598 36.8026V26.2069L115.396 11.0303H122.149L124.764 17.1862C125.635 19.0486 126.142 20.4784 126.795 22.1262H126.868C127.45 20.552 128.104 19.0486 128.829 17.1862L131.517 11.0303H138.125L129.552 26.0651V36.8026H123.598Z" fill="#F46440"/>
<path d="M175.585 19.621C173.843 20.5519 171.88 20.267 171.155 18.9751C170.429 17.6155 171.229 15.8285 172.97 14.9665C174.715 14.0363 176.675 14.3238 177.401 15.6093C178.126 16.8947 177.328 18.6895 175.585 19.621Z" fill="#757679"/>
<path d="M177.834 22.9849C176.747 23.5593 175.514 23.3433 175.076 22.4833C174.642 21.6968 175.148 20.5519 176.166 19.9788C177.256 19.4051 178.489 19.621 178.927 20.4088C179.434 21.2681 178.927 22.415 177.834 22.9849Z" fill="#757679"/>
<path d="M178.927 26.4951C177.981 26.994 176.892 26.78 176.528 26.0651C176.094 25.3495 176.528 24.3484 177.473 23.8455C178.344 23.3433 179.431 23.5593 179.871 24.2742C180.235 24.9898 179.797 25.9935 178.927 26.4951Z" fill="#757679"/>
<path d="M178.927 29.8577C178.126 30.2877 177.256 30.1452 176.892 29.5012C176.528 28.8572 176.892 28.07 177.692 27.6381C178.418 27.212 179.287 27.4254 179.653 27.9985C180.015 28.6405 179.653 29.5012 178.927 29.8577Z" fill="#757679"/>
<path d="M177.909 32.5079C177.328 32.7941 176.602 32.6503 176.383 32.221C176.094 31.722 176.383 31.0748 176.965 30.7189C177.544 30.4321 178.27 30.5739 178.489 31.0748C178.78 31.5061 178.489 32.1494 177.909 32.5059" fill="#757679"/>
<path d="M172.172 33.3679C172.172 33.297 172.172 33.297 172.244 33.2228C174.929 31.5061 175.729 27.7818 173.987 24.7042C172.244 21.4835 168.395 20.1232 165.42 21.6975C163.968 22.4131 163.022 23.7018 162.585 25.1355C162.585 25.1355 160.262 31.6479 155.178 30.931V31.0052C153.945 30.5023 152.565 30.5023 151.403 31.1476C149.226 32.2945 148.5 35.2271 149.805 37.5878C150.969 39.6636 153.291 40.7389 155.325 40.1652C156.195 40.0214 165.487 38.3047 172.172 33.3659" fill="#757679"/>
<path d="M149.296 10.0987C150.169 10.0272 149.08 3.2266 148.863 2.00752C148.716 0.865208 147.844 -0.0676401 147.046 0.00586889C146.173 0.147683 145.665 1.15144 145.886 2.36791C146.107 3.58439 148.497 10.2392 149.296 10.0987Z" fill="#F46440"/>
<path d="M141.818 6.30355C142.325 7.52198 143.632 9.81637 144.578 10.8884C144.939 11.2443 145.231 11.4583 145.378 11.4583C146.173 11.2443 145.012 6.73419 144.578 5.30305L144.504 5.08708C144.141 3.94021 143.197 3.08347 142.399 3.29814C142.181 3.29814 141.962 3.44191 141.818 3.65528C141.454 4.08527 141.309 4.8737 141.601 5.73109C141.684 5.91808 141.756 6.10916 141.818 6.30355Z" fill="#F46440"/>
<path d="M154.38 10.2405C155.253 10.169 154.671 3.36842 154.524 2.07974C154.452 0.863261 153.654 -0.0669854 152.856 0.00196995C151.984 0.0722263 151.404 1.07598 151.548 2.29311C151.622 3.51219 153.583 10.2405 154.38 10.2405Z" fill="#F46440"/>
<path d="M157.938 17.9726C157.503 17.6155 156.411 17.257 156.267 14.6094C156.051 11.9605 154.306 11.3874 154.306 11.3874C149.152 10.5287 146.104 12.8901 144.578 14.895C144.212 15.4681 143.923 15.9684 143.704 16.3977C143.123 17.6155 143.777 20.4797 144.578 22.8444C145.085 24.2033 145.594 25.4914 146.03 26.136C147.119 27.9972 150.388 28.1422 151.111 27.4976C151.764 26.9225 152.419 26.4951 153.583 26.9225C154.67 27.2816 154.38 27.212 156.342 27.1385C158.301 27.1385 161.061 22.6993 161.279 20.6983C161.568 18.6928 158.301 18.4059 157.938 17.9746" fill="#F46440"/>
<path d="M141.454 10.5281C140.945 9.45404 140.003 8.66757 139.277 8.95314C138.62 9.16717 138.478 10.2425 138.984 11.3874C139.491 12.5323 141.091 14.1794 141.818 14.0363C142.399 13.8216 142.183 12.5343 141.818 11.3874C141.745 11.1018 141.601 10.8156 141.454 10.5281Z" fill="#F46440"/>
<path d="M164.547 10.0271C163.605 9.81377 162.441 10.6712 161.862 12.1036C161.282 13.5361 161.569 14.8963 162.513 15.1819C163.385 15.4681 164.619 14.5366 165.201 13.1061C165.783 11.6756 165.489 10.3134 164.547 10.0271Z" fill="#F46440"/>
</g>
<defs>
<clipPath id="clip0_137_207">
<rect width="180" height="40.32" fill="white"/>
</clipPath>
</defs>
</svg>
