<svg width="200" height="54" viewBox="0 0 200 54" fill="none" xmlns="http://www.w3.org/2000/svg">
<g clip-path="url(#clip0_10_46)">
<path d="M152.176 38.1893C152.499 38.1091 152.74 37.9493 152.74 37.7108C152.74 37.392 152.58 37.2308 152.176 37.2308V36.6765C152.74 36.6765 152.983 36.7545 153.225 36.9121C153.325 37.0043 153.405 37.1154 153.46 37.2387C153.516 37.362 153.546 37.495 153.548 37.6298C153.548 37.9471 153.308 38.2645 152.906 38.3461V38.4242C153.225 38.5059 153.389 38.7437 153.469 39.139C153.548 39.6963 153.629 39.8546 153.711 39.9341H152.905C152.822 39.8524 152.739 39.538 152.661 39.2186C152.582 38.8991 152.419 38.7415 152.175 38.7415L152.176 38.1893ZM152.176 41.5265C152.612 41.5317 153.044 41.451 153.448 41.289C153.852 41.1271 154.219 40.8872 154.527 40.5835C154.836 40.2798 155.079 39.9184 155.244 39.5205C155.409 39.1227 155.491 38.6963 155.486 38.2666C155.486 36.5182 154.033 35.0863 152.176 35.0863V35.7245C153.629 35.8019 154.596 36.915 154.596 38.2673C154.596 39.6992 153.548 40.8918 152.176 40.8918V41.5265ZM151.612 38.1893H152.176V38.7458C152.145 38.7149 152.108 38.6913 152.066 38.677C152.024 38.6628 151.98 38.6581 151.936 38.6634H151.612V39.9385H150.886V36.7581C151.129 36.7581 151.532 36.6801 152.095 36.6801H152.176V37.2323H151.612V38.1893ZM152.176 35.0856H152.095C150.24 35.0856 148.787 36.5182 148.787 38.2659C148.782 38.6955 148.864 39.1217 149.029 39.5195C149.193 39.9173 149.437 40.2786 149.745 40.5823C150.053 40.886 150.42 41.1259 150.824 41.2879C151.227 41.4499 151.66 41.5308 152.095 41.5257H152.176V40.8904C150.642 40.8904 149.594 39.6978 149.594 38.2659C149.594 36.9135 150.642 35.7231 152.095 35.7231H152.176V35.0856Z" fill="#F46440"/>
<path d="M20.7329 15.1015C18.636 13.5114 16.0545 12.5566 12.5851 12.159C11.456 12.081 10.244 12 8.87296 12C5.48273 12 2.33812 12.2385 -0.00292969 12.6353V40.7162C1.61007 40.9547 4.02956 41.1137 7.41906 41.1137C9.27547 41.1137 10.9684 41.035 12.5851 40.7943C15.9738 40.2377 18.7171 39.1241 20.815 37.4535C23.64 35.147 25.654 31.3292 25.654 25.8409C25.654 20.8305 23.7155 17.2497 20.7314 15.1015H20.7329ZM12.5836 35.6291C11.4545 35.9464 10.2425 36.1076 8.87149 36.1076C7.98361 36.1076 7.095 36.1076 6.52898 35.9464V17.2497C7.095 17.09 8.06206 17.0097 9.51449 17.0097C10.6465 17.0097 11.6957 17.09 12.5836 17.3263C16.457 18.284 18.7137 21.3068 18.6345 26.078C18.6345 31.3292 16.3756 34.4329 12.5836 35.6255" fill="#757679"/>
<path d="M46.5268 32.7618C45.7994 30.1366 44.6711 28.2291 42.6534 27.4318V27.2706C45.1542 26.3982 47.8164 23.9306 47.8164 20.2717C47.8164 17.6458 46.8486 15.5786 45.0736 14.2262C43.2986 12.8739 40.7955 12.159 37.4089 12.0788C36.8422 12 36.2784 12 35.7116 12C32.2451 12 29.0976 12.2385 27 12.6353V40.8745H33.4519V29.58H35.4704C36.1948 29.58 36.8392 29.6588 37.406 29.8966C38.7778 30.3729 39.5813 31.5684 40.1495 34.1944C41.0367 37.6934 41.6826 39.9999 42.1665 40.8745H48.8619C48.2996 39.7628 47.4117 36.0238 46.5238 32.7618H46.5268ZM37.4089 24.8052C36.9243 24.8876 36.5196 24.8876 36.0371 24.8876H33.4549V17.009C33.9373 16.9302 34.8259 16.7719 36.4411 16.7719C36.7615 16.7719 37.0863 16.8507 37.4089 16.8507C39.8284 17.1688 41.2823 18.4409 41.2823 20.8261C41.2823 22.9743 39.8291 24.4047 37.4089 24.8015" fill="#757679"/>
<path d="M59.1955 40.636V28.863L50 12H57.5019L60.4845 18.8399C61.3724 20.9093 62.019 22.498 62.7456 24.3289H62.8263C63.4729 22.5797 64.1152 20.9093 65.0053 18.8399L67.9087 12H75.3314L65.7267 28.7054V40.636H59.1955Z" fill="#757679"/>
<path d="M98.5234 15.1189C96.4243 13.5287 93.922 12.5739 90.4533 12.1763C89.245 12.0983 88.0338 12.0173 86.662 12.0173C83.3517 12.0173 80.21 12.2559 77.7847 12.6527V40.7335C79.3977 40.9721 81.8216 41.1311 85.2089 41.1311C87.0653 41.1311 88.8396 41.0523 90.4533 40.8116C93.7614 40.255 96.5863 39.1412 98.6019 37.4708C101.425 35.1643 103.441 31.3465 103.441 25.8583C103.441 20.8478 101.587 17.267 98.5219 15.1189H98.5234ZM90.4518 35.6465C89.322 35.9638 88.0323 36.1249 86.6605 36.1249C85.8541 36.1249 84.9647 36.125 84.4002 35.9638V17.267C84.9647 17.1073 85.8526 17.0271 87.305 17.0271C88.4341 17.0271 89.4848 17.1073 90.4518 17.3437C94.2438 18.3816 96.5042 21.3241 96.5042 26.0953C96.5042 31.3465 94.1632 34.4502 90.4518 35.6428" fill="#F46440"/>
<path d="M126.518 32.7791C125.793 30.1539 124.661 28.2464 122.647 27.4492V27.288C125.146 26.4156 127.809 23.9479 127.809 20.2891C127.809 17.6631 126.842 15.5959 125.146 14.2436C123.372 12.8912 120.871 12.1763 117.401 12.0961C116.835 12.0173 116.269 12.0173 115.706 12.0173C112.236 12.0173 109.089 12.2559 106.993 12.6527V40.8918H113.529V29.5973H115.464C116.193 29.5973 116.835 29.6761 117.401 29.9139C118.772 30.3902 119.578 31.5858 120.145 34.2117C121.032 37.7108 121.758 40.0172 122.161 40.8918H128.939C128.375 39.7802 127.486 36.0411 126.52 32.7791H126.518ZM117.401 24.8225C116.996 24.9049 116.515 24.9049 116.109 24.9049H113.529V17.0264C113.93 16.9476 114.898 16.7893 116.434 16.7893C116.755 16.7893 117.077 16.8681 117.401 16.8681C119.821 17.1861 121.273 18.4582 121.273 20.8435C121.273 22.9916 119.902 24.4221 117.401 24.8189" fill="#F46440"/>
<path d="M137.331 40.8919V29.1189L128.217 12.2559H135.721L138.626 19.0958C139.594 21.1651 140.158 22.7539 140.884 24.5847H140.964C141.611 22.8355 142.338 21.1651 143.143 19.0958L146.13 12.2559H153.472L143.947 28.9613V40.8919H137.331Z" fill="#F46440"/>
<path d="M195.094 21.8011C193.159 22.8355 190.978 22.5189 190.172 21.0834C189.366 19.5727 190.255 17.5872 192.189 16.6295C194.128 15.5959 196.306 15.9154 197.112 17.3436C197.918 18.7719 197.031 20.7661 195.094 21.8011Z" fill="#757679"/>
<path d="M197.594 25.5387C196.385 26.177 195.016 25.937 194.529 24.9815C194.047 24.1076 194.609 22.8355 195.74 22.1987C196.951 21.5612 198.322 21.8011 198.808 22.6764C199.371 23.6313 198.808 24.9056 197.594 25.5387Z" fill="#757679"/>
<path d="M198.808 29.439C197.757 29.9934 196.547 29.7556 196.142 28.9612C195.66 28.1661 196.142 27.0537 197.192 26.495C198.16 25.937 199.368 26.177 199.857 26.9713C200.261 27.7664 199.775 28.8817 198.808 29.439Z" fill="#757679"/>
<path d="M198.808 33.1752C197.918 33.6529 196.951 33.4947 196.547 32.7791C196.142 32.0635 196.547 31.1889 197.435 30.709C198.242 30.2355 199.208 30.4726 199.614 31.1094C200.017 31.8228 199.614 32.7791 198.808 33.1752Z" fill="#757679"/>
<path d="M197.677 36.1198C197.031 36.4379 196.225 36.2781 195.981 35.8011C195.66 35.2467 195.981 34.5275 196.627 34.1321C197.271 33.8134 198.078 33.971 198.322 34.5275C198.644 35.0067 198.322 35.7216 197.677 36.1177" fill="#757679"/>
<path d="M191.302 37.0754C191.302 36.9966 191.302 36.9966 191.382 36.9142C194.366 35.0067 195.255 30.8687 193.319 27.4491C191.382 23.8705 187.106 22.3591 183.8 24.1083C182.187 24.9034 181.136 26.3353 180.651 27.9283C180.651 27.9283 178.069 35.1643 172.42 34.3678V34.4502C171.05 33.8915 169.517 33.8915 168.226 34.6085C165.807 35.8828 165 39.1412 166.45 41.7642C167.743 44.0707 170.324 45.2655 172.583 44.628C173.551 44.4682 183.874 42.5608 191.302 37.0732" fill="#757679"/>
<path d="M165.884 11.2208C166.854 11.1413 165.645 3.58509 165.403 2.23056C165.24 0.961321 164.271 -0.0751768 163.384 0.0064998C162.414 0.164071 161.85 1.27935 162.095 2.63099C162.341 3.98263 164.996 11.3769 165.884 11.2208Z" fill="#F46440"/>
<path d="M157.575 7.00392C158.139 8.35773 159.591 10.9071 160.642 12.0982C161.043 12.4936 161.368 12.7314 161.531 12.7314C162.414 12.4936 161.125 7.48242 160.642 5.89225L160.56 5.65229C160.156 4.37799 159.108 3.42605 158.22 3.66458C157.979 3.66458 157.735 3.82432 157.575 4.0614C157.171 4.53917 157.01 5.4152 157.335 6.36786C157.426 6.57563 157.506 6.78794 157.575 7.00392Z" fill="#F46440"/>
<path d="M171.533 11.3784C172.503 11.2988 171.856 3.74267 171.693 2.3108C171.613 0.959158 170.727 -0.0744494 169.84 0.00216764C168.871 0.0802303 168.227 1.19552 168.386 2.54788C168.469 3.90241 170.648 11.3784 171.533 11.3784Z" fill="#F46440"/>
<path d="M175.487 19.9696C175.003 19.5727 173.79 19.1745 173.63 16.2327C173.39 13.2894 171.451 12.6526 171.451 12.6526C165.724 11.6985 162.337 14.3223 160.642 16.55C160.235 17.1868 159.914 17.7426 159.671 18.2197C159.025 19.5727 159.752 22.7552 160.642 25.3826C161.205 26.8926 161.77 28.3237 162.255 29.04C163.465 31.1079 167.098 31.2691 167.901 30.5528C168.626 29.9139 169.354 29.439 170.647 29.9139C171.855 30.3129 171.533 30.2355 173.713 30.1538C175.889 30.1538 178.956 25.2214 179.198 22.9981C179.52 20.7697 175.889 20.4509 175.486 19.9717" fill="#F46440"/>
<path d="M157.171 11.6978C156.605 10.5045 155.558 9.63061 154.752 9.94792C154.022 10.1857 153.864 11.3805 154.427 12.6526C154.99 13.9248 156.768 15.7549 157.575 15.5959C158.22 15.3574 157.981 13.9269 157.575 12.6526C157.495 12.3353 157.335 12.0173 157.171 11.6978Z" fill="#F46440"/>
<path d="M182.83 11.1412C181.783 10.9042 180.49 11.8568 179.846 13.4484C179.203 15.04 179.521 16.5514 180.57 16.8687C181.538 17.1868 182.91 16.1517 183.556 14.5623C184.203 12.9728 183.877 11.4593 182.83 11.1412Z" fill="#F46440"/>
<path d="M3.11 0.469233C3.80333 0.469233 4.42333 0.6259 4.97 0.939233C5.52333 1.2459 5.95667 1.6759 6.27 2.22923C6.58333 2.7759 6.74 3.3959 6.74 4.08923C6.74 4.78257 6.58333 5.4059 6.27 5.95923C5.95667 6.5059 5.52333 6.9359 4.97 7.24923C4.42333 7.5559 3.80333 7.70923 3.11 7.70923C2.49 7.70923 1.93 7.60257 1.43 7.38923C0.936667 7.1759 0.523333 6.8659 0.19 6.45923L1.22 5.49923C1.71333 6.05257 2.31667 6.32923 3.03 6.32923C3.54333 6.32923 3.97667 6.17923 4.33 5.87923C4.69 5.57923 4.92333 5.1759 5.03 4.66923H2.19V3.42923H5.01C4.89667 2.94923 4.66333 2.5659 4.31 2.27923C3.95667 1.99257 3.53 1.84923 3.03 1.84923C2.31667 1.84923 1.71333 2.1259 1.22 2.67923L0.19 1.71923C0.523333 1.31257 0.936667 1.00257 1.43 0.789233C1.93 0.5759 2.49 0.469233 3.11 0.469233ZM15.3187 4.87923C15.3187 5.71257 15.0387 6.37257 14.4787 6.85923C13.9253 7.33923 13.132 7.6159 12.0987 7.68923V9.52923H10.6687V7.68923C9.63534 7.6159 8.83867 7.34257 8.27867 6.86923C7.72534 6.38923 7.44867 5.7259 7.44867 4.87923C7.44867 4.0459 7.72201 3.39923 8.26867 2.93923C8.82201 2.47923 9.62201 2.21257 10.6687 2.13923V0.169233H12.0987V2.13923C13.132 2.21257 13.9253 2.48257 14.4787 2.94923C15.0387 3.4159 15.3187 4.05923 15.3187 4.87923ZM8.95867 4.87923C8.95867 5.35923 9.09534 5.72923 9.36867 5.98923C9.64201 6.24923 10.0753 6.41257 10.6687 6.47923V3.34923C10.0753 3.40923 9.64201 3.5659 9.36867 3.81923C9.09534 4.0659 8.95867 4.41923 8.95867 4.87923ZM12.0987 6.47923C12.692 6.41257 13.1253 6.24923 13.3987 5.98923C13.6787 5.72923 13.8187 5.35923 13.8187 4.87923C13.8187 4.41923 13.6787 4.0659 13.3987 3.81923C13.1253 3.5659 12.692 3.40923 12.0987 3.34923V6.47923ZM23.805 4.87923C23.805 5.71257 23.525 6.37257 22.965 6.85923C22.4117 7.33923 21.6183 7.6159 20.585 7.68923V9.52923H19.155V7.68923C18.1217 7.6159 17.325 7.34257 16.765 6.86923C16.2117 6.38923 15.935 5.7259 15.935 4.87923C15.935 4.0459 16.2083 3.39923 16.755 2.93923C17.3083 2.47923 18.1083 2.21257 19.155 2.13923V0.169233H20.585V2.13923C21.6183 2.21257 22.4117 2.48257 22.965 2.94923C23.525 3.4159 23.805 4.05923 23.805 4.87923ZM17.445 4.87923C17.445 5.35923 17.5817 5.72923 17.855 5.98923C18.1283 6.24923 18.5617 6.41257 19.155 6.47923V3.34923C18.5617 3.40923 18.1283 3.5659 17.855 3.81923C17.5817 4.0659 17.445 4.41923 17.445 4.87923ZM20.585 6.47923C21.1783 6.41257 21.6117 6.24923 21.885 5.98923C22.165 5.72923 22.305 5.35923 22.305 4.87923C22.305 4.41923 22.165 4.0659 21.885 3.81923C21.6117 3.5659 21.1783 3.40923 20.585 3.34923V6.47923ZM30.0913 4.91923C30.0913 4.93923 30.0813 5.07923 30.0613 5.33923H25.9913C26.0647 5.67257 26.238 5.9359 26.5113 6.12923C26.7847 6.32257 27.1247 6.41923 27.5313 6.41923C27.8113 6.41923 28.058 6.37923 28.2713 6.29923C28.4913 6.21257 28.6947 6.07923 28.8813 5.89923L29.7113 6.79923C29.2047 7.37923 28.4647 7.66923 27.4913 7.66923C26.8847 7.66923 26.348 7.55257 25.8813 7.31923C25.4147 7.07923 25.0547 6.74923 24.8013 6.32923C24.548 5.90923 24.4213 5.43257 24.4213 4.89923C24.4213 4.37257 24.5447 3.89923 24.7913 3.47923C25.0447 3.05257 25.388 2.72257 25.8213 2.48923C26.2613 2.24923 26.7513 2.12923 27.2913 2.12923C27.818 2.12923 28.2947 2.24257 28.7213 2.46923C29.148 2.6959 29.4813 3.02257 29.7213 3.44923C29.968 3.86923 30.0913 4.35923 30.0913 4.91923ZM27.3013 3.30923C26.948 3.30923 26.6513 3.40923 26.4113 3.60923C26.1713 3.80923 26.0247 4.08257 25.9713 4.42923H28.6213C28.568 4.08923 28.4213 3.81923 28.1813 3.61923C27.9413 3.41257 27.648 3.30923 27.3013 3.30923ZM33.6571 5.54923H32.8471V7.58923H31.2871V2.20923H32.8471V4.29923H33.6871L35.1471 2.20923H36.8071L34.9271 4.78923L36.9371 7.58923H35.0971L33.6571 5.54923ZM42.1743 3.48923H40.3543V7.58923H38.8043V3.48923H36.9843V2.20923H42.1743V3.48923ZM43.0059 2.20923H44.5559V5.40923L47.1759 2.20923H48.6059V7.58923H47.0559V4.38923L44.4459 7.58923H43.0059V2.20923ZM54.2155 4.77923C54.8488 4.99257 55.1655 5.41923 55.1655 6.05923C55.1655 6.5459 54.9821 6.92257 54.6155 7.18923C54.2488 7.4559 53.7021 7.58923 52.9755 7.58923H50.1055V2.20923H52.8555C53.5288 2.20923 54.0555 2.33257 54.4355 2.57923C54.8155 2.81923 55.0055 3.15923 55.0055 3.59923C55.0055 3.8659 54.9355 4.10257 54.7955 4.30923C54.6621 4.50923 54.4688 4.6659 54.2155 4.77923ZM51.5355 4.41923H52.7155C53.2621 4.41923 53.5355 4.2259 53.5355 3.83923C53.5355 3.45923 53.2621 3.26923 52.7155 3.26923H51.5355V4.41923ZM52.8455 6.52923C53.4188 6.52923 53.7055 6.33257 53.7055 5.93923C53.7055 5.73257 53.6388 5.58257 53.5055 5.48923C53.3721 5.38923 53.1621 5.33923 52.8755 5.33923H51.5355V6.52923H52.8455ZM56.3262 2.20923H57.8762V4.30923H60.2162V2.20923H61.7762V7.58923H60.2162V5.57923H57.8762V7.58923H56.3262V2.20923ZM66.0995 3.92923C66.7995 3.9359 67.3295 4.09257 67.6895 4.39923C68.0495 4.7059 68.2295 5.1459 68.2295 5.71923C68.2295 6.31923 68.0262 6.78257 67.6195 7.10923C67.2129 7.4359 66.6362 7.59923 65.8895 7.59923L63.2695 7.58923V2.20923H64.8195V3.92923H66.0995ZM68.8095 2.20923H70.3595V7.58923H68.8095V2.20923ZM65.7495 6.48923C66.0495 6.4959 66.2795 6.43257 66.4395 6.29923C66.5995 6.1659 66.6795 5.9659 66.6795 5.69923C66.6795 5.43923 66.5995 5.24923 66.4395 5.12923C66.2862 5.00923 66.0562 4.9459 65.7495 4.93923L64.8195 4.92923V6.48923H65.7495ZM77.0933 4.91923C77.0933 4.93923 77.0833 5.07923 77.0633 5.33923H72.9933C73.0666 5.67257 73.2399 5.9359 73.5133 6.12923C73.7866 6.32257 74.1266 6.41923 74.5333 6.41923C74.8133 6.41923 75.0599 6.37923 75.2733 6.29923C75.4933 6.21257 75.6966 6.07923 75.8833 5.89923L76.7133 6.79923C76.2066 7.37923 75.4666 7.66923 74.4933 7.66923C73.8866 7.66923 73.3499 7.55257 72.8833 7.31923C72.4166 7.07923 72.0566 6.74923 71.8033 6.32923C71.5499 5.90923 71.4233 5.43257 71.4233 4.89923C71.4233 4.37257 71.5466 3.89923 71.7933 3.47923C72.0466 3.05257 72.3899 2.72257 72.8233 2.48923C73.2633 2.24923 73.7533 2.12923 74.2933 2.12923C74.8199 2.12923 75.2966 2.24257 75.7233 2.46923C76.1499 2.6959 76.4833 3.02257 76.7233 3.44923C76.9699 3.86923 77.0933 4.35923 77.0933 4.91923ZM74.3033 3.30923C73.9499 3.30923 73.6533 3.40923 73.4133 3.60923C73.1733 3.80923 73.0266 4.08257 72.9733 4.42923H75.6233C75.5699 4.08923 75.4233 3.81923 75.1833 3.61923C74.9433 3.41257 74.6499 3.30923 74.3033 3.30923ZM83.6811 7.66923C83.1078 7.66923 82.5911 7.55257 82.1311 7.31923C81.6778 7.07923 81.3211 6.74923 81.0611 6.32923C80.8078 5.90923 80.6811 5.43257 80.6811 4.89923C80.6811 4.3659 80.8078 3.88923 81.0611 3.46923C81.3211 3.04923 81.6778 2.72257 82.1311 2.48923C82.5911 2.24923 83.1078 2.12923 83.6811 2.12923C84.2478 2.12923 84.7411 2.24923 85.1611 2.48923C85.5878 2.72257 85.8978 3.05923 86.0911 3.49923L84.8811 4.14923C84.6011 3.6559 84.1978 3.40923 83.6711 3.40923C83.2644 3.40923 82.9278 3.54257 82.6611 3.80923C82.3944 4.0759 82.2611 4.43923 82.2611 4.89923C82.2611 5.35923 82.3944 5.72257 82.6611 5.98923C82.9278 6.2559 83.2644 6.38923 83.6711 6.38923C84.2044 6.38923 84.6078 6.14257 84.8811 5.64923L86.0911 6.30923C85.8978 6.7359 85.5878 7.06923 85.1611 7.30923C84.7411 7.54923 84.2478 7.66923 83.6811 7.66923ZM90.2091 2.12923C90.7091 2.12923 91.1624 2.2459 91.5691 2.47923C91.9824 2.7059 92.3057 3.02923 92.5391 3.44923C92.7724 3.86257 92.8891 4.3459 92.8891 4.89923C92.8891 5.45257 92.7724 5.93923 92.5391 6.35923C92.3057 6.77257 91.9824 7.0959 91.5691 7.32923C91.1624 7.5559 90.7091 7.66923 90.2091 7.66923C89.5224 7.66923 88.9824 7.45257 88.5891 7.01923V9.52923H87.0291V2.20923H88.5191V2.82923C88.9057 2.36257 89.4691 2.12923 90.2091 2.12923ZM89.9391 6.38923C90.3391 6.38923 90.6657 6.2559 90.9191 5.98923C91.1791 5.7159 91.3091 5.35257 91.3091 4.89923C91.3091 4.4459 91.1791 4.0859 90.9191 3.81923C90.6657 3.5459 90.3391 3.40923 89.9391 3.40923C89.5391 3.40923 89.2091 3.5459 88.9491 3.81923C88.6957 4.0859 88.5691 4.4459 88.5691 4.89923C88.5691 5.35257 88.6957 5.7159 88.9491 5.98923C89.2091 6.2559 89.5391 6.38923 89.9391 6.38923ZM99.2124 4.91923C99.2124 4.93923 99.2024 5.07923 99.1824 5.33923H95.1124C95.1858 5.67257 95.3591 5.9359 95.6324 6.12923C95.9058 6.32257 96.2458 6.41923 96.6524 6.41923C96.9324 6.41923 97.1791 6.37923 97.3924 6.29923C97.6124 6.21257 97.8158 6.07923 98.0024 5.89923L98.8324 6.79923C98.3258 7.37923 97.5858 7.66923 96.6124 7.66923C96.0058 7.66923 95.4691 7.55257 95.0024 7.31923C94.5358 7.07923 94.1758 6.74923 93.9224 6.32923C93.6691 5.90923 93.5424 5.43257 93.5424 4.89923C93.5424 4.37257 93.6658 3.89923 93.9124 3.47923C94.1658 3.05257 94.5091 2.72257 94.9424 2.48923C95.3824 2.24923 95.8724 2.12923 96.4124 2.12923C96.9391 2.12923 97.4158 2.24257 97.8424 2.46923C98.2691 2.6959 98.6024 3.02257 98.8424 3.44923C99.0891 3.86923 99.2124 4.35923 99.2124 4.91923ZM96.4224 3.30923C96.0691 3.30923 95.7724 3.40923 95.5324 3.60923C95.2924 3.80923 95.1458 4.08257 95.0924 4.42923H97.7424C97.6891 4.08923 97.5424 3.81923 97.3024 3.61923C97.0624 3.41257 96.7691 3.30923 96.4224 3.30923ZM106.389 6.30923V8.74923H104.939V7.58923H101.159V8.74923H99.7094V6.30923H99.9294C100.263 6.30257 100.493 6.1059 100.619 5.71923C100.746 5.33257 100.826 4.78257 100.859 4.06923L100.929 2.20923H105.619V6.30923H106.389ZM102.269 4.17923C102.249 4.7259 102.206 5.17257 102.139 5.51923C102.079 5.8659 101.963 6.12923 101.789 6.30923H104.059V3.48923H102.299L102.269 4.17923ZM109.931 7.66923C109.358 7.66923 108.841 7.55257 108.381 7.31923C107.928 7.07923 107.571 6.74923 107.311 6.32923C107.058 5.90923 106.931 5.43257 106.931 4.89923C106.931 4.3659 107.058 3.88923 107.311 3.46923C107.571 3.04923 107.928 2.72257 108.381 2.48923C108.841 2.24923 109.358 2.12923 109.931 2.12923C110.498 2.12923 110.991 2.24923 111.411 2.48923C111.838 2.72257 112.148 3.05923 112.341 3.49923L111.131 4.14923C110.851 3.6559 110.448 3.40923 109.921 3.40923C109.514 3.40923 109.178 3.54257 108.911 3.80923C108.644 4.0759 108.511 4.43923 108.511 4.89923C108.511 5.35923 108.644 5.72257 108.911 5.98923C109.178 6.2559 109.514 6.38923 109.921 6.38923C110.454 6.38923 110.858 6.14257 111.131 5.64923L112.341 6.30923C112.148 6.7359 111.838 7.06923 111.411 7.30923C110.991 7.54923 110.498 7.66923 109.931 7.66923ZM117.79 3.48923H115.97V7.58923H114.42V3.48923H112.6V2.20923H117.79V3.48923ZM122.731 4.77923C123.364 4.99257 123.681 5.41923 123.681 6.05923C123.681 6.5459 123.498 6.92257 123.131 7.18923C122.764 7.4559 122.218 7.58923 121.491 7.58923H118.621V2.20923H121.371C122.044 2.20923 122.571 2.33257 122.951 2.57923C123.331 2.81923 123.521 3.15923 123.521 3.59923C123.521 3.8659 123.451 4.10257 123.311 4.30923C123.178 4.50923 122.984 4.6659 122.731 4.77923ZM120.051 4.41923H121.231C121.778 4.41923 122.051 4.2259 122.051 3.83923C122.051 3.45923 121.778 3.26923 121.231 3.26923H120.051V4.41923ZM121.361 6.52923C121.934 6.52923 122.221 6.33257 122.221 5.93923C122.221 5.73257 122.154 5.58257 122.021 5.48923C121.888 5.38923 121.678 5.33923 121.391 5.33923H120.051V6.52923H121.361ZM126.932 2.12923C127.765 2.12923 128.405 2.32923 128.852 2.72923C129.298 3.12257 129.522 3.71923 129.522 4.51923V7.58923H128.062V6.91923C127.768 7.41923 127.222 7.66923 126.422 7.66923C126.008 7.66923 125.648 7.59923 125.342 7.45923C125.042 7.31923 124.812 7.1259 124.652 6.87923C124.492 6.63257 124.412 6.35257 124.412 6.03923C124.412 5.53923 124.598 5.1459 124.972 4.85923C125.352 4.57257 125.935 4.42923 126.722 4.42923H127.962C127.962 4.08923 127.858 3.82923 127.652 3.64923C127.445 3.46257 127.135 3.36923 126.722 3.36923C126.435 3.36923 126.152 3.4159 125.872 3.50923C125.598 3.5959 125.365 3.7159 125.172 3.86923L124.612 2.77923C124.905 2.57257 125.255 2.41257 125.662 2.29923C126.075 2.1859 126.498 2.12923 126.932 2.12923ZM126.812 6.61923C127.078 6.61923 127.315 6.55923 127.522 6.43923C127.728 6.31257 127.875 6.12923 127.962 5.88923V5.33923H126.892C126.252 5.33923 125.932 5.54923 125.932 5.96923C125.932 6.16923 126.008 6.32923 126.162 6.44923C126.322 6.56257 126.538 6.61923 126.812 6.61923Z" fill="#F46440"/>
<path d="M6.78 52.72V55.16H5.33V54H1.55V55.16H0.1V52.72H0.32C0.653333 52.7133 0.883333 52.5167 1.01 52.13C1.13667 51.7433 1.21667 51.1933 1.25 50.48L1.32 48.62H6.01V52.72H6.78ZM2.66 50.59C2.64 51.1367 2.59667 51.5833 2.53 51.93C2.47 52.2767 2.35333 52.54 2.18 52.72H4.45V49.9H2.69L2.66 50.59ZM12.9217 48.62V54H11.3617V49.9H9.66172L9.61172 50.85C9.58505 51.5567 9.51839 52.1433 9.41172 52.61C9.30505 53.0767 9.13172 53.4433 8.89172 53.71C8.65172 53.9767 8.31839 54.11 7.89172 54.11C7.66505 54.11 7.39505 54.07 7.08172 53.99L7.16172 52.71C7.26839 52.7233 7.34505 52.73 7.39172 52.73C7.62505 52.73 7.79839 52.6467 7.91172 52.48C8.03172 52.3067 8.11172 52.09 8.15172 51.83C8.19172 51.5633 8.22172 51.2133 8.24172 50.78L8.32172 48.62H12.9217ZM19.2019 48.62V54H17.8119V52.46H16.6619L15.6419 54H13.9819L15.2119 52.24C14.8385 52.0933 14.5519 51.8833 14.3519 51.61C14.1585 51.33 14.0619 50.9933 14.0619 50.6C14.0619 49.9667 14.2885 49.48 14.7419 49.14C15.2019 48.7933 15.8319 48.62 16.6319 48.62H19.2019ZM16.6619 49.89C16.3285 49.89 16.0752 49.95 15.9019 50.07C15.7352 50.19 15.6519 50.3833 15.6519 50.65C15.6519 50.9167 15.7319 51.1133 15.8919 51.24C16.0585 51.36 16.3085 51.42 16.6419 51.42H17.8119V49.89H16.6619ZM25.9032 51.96H25.0932V54H23.5332V48.62H25.0932V50.71H25.9332L27.3932 48.62H29.0532L27.1732 51.2L29.1832 54H27.3432L25.9032 51.96ZM32.3032 54.08C31.7365 54.08 31.2265 53.9633 30.7732 53.73C30.3265 53.49 29.9765 53.16 29.7232 52.74C29.4699 52.32 29.3432 51.8433 29.3432 51.31C29.3432 50.7767 29.4699 50.3 29.7232 49.88C29.9765 49.46 30.3265 49.1333 30.7732 48.9C31.2265 48.66 31.7365 48.54 32.3032 48.54C32.8699 48.54 33.3765 48.66 33.8232 48.9C34.2699 49.1333 34.6199 49.46 34.8732 49.88C35.1265 50.3 35.2532 50.7767 35.2532 51.31C35.2532 51.8433 35.1265 52.32 34.8732 52.74C34.6199 53.16 34.2699 53.49 33.8232 53.73C33.3765 53.9633 32.8699 54.08 32.3032 54.08ZM32.3032 52.8C32.7032 52.8 33.0299 52.6667 33.2832 52.4C33.5432 52.1267 33.6732 51.7633 33.6732 51.31C33.6732 50.8567 33.5432 50.4967 33.2832 50.23C33.0299 49.9567 32.7032 49.82 32.3032 49.82C31.9032 49.82 31.5732 49.9567 31.3132 50.23C31.0532 50.4967 30.9232 50.8567 30.9232 51.31C30.9232 51.7633 31.0532 52.1267 31.3132 52.4C31.5732 52.6667 31.9032 52.8 32.3032 52.8ZM38.8862 54.08C38.3128 54.08 37.7962 53.9633 37.3362 53.73C36.8828 53.49 36.5262 53.16 36.2662 52.74C36.0128 52.32 35.8862 51.8433 35.8862 51.31C35.8862 50.7767 36.0128 50.3 36.2662 49.88C36.5262 49.46 36.8828 49.1333 37.3362 48.9C37.7962 48.66 38.3128 48.54 38.8862 48.54C39.4528 48.54 39.9462 48.66 40.3662 48.9C40.7928 49.1333 41.1028 49.47 41.2962 49.91L40.0862 50.56C39.8062 50.0667 39.4028 49.82 38.8762 49.82C38.4695 49.82 38.1328 49.9533 37.8662 50.22C37.5995 50.4867 37.4662 50.85 37.4662 51.31C37.4662 51.77 37.5995 52.1333 37.8662 52.4C38.1328 52.6667 38.4695 52.8 38.8762 52.8C39.4095 52.8 39.8128 52.5533 40.0862 52.06L41.2962 52.72C41.1028 53.1467 40.7928 53.48 40.3662 53.72C39.9462 53.96 39.4528 54.08 38.8862 54.08ZM47.4941 54V50.78L45.8841 53.48H45.2241L43.6541 50.77V54H42.2441V48.62H43.8741L45.5941 51.73L47.4241 48.62H48.8841L48.9041 54H47.4941ZM55.6284 51.33C55.6284 51.35 55.6184 51.49 55.5984 51.75H51.5284C51.6018 52.0833 51.7751 52.3467 52.0484 52.54C52.3218 52.7333 52.6618 52.83 53.0684 52.83C53.3484 52.83 53.5951 52.79 53.8084 52.71C54.0284 52.6233 54.2318 52.49 54.4184 52.31L55.2484 53.21C54.7418 53.79 54.0018 54.08 53.0284 54.08C52.4218 54.08 51.8851 53.9633 51.4184 53.73C50.9518 53.49 50.5918 53.16 50.3384 52.74C50.0851 52.32 49.9584 51.8433 49.9584 51.31C49.9584 50.7833 50.0818 50.31 50.3284 49.89C50.5818 49.4633 50.9251 49.1333 51.3584 48.9C51.7984 48.66 52.2884 48.54 52.8284 48.54C53.3551 48.54 53.8318 48.6533 54.2584 48.88C54.6851 49.1067 55.0184 49.4333 55.2584 49.86C55.5051 50.28 55.6284 50.77 55.6284 51.33ZM52.8384 49.72C52.4851 49.72 52.1884 49.82 51.9484 50.02C51.7084 50.22 51.5618 50.4933 51.5084 50.84H54.1584C54.1051 50.5 53.9584 50.23 53.7184 50.03C53.4784 49.8233 53.1851 49.72 52.8384 49.72ZM61.1587 49.9H59.3387V54H57.7887V49.9H55.9687V48.62H61.1587V49.9ZM61.9902 48.62H63.5402V51.82L66.1602 48.62H67.5902V54H66.0402V50.8L63.4302 54H61.9902V48.62ZM73.9298 48.62V54H72.3698V52C71.9165 52.2267 71.4165 52.34 70.8698 52.34C70.1432 52.34 69.5932 52.1767 69.2198 51.85C68.8532 51.5167 68.6698 51.0033 68.6698 50.31V48.62H70.2298V50.21C70.2298 50.5367 70.3132 50.7733 70.4798 50.92C70.6532 51.0667 70.8998 51.14 71.2198 51.14C71.6265 51.14 72.0098 51.0533 72.3698 50.88V48.62H73.9298ZM80.6577 51.33C80.6577 51.35 80.6477 51.49 80.6277 51.75H76.5577C76.6311 52.0833 76.8044 52.3467 77.0777 52.54C77.3511 52.7333 77.6911 52.83 78.0977 52.83C78.3777 52.83 78.6244 52.79 78.8377 52.71C79.0577 52.6233 79.2611 52.49 79.4477 52.31L80.2777 53.21C79.7711 53.79 79.0311 54.08 78.0577 54.08C77.4511 54.08 76.9144 53.9633 76.4477 53.73C75.9811 53.49 75.6211 53.16 75.3677 52.74C75.1144 52.32 74.9877 51.8433 74.9877 51.31C74.9877 50.7833 75.1111 50.31 75.3577 49.89C75.6111 49.4633 75.9544 49.1333 76.3877 48.9C76.8277 48.66 77.3177 48.54 77.8577 48.54C78.3844 48.54 78.8611 48.6533 79.2877 48.88C79.7144 49.1067 80.0477 49.4333 80.2877 49.86C80.5344 50.28 80.6577 50.77 80.6577 51.33ZM77.8677 49.72C77.5144 49.72 77.2177 49.82 76.9777 50.02C76.7377 50.22 76.5911 50.4933 76.5377 50.84H79.1877C79.1344 50.5 78.9877 50.23 78.7477 50.03C78.5077 49.8233 78.2144 49.72 77.8677 49.72ZM84.4135 54.08C83.8402 54.08 83.3235 53.9633 82.8635 53.73C82.4102 53.49 82.0535 53.16 81.7935 52.74C81.5402 52.32 81.4135 51.8433 81.4135 51.31C81.4135 50.7767 81.5402 50.3 81.7935 49.88C82.0535 49.46 82.4102 49.1333 82.8635 48.9C83.3235 48.66 83.8402 48.54 84.4135 48.54C84.9802 48.54 85.4735 48.66 85.8935 48.9C86.3202 49.1333 86.6302 49.47 86.8235 49.91L85.6135 50.56C85.3335 50.0667 84.9302 49.82 84.4035 49.82C83.9968 49.82 83.6602 49.9533 83.3935 50.22C83.1268 50.4867 82.9935 50.85 82.9935 51.31C82.9935 51.77 83.1268 52.1333 83.3935 52.4C83.6602 52.6667 83.9968 52.8 84.4035 52.8C84.9368 52.8 85.3402 52.5533 85.6135 52.06L86.8235 52.72C86.6302 53.1467 86.3202 53.48 85.8935 53.72C85.4735 53.96 84.9802 54.08 84.4135 54.08ZM90.1415 51.96H89.3315V54H87.7715V48.62H89.3315V50.71H90.1715L91.6315 48.62H93.2915L91.4115 51.2L93.4215 54H91.5815L90.1415 51.96ZM96.5415 54.08C95.9748 54.08 95.4648 53.9633 95.0115 53.73C94.5648 53.49 94.2148 53.16 93.9615 52.74C93.7082 52.32 93.5815 51.8433 93.5815 51.31C93.5815 50.7767 93.7082 50.3 93.9615 49.88C94.2148 49.46 94.5648 49.1333 95.0115 48.9C95.4648 48.66 95.9748 48.54 96.5415 48.54C97.1082 48.54 97.6148 48.66 98.0615 48.9C98.5082 49.1333 98.8582 49.46 99.1115 49.88C99.3648 50.3 99.4915 50.7767 99.4915 51.31C99.4915 51.8433 99.3648 52.32 99.1115 52.74C98.8582 53.16 98.5082 53.49 98.0615 53.73C97.6148 53.9633 97.1082 54.08 96.5415 54.08ZM96.5415 52.8C96.9415 52.8 97.2682 52.6667 97.5215 52.4C97.7815 52.1267 97.9115 51.7633 97.9115 51.31C97.9115 50.8567 97.7815 50.4967 97.5215 50.23C97.2682 49.9567 96.9415 49.82 96.5415 49.82C96.1415 49.82 95.8115 49.9567 95.5515 50.23C95.2915 50.4967 95.1615 50.8567 95.1615 51.31C95.1615 51.7633 95.2915 52.1267 95.5515 52.4C95.8115 52.6667 96.1415 52.8 96.5415 52.8ZM104.874 49.9H102.114V54H100.564V48.62H104.874V49.9ZM107.997 54.08C107.43 54.08 106.92 53.9633 106.467 53.73C106.02 53.49 105.67 53.16 105.417 52.74C105.163 52.32 105.037 51.8433 105.037 51.31C105.037 50.7767 105.163 50.3 105.417 49.88C105.67 49.46 106.02 49.1333 106.467 48.9C106.92 48.66 107.43 48.54 107.997 48.54C108.563 48.54 109.07 48.66 109.517 48.9C109.963 49.1333 110.313 49.46 110.567 49.88C110.82 50.3 110.947 50.7767 110.947 51.31C110.947 51.8433 110.82 52.32 110.567 52.74C110.313 53.16 109.963 53.49 109.517 53.73C109.07 53.9633 108.563 54.08 107.997 54.08ZM107.997 52.8C108.397 52.8 108.723 52.6667 108.977 52.4C109.237 52.1267 109.367 51.7633 109.367 51.31C109.367 50.8567 109.237 50.4967 108.977 50.23C108.723 49.9567 108.397 49.82 107.997 49.82C107.597 49.82 107.267 49.9567 107.007 50.23C106.747 50.4967 106.617 50.8567 106.617 51.31C106.617 51.7633 106.747 52.1267 107.007 52.4C107.267 52.6667 107.597 52.8 107.997 52.8ZM114.852 48.62H116.402V51.82L119.022 48.62H120.452V54H118.902V50.8L116.292 54H114.852V48.62ZM124.511 54.08C123.938 54.08 123.421 53.9633 122.961 53.73C122.508 53.49 122.151 53.16 121.891 52.74C121.638 52.32 121.511 51.8433 121.511 51.31C121.511 50.7767 121.638 50.3 121.891 49.88C122.151 49.46 122.508 49.1333 122.961 48.9C123.421 48.66 123.938 48.54 124.511 48.54C125.078 48.54 125.571 48.66 125.991 48.9C126.418 49.1333 126.728 49.47 126.921 49.91L125.711 50.56C125.431 50.0667 125.028 49.82 124.501 49.82C124.095 49.82 123.758 49.9533 123.491 50.22C123.225 50.4867 123.091 50.85 123.091 51.31C123.091 51.77 123.225 52.1333 123.491 52.4C123.758 52.6667 124.095 52.8 124.501 52.8C125.035 52.8 125.438 52.5533 125.711 52.06L126.921 52.72C126.728 53.1467 126.418 53.48 125.991 53.72C125.571 53.96 125.078 54.08 124.511 54.08ZM133.219 48.62V54H131.659V49.9H129.419V54H127.869V48.62H133.219ZM137.235 54.08C136.668 54.08 136.158 53.9633 135.705 53.73C135.258 53.49 134.908 53.16 134.655 52.74C134.402 52.32 134.275 51.8433 134.275 51.31C134.275 50.7767 134.402 50.3 134.655 49.88C134.908 49.46 135.258 49.1333 135.705 48.9C136.158 48.66 136.668 48.54 137.235 48.54C137.802 48.54 138.308 48.66 138.755 48.9C139.202 49.1333 139.552 49.46 139.805 49.88C140.058 50.3 140.185 50.7767 140.185 51.31C140.185 51.8433 140.058 52.32 139.805 52.74C139.552 53.16 139.202 53.49 138.755 53.73C138.308 53.9633 137.802 54.08 137.235 54.08ZM137.235 52.8C137.635 52.8 137.962 52.6667 138.215 52.4C138.475 52.1267 138.605 51.7633 138.605 51.31C138.605 50.8567 138.475 50.4967 138.215 50.23C137.962 49.9567 137.635 49.82 137.235 49.82C136.835 49.82 136.505 49.9567 136.245 50.23C135.985 50.4967 135.855 50.8567 135.855 51.31C135.855 51.7633 135.985 52.1267 136.245 52.4C136.505 52.6667 136.835 52.8 137.235 52.8ZM146.34 48.62V54H144.78V49.9H143.08L143.03 50.85C143.003 51.5567 142.936 52.1433 142.83 52.61C142.723 53.0767 142.55 53.4433 142.31 53.71C142.07 53.9767 141.736 54.11 141.31 54.11C141.083 54.11 140.813 54.07 140.5 53.99L140.58 52.71C140.686 52.7233 140.763 52.73 140.81 52.73C141.043 52.73 141.216 52.6467 141.33 52.48C141.45 52.3067 141.53 52.09 141.57 51.83C141.61 51.5633 141.64 51.2133 141.66 50.78L141.74 48.62H146.34ZM150.75 50.34C151.45 50.3467 151.987 50.5067 152.36 50.82C152.733 51.1267 152.92 51.5633 152.92 52.13C152.92 52.7233 152.71 53.1867 152.29 53.52C151.877 53.8467 151.293 54.01 150.54 54.01L147.84 54V48.62H149.39V50.34H150.75ZM150.4 52.9C150.7 52.9067 150.93 52.8433 151.09 52.71C151.25 52.5767 151.33 52.3767 151.33 52.11C151.33 51.85 151.25 51.66 151.09 51.54C150.937 51.42 150.707 51.3567 150.4 51.35L149.39 51.34V52.9H150.4ZM157.258 51.2C157.578 51.3 157.824 51.4533 157.998 51.66C158.178 51.8667 158.268 52.1133 158.268 52.4C158.268 52.74 158.151 53.04 157.918 53.3C157.684 53.5533 157.364 53.75 156.958 53.89C156.551 54.03 156.091 54.1 155.578 54.1C155.158 54.1 154.744 54.0567 154.338 53.97C153.931 53.8833 153.554 53.7533 153.208 53.58L153.628 52.49C154.194 52.7633 154.821 52.9 155.508 52.9C155.874 52.9 156.161 52.8467 156.368 52.74C156.581 52.6267 156.688 52.47 156.688 52.27C156.688 52.0967 156.614 51.9667 156.468 51.88C156.321 51.7867 156.108 51.74 155.828 51.74H154.728V50.77H155.688C155.961 50.77 156.171 50.7267 156.318 50.64C156.464 50.5533 156.538 50.4267 156.538 50.26C156.538 50.0867 156.444 49.9533 156.258 49.86C156.078 49.7667 155.818 49.72 155.478 49.72C154.958 49.72 154.391 49.8433 153.778 50.09L153.398 49.01C154.144 48.6833 154.871 48.52 155.578 48.52C156.064 48.52 156.498 48.58 156.878 48.7C157.264 48.82 157.568 48.9967 157.788 49.23C158.008 49.4567 158.118 49.7233 158.118 50.03C158.118 50.2833 158.041 50.5133 157.888 50.72C157.734 50.92 157.524 51.08 157.258 51.2ZM161.922 54.08C161.356 54.08 160.846 53.9633 160.392 53.73C159.946 53.49 159.596 53.16 159.342 52.74C159.089 52.32 158.962 51.8433 158.962 51.31C158.962 50.7767 159.089 50.3 159.342 49.88C159.596 49.46 159.946 49.1333 160.392 48.9C160.846 48.66 161.356 48.54 161.922 48.54C162.489 48.54 162.996 48.66 163.442 48.9C163.889 49.1333 164.239 49.46 164.492 49.88C164.746 50.3 164.872 50.7767 164.872 51.31C164.872 51.8433 164.746 52.32 164.492 52.74C164.239 53.16 163.889 53.49 163.442 53.73C162.996 53.9633 162.489 54.08 161.922 54.08ZM161.922 52.8C162.322 52.8 162.649 52.6667 162.902 52.4C163.162 52.1267 163.292 51.7633 163.292 51.31C163.292 50.8567 163.162 50.4967 162.902 50.23C162.649 49.9567 162.322 49.82 161.922 49.82C161.522 49.82 161.192 49.9567 160.932 50.23C160.672 50.4967 160.542 50.8567 160.542 51.31C160.542 51.7633 160.672 52.1267 160.932 52.4C161.192 52.6667 161.522 52.8 161.922 52.8ZM170.055 51.19C170.689 51.4033 171.005 51.83 171.005 52.47C171.005 52.9567 170.822 53.3333 170.455 53.6C170.089 53.8667 169.542 54 168.815 54H165.945V48.62H168.695C169.369 48.62 169.895 48.7433 170.275 48.99C170.655 49.23 170.845 49.57 170.845 50.01C170.845 50.2767 170.775 50.5133 170.635 50.72C170.502 50.92 170.309 51.0767 170.055 51.19ZM167.375 50.83H168.555C169.102 50.83 169.375 50.6367 169.375 50.25C169.375 49.87 169.102 49.68 168.555 49.68H167.375V50.83ZM168.685 52.94C169.259 52.94 169.545 52.7433 169.545 52.35C169.545 52.1433 169.479 51.9933 169.345 51.9C169.212 51.8 169.002 51.75 168.715 51.75H167.375V52.94H168.685ZM174.256 48.54C175.089 48.54 175.729 48.74 176.176 49.14C176.623 49.5333 176.846 50.13 176.846 50.93V54H175.386V53.33C175.093 53.83 174.546 54.08 173.746 54.08C173.333 54.08 172.973 54.01 172.666 53.87C172.366 53.73 172.136 53.5367 171.976 53.29C171.816 53.0433 171.736 52.7633 171.736 52.45C171.736 51.95 171.923 51.5567 172.296 51.27C172.676 50.9833 173.259 50.84 174.046 50.84H175.286C175.286 50.5 175.183 50.24 174.976 50.06C174.769 49.8733 174.459 49.78 174.046 49.78C173.759 49.78 173.476 49.8267 173.196 49.92C172.923 50.0067 172.689 50.1267 172.496 50.28L171.936 49.19C172.229 48.9833 172.579 48.8233 172.986 48.71C173.399 48.5967 173.823 48.54 174.256 48.54ZM174.136 53.03C174.403 53.03 174.639 52.97 174.846 52.85C175.053 52.7233 175.199 52.54 175.286 52.3V51.75H174.216C173.576 51.75 173.256 51.96 173.256 52.38C173.256 52.58 173.333 52.74 173.486 52.86C173.646 52.9733 173.863 53.03 174.136 53.03ZM178.201 48.62H179.751V50.72H182.091V48.62H183.651V54H182.091V51.99H179.751V54H178.201V48.62ZM185.145 48.62H186.695V51.82L189.315 48.62H190.745V54H189.195V50.8L186.585 54H185.145V48.62ZM197.024 48.62V54H195.634V52.46H194.484L193.464 54H191.804L193.034 52.24C192.661 52.0933 192.374 51.8833 192.174 51.61C191.981 51.33 191.884 50.9933 191.884 50.6C191.884 49.9667 192.111 49.48 192.564 49.14C193.024 48.7933 193.654 48.62 194.454 48.62H197.024ZM194.484 49.89C194.151 49.89 193.897 49.95 193.724 50.07C193.557 50.19 193.474 50.3833 193.474 50.65C193.474 50.9167 193.554 51.1133 193.714 51.24C193.881 51.36 194.131 51.42 194.464 51.42H195.634V49.89H194.484Z" fill="#757679"/>
</g>
<defs>
<clipPath id="clip0_10_46">
<rect width="200" height="54" fill="white"/>
</clipPath>
</defs>
</svg>
