<svg xmlns="http://www.w3.org/2000/svg" viewBox="0 0 60 59.48"><defs><style>.cls-1{fill:#e9511c;}</style></defs><g id="Layer_2" data-name="Layer 2"><g id="Layer_1-2" data-name="Layer 1"><path class="cls-1" d="M60,15.93v9a3.51,3.51,0,0,1-4,2.51,5.4,5.4,0,0,0-.68,0v.8c0,9.22,0,18.43,0,27.65a3.4,3.4,0,0,1-3.54,3.55q-21.82,0-43.65,0A4.51,4.51,0,0,1,7,59.31a3.17,3.17,0,0,1-2.29-3.39q0-13.83,0-27.65v-.83c-.58,0-1.08,0-1.58,0A3.16,3.16,0,0,1,0,24.2V16.7A3.13,3.13,0,0,1,.07,16a3.16,3.16,0,0,1,3.24-2.5c2.48,0,5,0,7.44,0h.71L11,12.89A8,8,0,0,1,9.45,6.38a7.68,7.68,0,0,1,11.4-5.31c1.27.7,2.52,1.41,3.77,2.13a13.19,13.19,0,0,1,5.11,5.18c.08.14.17.28.29.47A11.7,11.7,0,0,1,34,4.17,43.54,43.54,0,0,1,40,.7a7.22,7.22,0,0,1,8.28,1.51,7.94,7.94,0,0,1,.63,10.7l-.39.53h.67c2.46,0,4.92,0,7.38,0a3.13,3.13,0,0,1,3.29,2.35A.45.45,0,0,0,60,15.93ZM36,56.75H51.7c.88,0,.94-.06.94-.92V28.12c0-.21,0-.41,0-.62H36v4h.66c1.41,0,2.81,0,4.22,0a1.34,1.34,0,0,1,1.5,1.35,1.38,1.38,0,0,1-1.53,1.34H36ZM7.36,27.48V55.83c0,.86.06.92.94.92H24V34.23l-.39,0H18.7a1.4,1.4,0,0,1-1.54-1.34,1.37,1.37,0,0,1,1.51-1.35c.86,0,1.72,0,2.58,0H24v-4ZM26.75,16.16V56.71h6.5V16.16ZM24,24.75V16.18a3.22,3.22,0,0,0-.39,0H3.43c-.55,0-.75.23-.75.77,0,2.29,0,4.57,0,6.85,0,1,0,1,1,1H24Zm12.08,0c.18,0,.33,0,.48,0h20c.68,0,.77-.11.77-.8V17.1c0-.92,0-1-1-1H36ZM28.58,13.44a10.4,10.4,0,0,0-4.93-7.67c-1.37-.86-2.79-1.64-4.22-2.39a4.85,4.85,0,0,0-5.5.45,4.79,4.79,0,0,0-1.79,5.11,5.53,5.53,0,0,0,5.69,4.5H28.58Zm2.86,0a2.33,2.33,0,0,0,.27,0c3.57,0,7.15.07,10.72,0a5.59,5.59,0,0,0,5.49-6.6A5,5,0,0,0,40.6,3.36c-1,.53-2,1.09-3,1.69A20,20,0,0,0,34.8,7,10,10,0,0,0,31.44,13.39Z"/><path class="cls-1" d="M47.51,31.5a1.29,1.29,0,0,1,1.36,1.35,1.33,1.33,0,0,1-1.39,1.34,1.4,1.4,0,0,1-1.42-1.34A1.36,1.36,0,0,1,47.51,31.5Z"/><path class="cls-1" d="M13.51,32.81a1.35,1.35,0,0,1-1.36,1.38,1.41,1.41,0,0,1-1.46-1.36A1.36,1.36,0,0,1,12.1,31.5,1.32,1.32,0,0,1,13.51,32.81Z"/></g></g></svg>