<svg width="25" height="46" viewBox="0 0 25 46" fill="none" xmlns="http://www.w3.org/2000/svg">
<path d="M9.89949 33.2745L20.2745 22.8995L10.375 13" stroke="#F46440" stroke-width="2"/>
<path d="M4.22607 41.6177V42.8857H3.42627V41.6177C3.42627 41.4217 3.39437 41.2622 3.33057 41.1392C3.26449 41.0161 3.17334 40.9261 3.05713 40.8691C2.94092 40.8122 2.8099 40.7837 2.66406 40.7837C2.51595 40.7837 2.37809 40.8122 2.25049 40.8691C2.12288 40.9261 2.02035 41.0161 1.94287 41.1392C1.8654 41.2622 1.82666 41.4217 1.82666 41.6177L1.82666 42.5303H6V43.5557H1.02344L1.02344 41.6177C1.02344 41.228 1.09408 40.8942 1.23535 40.6162C1.37435 40.3359 1.56689 40.1217 1.81299 39.9736C2.05908 39.8255 2.34049 39.7515 2.65723 39.7515C2.97852 39.7515 3.25651 39.8255 3.49121 39.9736C3.72591 40.1217 3.90706 40.3359 4.03467 40.6162C4.16227 40.8942 4.22607 41.228 4.22607 41.6177ZM1.87451 37.5879L6 38.9414V40.0317L1.02344 38.1826V37.4888L1.87451 37.5879ZM6 36.4634L1.87451 37.8203L1.02344 37.9297V37.229L6 35.3696V36.4634ZM4.14746 36.5249H4.95068L4.95068 39.1533H4.14746L4.14746 36.5249ZM3.61426 33.0488V33.8213H3.0708V33.2061C3.0708 33.026 3.04346 32.8802 2.98877 32.7686C2.9318 32.6569 2.85205 32.5749 2.74951 32.5225C2.64697 32.4701 2.5262 32.4438 2.38721 32.4438C2.27327 32.4438 2.16846 32.4735 2.07275 32.5327C1.97705 32.5897 1.90072 32.6785 1.84375 32.7993C1.78451 32.9201 1.75488 33.0739 1.75488 33.2607C1.75488 33.402 1.77995 33.5308 1.83008 33.647C1.88021 33.7632 1.95085 33.8555 2.04199 33.9238C2.13086 33.9922 2.2391 34.0264 2.3667 34.0264L2.3667 35.0483C2.14795 35.0483 1.95199 35.0016 1.77881 34.9082C1.60335 34.8125 1.45524 34.6826 1.33447 34.5186C1.21143 34.3522 1.118 34.1608 1.0542 33.9443C0.990397 33.7279 0.958496 33.5 0.958496 33.2607C0.958496 32.9805 0.989258 32.7275 1.05078 32.502C1.11003 32.2764 1.19889 32.0827 1.31738 31.9209C1.43587 31.7591 1.58285 31.6349 1.7583 31.5483C1.93376 31.4618 2.1377 31.4185 2.37012 31.4185C2.54102 31.4185 2.70166 31.4572 2.85205 31.5347C3.00244 31.6121 3.1346 31.7227 3.24854 31.8662C3.36247 32.0098 3.45247 32.1818 3.51855 32.3823C3.58236 32.5828 3.61426 32.805 3.61426 33.0488ZM3.31689 33.8213V33.0488C3.31689 32.7777 3.34538 32.5373 3.40234 32.3276C3.45931 32.1157 3.54248 31.9368 3.65186 31.791C3.76123 31.6429 3.89681 31.5312 4.05859 31.4561C4.2181 31.3786 4.40153 31.3398 4.60889 31.3398C4.84131 31.3398 5.04753 31.3877 5.22754 31.4834C5.40755 31.5768 5.56022 31.7101 5.68555 31.8833C5.81087 32.0542 5.90544 32.257 5.96924 32.4917C6.03304 32.7241 6.06494 32.9805 6.06494 33.2607C6.06494 33.484 6.0376 33.7062 5.98291 33.9272C5.92594 34.1483 5.83936 34.3488 5.72314 34.5288C5.60693 34.7088 5.45768 34.8524 5.27539 34.9595C5.0931 35.0666 4.87435 35.1201 4.61914 35.1201V34.0913C4.73991 34.0913 4.85042 34.056 4.95068 33.9854C5.04867 33.9147 5.12728 33.8167 5.18652 33.6914C5.24349 33.5661 5.27197 33.4225 5.27197 33.2607C5.27197 33.0716 5.24235 32.911 5.18311 32.7788C5.12386 32.6444 5.04297 32.543 4.94043 32.4746C4.83561 32.404 4.72054 32.3687 4.59521 32.3687C4.46077 32.3687 4.34684 32.3869 4.25342 32.4233C4.15999 32.4598 4.08366 32.5133 4.02441 32.584C3.96289 32.6546 3.91846 32.7424 3.89111 32.8472C3.86377 32.9497 3.8501 33.0693 3.8501 33.2061V33.8213H3.31689ZM3.81592 28.6328V29.9111L3.11182 29.918V28.8447C3.11182 28.6556 3.08789 28.5007 3.04004 28.3799C2.98991 28.2591 2.91813 28.1691 2.82471 28.1099C2.729 28.0483 2.61279 28.0176 2.47607 28.0176C2.32113 28.0176 2.1958 28.0472 2.1001 28.1064C2.00439 28.1634 1.9349 28.2534 1.8916 28.3765C1.84831 28.4972 1.82666 28.6533 1.82666 28.8447V29.5557H6V30.5811H1.02344L1.02344 28.8447C1.02344 28.5553 1.05078 28.2967 1.10547 28.0688C1.16016 27.8387 1.24333 27.6439 1.35498 27.4844C1.46663 27.3249 1.60791 27.203 1.77881 27.1187C1.94743 27.0343 2.14795 26.9922 2.38037 26.9922C2.58545 26.9922 2.77458 27.0389 2.94775 27.1323C3.12093 27.2235 3.26221 27.3682 3.37158 27.5664C3.48096 27.7624 3.54134 28.0187 3.55273 28.3354L3.81592 28.6328ZM6 28.6772V30.1914L5.2002 29.7915V28.6772C5.2002 28.4972 5.17171 28.3503 5.11475 28.2363C5.0555 28.1224 4.97575 28.0381 4.87549 27.9834C4.77523 27.9287 4.66016 27.9014 4.53027 27.9014C4.38444 27.9014 4.25798 27.9264 4.15088 27.9766C4.04378 28.0244 3.96175 28.1019 3.90479 28.209C3.84554 28.3161 3.81592 28.4574 3.81592 28.6328V29.6206L3.11182 29.6138L3.11182 28.3833L3.38867 28.1475C3.38411 27.8444 3.43766 27.6006 3.54932 27.416C3.65869 27.2292 3.80111 27.0936 3.97656 27.0093C4.15202 26.9227 4.34001 26.8794 4.54053 26.8794C4.85954 26.8794 5.12842 26.9489 5.34717 27.0879C5.56364 27.2269 5.72656 27.4308 5.83594 27.6997C5.94531 27.9663 6 28.2922 6 28.6772ZM5.2002 22.771H6L6 25.4199H5.2002L5.2002 22.771ZM1.02344 25.085H6L6 26.1104H1.02344V25.085ZM3.05029 23.1162H3.82959V25.4199H3.05029V23.1162ZM1.02344 22.7744H1.82666L1.82666 25.4199H1.02344L1.02344 22.7744ZM4.22607 20.2349V21.5029H3.42627V20.2349C3.42627 20.0389 3.39437 19.8794 3.33057 19.7563C3.26449 19.6333 3.17334 19.5433 3.05713 19.4863C2.94092 19.4294 2.8099 19.4009 2.66406 19.4009C2.51595 19.4009 2.37809 19.4294 2.25049 19.4863C2.12288 19.5433 2.02035 19.6333 1.94287 19.7563C1.8654 19.8794 1.82666 20.0389 1.82666 20.2349L1.82666 21.1475H6V22.1729H1.02344L1.02344 20.2349C1.02344 19.8452 1.09408 19.5114 1.23535 19.2334C1.37435 18.9531 1.56689 18.7389 1.81299 18.5908C2.05908 18.4427 2.34049 18.3687 2.65723 18.3687C2.97852 18.3687 3.25651 18.4427 3.49121 18.5908C3.72591 18.7389 3.90706 18.9531 4.03467 19.2334C4.16227 19.5114 4.22607 19.8452 4.22607 20.2349ZM3.05029 14.3423H3.8501L3.8501 16.9399H3.05029L3.05029 14.3423ZM1.02344 16.6357H6V17.6611H1.02344L1.02344 16.6357ZM1.02344 13.6108H6V14.6328H1.02344L1.02344 13.6108ZM4.19531 11.1567L1.02344 9.93311V8.8291L5.03613 10.5347C5.17285 10.5939 5.30387 10.6623 5.4292 10.7397C5.55225 10.8149 5.66276 10.9049 5.76074 11.0098C5.85645 11.1146 5.93278 11.2399 5.98975 11.3857C6.04443 11.5316 6.07178 11.7059 6.07178 11.9087C6.07178 11.9588 6.07064 12.0203 6.06836 12.0933C6.06608 12.1662 6.06266 12.2243 6.05811 12.2676L5.2583 12.2744C5.26514 12.2471 5.26969 12.2038 5.27197 12.1445C5.27197 12.0853 5.27197 12.042 5.27197 12.0146C5.27197 11.8802 5.2526 11.7743 5.21387 11.6968C5.17513 11.6193 5.12044 11.5578 5.0498 11.5122C4.97689 11.4644 4.89144 11.4222 4.79346 11.3857L4.19531 11.1567ZM1.02344 11.9668L3.48779 10.832L4.61914 10.5142L4.63281 11.2764L1.02344 13.0674V11.9668ZM1.02344 6.00928H6V7.03125H1.02344V6.00928ZM1.02344 4.47803H1.82666L1.82666 8.53857H1.02344L1.02344 4.47803ZM2.83838 3.17578V2.01367C2.83838 1.62174 2.90332 1.28451 3.0332 1.00195C3.16309 0.719401 3.34538 0.50179 3.58008 0.349121C3.81478 0.196452 4.08822 0.120117 4.40039 0.120117C4.63737 0.120117 4.85384 0.163411 5.0498 0.25C5.24349 0.336589 5.41211 0.463053 5.55566 0.629395C5.69694 0.793457 5.80632 0.991699 5.88379 1.22412C5.96126 1.45654 6 1.71973 6 2.01367V3.8457H1.02344V2.81689H5.2002V2.01367C5.2002 1.81771 5.16374 1.65592 5.09082 1.52832C5.0179 1.40072 4.92106 1.30501 4.80029 1.24121C4.67725 1.17513 4.54167 1.14209 4.39355 1.14209C4.25228 1.14209 4.12467 1.17513 4.01074 1.24121C3.89453 1.30501 3.80339 1.40072 3.7373 1.52832C3.67122 1.65592 3.63818 1.81771 3.63818 2.01367V3.17578H2.83838Z" fill="#F46440"/>
</svg>
