<svg width="25" height="46" viewBox="0 0 25 46" fill="none" xmlns="http://www.w3.org/2000/svg">
<path d="M13.375 13.1005L2.99998 23.4755L12.8995 33.375" stroke="#F46440" stroke-width="2"/>
<path d="M22.6236 38.0195V36.9976C22.9586 37.0181 23.2559 37.1104 23.5157 37.2744C23.7755 37.4362 23.9783 37.6629 24.1241 37.9546C24.2699 38.244 24.3428 38.5926 24.3428 39.0005C24.3428 39.3195 24.2881 39.6055 24.1788 39.8584C24.0671 40.1113 23.9076 40.3278 23.7003 40.5078C23.4929 40.6855 23.2422 40.8211 22.9483 40.9146C22.6544 41.008 22.3251 41.0547 21.9605 41.0547H21.6153C21.2507 41.0547 20.9214 41.0068 20.6275 40.9111C20.3313 40.8132 20.0795 40.6742 19.8721 40.4941C19.6648 40.3118 19.5053 40.0942 19.3936 39.8413C19.282 39.5884 19.2261 39.3058 19.2261 38.9937C19.2261 38.5789 19.3013 38.2292 19.4517 37.9443C19.6021 37.6572 19.8095 37.4351 20.0738 37.2778C20.3381 37.1183 20.6389 37.0226 20.9761 36.9907V38.0161C20.7756 38.0275 20.6059 38.0674 20.4669 38.1357C20.3256 38.2041 20.2196 38.3078 20.149 38.4468C20.0761 38.5835 20.0396 38.7658 20.0396 38.9937C20.0396 39.1646 20.0715 39.3138 20.1353 39.4414C20.1991 39.569 20.296 39.6761 20.4258 39.7627C20.5557 39.8493 20.7198 39.9142 20.918 39.9575C21.114 39.9985 21.3441 40.019 21.6085 40.019H21.9605C22.218 40.019 22.4447 39.9997 22.6407 39.9609C22.8344 39.9222 22.9984 39.863 23.1329 39.7832C23.265 39.7012 23.3653 39.5964 23.4337 39.4688C23.4997 39.3389 23.5328 39.1828 23.5328 39.0005C23.5328 38.7863 23.4986 38.6097 23.4302 38.4707C23.3619 38.3317 23.2605 38.2257 23.126 38.1528C22.9916 38.0776 22.8241 38.0332 22.6236 38.0195ZM22.0904 34.376V35.6543L21.3863 35.6611V34.5879C21.3863 34.3988 21.3624 34.2438 21.3145 34.123C21.2644 34.0023 21.1926 33.9123 21.0992 33.853C21.0035 33.7915 20.8873 33.7607 20.7505 33.7607C20.5956 33.7607 20.4703 33.7904 20.3746 33.8496C20.2789 33.9066 20.2094 33.9966 20.1661 34.1196C20.1228 34.2404 20.1011 34.3965 20.1011 34.5879V35.2988H24.2745V36.3242H19.2979V34.5879C19.2979 34.2985 19.3253 34.0399 19.3799 33.812C19.4346 33.5819 19.5178 33.387 19.6295 33.2275C19.7411 33.068 19.8824 32.9461 20.0533 32.8618C20.2219 32.7775 20.4224 32.7354 20.6548 32.7354C20.8599 32.7354 21.0491 32.7821 21.2222 32.8755C21.3954 32.9666 21.5367 33.1113 21.6461 33.3096C21.7554 33.5055 21.8158 33.7619 21.8272 34.0786L22.0904 34.376ZM24.2745 34.4204V35.9346L23.4747 35.5347V34.4204C23.4747 34.2404 23.4462 34.0934 23.3892 33.9795C23.33 33.8656 23.2502 33.7812 23.15 33.7266C23.0497 33.6719 22.9346 33.6445 22.8047 33.6445C22.6589 33.6445 22.5325 33.6696 22.4254 33.7197C22.3183 33.7676 22.2362 33.8451 22.1793 33.9521C22.12 34.0592 22.0904 34.2005 22.0904 34.376V35.3638L21.3863 35.3569V34.1265L21.6631 33.8906C21.6586 33.5876 21.7121 33.3438 21.8238 33.1592C21.9332 32.9723 22.0756 32.8368 22.251 32.7524C22.4265 32.6659 22.6145 32.6226 22.815 32.6226C23.134 32.6226 23.4029 32.6921 23.6216 32.8311C23.8381 32.9701 24.001 33.174 24.1104 33.4429C24.2198 33.7095 24.2745 34.0353 24.2745 34.4204ZM23.4747 28.5142H24.2745V31.1631H23.4747V28.5142ZM19.2979 30.8281H24.2745V31.8535H19.2979V30.8281ZM21.3248 28.8594H22.1041V31.1631H21.3248V28.8594ZM19.2979 28.5176H20.1011V31.1631H19.2979V28.5176ZM22.5005 25.978V27.2461H21.7007V25.978C21.7007 25.7821 21.6688 25.6226 21.605 25.4995C21.539 25.3765 21.4478 25.2865 21.3316 25.2295C21.2154 25.1725 21.0844 25.144 20.9385 25.144C20.7904 25.144 20.6526 25.1725 20.525 25.2295C20.3974 25.2865 20.2948 25.3765 20.2173 25.4995C20.1399 25.6226 20.1011 25.7821 20.1011 25.978V26.8906H24.2745V27.916H19.2979V25.978C19.2979 25.5884 19.3686 25.2546 19.5098 24.9766C19.6488 24.6963 19.8414 24.4821 20.0875 24.334C20.3336 24.1859 20.615 24.1118 20.9317 24.1118C21.253 24.1118 21.531 24.1859 21.7657 24.334C22.0004 24.4821 22.1815 24.6963 22.3091 24.9766C22.4367 25.2546 22.5005 25.5884 22.5005 25.978ZM21.3248 20.0854H22.1246V22.6831H21.3248V20.0854ZM19.2979 22.3789H24.2745V23.4043H19.2979V22.3789ZM19.2979 19.354H24.2745V20.376H19.2979V19.354ZM22.4698 16.8999L19.2979 15.6763L19.2979 14.5723L23.3106 16.2778C23.4473 16.3371 23.5783 16.4054 23.7037 16.4829C23.8267 16.5581 23.9372 16.6481 24.0352 16.7529C24.1309 16.8577 24.2073 16.9831 24.2642 17.1289C24.3189 17.2747 24.3463 17.4491 24.3463 17.6519C24.3463 17.702 24.3451 17.7635 24.3428 17.8364C24.3406 17.9093 24.3371 17.9674 24.3326 18.0107L23.5328 18.0176C23.5396 17.9902 23.5442 17.9469 23.5464 17.8877C23.5464 17.8285 23.5464 17.7852 23.5464 17.7578C23.5464 17.6234 23.5271 17.5174 23.4883 17.4399C23.4496 17.3625 23.3949 17.3009 23.3243 17.2554C23.2514 17.2075 23.1659 17.1654 23.0679 17.1289L22.4698 16.8999ZM19.2979 17.71L21.7623 16.5752L22.8936 16.2573L22.9073 17.0195L19.2979 18.8105V17.71ZM19.2979 11.7524H24.2745V12.7744H19.2979V11.7524ZM19.2979 10.2212H20.1011V14.2817H19.2979V10.2212ZM21.1129 8.91895V7.75684C21.1129 7.36491 21.1778 7.02767 21.3077 6.74512C21.4376 6.46257 21.6199 6.24495 21.8546 6.09229C22.0893 5.93962 22.3627 5.86328 22.6749 5.86328C22.9118 5.86328 23.1283 5.90658 23.3243 5.99316C23.518 6.07975 23.6866 6.20622 23.8301 6.37256C23.9714 6.53662 24.0808 6.73486 24.1583 6.96729C24.2357 7.19971 24.2745 7.46289 24.2745 7.75684V9.58887H19.2979V8.56006H23.4747V7.75684C23.4747 7.56087 23.4382 7.39909 23.3653 7.27148C23.2924 7.14388 23.1955 7.04818 23.0748 6.98438C22.9517 6.91829 22.8161 6.88525 22.668 6.88525C22.5268 6.88525 22.3991 6.91829 22.2852 6.98438C22.169 7.04818 22.0779 7.14388 22.0118 7.27148C21.9457 7.39909 21.9127 7.56087 21.9127 7.75684V8.91895H21.1129Z" fill="#F46440"/>
</svg>
