<svg xmlns="http://www.w3.org/2000/svg" viewBox="0 0 25 25.01"><defs><style>.cls-1{fill:#e9511c;}</style></defs><g id="Layer_2" data-name="Layer 2"><g id="Layer_1-2" data-name="Layer 1"><path class="cls-1" d="M5,25H4.69a.71.71,0,0,1-.34-.68c0-.69,0-1.39,0-2.09v-.8H1.63a1.5,1.5,0,0,1-1.29-.66A4.44,4.44,0,0,1,0,20.13V14.81a.55.55,0,0,1,.66-.28c.3.11.32.36.32.64,0,1.49,0,3,0,4.47a.72.72,0,0,0,.83.83H4.67c.54,0,.69.14.69.7v2.19c0,.09,0,.17,0,.28l.28-.15,4.93-2.87a1.19,1.19,0,0,1,.55-.15H21.6c.65,0,.89-.24.89-.88V11.13c-.31.18-.56.35-.84.48a.36.36,0,0,0-.23.37q0,3.39,0,6.76c0,.5-.16.65-.66.65H2.68c-.48,0-.63-.15-.63-.64v-12a.48.48,0,0,1,.52-.54H12.69l.1-1H1.67a.87.87,0,0,0-.44.16A.71.71,0,0,0,1,5.93C1,7.47,1,9,1,10.55a.5.5,0,0,1-.3.51c-.26.11-.47,0-.68-.31V5.48A3.78,3.78,0,0,1,.22,5a1.7,1.7,0,0,1,1.6-.84h11a.33.33,0,0,0,.37-.25A6.14,6.14,0,1,1,23.63,10a.62.62,0,0,0-.15.44c0,3.06,0,6.13,0,9.19a1.76,1.76,0,0,1-1.8,1.81c-3.44,0-6.88,0-10.32,0a1.09,1.09,0,0,0-.46.12l-3,1.73C7,23.86,6,24.44,5,25ZM3,7.19v9.87l.18-.13,5-4.5c.33-.3.53-.3.87,0L10.86,14l1.88,1.67.18-.15,2.46-2.19a.52.52,0,0,1,.83,0l3.27,2.93.94.83v-5a.58.58,0,0,0-.19,0,6.24,6.24,0,0,1-2.28.08,6.14,6.14,0,0,1-5.09-4.77c0-.22-.13-.27-.33-.27H3ZM18.87,11.3a5.16,5.16,0,1,0-5.16-5.15A5.16,5.16,0,0,0,18.87,11.3Zm-4.52,7.11L8.7,13.36,3,18.41Zm-.86-2.1.19.17c.68.6,1.35,1.21,2,1.8a.53.53,0,0,0,.34.13h4.4l-4.67-4.16Z"/><path class="cls-1" d="M0,12.61a1.66,1.66,0,0,1,.47-.29.45.45,0,0,1,.5.36.49.49,0,0,1-.86.43L0,13Z"/><path class="cls-1" d="M7.71,10.12a1.76,1.76,0,1,1-3.51,0,1.76,1.76,0,0,1,3.51,0ZM6,10.87a.78.78,0,0,0,.78-.77A.79.79,0,0,0,6,9.34a.77.77,0,0,0-.77.77A.78.78,0,0,0,6,10.87Z"/><path class="cls-1" d="M16.52,8.21h4.67V7.45a.5.5,0,0,1,.49-.55.48.48,0,0,1,.49.54c0,.41,0,.81,0,1.22a.47.47,0,0,1-.54.54H16.09a.5.5,0,0,1-.56-.56V7.44A.51.51,0,0,1,16,6.9a.48.48,0,0,1,.49.53C16.53,7.68,16.52,7.94,16.52,8.21Z"/><path class="cls-1" d="M18.3,4c-.19.2-.38.4-.58.59A.49.49,0,1,1,17,3.9c.48-.49,1-1,1.45-1.45a.49.49,0,0,1,.77,0L20.7,3.9a.5.5,0,1,1-.71.69A4.53,4.53,0,0,0,19.35,4V6.75c0,.4-.28.63-.62.54a.5.5,0,0,1-.37-.54V4Z"/></g></g></svg>