<svg id="Layer_1" data-name="Layer 1" xmlns="http://www.w3.org/2000/svg" xmlns:xlink="http://www.w3.org/1999/xlink" viewBox="0 0 1636.23 1909.96"><defs><style>.cls-1{fill:#fff;}</style></defs><path class="cls-1" d="M112.09,109.21h-70v-70h70Zm-7.78-35.06A27.3,27.3,0,1,0,77.2,101.44,27.26,27.26,0,0,0,104.31,74.15ZM100,52.45a30.6,30.6,0,0,1,7.84,28.74C103.7,96.87,92.93,104.66,77.07,106v2.1c12.59-.55,22.65-5.71,28.94-16.64,8.12-14.11,6.1-27.63-3.86-40.26h2.12V49c-1.87,0-3.71,0-5.55,0a.9.9,0,0,0-.94.9c0,1.86,0,3.72,0,5.58H100ZM43.61,79.69l2.17-.37-.27-2.07-2.21.22Zm5.83-25.25,1.82,1.28,1.25-1.67-1.7-1.38ZM44,66.48l2.15.5.54-2-2.11-.63ZM71.76,42.9l2.1-.3-.26-2.19-2.19.32Zm-17.89,56,1.44-1.55L53.8,95.84l-1.5,1.42ZM50.11,57.42l-1.88-1.16-1.12,2,2,1ZM47.36,63l.79-1.93-2-.91-.86,2.06ZM44.61,84l2.11-.67-.55-2-2.14.5Zm17.48,18.06L60.28,101l-1.17,1.88L61,104Zm1.83.9L63,105l2.07.85.78-2.07Zm9.77,4.88.21-2.2-2.07-.28-.35,2.19ZM67.11,41.73l.63,2.12,2-.56-.51-2.14ZM43.59,68.63l-.29,2.22,2.19.21L45.77,69ZM48.26,92l1.88-1.17-1.06-1.8-1.95,1Zm3,.53-1.8,1.3,1.38,1.77,1.69-1.41ZM67.8,104.42l-.64,2.13,2.15.56c.16-.65.33-1.23.43-1.83,0-.12-.2-.36-.35-.42C68.91,104.69,68.4,104.58,67.8,104.42ZM63.88,45.31l1.93-.82L65,42.43,63,43.3Zm-7,4.38,1.65-1.29-1.3-1.78L55.49,48ZM48.18,87.22l-.82-1.93-2,.79.86,2Zm9.11,14.44,1.29-1.8L56.91,98.6l-1.39,1.7ZM53.86,49.45,52.25,51l1.49,1.39L55.27,51Zm5.21-4.06,1.17,1.89,1.81-1.07-1-1.94ZM43.2,75.18h2.12V73.1H43.2Z" transform="translate(-42.09 -39.21)"/><path d="M104.31,74.15A27.3,27.3,0,1,1,77.1,46.83,27.33,27.33,0,0,1,104.31,74.15Zm-2.19,0a25.11,25.11,0,1,0-24.9,25.11A25.17,25.17,0,0,0,102.12,74.11Z" transform="translate(-42.09 -39.21)"/><path d="M100,52.45v3.06H97.77c0-1.86,0-3.72,0-5.58a.9.9,0,0,1,.94-.9c1.84,0,3.68,0,5.55,0v2.16h-2.12c10,12.63,12,26.15,3.86,40.26-6.29,10.93-16.35,16.09-28.94,16.64V106c15.86-1.31,26.63-9.1,30.73-24.78A30.6,30.6,0,0,0,100,52.45Z" transform="translate(-42.09 -39.21)"/><path d="M43.61,79.69l-.31-2.22,2.21-.22.27,2.07Z" transform="translate(-42.09 -39.21)"/><path d="M49.44,54.44l1.37-1.77,1.7,1.38-1.25,1.67Z" transform="translate(-42.09 -39.21)"/><path d="M44,66.48l.58-2.16L46.7,65l-.54,2Z" transform="translate(-42.09 -39.21)"/><path d="M71.76,42.9l-.35-2.17,2.19-.32.26,2.19Z" transform="translate(-42.09 -39.21)"/><path d="M53.87,98.86l-1.57-1.6,1.5-1.42,1.51,1.47Z" transform="translate(-42.09 -39.21)"/><path d="M50.11,57.42l-1,1.82-2-1,1.12-2Z" transform="translate(-42.09 -39.21)"/><path d="M47.36,63l-2.07-.78.86-2.06,2,.91Z" transform="translate(-42.09 -39.21)"/><path d="M44.61,84,44,81.83l2.14-.5.55,2Z" transform="translate(-42.09 -39.21)"/><path d="M62.09,102.06,61,104l-1.93-1.12L60.28,101Z" transform="translate(-42.09 -39.21)"/><path d="M63.92,103l1.94.8-.78,2.07L63,105Z" transform="translate(-42.09 -39.21)"/><path d="M73.69,107.84l-2.21-.29.35-2.19,2.07.28Z" transform="translate(-42.09 -39.21)"/><path d="M67.11,41.73l2.15-.58.51,2.14-2,.56Z" transform="translate(-42.09 -39.21)"/><path d="M43.59,68.63l2.18.36-.28,2.07-2.19-.21Z" transform="translate(-42.09 -39.21)"/><path d="M48.26,92l-1.13-1.94,1.95-1,1.06,1.8Z" transform="translate(-42.09 -39.21)"/><path d="M51.27,92.56l1.27,1.66-1.69,1.41-1.38-1.77Z" transform="translate(-42.09 -39.21)"/><path d="M67.8,104.42c.6.16,1.11.27,1.59.44.15.06.37.3.35.42-.1.6-.27,1.18-.43,1.83l-2.15-.56Z" transform="translate(-42.09 -39.21)"/><path d="M63.88,45.31l-.92-2L65,42.43l.79,2.06Z" transform="translate(-42.09 -39.21)"/><path d="M56.89,49.69,55.49,48l1.75-1.37,1.3,1.78Z" transform="translate(-42.09 -39.21)"/><path d="M48.18,87.22l-2,.91-.86-2,2-.79Z" transform="translate(-42.09 -39.21)"/><path d="M57.29,101.66l-1.77-1.36,1.39-1.7,1.67,1.26Z" transform="translate(-42.09 -39.21)"/><path d="M53.86,49.45,55.27,51l-1.53,1.43L52.25,51Z" transform="translate(-42.09 -39.21)"/><path d="M59.07,45.39,61,44.27l1,1.94-1.81,1.07Z" transform="translate(-42.09 -39.21)"/><path d="M43.2,75.18V73.1h2.12v2.08Z" transform="translate(-42.09 -39.21)"/><path class="cls-1" d="M102.12,74.11A25.11,25.11,0,1,1,77.05,49,25.06,25.06,0,0,1,102.12,74.11ZM77,51.19a22.94,22.94,0,1,0,22.9,23A22.9,22.9,0,0,0,77,51.19Z" transform="translate(-42.09 -39.21)"/><path d="M77,51.19a22.94,22.94,0,1,1-23,22.75A22.89,22.89,0,0,1,77,51.19Zm20.72,23A20.75,20.75,0,1,0,77.14,94.85,20.81,20.81,0,0,0,97.76,74.14Z" transform="translate(-42.09 -39.21)"/><path class="cls-1" d="M97.76,74.14A20.75,20.75,0,1,1,77.1,53.38,20.71,20.71,0,0,1,97.76,74.14ZM75.92,76.31c0-2.55,0-5,0-7.45a1.12,1.12,0,0,0-2.13-.64c-1.75,2.81-3.51,5.62-5.25,8.44a1.48,1.48,0,0,0-.23,1,1,1,0,0,0,1.18.89c1.4,0,2.8,0,4.27,0v2.15h2.17V78.46h2.13V76.31Zm-8.76,2.14H63c1-1.25,2-2.39,2.93-3.56a5.47,5.47,0,0,0,1.22-3.67,3.84,3.84,0,0,0-4.3-3.63,3.76,3.76,0,0,0-3.26,4.35H61.7c0-.19,0-.3,0-.42a1.67,1.67,0,0,1,1.82-1.74A1.64,1.64,0,0,1,64.9,72a5.57,5.57,0,0,1-1,1.91c-1.28,1.64-2.65,3.23-4,4.82a1.21,1.21,0,0,0-.29,1.37,1.17,1.17,0,0,0,1.25.62c1.36,0,2.73,0,4.09,0h2.17Zm24.35-8.67A23.94,23.94,0,0,0,89,80.64H91c.39-2.14.6-4.25,1.17-6.26a35.69,35.69,0,0,1,2.11-5c.46-1,.08-1.8-1-1.81H86.88a1,1,0,0,0-1.09.83,21.69,21.69,0,0,0,0,2.42H87.9l.07-1ZM79.22,80.44l2.15.52c1.1-4.4,2.19-8.72,3.29-13.11l-2.15-.54C81.41,71.7,80.32,76,79.22,80.44Z" transform="translate(-42.09 -39.21)"/><path d="M75.92,76.31h2.15v2.15H75.94v2.18H73.77V78.49c-1.47,0-2.87,0-4.27,0a1,1,0,0,1-1.18-.89,1.48,1.48,0,0,1,.23-1c1.74-2.82,3.5-5.63,5.25-8.44a1.12,1.12,0,0,1,2.13.64C75.91,71.31,75.92,73.76,75.92,76.31Zm-2.23,0V72.59l-2.31,3.69Z" transform="translate(-42.09 -39.21)"/><path d="M67.16,78.45v2.23H65c-1.36,0-2.73,0-4.09,0a1.17,1.17,0,0,1-1.25-.62,1.21,1.21,0,0,1,.29-1.37c1.34-1.59,2.71-3.18,4-4.82a5.57,5.57,0,0,0,1-1.91,1.64,1.64,0,0,0-1.35-2.18,1.67,1.67,0,0,0-1.82,1.74c0,.12,0,.23,0,.42H59.63a3.76,3.76,0,0,1,3.26-4.35,3.84,3.84,0,0,1,4.3,3.63A5.47,5.47,0,0,1,66,74.89C65,76.06,64.07,77.2,63,78.45Z" transform="translate(-42.09 -39.21)"/><path d="M91.51,69.78H88l-.07,1H85.77a21.69,21.69,0,0,1,0-2.42,1,1,0,0,1,1.09-.83h6.41c1,0,1.43.81,1,1.81a35.69,35.69,0,0,0-2.11,5c-.57,2-.78,4.12-1.17,6.26H89A23.94,23.94,0,0,1,91.51,69.78Z" transform="translate(-42.09 -39.21)"/><path d="M79.22,80.44c1.1-4.4,2.19-8.74,3.29-13.13l2.15.54c-1.1,4.39-2.19,8.71-3.29,13.11Z" transform="translate(-42.09 -39.21)"/><path class="cls-1" d="M73.69,76.28H71.38l2.31-3.69Z" transform="translate(-42.09 -39.21)"/><path class="cls-1" d="M43.07,172.29V139.41H75.54a2.46,2.46,0,0,1-.45.11,34.39,34.39,0,0,0-13.78,4.12,32.08,32.08,0,0,0-5.86,4l1.37,1.61c9.74-7.5,20.4-9.83,32-5.76s18.5,12.57,21.39,24.48l2.15-.41c-.37-1.36-.64-2.67-1.08-3.92q-6.9-19.47-27.12-23.71c-1.22-.25-2.46-.36-3.7-.54h32.62v70h-70v-33c0,.2.1.39.13.59.22,1.55.35,3.12.68,4.64a34.8,34.8,0,0,0,40.44,27c12.11-2.34,20.74-9.32,25.81-20.58a33.6,33.6,0,0,0,2.76-15.81c0-.81-.16-1.61-.24-2.47l-2.17.32a32.54,32.54,0,0,1-5,22,32,32,0,0,1-18,13.53,32.65,32.65,0,0,1-36.45-13,31.55,31.55,0,0,1-5.66-19.13A32.55,32.55,0,0,1,55,151a10.12,10.12,0,0,1-.83-.74,9.31,9.31,0,0,1-.61-.89,3.64,3.64,0,0,1-.32.28,34.67,34.67,0,0,0-9.75,19.45C43.32,170.18,43.2,171.24,43.07,172.29Zm22.14,17.49c-2.22,2.21-4.46,4.41-6.66,6.65-.55.55-.41,1.19.29,1.74A29.82,29.82,0,0,0,85.39,204a30.4,30.4,0,0,0,23.14-27.91,29.87,29.87,0,0,0-6.45-20.59c-.93-1.19-1.39-1.22-2.45-.17L67.74,187.2a2.6,2.6,0,0,1-.48.34l1.67,1.8,8.1-8.12A13.47,13.47,0,0,0,78.65,183a6.36,6.36,0,0,0,7.5,0,3.81,3.81,0,0,0,0-6.32,6.65,6.65,0,0,0-3.25-1.22l17.89-17.91a28.21,28.21,0,0,1-3.84,37.93C85.77,205.49,70,204.26,61,197l5.73-5.67ZM47.43,174.3a30.35,30.35,0,0,0,7.76,20.4,1.16,1.16,0,0,0,1.92.09l.34-.33,40.79-40.8c1-.95,1-1.44-.07-2.3-8.21-6.92-17.59-9.18-28-6.57A30.42,30.42,0,0,0,47.43,174.3Zm25.25,13.28-.8,2,2.41.71a1.74,1.74,0,0,1,.76,2,6.12,6.12,0,0,0-.83,2.11,3.57,3.57,0,0,0,2.46,3.68,3.85,3.85,0,0,0,4.43-1.34,3.58,3.58,0,0,0-.12-4.42,1.66,1.66,0,0,1,.73-2.09,29.78,29.78,0,0,0,4.34-1.74,1.84,1.84,0,0,1,2.19.05.87.87,0,0,1,.37.55,3.64,3.64,0,0,0,4.61,3.2,3.93,3.93,0,0,0,2.9-4A3.61,3.61,0,0,0,92.82,185a1.64,1.64,0,0,1-.92-2A16.54,16.54,0,0,0,94,178c.14-.61,1.44-1,2-.73a6.41,6.41,0,0,0,2.11.83,3.6,3.6,0,0,0,3.74-2.47,3.87,3.87,0,0,0-1.31-4.39,3.65,3.65,0,0,0-4.44.05,1.49,1.49,0,0,1-2.11-.77c-.2-.76-.45-1.5-.7-2.31l-2,.81c.27,1.08.47,2.11.8,3.09a1.64,1.64,0,0,0,.82.88c.81.37,1.66.61,2.5.9s1.15.22,1.74-.54a1.41,1.41,0,0,1,1.43-.59,1.59,1.59,0,0,1,1.29,1.48,1.69,1.69,0,0,1-1,1.58,1.42,1.42,0,0,1-1.78-.6,1.23,1.23,0,0,0-1.6-.49c-.82.31-1.66.59-2.5.86a1.37,1.37,0,0,0-1,1.16,13.83,13.83,0,0,1-2.37,5.74,1.32,1.32,0,0,0-.11,1.47c.39.79.77,1.59,1.16,2.38s.67.94,1.55.83a1.4,1.4,0,0,1,1.55.74,1.55,1.55,0,0,1-.3,1.82,1.61,1.61,0,0,1-1.81.36,1.4,1.4,0,0,1-.77-1.59,1.21,1.21,0,0,0-.79-1.52c-.8-.37-1.59-.77-2.38-1.16a1.44,1.44,0,0,0-1.6.13,13.35,13.35,0,0,1-5.61,2.32,1.38,1.38,0,0,0-1.18,1c-.27.84-.58,1.66-.87,2.5s-.19,1.12.53,1.69a1.39,1.39,0,0,1,.61,1.42,1.54,1.54,0,0,1-1.41,1.27,1.68,1.68,0,0,1-1.65-1,1.38,1.38,0,0,1,.58-1.73,1.26,1.26,0,0,0,.51-1.65c-.33-.84-.62-1.7-.9-2.56a1.29,1.29,0,0,0-1-.92Zm18.38-14.29H89v2.09h2.1Z" transform="translate(-42.09 -39.21)"/><path d="M43.07,172.29c.13-1,.25-2.11.41-3.16a34.67,34.67,0,0,1,9.75-19.45,3.64,3.64,0,0,0,.32-.28,9.31,9.31,0,0,0,.61.89A10.12,10.12,0,0,0,55,151a32.55,32.55,0,0,0-9.71,22.56,31.55,31.55,0,0,0,5.66,19.13,32.65,32.65,0,0,0,36.45,13,32,32,0,0,0,18-13.53,32.54,32.54,0,0,0,5-22l2.17-.32c.08.86.2,1.66.24,2.47a33.6,33.6,0,0,1-2.76,15.81c-5.07,11.26-13.7,18.24-25.81,20.58a34.8,34.8,0,0,1-40.44-27c-.33-1.52-.46-3.09-.68-4.64,0-.2-.09-.39-.13-.59Z" transform="translate(-42.09 -39.21)"/><path d="M80.45,139.41c1.24.18,2.48.29,3.7.54q20.23,4.2,27.12,23.71c.44,1.25.71,2.56,1.08,3.92l-2.15.41c-2.89-11.91-9.78-20.4-21.39-24.48s-22.25-1.74-32,5.76l-1.37-1.61a32.08,32.08,0,0,1,5.86-4,34.39,34.39,0,0,1,13.78-4.12,2.46,2.46,0,0,0,.45-.11Z" transform="translate(-42.09 -39.21)"/><path d="M65.21,189.78l1.52,1.5L61,197c9,7.31,24.77,8.54,35.94-1.52a28.21,28.21,0,0,0,3.84-37.93L82.89,175.41a6.65,6.65,0,0,1,3.25,1.22,3.81,3.81,0,0,1,0,6.32,6.36,6.36,0,0,1-7.5,0A13.47,13.47,0,0,1,77,181.22l-8.1,8.12-1.67-1.8a2.6,2.6,0,0,0,.48-.34l31.89-31.88c1.06-1,1.52-1,2.45.17a29.87,29.87,0,0,1,6.45,20.59A30.4,30.4,0,0,1,85.39,204a29.82,29.82,0,0,1-26.55-5.82c-.7-.55-.84-1.19-.29-1.74C60.75,194.19,63,192,65.21,189.78Zm17.17-7.59a16.09,16.09,0,0,0,2.47-1.05,1.57,1.57,0,0,0,.05-2.68,4.31,4.31,0,0,0-5.06,0,1.56,1.56,0,0,0,0,2.68A14.34,14.34,0,0,0,82.38,182.19Z" transform="translate(-42.09 -39.21)"/><path d="M47.43,174.3a30.42,30.42,0,0,1,22.75-29.51c10.4-2.61,19.78-.35,28,6.57,1,.86,1,1.35.07,2.3l-40.79,40.8-.34.33a1.16,1.16,0,0,1-1.92-.09,30.35,30.35,0,0,1-7.76-20.4Zm48.66-21.76a28.23,28.23,0,0,0-39,2.7c-10.44,11.41-9.09,27.83-.83,37.17Z" transform="translate(-42.09 -39.21)"/><path d="M72.68,187.58l3,.74a1.29,1.29,0,0,1,1,.92c.28.86.57,1.72.9,2.56a1.26,1.26,0,0,1-.51,1.65,1.38,1.38,0,0,0-.58,1.73,1.68,1.68,0,0,0,1.65,1,1.54,1.54,0,0,0,1.41-1.27,1.39,1.39,0,0,0-.61-1.42c-.72-.57-.81-.85-.53-1.69s.6-1.66.87-2.5a1.38,1.38,0,0,1,1.18-1A13.35,13.35,0,0,0,86.08,186a1.44,1.44,0,0,1,1.6-.13c.79.39,1.58.79,2.38,1.16a1.21,1.21,0,0,1,.79,1.52,1.4,1.4,0,0,0,.77,1.59,1.61,1.61,0,0,0,1.81-.36,1.55,1.55,0,0,0,.3-1.82,1.4,1.4,0,0,0-1.55-.74c-.88.11-1.15,0-1.55-.83s-.77-1.59-1.16-2.38a1.32,1.32,0,0,1,.11-1.47A13.83,13.83,0,0,0,92,176.76a1.37,1.37,0,0,1,1-1.16c.84-.27,1.68-.55,2.5-.86a1.23,1.23,0,0,1,1.6.49,1.42,1.42,0,0,0,1.78.6,1.69,1.69,0,0,0,1-1.58,1.59,1.59,0,0,0-1.29-1.48,1.41,1.41,0,0,0-1.43.59c-.59.76-.86.84-1.74.54s-1.69-.53-2.5-.9a1.64,1.64,0,0,1-.82-.88c-.33-1-.53-2-.8-3.09l2-.81c.25.81.5,1.55.7,2.31a1.49,1.49,0,0,0,2.11.77,3.65,3.65,0,0,1,4.44-.05,3.87,3.87,0,0,1,1.31,4.39,3.6,3.6,0,0,1-3.74,2.47,6.41,6.41,0,0,1-2.11-.83c-.54-.29-1.84.12-2,.73a16.54,16.54,0,0,1-2.07,5,1.64,1.64,0,0,0,.92,2,3.61,3.61,0,0,1,3.31,3.39,3.93,3.93,0,0,1-2.9,4,3.64,3.64,0,0,1-4.61-3.2.87.87,0,0,0-.37-.55,1.84,1.84,0,0,0-2.19-.05,29.78,29.78,0,0,1-4.34,1.74,1.66,1.66,0,0,0-.73,2.09,3.58,3.58,0,0,1,.12,4.42,3.85,3.85,0,0,1-4.43,1.34,3.57,3.57,0,0,1-2.46-3.68,6.12,6.12,0,0,1,.83-2.11,1.74,1.74,0,0,0-.76-2l-2.41-.71Z" transform="translate(-42.09 -39.21)"/><path d="M91.06,173.29v2.09H89v-2.09Z" transform="translate(-42.09 -39.21)"/><path class="cls-1" d="M82.38,182.19a14.34,14.34,0,0,1-2.51-1.06,1.56,1.56,0,0,1,0-2.68,4.31,4.31,0,0,1,5.06,0,1.57,1.57,0,0,1-.05,2.68A16.09,16.09,0,0,1,82.38,182.19Z" transform="translate(-42.09 -39.21)"/><path class="cls-1" d="M96.09,152.54,56.22,192.41c-8.26-9.34-9.61-25.76.83-37.17A28.23,28.23,0,0,1,96.09,152.54Zm-31,28c-.36-1.33-.7-2.57-1-3.81a1.32,1.32,0,0,0-.9-1c-.84-.27-1.67-.58-2.5-.87s-1.18-.24-1.76.5a1.39,1.39,0,0,1-1.41.62,1.59,1.59,0,0,1-1.28-1.42,1.67,1.67,0,0,1,1-1.65,1.37,1.37,0,0,1,1.72.57,1.26,1.26,0,0,0,1.65.52c.83-.32,1.66-.6,2.51-.87a1.38,1.38,0,0,0,1-1.16,13.61,13.61,0,0,1,2.37-5.73,1.36,1.36,0,0,0,.09-1.53c-.34-.69-.68-1.39-1-2.08-.53-1.07-.58-1.1-1.78-1a1.4,1.4,0,0,1-1.57-1.1,1.53,1.53,0,0,1,.63-1.67,1.48,1.48,0,0,1,1.67-.12,1.34,1.34,0,0,1,.71,1.55,1.29,1.29,0,0,0,.86,1.57c.76.34,1.51.72,2.26,1.1a1.42,1.42,0,0,0,1.59-.12,13.68,13.68,0,0,1,5.67-2.34,1.4,1.4,0,0,0,1.21-1c.26-.82.53-1.63.84-2.44a1.24,1.24,0,0,0-.52-1.65,1.36,1.36,0,0,1-.64-1.46,1.59,1.59,0,0,1,1.42-1.27,1.66,1.66,0,0,1,1.64,1,1.41,1.41,0,0,1-.61,1.77,1.19,1.19,0,0,0-.49,1.54c.32.87.56,1.77.93,2.62a1.66,1.66,0,0,0,.86.85c1.28.42,2.6.74,4,1.11l.92-2c-1.19-.38-2.26-.75-3.34-1.06a1.55,1.55,0,0,1-.73-2.06,3.56,3.56,0,0,0,.72-3.08,3.8,3.8,0,0,0-3.08-2.9,3.88,3.88,0,0,0-3.92,1.79,3.61,3.61,0,0,0,.28,4.2,1.52,1.52,0,0,1-.75,2,16.42,16.42,0,0,0-4.88,2,1.49,1.49,0,0,1-2-1,3.66,3.66,0,0,0-3.82-3.25,3.94,3.94,0,0,0-3.69,3.71,3.66,3.66,0,0,0,3.26,3.8,1.56,1.56,0,0,1,.95,2c-.71,1.56-1.39,3.14-2,4.75a1.54,1.54,0,0,1-2.22.78,3.6,3.6,0,0,0-4.92.51,3.88,3.88,0,0,0,0,5.16,3.61,3.61,0,0,0,4.93.46,1.53,1.53,0,0,1,2.17.78c.32,1.07.7,2.12,1.07,3.24Zm8.57-11.62a3.28,3.28,0,1,0-3.26,3.28A3.24,3.24,0,0,0,73.63,168.87ZM78,164.48v-2.12h-2.1v2.12ZM66,174.36v2.13h2.09v-2.13Z" transform="translate(-42.09 -39.21)"/><path d="M65.06,180.49l-1.93.92c-.37-1.12-.75-2.17-1.07-3.24a1.53,1.53,0,0,0-2.17-.78,3.61,3.61,0,0,1-4.93-.46,3.88,3.88,0,0,1,0-5.16,3.6,3.6,0,0,1,4.92-.51,1.54,1.54,0,0,0,2.22-.78c.6-1.61,1.28-3.19,2-4.75a1.56,1.56,0,0,0-.95-2,3.66,3.66,0,0,1-3.26-3.8,3.94,3.94,0,0,1,3.69-3.71,3.66,3.66,0,0,1,3.82,3.25,1.49,1.49,0,0,0,2,1,16.42,16.42,0,0,1,4.88-2,1.52,1.52,0,0,0,.75-2,3.61,3.61,0,0,1-.28-4.2,3.88,3.88,0,0,1,3.92-1.79,3.8,3.8,0,0,1,3.08,2.9,3.56,3.56,0,0,1-.72,3.08,1.55,1.55,0,0,0,.73,2.06c1.08.31,2.15.68,3.34,1.06l-.92,2c-1.37-.37-2.69-.69-4-1.11a1.66,1.66,0,0,1-.86-.85c-.37-.85-.61-1.75-.93-2.62a1.19,1.19,0,0,1,.49-1.54,1.41,1.41,0,0,0,.61-1.77,1.66,1.66,0,0,0-1.64-1,1.59,1.59,0,0,0-1.42,1.27,1.36,1.36,0,0,0,.64,1.46,1.24,1.24,0,0,1,.52,1.65c-.31.81-.58,1.62-.84,2.44a1.4,1.4,0,0,1-1.21,1,13.68,13.68,0,0,0-5.67,2.34,1.42,1.42,0,0,1-1.59.12c-.75-.38-1.5-.76-2.26-1.1a1.29,1.29,0,0,1-.86-1.57,1.34,1.34,0,0,0-.71-1.55,1.48,1.48,0,0,0-1.67.12,1.53,1.53,0,0,0-.63,1.67,1.4,1.4,0,0,0,1.57,1.1c1.2-.06,1.25,0,1.78,1,.33.69.67,1.39,1,2.08a1.36,1.36,0,0,1-.09,1.53,13.61,13.61,0,0,0-2.37,5.73,1.38,1.38,0,0,1-1,1.16c-.85.27-1.68.55-2.51.87a1.26,1.26,0,0,1-1.65-.52,1.37,1.37,0,0,0-1.72-.57,1.67,1.67,0,0,0-1,1.65,1.59,1.59,0,0,0,1.28,1.42,1.39,1.39,0,0,0,1.41-.62c.58-.74.86-.82,1.76-.5s1.66.6,2.5.87a1.32,1.32,0,0,1,.9,1C64.36,177.92,64.7,179.16,65.06,180.49Z" transform="translate(-42.09 -39.21)"/><path d="M73.63,168.87a3.28,3.28,0,1,1-3.21-3.26A3.25,3.25,0,0,1,73.63,168.87ZM70.38,170a1.14,1.14,0,0,0,1.06-1.13A1.09,1.09,0,1,0,70.38,170Z" transform="translate(-42.09 -39.21)"/><path d="M78,164.48h-2.1v-2.12H78Z" transform="translate(-42.09 -39.21)"/><path d="M66,174.36h2.09v2.13H66Z" transform="translate(-42.09 -39.21)"/><path class="cls-1" d="M70.38,170a1.15,1.15,0,0,1-1.11-1.07,1.09,1.09,0,0,1,2.17-.06A1.14,1.14,0,0,1,70.38,170Z" transform="translate(-42.09 -39.21)"/><path class="cls-1" d="M179.11,43.47h32.47v70h-70V81c0,.17.1.34.13.52.29,1.79.45,3.61.89,5.36a35,35,0,0,0,68.53-13.35,35,35,0,0,0-29.28-29.66Z" transform="translate(-42.09 -39.21)"/><path d="M179.11,43.47l2.74.4a35,35,0,0,1,29.28,29.66A35,35,0,0,1,142.6,86.88c-.44-1.75-.6-3.57-.89-5.36,0-.18-.09-.35-.13-.52V75.82c.15-1.08.27-2.15.45-3.22a35,35,0,0,1,29.15-28.73l2.74-.4Zm-2.57,67.83a32.89,32.89,0,1,0-32.9-32.83A32.9,32.9,0,0,0,176.54,111.3Z" transform="translate(-42.09 -39.21)"/><path class="cls-1" d="M173.92,43.47l-2.74.4A35,35,0,0,0,142,72.6c-.18,1.07-.3,2.14-.45,3.22V43.47Z" transform="translate(-42.09 -39.21)"/><path class="cls-1" d="M176.54,111.3a32.89,32.89,0,1,1,32.85-32.89A32.87,32.87,0,0,1,176.54,111.3ZM155.41,80.05a2.07,2.07,0,0,1-.21.08,2.07,2.07,0,0,0-2,2.51,10,10,0,0,0,10,9.55c3.84,0,7.69,0,11.53,0h.79V97.3c0,.16,0,.32,0,.48a1.12,1.12,0,0,0,1,1.2,1.1,1.1,0,0,0,1.05-1.19c0-1.62,0-3.23,0-4.85v-.75c1.5,0,2.88,0,4.27,0,.8,0,1.23-.37,1.22-1s-.43-1-1.25-1-1.59,0-2.39,0h-1.86c0-.33.05-.56.1-.78a8.94,8.94,0,0,1,8.78-7.15c3.59,0,7.18,0,10.78,0l.61,0c-.05.47-.1.89-.16,1.3a7.83,7.83,0,0,1-6.6,6.45c-1.55.16-3.13.11-4.69.15-.81,0-1.26.36-1.27,1s.45,1,1.24,1c1.18,0,2.36,0,3.55,0a10,10,0,0,0,9.92-8.74c.28-2.11-.17-2.88-2-3.38,0,0-.06-.08-.06-.12,0-.23,0-.46,0-.68a11.65,11.65,0,0,0-6.43-10.49,7.83,7.83,0,0,1-3.81-4.16,11.49,11.49,0,0,0-5.63-6.06,11.93,11.93,0,0,0-5-1.27c-.78,0-1.27.35-1.3,1s.39,1,1.19,1.12l.27,0a9.44,9.44,0,0,1,8.59,6,9.62,9.62,0,0,0,4.77,5.17,9.25,9.25,0,0,1,4.45,4.71,9,9,0,0,1,.77,4.78h-5.92a4.67,4.67,0,0,1,.07-.57,7.54,7.54,0,0,0-4-8.23,4.67,4.67,0,0,1-2.19-2.4,7.63,7.63,0,0,0-14,0,4.84,4.84,0,0,1-2.24,2.44A7.38,7.38,0,0,0,163.29,78c0,.68.12,1.37.18,2.06h-5.91c0-.26,0-.48,0-.7A9.48,9.48,0,0,1,163,70.54a8.88,8.88,0,0,0,4.42-4.69,10,10,0,0,1,5.43-5.72l.07,0a1,1,0,1,0-.84-1.9,11.46,11.46,0,0,0-6.37,6.39,7.66,7.66,0,0,1-3.86,4.19,11.45,11.45,0,0,0-5.49,6A12.89,12.89,0,0,0,155.41,80.05Zm29.33,16.84a1,1,0,0,0,0,2.09,1.08,1.08,0,0,0,1-1.06A1.06,1.06,0,0,0,184.74,96.89Zm9.38-32.14a1,1,0,0,0-1-1.06,1.07,1.07,0,0,0-1.06,1,1,1,0,0,0,1,1.05A1,1,0,0,0,194.12,64.75ZM162,62.69a1.07,1.07,0,0,0-1-1,1.09,1.09,0,0,0-1,1,1.05,1.05,0,0,0,1,1A1,1,0,0,0,162,62.69Z" transform="translate(-42.09 -39.21)"/><path d="M155.41,80.05a12.89,12.89,0,0,1,.9-5.25,11.45,11.45,0,0,1,5.49-6,7.66,7.66,0,0,0,3.86-4.19A11.46,11.46,0,0,1,172,58.21a1,1,0,1,1,.84,1.9l-.07,0a10,10,0,0,0-5.43,5.72A8.88,8.88,0,0,1,163,70.54a9.48,9.48,0,0,0-5.42,8.86c0,.22,0,.44,0,.7h5.91c-.06-.69-.19-1.38-.18-2.06a7.38,7.38,0,0,1,4.05-6.71,4.84,4.84,0,0,0,2.24-2.44,7.63,7.63,0,0,1,14,0,4.67,4.67,0,0,0,2.19,2.4,7.54,7.54,0,0,1,4,8.23,4.67,4.67,0,0,0-.07.57h5.92a9,9,0,0,0-.77-4.78,9.25,9.25,0,0,0-4.45-4.71,9.62,9.62,0,0,1-4.77-5.17,9.44,9.44,0,0,0-8.59-6l-.27,0c-.8-.07-1.23-.48-1.19-1.12s.52-1,1.3-1a11.93,11.93,0,0,1,5,1.27,11.49,11.49,0,0,1,5.63,6.06,7.83,7.83,0,0,0,3.81,4.16,11.65,11.65,0,0,1,6.43,10.49c0,.22,0,.45,0,.68,0,0,0,.08.06.12,1.8.5,2.25,1.27,2,3.38a10,10,0,0,1-9.92,8.74c-1.19,0-2.37,0-3.55,0-.79,0-1.24-.38-1.24-1s.46-1,1.27-1c1.56,0,3.14,0,4.69-.15a7.83,7.83,0,0,0,6.6-6.45c.06-.41.11-.83.16-1.3l-.61,0c-3.6,0-7.19,0-10.78,0a8.94,8.94,0,0,0-8.78,7.15c0,.22-.06.45-.1.78h1.86c.8,0,1.59,0,2.39,0s1.25.35,1.25,1-.42,1-1.22,1c-1.39,0-2.77,0-4.27,0v.75c0,1.62,0,3.23,0,4.85A1.1,1.1,0,0,1,176.51,99a1.12,1.12,0,0,1-1-1.2c0-.16,0-.32,0-.48V92.19h-.79c-3.84,0-7.69,0-11.53,0a10,10,0,0,1-10-9.55,2.07,2.07,0,0,1,2-2.51A2.07,2.07,0,0,0,155.41,80.05Zm21.06,6.17a1.19,1.19,0,0,0,.17-.14,10.93,10.93,0,0,1,10.21-5.93.67.67,0,0,0,.76-.56A5.43,5.43,0,0,0,185,73.21a7,7,0,0,1-3.28-3.56,5.54,5.54,0,0,0-10.09-.1,7.3,7.3,0,0,1-3.41,3.71,5.39,5.39,0,0,0-2.58,6.35.62.62,0,0,0,.71.54,10.8,10.8,0,0,1,4.52.83A11.21,11.21,0,0,1,176.47,86.22Zm-21.31-4c.1.64.13,1.18.26,1.71a8,8,0,0,0,7.86,6.22h12.18c0-.33-.06-.58-.11-.82a8.92,8.92,0,0,0-8.8-7.11c-2.73,0-5.46,0-8.19,0Z" transform="translate(-42.09 -39.21)"/><path d="M184.74,96.89a1.06,1.06,0,0,1,1,1,1.08,1.08,0,0,1-1,1.06,1,1,0,0,1,0-2.09Z" transform="translate(-42.09 -39.21)"/><path d="M194.12,64.75a1,1,0,0,1-1,1,1,1,0,0,1-1-1.05,1.07,1.07,0,0,1,1.06-1A1,1,0,0,1,194.12,64.75Z" transform="translate(-42.09 -39.21)"/><path d="M162,62.69a1,1,0,0,1-1,1,1.05,1.05,0,0,1-1-1,1.09,1.09,0,0,1,1-1A1.07,1.07,0,0,1,162,62.69Z" transform="translate(-42.09 -39.21)"/><path class="cls-1" d="M176.47,86.22A11.21,11.21,0,0,0,170.82,81a10.8,10.8,0,0,0-4.52-.83.62.62,0,0,1-.71-.54,5.39,5.39,0,0,1,2.58-6.35,7.3,7.3,0,0,0,3.41-3.71,5.54,5.54,0,0,1,10.09.1A7,7,0,0,0,185,73.21a5.43,5.43,0,0,1,2.66,6.38.67.67,0,0,1-.76.56,10.93,10.93,0,0,0-10.21,5.93A1.19,1.19,0,0,1,176.47,86.22Zm.17-10.57a3.51,3.51,0,0,1,2.74,1.28,1,1,0,0,0,1.52.14A1,1,0,0,0,181,75.6a5.62,5.62,0,0,0-8.76.14,1.3,1.3,0,0,0-.12,1.07,1.06,1.06,0,0,0,.81.58,1.73,1.73,0,0,0,1-.54A3.57,3.57,0,0,1,176.64,75.65Z" transform="translate(-42.09 -39.21)"/><path class="cls-1" d="M155.16,82.22h3.2c2.73,0,5.46,0,8.19,0a8.92,8.92,0,0,1,8.8,7.11c.05.24.07.49.11.82H163.28a8,8,0,0,1-7.86-6.22C155.29,83.4,155.26,82.86,155.16,82.22Z" transform="translate(-42.09 -39.21)"/><path d="M176.64,75.65a3.57,3.57,0,0,0-2.71,1.2,1.73,1.73,0,0,1-1,.54,1.06,1.06,0,0,1-.81-.58,1.3,1.3,0,0,1,.12-1.07A5.62,5.62,0,0,1,181,75.6a1,1,0,0,1-.07,1.47,1,1,0,0,1-1.52-.14A3.51,3.51,0,0,0,176.64,75.65Z" transform="translate(-42.09 -39.21)"/><path class="cls-1" d="M141.58,173.93V139.41h70v70h-70V174.88c.37.44.8.74,1.4.45a.85.85,0,0,0,.48-1.07,1.52,1.52,0,0,0-.68-.83C142.29,173.2,141.9,173.55,141.58,173.93Zm25,15.46-.63-.49-6.76-5.52-.21-.18a1,1,0,0,0-1.46,0,1,1,0,0,0,.23,1.42c1.6,1.32,3.21,2.62,4.81,3.93l2.67,2.19a.88.88,0,0,1-.16.15,2,2,0,0,1-.26.06,8.78,8.78,0,0,1-6.86-1.76,15.61,15.61,0,0,1-6-9.62c-.22-1-.32-1.94-.49-3h.74a17.94,17.94,0,0,1,8.07,2.19c.65.35,1.2.23,1.48-.29s.1-1-.56-1.38a20,20,0,0,0-10.48-2.42c-.86,0-1.14.33-1.12,1.19a22.43,22.43,0,0,0,.17,2.31,18.33,18.33,0,0,0,4.59,10.35c3.39,3.68,7.39,5.5,12.46,3.84a.8.8,0,0,1,.59.17c.87.69,1.73,1.39,2.59,2.1,1.88,1.54,3.78,3.07,5.63,4.65.73.62,1,.69,1.74.07q3.93-3.37,7.9-6.71a1,1,0,0,1,.77-.16,10.19,10.19,0,0,0,9.22-1.4c5.36-3.73,7.56-9.1,7.71-15.45a.84.84,0,0,0-.93-.94c-1.17,0-2.36,0-3.53.14a17.78,17.78,0,0,0-10.34,4.58c-3.23,3-4.84,6.58-3.88,11.06a.83.83,0,0,1-.24.66c-1.18,1-2.38,2.05-3.58,3.06l-2.93,2.49a1.47,1.47,0,0,1-.07-.26c0-3.87,0-7.73,0-11.6a.81.81,0,0,1,.41-.57,13.16,13.16,0,0,0,5.19-4.9,16.91,16.91,0,0,0,2-11.39,25.18,25.18,0,0,0-7.57-14.6c-.7-.7-1.12-.73-1.78,0a35.22,35.22,0,0,0-2.9,3.34c-3.84,5.28-5.72,11.12-4.59,17.68a13.16,13.16,0,0,0,6.83,9.74.87.87,0,0,1,.53.9c0,3.68,0,7.36,0,11.05v.63l-.53-.4c-2.11-1.73-4.21-3.47-6.35-5.17a.9.9,0,0,1-.33-1,10.05,10.05,0,0,0-1.12-7.16,1,1,0,0,0-1.36-.49,1,1,0,0,0-.34,1.36c.09.18.2.36.28.54A8.26,8.26,0,0,1,166.55,189.39Zm10-41.95a41.92,41.92,0,0,0-4.78.63c-9.3,2.31-15.18,8.15-17.51,17.45a29.52,29.52,0,0,0-.53,4.72.9.9,0,0,0,.86,1.09c.58,0,.95-.32,1-1,0-.21,0-.41,0-.62.11-1.06.14-2.13.33-3.17a21,21,0,0,1,28.92-15.33,20.5,20.5,0,0,1,12.26,15.39c.15.74.58,1.1,1.13,1s.88-.64.74-1.38A23.12,23.12,0,0,0,176.51,147.44Zm-4.84,61.65a1,1,0,0,0,1-1,1.09,1.09,0,0,0-1.14-1,1,1,0,0,0-1,1A1.08,1.08,0,0,0,171.67,209.09Zm-17.43-59.33a1.21,1.21,0,0,0,1.08-1.1,1,1,0,0,0-1-.92,1.12,1.12,0,0,0-1.06,1.09A.94.94,0,0,0,154.24,149.76Zm-6.34,7.31a1.18,1.18,0,0,0,1-1.08,1,1,0,0,0-.94-1,1.22,1.22,0,0,0-1.08,1.13A1,1,0,0,0,147.9,157.07Zm63.54,17.46c0-.65-.31-1-.91-1a.9.9,0,0,0-1,1,1,1,0,0,0,.93,1A.91.91,0,0,0,211.44,174.53Zm-5.32-18.37a1.08,1.08,0,0,0-1.1-1.06,1,1,0,0,0-.9.93,1.17,1.17,0,0,0,1.08,1.11A1,1,0,0,0,206.12,156.16Zm-43.71,50.21a1,1,0,0,0,1-1,1.21,1.21,0,0,0-1.16-1,1,1,0,0,0-.92,1A1.16,1.16,0,0,0,162.41,206.37Zm19.05-64.58a.94.94,0,0,0,.95-.94,1,1,0,0,0-1.11-1,1,1,0,0,0-1,.94A1,1,0,0,0,181.46,141.79Zm.86,66.32a1,1,0,0,0-1-.92,1,1,0,0,0-1.12.95,1,1,0,0,0,1,1A1.06,1.06,0,0,0,182.32,208.11Zm-10.53-68.27a1.06,1.06,0,0,0-1.13.95,1,1,0,0,0,1,1,1,1,0,0,0,1.09-.9A1,1,0,0,0,171.79,139.84Zm-8.34,3.71a.94.94,0,0,0-.89-1,1.14,1.14,0,0,0-1.18,1,1,1,0,0,0,1,1A1.07,1.07,0,0,0,163.45,143.55Zm36.38,5.32a1.15,1.15,0,0,0-1.1-1.08.91.91,0,0,0-.93.9,1.09,1.09,0,0,0,1.06,1.1A.94.94,0,0,0,199.83,148.87ZM210.11,165a1.07,1.07,0,0,0-1-1.14,1,1,0,0,0-.94,1,1.11,1.11,0,0,0,1,1.14A1,1,0,0,0,210.11,165Zm-65.26,19.05a1.07,1.07,0,0,0-1-1.1.94.94,0,0,0-1,1,1,1,0,0,0,1,1.06A.94.94,0,0,0,144.85,184.05Zm4,8.84a1.08,1.08,0,0,0-1-1.1.88.88,0,0,0-1,.88,1.14,1.14,0,0,0,1,1.17A1,1,0,0,0,148.85,192.89Zm49.81,8.33a1.1,1.1,0,0,0,1-1.12.9.9,0,0,0-.93-.9,1.17,1.17,0,0,0-1.1,1.1A1,1,0,0,0,198.66,201.22Zm-8.08-58.66a1,1,0,0,0-1,.95,1.16,1.16,0,0,0,1.12,1.05,1,1,0,0,0,.95-1A1.13,1.13,0,0,0,190.58,142.56Zm-45.72,22.21a.9.9,0,0,0-.93-.94,1,1,0,0,0-1,1.06.93.93,0,0,0,1,1A1,1,0,0,0,144.86,164.77Zm65.21,19.33a1,1,0,0,0-.89-1,1.07,1.07,0,0,0-1,1.13.94.94,0,0,0,.92,1A1,1,0,0,0,210.07,184.1ZM205,194a1.17,1.17,0,0,0,1-1.16,1,1,0,0,0-1-.87,1.06,1.06,0,0,0-1,1.11A1,1,0,0,0,205,194ZM191.6,205.39a1,1,0,0,0-1-.95c-.58,0-1.18.54-1.12,1.06a.91.91,0,0,0,.92.9A1.11,1.11,0,0,0,191.6,205.39Zm-36.38-5.22a1.17,1.17,0,0,0-1.14-1,.94.94,0,0,0-.9,1,1.13,1.13,0,0,0,1.1,1A.93.93,0,0,0,155.22,200.17Zm44.08-29.79a1,1,0,1,0-1.9.05.94.94,0,0,0,1,.91A.91.91,0,0,0,199.3,170.38Zm-34.38,10a.94.94,0,0,0-.91-1,1,1,0,0,0-1,.92,1,1,0,0,0,.93,1A.91.91,0,0,0,164.92,180.38Z" transform="translate(-42.09 -39.21)"/><path d="M141.58,173.93c.32-.38.71-.73,1.2-.5a1.52,1.52,0,0,1,.68.83.85.85,0,0,1-.48,1.07c-.6.29-1,0-1.4-.45Z" transform="translate(-42.09 -39.21)"/><path d="M166.55,189.39a8.26,8.26,0,0,0-.74-5c-.08-.18-.19-.36-.28-.54a1,1,0,0,1,.34-1.36,1,1,0,0,1,1.36.49,10.05,10.05,0,0,1,1.12,7.16.9.9,0,0,0,.33,1c2.14,1.7,4.24,3.44,6.35,5.17l.53.4v-.63c0-3.69,0-7.37,0-11.05a.87.87,0,0,0-.53-.9,13.16,13.16,0,0,1-6.83-9.74c-1.13-6.56.75-12.4,4.59-17.68a35.22,35.22,0,0,1,2.9-3.34c.66-.71,1.08-.68,1.78,0a25.18,25.18,0,0,1,7.57,14.6,16.91,16.91,0,0,1-2,11.39,13.16,13.16,0,0,1-5.19,4.9.81.81,0,0,0-.41.57c0,3.87,0,7.73,0,11.6a1.47,1.47,0,0,0,.07.26l2.93-2.49c1.2-1,2.4-2,3.58-3.06a.83.83,0,0,0,.24-.66c-1-4.48.65-8.07,3.88-11.06a17.78,17.78,0,0,1,10.34-4.58c1.17-.13,2.36-.12,3.53-.14a.84.84,0,0,1,.93.94c-.15,6.35-2.35,11.72-7.71,15.45a10.19,10.19,0,0,1-9.22,1.4,1,1,0,0,0-.77.16q-4,3.33-7.9,6.71c-.73.62-1,.55-1.74-.07-1.85-1.58-3.75-3.11-5.63-4.65-.86-.71-1.72-1.41-2.59-2.1a.8.8,0,0,0-.59-.17c-5.07,1.66-9.07-.16-12.46-3.84a18.33,18.33,0,0,1-4.59-10.35,22.43,22.43,0,0,1-.17-2.31c0-.86.26-1.16,1.12-1.19a20,20,0,0,1,10.48,2.42c.66.36.85.85.56,1.38s-.83.64-1.48.29a17.94,17.94,0,0,0-8.07-2.19h-.74c.17,1,.27,2,.49,3a15.61,15.61,0,0,0,6,9.62,8.78,8.78,0,0,0,6.86,1.76,2,2,0,0,0,.26-.06.88.88,0,0,0,.16-.15l-2.67-2.19c-1.6-1.31-3.21-2.61-4.81-3.93a1,1,0,0,1-.23-1.42,1,1,0,0,1,1.46,0l.21.18,6.76,5.52Zm8.88-23.9.13-.06c0-1.7,0-3.41,0-5.11a1,1,0,0,1,1-1.07c.56.05.87.47.87,1.17,0,3.91,0,7.82,0,11.73v.71a13.88,13.88,0,0,0,1.29-1.76c.4-.61.93-.78,1.43-.46s.56.85.17,1.49c-.75,1.19-1.48,2.4-2.27,3.56a3.39,3.39,0,0,0-.63,2.16c.05,1.46,0,2.93,0,4.54.44-.29.76-.49,1.06-.72,3.37-2.57,4.7-6.14,4.8-10.22a21.45,21.45,0,0,0-4-12.83c-.81-1.19-1.75-2.29-2.68-3.5-4.73,5.33-7.49,11.18-6.62,18.31a11.66,11.66,0,0,0,4.81,8.37c.22.16.46.29.77.48,0-4.37,0-8.59,0-12.82a1.5,1.5,0,0,0-.29-.8c-.72-1.1-1.48-2.18-2.22-3.27-.48-.7-.44-1.26.08-1.6s1-.15,1.48.49Zm11.93,25.43a8.61,8.61,0,0,0,6.39-1.07,13.42,13.42,0,0,0,4.67-4.68,18.43,18.43,0,0,0,2.64-8.51l-.38,0a17.41,17.41,0,0,0-9.1,2.62,11.47,11.47,0,0,0-5.45,7,7,7,0,0,0-.07,3.28l.5-.41,6.81-5.78c.61-.51,1.16-.52,1.55-.06s.3,1-.32,1.52l-3.74,3.17Z" transform="translate(-42.09 -39.21)"/><path d="M176.51,147.44A23.12,23.12,0,0,1,199,166.2c.14.74-.14,1.26-.74,1.38s-1-.25-1.13-1a20.5,20.5,0,0,0-12.26-15.39,21,21,0,0,0-28.92,15.33c-.19,1-.22,2.11-.33,3.17,0,.21,0,.41,0,.62-.08.69-.45,1.05-1,1a.9.9,0,0,1-.86-1.09,29.52,29.52,0,0,1,.53-4.72c2.33-9.3,8.21-15.14,17.51-17.45A41.92,41.92,0,0,1,176.51,147.44Z" transform="translate(-42.09 -39.21)"/><path d="M171.67,209.09a1.08,1.08,0,0,1-1.13-1,1,1,0,0,1,1-1,1.09,1.09,0,0,1,1.14,1A1,1,0,0,1,171.67,209.09Z" transform="translate(-42.09 -39.21)"/><path d="M154.24,149.76a.94.94,0,0,1-1-.93,1.12,1.12,0,0,1,1.06-1.09,1,1,0,0,1,1,.92A1.21,1.21,0,0,1,154.24,149.76Z" transform="translate(-42.09 -39.21)"/><path d="M147.9,157.07a1,1,0,0,1-1-.94A1.22,1.22,0,0,1,148,155a1,1,0,0,1,.94,1A1.18,1.18,0,0,1,147.9,157.07Z" transform="translate(-42.09 -39.21)"/><path d="M211.44,174.53a.91.91,0,0,1-1,1,1,1,0,0,1-.93-1,.9.9,0,0,1,1-1C211.13,173.53,211.44,173.88,211.44,174.53Z" transform="translate(-42.09 -39.21)"/><path d="M206.12,156.16a1,1,0,0,1-.92,1,1.17,1.17,0,0,1-1.08-1.11,1,1,0,0,1,.9-.93A1.08,1.08,0,0,1,206.12,156.16Z" transform="translate(-42.09 -39.21)"/><path d="M162.41,206.37a1.16,1.16,0,0,1-1.12-1,1,1,0,0,1,.92-1,1.21,1.21,0,0,1,1.16,1A1,1,0,0,1,162.41,206.37Z" transform="translate(-42.09 -39.21)"/><path d="M181.46,141.79a1,1,0,0,1-1.12-1,1,1,0,0,1,1-.94,1,1,0,0,1,1.11,1A.94.94,0,0,1,181.46,141.79Z" transform="translate(-42.09 -39.21)"/><path d="M182.32,208.11a1.06,1.06,0,0,1-1.09,1,1,1,0,0,1-1-1,1,1,0,0,1,1.12-.95A1,1,0,0,1,182.32,208.11Z" transform="translate(-42.09 -39.21)"/><path d="M171.79,139.84a1,1,0,0,1,1,1,1,1,0,0,1-1.09.9,1,1,0,0,1-1-1A1.06,1.06,0,0,1,171.79,139.84Z" transform="translate(-42.09 -39.21)"/><path d="M163.45,143.55a1.07,1.07,0,0,1-1.12,1,1,1,0,0,1-1-1,1.14,1.14,0,0,1,1.18-1A.94.94,0,0,1,163.45,143.55Z" transform="translate(-42.09 -39.21)"/><path d="M199.83,148.87a.94.94,0,0,1-1,.92,1.09,1.09,0,0,1-1.06-1.1.91.91,0,0,1,.93-.9A1.15,1.15,0,0,1,199.83,148.87Z" transform="translate(-42.09 -39.21)"/><path d="M210.11,165a1,1,0,0,1-.92,1,1.11,1.11,0,0,1-1-1.14,1,1,0,0,1,.94-1A1.07,1.07,0,0,1,210.11,165Z" transform="translate(-42.09 -39.21)"/><path d="M144.85,184.05a.94.94,0,0,1-.93,1,1,1,0,0,1-1-1.06.94.94,0,0,1,1-1A1.07,1.07,0,0,1,144.85,184.05Z" transform="translate(-42.09 -39.21)"/><path d="M148.85,192.89a1,1,0,0,1-1,1,1.14,1.14,0,0,1-1-1.17.88.88,0,0,1,1-.88A1.08,1.08,0,0,1,148.85,192.89Z" transform="translate(-42.09 -39.21)"/><path d="M198.66,201.22a1,1,0,0,1-1-.92,1.17,1.17,0,0,1,1.1-1.1.9.9,0,0,1,.93.9A1.1,1.1,0,0,1,198.66,201.22Z" transform="translate(-42.09 -39.21)"/><path d="M190.58,142.56a1.13,1.13,0,0,1,1.12,1,1,1,0,0,1-.95,1,1.16,1.16,0,0,1-1.12-1.05A1,1,0,0,1,190.58,142.56Z" transform="translate(-42.09 -39.21)"/><path d="M144.86,164.77a1,1,0,0,1-1,1.1.93.93,0,0,1-1-1,1,1,0,0,1,1-1.06A.9.9,0,0,1,144.86,164.77Z" transform="translate(-42.09 -39.21)"/><path d="M210.07,184.1a1,1,0,0,1-1,1.08.94.94,0,0,1-.92-1,1.07,1.07,0,0,1,1-1.13A1,1,0,0,1,210.07,184.1Z" transform="translate(-42.09 -39.21)"/><path d="M205,194a1,1,0,0,1-1-.92,1.06,1.06,0,0,1,1-1.11,1,1,0,0,1,1,.87A1.17,1.17,0,0,1,205,194Z" transform="translate(-42.09 -39.21)"/><path d="M191.6,205.39a1.11,1.11,0,0,1-1.17,1,.91.91,0,0,1-.92-.9c-.06-.52.54-1.05,1.12-1.06A1,1,0,0,1,191.6,205.39Z" transform="translate(-42.09 -39.21)"/><path d="M155.22,200.17a.93.93,0,0,1-.94,1,1.13,1.13,0,0,1-1.1-1,.94.94,0,0,1,.9-1A1.17,1.17,0,0,1,155.22,200.17Z" transform="translate(-42.09 -39.21)"/><path d="M199.3,170.38a.91.91,0,0,1-.92,1,.94.94,0,0,1-1-.91,1,1,0,1,1,1.9-.05Z" transform="translate(-42.09 -39.21)"/><path d="M164.92,180.38a.91.91,0,0,1-1,.91,1,1,0,0,1-.93-1,1,1,0,0,1,1-.92A.94.94,0,0,1,164.92,180.38Z" transform="translate(-42.09 -39.21)"/><path class="cls-1" d="M175.43,165.49l-.84-1.21c-.46-.64-1-.82-1.48-.49s-.56.9-.08,1.6c.74,1.09,1.5,2.17,2.22,3.27a1.5,1.5,0,0,1,.29.8c0,4.23,0,8.45,0,12.82-.31-.19-.55-.32-.77-.48a11.66,11.66,0,0,1-4.81-8.37c-.87-7.13,1.89-13,6.62-18.31.93,1.21,1.87,2.31,2.68,3.5a21.45,21.45,0,0,1,4,12.83c-.1,4.08-1.43,7.65-4.8,10.22-.3.23-.62.43-1.06.72,0-1.61,0-3.08,0-4.54a3.39,3.39,0,0,1,.63-2.16c.79-1.16,1.52-2.37,2.27-3.56.39-.64.32-1.17-.17-1.49s-1-.15-1.43.46a13.88,13.88,0,0,1-1.29,1.76v-.71c0-3.91,0-7.82,0-11.73,0-.7-.31-1.12-.87-1.17a1,1,0,0,0-1,1.07c0,1.7,0,3.41,0,5.11Z" transform="translate(-42.09 -39.21)"/><path class="cls-1" d="M187.36,190.92l3.5-3,3.74-3.17c.62-.54.73-1,.32-1.52s-.94-.45-1.55.06l-6.81,5.78-.5.41a7,7,0,0,1,.07-3.28,11.47,11.47,0,0,1,5.45-7,17.41,17.41,0,0,1,9.1-2.62l.38,0a18.43,18.43,0,0,1-2.64,8.51,13.42,13.42,0,0,1-4.67,4.68A8.61,8.61,0,0,1,187.36,190.92Z" transform="translate(-42.09 -39.21)"/><path d="M293.12,40.18a17.45,17.45,0,0,1,1.18,1.54,170.92,170.92,0,0,1,11.87,21.86,33.38,33.38,0,0,1,2.64,8,14.4,14.4,0,0,1-1.94,9.85,16,16,0,0,1-15.54,8.34A16.39,16.39,0,0,1,276.82,78a1.38,1.38,0,1,1,2.63-.8,13.5,13.5,0,0,0,10.18,9.49A13.7,13.7,0,0,0,306,75.91c.56-3.1-.25-5.91-1.34-8.7a137.51,137.51,0,0,0-9.55-18.83c-.8-1.37-1.64-2.73-2.48-4.14a1.46,1.46,0,0,0-.25.24,168.69,168.69,0,0,0-11.28,21.09c-.21.48-.38,1-.58,1.46-.39,1-1.09,1.37-1.89,1a1.38,1.38,0,0,1-.68-2c1.55-3.39,3-6.84,4.74-10.12,2.63-4.88,5.5-9.63,8.29-14.43a10.58,10.58,0,0,1,1-1.3Z" transform="translate(-42.09 -39.21)"/><path d="M261.14,90.29a9.55,9.55,0,0,1-9.53-10.13,14.5,14.5,0,0,1,1.29-4.35,72,72,0,0,1,7-12.23,1.36,1.36,0,0,1,2.38-.07A76.93,76.93,0,0,1,270,77.17,9.44,9.44,0,0,1,263.23,90C262.54,90.13,261.84,90.19,261.14,90.29Zm.06-23.47c-.11.06-.16.06-.18.1-.23.34-.46.68-.67,1a61.35,61.35,0,0,0-5.44,10.21,6.24,6.24,0,0,0-.51,3.52A6.59,6.59,0,0,0,259,87.09a6.37,6.37,0,0,0,7-1.66,6.18,6.18,0,0,0,1.57-6.83,49.08,49.08,0,0,0-4.29-8.5C262.58,69,261.88,67.91,261.2,66.82Z" transform="translate(-42.09 -39.21)"/><path d="M276.15,110.18a8.52,8.52,0,0,1-8.06-7,9.38,9.38,0,0,1,.81-5.38A66,66,0,0,1,275,86.75a1.32,1.32,0,0,1,2.25-.08c2.66,4.1,5.32,8.22,6.78,12.94A8.4,8.4,0,0,1,276.15,110.18Zm0-20.15a61.4,61.4,0,0,0-5.11,9.84,5.84,5.84,0,0,0,2.29,6.64,5,5,0,0,0,3.41.88,5.83,5.83,0,0,0,4.52-7.49A62.54,62.54,0,0,0,276.17,90Z" transform="translate(-42.09 -39.21)"/><path d="M293.06,84.37a5.87,5.87,0,0,1-1-.11,1.37,1.37,0,0,1,.52-2.65,8.29,8.29,0,0,0,8.15-8.07c.05-1,.55-1.51,1.39-1.5s1.34.59,1.35,1.54a10.94,10.94,0,0,1-9.18,10.62Z" transform="translate(-42.09 -39.21)"/><path d="M277.53,73.4A1.37,1.37,0,1,1,278.9,72,1.34,1.34,0,0,1,277.53,73.4Z" transform="translate(-42.09 -39.21)"/><path class="cls-1" d="M261.2,66.82c.68,1.09,1.38,2.17,2,3.28a49.08,49.08,0,0,1,4.29,8.5A6.18,6.18,0,0,1,266,85.43a6.37,6.37,0,0,1-7,1.66,6.59,6.59,0,0,1-4.59-5.42,6.24,6.24,0,0,1,.51-3.52,61.35,61.35,0,0,1,5.44-10.21c.21-.34.44-.68.67-1C261,66.88,261.09,66.88,261.2,66.82Z" transform="translate(-42.09 -39.21)"/><path class="cls-1" d="M276.17,90a62.54,62.54,0,0,1,5.11,9.87,5.83,5.83,0,0,1-4.52,7.49,5,5,0,0,1-3.41-.88,5.84,5.84,0,0,1-2.29-6.64A61.4,61.4,0,0,1,276.17,90Z" transform="translate(-42.09 -39.21)"/><image width="512" height="512" transform="translate(990.1 716.49) scale(0.75)" xlink:href="../../../../../../../Volumes/Data/Downloads/foot.png"/><image width="512" height="512" transform="translate(84.16 944.02) scale(0.75)" xlink:href="../../../../../../../Volumes/Data/Downloads/investment.png"/><image width="512" height="512" transform="translate(697.55 1328.02) scale(0.75)" xlink:href="../../../../../../../Volumes/Data/Downloads/pedicure.png"/><image width="512" height="512" transform="translate(84.16 1525.96) scale(0.75)" xlink:href="../../../../../../../Volumes/Data/Downloads/premium-icon-yin-yang-4742368.png"/><image width="512" height="512" transform="translate(1252.23 1451.51) scale(0.75)" xlink:href="../../../../../../../Volumes/Data/Downloads/slippers.png"/></svg>