<?xml version="1.0" encoding="UTF-8"?>
<svg id="Layer_2" data-name="Layer 2" xmlns="http://www.w3.org/2000/svg" viewBox="0 0 408.87 408.97">
  <defs>
    <style>
      .cls-1 {
        fill: #443e3e;
      }
    </style>
  </defs>
  <g id="Layer_1-2" data-name="Layer 1">
    <path class="cls-1" d="M190.83,0c9.05,0,18.1,0,27.15,0,4.84,.62,9.69,1.16,14.52,1.87,40.21,5.93,76.21,21.62,106.17,49.08,60.26,55.24,82.57,123.44,63.64,203.15-13.69,57.64-48.53,100.75-100.2,129.5-44.21,24.6-91.57,31.07-141.09,20.47-35.06-7.5-65.93-23.49-92.5-47.45C32.31,323.95,10.06,283.52,2.38,235.24c-.91-5.74-1.59-11.51-2.38-17.27,0-9.05,0-18.1,0-27.15,.27-1.27,.61-2.54,.8-3.82,1.24-8.4,1.99-16.9,3.75-25.18,7.56-35.46,23.57-66.75,47.89-93.59C85.08,32.2,125.42,10.03,173.56,2.38,179.3,1.47,185.07,.79,190.83,0ZM91.24,207.57c29.54,29.58,59.22,59.29,89.04,89.15,49.01-44.56,98.31-89.38,147.92-134.49-10.73-11.8-21.35-23.47-32.14-35.33-38.38,34.88-76.53,69.54-114.8,104.33-19.22-19.24-38.09-38.13-56.85-56.91-11.29,11.31-22.36,22.41-33.17,33.24Z"/>
  </g>
</svg>