<svg width="30" height="30" viewBox="0 0 30 30" fill="none" xmlns="http://www.w3.org/2000/svg">
<g clip-path="url(#clip0_1104_671)">
<path d="M25 10.32C24.84 10.92 24.67 11.52 24.51 12.12C24.21 13.28 23.92 14.45 23.62 15.61C23.57 15.82 23.48 16 23.22 15.99C23.03 15.99 22.91 15.88 22.88 15.7C22.86 15.6 22.88 15.49 22.91 15.39C23.34 13.72 23.76 12.04 24.19 10.37C24.33 9.83001 24.22 9.68001 23.64 9.68001C19.53 9.68001 15.42 9.68001 11.31 9.68001C11.22 9.68001 11.13 9.68001 11.04 9.68001C10.83 9.66001 10.72 9.53001 10.72 9.32001C10.72 9.11001 10.84 8.99001 11.04 8.96001C11.12 8.95001 11.2 8.96001 11.28 8.96001C15.36 8.96001 19.45 8.97001 23.53 8.95001C24.21 8.95001 24.71 9.13001 24.98 9.79001V10.33L25 10.32Z" fill="white"/>
<path d="M7.06 9.69C7.22 10.33 7.37 10.93 7.53 11.53C8.08 13.66 8.63 15.79 9.17 17.92C9.3 18.43 9.54 18.62 10.07 18.62C13.84 18.62 17.6 18.62 21.37 18.62C21.89 18.62 22.13 18.43 22.26 17.93C22.32 17.69 22.38 17.46 22.44 17.22C22.51 16.98 22.7 16.87 22.9 16.93C23.11 16.99 23.21 17.18 23.15 17.41C23.09 17.68 23.02 17.95 22.94 18.21C22.74 18.93 22.2 19.34 21.46 19.34C17.11 19.34 12.75 19.34 8.4 19.34C7.85 19.34 7.51 19.67 7.55 20.17C7.57 20.53 7.87 20.83 8.23 20.85C8.34 20.85 8.44 20.85 8.55 20.85C13.38 20.85 18.2 20.85 23.03 20.85C23.59 20.85 24.02 21.16 24.12 21.64C24.26 22.29 23.81 22.87 23.13 22.89C22.85 22.89 22.57 22.89 22.28 22.89C22.65 24.09 22.5 24.8 21.76 25.33C21.13 25.79 20.28 25.8 19.64 25.34C18.9 24.81 18.74 24.1 19.1 22.89H11.36C11.63 23.43 11.71 23.97 11.48 24.52C11.33 24.88 11.1 25.16 10.78 25.37C10.13 25.79 9.29 25.76 8.68 25.29C7.97 24.74 7.82 24.02 8.2 22.88C7.32 22.8 6.59 22.45 6.06 21.73C5.66 21.19 5.49 20.59 5.52 19.92C5.56 18.88 6.38 17.41 8.25 17.27C8.13 16.8 8.01 16.33 7.89 15.86C7.18 13.09 6.46 10.33 5.76 7.56C5.7 7.34 5.62 7.24 5.39 7.27C5.25 7.29 5.11 7.27 4.98 7.27C4.76 7.26 4.56 7.3 4.37 7.43C4.22 7.53 4 7.56 3.81 7.57C2.87 7.58 1.94 7.57 1 7.57C0.35 7.62 0 7.26 0 6.6C0 6.36 0 6.11 0 5.87C0.01 5.39 0.39 5 0.87 5C1.9 5 2.92 5 3.95 5.01C4.12 5.01 4.28 5.11 4.45 5.17C4.57 5.21 4.7 5.29 4.82 5.29C5.23 5.31 5.65 5.29 6.06 5.29C6.81 5.29 7.36 5.72 7.55 6.45C7.75 7.2 7.94 7.96 8.14 8.71C8.16 8.79 8.18 8.86 8.21 8.96C8.57 8.96 8.93 8.96 9.29 8.96C9.57 8.96 9.74 9.1 9.75 9.32C9.75 9.54 9.58 9.69 9.3 9.69C8.65 9.69 8 9.69 7.35 9.69C7.26 9.69 7.18 9.69 7.06 9.69V9.69ZM8.62 18.6C8.58 18.49 8.52 18.4 8.51 18.3C8.48 18.11 8.39 18.07 8.21 18.08C7.2 18.12 6.39 18.88 6.26 19.95C6.15 20.86 6.8 21.84 7.72 22.09C8.25 22.23 8.79 22.21 9.34 22.13C9.64 22.08 9.96 22.13 10.28 22.13C10.4 22.13 10.52 22.17 10.64 22.17C13.71 22.17 16.78 22.17 19.84 22.17C19.95 22.17 20.06 22.14 20.18 22.13C20.48 22.11 20.77 22.09 21.07 22.1C21.33 22.1 21.58 22.16 21.84 22.17C22.21 22.18 22.59 22.17 22.96 22.17C23.04 22.17 23.14 22.18 23.2 22.14C23.28 22.07 23.38 21.96 23.38 21.87C23.38 21.79 23.27 21.68 23.19 21.64C23.1 21.6 22.98 21.62 22.88 21.62C18.12 21.62 13.36 21.62 8.6 21.62C8.46 21.62 8.32 21.62 8.19 21.61C7.44 21.55 6.89 20.98 6.82 20.2C6.76 19.53 7.25 18.85 7.94 18.67C8.16 18.62 8.39 18.62 8.64 18.59L8.62 18.6ZM2.41 6.87C2.88 6.87 3.35 6.87 3.82 6.87C4.01 6.87 4.08 6.8 4.08 6.61C4.08 6.39 4.08 6.17 4.08 5.95C4.08 5.8 4.01 5.73 3.86 5.73C2.89 5.73 1.93 5.73 0.96 5.73C0.81 5.73 0.74 5.81 0.74 5.96C0.74 6.17 0.74 6.38 0.74 6.59C0.73 6.81 0.82 6.87 1.03 6.87C1.49 6.87 1.96 6.87 2.42 6.87H2.41ZM9.79 22.8C9.19 22.8 8.7 23.29 8.7 23.88C8.7 24.47 9.2 24.97 9.79 24.97C10.38 24.97 10.88 24.47 10.88 23.88C10.88 23.28 10.39 22.8 9.79 22.8V22.8ZM19.62 23.87C19.62 24.47 20.09 24.96 20.69 24.97C21.27 24.97 21.78 24.48 21.79 23.89C21.79 23.29 21.31 22.81 20.71 22.8C20.1 22.8 19.63 23.26 19.62 23.87V23.87ZM7.44 8.92C7.23 8.11 7.02 7.31 6.8 6.52C6.73 6.27 6.54 6.08 6.28 6.06C5.8 6.03 5.32 6.06 4.84 6.06V6.57C5.2 6.57 5.54 6.57 5.88 6.57C6.13 6.57 6.29 6.68 6.35 6.94C6.48 7.47 6.62 7.99 6.75 8.52C6.83667 8.84 7.04667 8.98333 7.38 8.95C7.38 8.95 7.39 8.95 7.43 8.93L7.44 8.92Z" fill="white"/>
<path d="M20.14 16.38C19.82 16.38 19.67 16.18 19.73 15.9C19.85 15.35 19.99 14.8 20.13 14.25C20.34 13.39 20.55 12.53 20.76 11.68C20.83 11.38 21.05 11.24 21.29 11.34C21.48 11.42 21.55 11.6 21.48 11.88C21.28 12.69 21.08 13.5 20.88 14.31C20.74 14.88 20.6 15.46 20.46 16.03C20.41 16.23 20.31 16.37 20.14 16.38V16.38Z" fill="white"/>
<path d="M11.67 16.02C11.65 16.21 11.56 16.35 11.35 16.38C11.13 16.41 10.99 16.29 10.94 16.09C10.81 15.6 10.69 15.1 10.57 14.6C10.34 13.67 10.11 12.74 9.89001 11.81C9.83001 11.56 9.94001 11.36 10.15 11.31C10.36 11.26 10.54 11.37 10.6 11.62C10.96 13.05 11.31 14.48 11.66 15.91C11.66 15.94 11.66 15.97 11.67 16.02Z" fill="white"/>
<path d="M14.6 16.03C14.6 16.19 14.48 16.36 14.26 16.38C14.03 16.4 13.89 16.27 13.86 15.99C13.78 15.08 13.71 14.18 13.63 13.27C13.59 12.77 13.55 12.27 13.51 11.77C13.49 11.51 13.61 11.33 13.83 11.31C14.05 11.29 14.22 11.43 14.24 11.69C14.36 13.11 14.47 14.52 14.59 16.04L14.6 16.03Z" fill="white"/>
<path d="M16.79 15.81C16.91 14.43 17.02 13.04 17.14 11.66C17.16 11.42 17.32 11.28 17.54 11.3C17.74 11.32 17.88 11.47 17.87 11.71C17.83 12.38 17.77 13.05 17.72 13.72C17.66 14.47 17.6 15.22 17.53 15.98C17.51 16.24 17.36 16.39 17.13 16.38C16.9 16.37 16.78 16.21 16.79 15.94C16.79 15.9 16.79 15.86 16.79 15.82V15.81Z" fill="white"/>
</g>
<defs>
<clipPath id="clip0_1104_671">
<rect width="25" height="20.71" fill="white" transform="translate(0 5)"/>
</clipPath>
</defs>
</svg>
