<svg xmlns="http://www.w3.org/2000/svg" viewBox="0 0 72 72"><defs><style>.cls-1{fill:none;stroke:#e9511c;stroke-miterlimit:10;stroke-width:2px;stroke-dasharray:2 2;}.cls-2{fill:#e9511c;}</style></defs><g id="Layer_2" data-name="Layer 2"><g id="Layer_1-2" data-name="Layer 1"><circle class="cls-1" cx="36" cy="36" r="35"/><path class="cls-2" d="M18.74,57.5l-.18-.09a2.68,2.68,0,0,1-2-2.21,2.62,2.62,0,0,1,1-2.65,12.79,12.79,0,0,0,3.71-4.85c.53-1.26.91-2.58,1.37-3.87s.84-2.37,1.23-3.44A15.2,15.2,0,0,1,21.81,39a5,5,0,0,1-.46-6.75.75.75,0,0,0,.15-.55A4.44,4.44,0,0,1,29,27.44a2,2,0,0,1,.18.28c.27-.94.51-1.76.75-2.57a4,4,0,0,1,.17-.52.81.81,0,0,1,1-.51.78.78,0,0,1,.65.9,12.19,12.19,0,0,1-.38,1.47c-.27,1-.56,1.93-.85,2.93.37.06.7.1,1,.17a4.76,4.76,0,0,1-.4,9.36,8.65,8.65,0,0,1-1.76-.07.61.61,0,0,0-.6.16,4.77,4.77,0,0,1-2.74,1.33.46.46,0,0,0-.43.37c-.7,2-1.44,4-2.11,6a15.25,15.25,0,0,1-4.63,6.93c-.36.31-.7.61-.64,1.13a1.07,1.07,0,0,0,1.17,1,10.8,10.8,0,0,0,8.69-4.43,27.08,27.08,0,0,1,3.17-3.76.87.87,0,0,0,.14-.57,5.42,5.42,0,0,1,3.88-5.38,5.15,5.15,0,0,1,4.06.44A.5.5,0,0,0,40,42a4.75,4.75,0,0,0,.83-6.77,6.77,6.77,0,0,1-1.38-5.54A15.86,15.86,0,0,1,41.3,24.3c1.74-3.23,3.43-6.48,5.17-9.7a1.26,1.26,0,0,1,.68-.61,1.09,1.09,0,0,1,.82.27.77.77,0,0,1,.09,1l-1.87,3.52c-1.31,2.48-2.64,4.94-3.92,7.44a11.24,11.24,0,0,0-1.19,5.2,4,4,0,0,0,1,2.61,6.34,6.34,0,0,1,1.53,4.47A6.7,6.7,0,0,1,42.94,41c-.06.13-.12.25-.16.35a14.84,14.84,0,0,1,1.79.22,5.37,5.37,0,0,1,4.16,5.76.59.59,0,0,0,.24.41,5.39,5.39,0,0,1,.72,8.08,5.29,5.29,0,0,1-2.9,1.57,1.57,1.57,0,0,0-.23.09H45l-2-.74a.33.33,0,0,0-.24,0l-2,.74H39.32c-.66-.25-1.33-.51-2-.75a.37.37,0,0,0-.21,0l-2,.75H33.62a.64.64,0,0,0-.19-.08,5.34,5.34,0,0,1-4.28-3.93c0-.14-.08-.29-.13-.48l-.27.29a12.54,12.54,0,0,1-6.32,3.81c-.66.17-1.33.26-2,.39Zm12-5.38a3.67,3.67,0,0,0,5.81,3c.61-.42.81-.43,1.4,0a3.63,3.63,0,0,0,4.32,0c.61-.43.81-.43,1.41,0a3.5,3.5,0,0,0,2.35.7,3.67,3.67,0,0,0,1.51-6.91c-.59-.32-.67-.59-.58-1.25a4.72,4.72,0,0,0,0-1.59,3.64,3.64,0,0,0-6.07-1.87c-.59.54-1,.55-1.51,0a3.66,3.66,0,0,0-6.13,3.38c.15.8.07.94-.61,1.34A3.61,3.61,0,0,0,30.7,52.12Zm-.37-14.8a7.76,7.76,0,0,0,.85-.11,3.05,3.05,0,1,0-1.44-5.93c-.82.18-1.23-.13-1.29-1a2.61,2.61,0,0,0-1.81-2.43,2.56,2.56,0,0,0-2.89.75,2.59,2.59,0,0,0-.43,3c.28.65.23.86-.29,1.38a3.18,3.18,0,0,0-.92,3.3,3.14,3.14,0,0,0,2.6,2.38A3.2,3.2,0,0,0,28,37.41,1,1,0,0,1,29.27,37,10,10,0,0,0,30.33,37.32Z"/><path class="cls-2" d="M52.27,33.08A3.24,3.24,0,1,1,49,36.3,3.22,3.22,0,0,1,52.27,33.08Zm0,4.76a1.53,1.53,0,1,0-1.52-1.52A1.55,1.55,0,0,0,52.25,37.84Z"/><path class="cls-2" d="M54.13,25.66a2.73,2.73,0,1,1-2.71-2.74A2.73,2.73,0,0,1,54.13,25.66Zm-2.71,1a1,1,0,0,0,1-1,1,1,0,0,0-2,0A1,1,0,0,0,51.42,26.65Z"/><path class="cls-2" d="M33.18,18.45a.87.87,0,0,1-1-1c.26-1,.54-1.93.84-2.89a.85.85,0,0,1,1-.57A.87.87,0,0,1,34.7,15c-.26.94-.54,1.87-.82,2.8A.79.79,0,0,1,33.18,18.45Z"/><path class="cls-2" d="M32,22.12a.81.81,0,0,1-.83-.87.86.86,0,0,1,.83-.84.88.88,0,0,1,.87.87A.84.84,0,0,1,32,22.12Z"/></g></g></svg>