<svg xmlns="http://www.w3.org/2000/svg" viewBox="0 0 72 72"><defs><style>.cls-1{fill:none;stroke:#e9511c;stroke-miterlimit:10;stroke-width:2px;stroke-dasharray:2 2;}.cls-2{fill:#e9511c;}</style></defs><g id="Layer_2" data-name="Layer 2"><g id="Layer_1-2" data-name="Layer 1"><circle class="cls-1" cx="36" cy="36" r="35"/><path class="cls-2" d="M56.54,36.88,56.3,39.1a35.57,35.57,0,0,1-3.47,12,7.53,7.53,0,0,1-14.27-2,13.14,13.14,0,0,1,.22-3.54,32.39,32.39,0,0,0,.24-7,53.65,53.65,0,0,0-1.34-7.22,18.24,18.24,0,0,1-.46-6.16,9.29,9.29,0,0,1,5.88-7.87,9.67,9.67,0,0,1,13.25,7c.07.3.12.61.19.92ZM40,45.4l.66-.14A6.63,6.63,0,0,0,43.22,44c.37-.29.67-.29.93,0s.21.67-.16,1a7.56,7.56,0,0,1-3.73,1.62c-.32,0-.47.18-.48.49a17.22,17.22,0,0,0,0,1.76,6.29,6.29,0,0,0,11.95,1.76,35.67,35.67,0,0,0,3.6-15.88c0-2.77,0-5.53,0-8.3a9.4,9.4,0,0,0-.09-1.4A8.43,8.43,0,0,0,46,17.79a8.16,8.16,0,0,0-7.2,5.75c-.87,2.45-.35,4.92,0,7.37.55.05,1,.06,1.53.14a7.89,7.89,0,0,1,5.57,11.66c-.33.57-.62.71-1,.5s-.39-.54-.07-1.11a6.64,6.64,0,0,0-3.06-9.35,6.52,6.52,0,0,0-2.69-.57A32.41,32.41,0,0,1,40,45.4Z"/><path class="cls-2" d="M33.2,30.89a21.53,21.53,0,0,0,.42-5.32A8.41,8.41,0,0,0,27.39,18a8.26,8.26,0,0,0-5.88.54l-.18.08a.61.61,0,0,1-.89-.24.6.6,0,0,1,.35-.85,9.35,9.35,0,0,1,2.95-.95,9.72,9.72,0,0,1,10.54,6.23,11.65,11.65,0,0,1,.58,4.65,38,38,0,0,1-1.2,6.8A29.16,29.16,0,0,0,33,43.6c.11,1.15.27,2.3.43,3.45a7.41,7.41,0,0,1-4.94,8,7.56,7.56,0,0,1-9.27-3.82A34.07,34.07,0,0,1,15.9,40.38a49.93,49.93,0,0,1-.39-5.47c-.07-3,0-5.93,0-8.89a9.47,9.47,0,0,1,3-6.82.64.64,0,0,1,.8-.19.57.57,0,0,1,.3.68,1,1,0,0,1-.25.39,8.64,8.64,0,0,0-2.63,6.49c0,2.71,0,5.42,0,8.14a35.59,35.59,0,0,0,3.62,15.92,6.29,6.29,0,0,0,11.94-1.85,16.26,16.26,0,0,0,0-1.71c0-.3-.14-.44-.45-.48a7.86,7.86,0,0,1-.42-15.47C32,31,32.56,31,33.2,30.89Zm-.28,1.27a6.5,6.5,0,0,0-5.55,3.08A6.64,6.64,0,0,0,32,45.39,32.47,32.47,0,0,1,32.92,32.16Z"/><path class="cls-2" d="M22.84,42.41a2.07,2.07,0,1,1-2.05,2.07A2.09,2.09,0,0,1,22.84,42.41Zm.85,2.05a.84.84,0,1,0-.82.85A.82.82,0,0,0,23.69,44.46Z"/><path class="cls-2" d="M23.19,50.36a2.08,2.08,0,0,1,2-2.07,2.07,2.07,0,1,1-2,2.07Zm2.07-.83a.84.84,0,0,0-.85.83.87.87,0,0,0,.84.85.84.84,0,0,0,.83-.84A.8.8,0,0,0,25.26,49.53Z"/><path class="cls-2" d="M24.48,22.56a2.06,2.06,0,1,1-4.11,0,2.06,2.06,0,1,1,4.11,0Zm-2.05-.84a.84.84,0,0,0-.85.83.87.87,0,0,0,.85.84.86.86,0,0,0,.84-.84A.82.82,0,0,0,22.43,21.72Z"/><path class="cls-2" d="M22.86,32.68a2.06,2.06,0,0,1-2,2.09,2.07,2.07,0,0,1,0-4.14A2,2,0,0,1,22.86,32.68Zm-2.06.85a.85.85,0,0,0,.86-.82.86.86,0,0,0-.84-.85.84.84,0,0,0-.85.83A.82.82,0,0,0,20.8,33.53Z"/><path class="cls-2" d="M30.8,22.55a2.06,2.06,0,1,1-4.12,0,2.06,2.06,0,1,1,4.12,0Zm-2.89,0a.84.84,0,0,0,.84.83.88.88,0,0,0,.84-.85.85.85,0,0,0-.86-.82A.8.8,0,0,0,27.91,22.56Z"/><path class="cls-2" d="M18.91,38.61a2.07,2.07,0,0,1,2-2.09,2.07,2.07,0,0,1,0,4.13A2.06,2.06,0,0,1,18.91,38.61ZM21,37.75a.85.85,0,0,0-.85.83.88.88,0,0,0,.84.86.89.89,0,0,0,.85-.85A.87.87,0,0,0,21,37.75Z"/><path class="cls-2" d="M25.18,28.68a2.45,2.45,0,0,1-1.71-.75.62.62,0,0,1,0-.89.6.6,0,0,1,.89,0,1.15,1.15,0,0,0,1.74,0,.61.61,0,1,1,.84.87A2.41,2.41,0,0,1,25.18,28.68Z"/><path class="cls-2" d="M20.77,27a4.51,4.51,0,0,1,0,.52.58.58,0,0,1-.6.57.55.55,0,0,1-.61-.55,8.85,8.85,0,0,1,0-1,.58.58,0,0,1,.59-.59.62.62,0,0,1,.62.6,3.85,3.85,0,0,1,0,.48Z"/><path class="cls-2" d="M30.81,27.05a3.65,3.65,0,0,1,0,.47.57.57,0,0,1-.59.57.59.59,0,0,1-.6-.57,9,9,0,0,1,0-1,.6.6,0,0,1,.6-.57.59.59,0,0,1,.59.58A5.19,5.19,0,0,1,30.81,27.05Z"/><path class="cls-2" d="M51.24,44.48a2.08,2.08,0,1,1-2.06-2.07A2.09,2.09,0,0,1,51.24,44.48Zm-2.06.83a.82.82,0,0,0,.82-.85.85.85,0,0,0-.85-.83.83.83,0,0,0-.81.86A.81.81,0,0,0,49.18,45.31Z"/><path class="cls-2" d="M48.84,50.37a2.07,2.07,0,1,1-2.05-2.08A2.09,2.09,0,0,1,48.84,50.37Zm-2.9,0a.85.85,0,0,0,.83.85.87.87,0,0,0,.85-.84.85.85,0,0,0-.84-.84A.81.81,0,0,0,45.94,50.36Z"/><path class="cls-2" d="M51.65,22.56a2.06,2.06,0,1,1-4.11,0,2.06,2.06,0,1,1,4.11,0Zm-2-.84a.81.81,0,0,0-.85.82.84.84,0,0,0,.83.85.87.87,0,0,0,.85-.83A.83.83,0,0,0,49.61,21.72Z"/><path class="cls-2" d="M49.16,32.68a2.06,2.06,0,1,1,4.11,0,2.06,2.06,0,1,1-4.11,0Zm2.05.85a.82.82,0,0,0,.84-.83.84.84,0,0,0-.83-.84.84.84,0,1,0,0,1.67Z"/><path class="cls-2" d="M43.26,24.61a2.07,2.07,0,0,1,0-4.14,2.07,2.07,0,1,1,0,4.14Zm0-2.89a.85.85,0,0,0-.84.84.88.88,0,0,0,.86.83.85.85,0,0,0,.83-.86A.81.81,0,0,0,43.27,21.72Z"/><path class="cls-2" d="M49,38.58a2.06,2.06,0,1,1,2,2.07A2,2,0,0,1,49,38.58Zm2.89,0a.84.84,0,0,0-.83-.85.87.87,0,0,0-.86.83.9.9,0,0,0,.84.86A.87.87,0,0,0,51.89,38.6Z"/><path class="cls-2" d="M46.83,28.68a2.45,2.45,0,0,1-1.73-.78.6.6,0,0,1,0-.86.59.59,0,0,1,.86,0,1.16,1.16,0,0,0,1.8,0,.59.59,0,0,1,.86,0,.6.6,0,0,1,0,.86A2.36,2.36,0,0,1,46.83,28.68Z"/><path class="cls-2" d="M52.5,27c0,.18,0,.37,0,.55a.61.61,0,0,1-1.2,0,6.49,6.49,0,0,1,0-1.08.61.61,0,0,1,.62-.57.58.58,0,0,1,.59.58,4.47,4.47,0,0,1,0,.52Z"/><path class="cls-2" d="M42.42,27c0,.17,0,.35,0,.52a.61.61,0,0,1-.62.56.57.57,0,0,1-.58-.58,8.34,8.34,0,0,1,0-1,.59.59,0,0,1,.6-.6.61.61,0,0,1,.6.62c0,.16,0,.32,0,.48Z"/></g></g></svg>