<svg xmlns="http://www.w3.org/2000/svg" viewBox="0 0 72 72"><defs><style>.cls-1{fill:none;stroke:#e9511c;stroke-miterlimit:10;stroke-width:2px;stroke-dasharray:2 2;}.cls-2{fill:#e9511c;}</style></defs><g id="Layer_2" data-name="Layer 2"><g id="Layer_1-2" data-name="Layer 1"><circle class="cls-1" cx="36" cy="36" r="35"/><path class="cls-2" d="M49,37.77a13,13,0,0,0-12.81-13l2.64-4.57a1,1,0,0,0-.36-1.36h0l-2.6-1.5,1.5-2.59A1,1,0,0,0,37,13.37a1,1,0,0,0-1.38.34l0,0-1.5,2.59-2.59-1.5a1,1,0,0,0-1.37.37l-9,15.59a1,1,0,0,0,.36,1.36h0l6.93,4a1,1,0,0,0,1.36-.36h0l5.21-9h1a11,11,0,1,1-8.46,18H32a1,1,0,0,0,0-2H20a1,1,0,0,0,0,2h5.07A13,13,0,0,0,35,50.7v4.07H28a1,1,0,0,0,0,2H44a1,1,0,0,0,0-2H37V50.72A13,13,0,0,0,49,37.77ZM28.6,33.93l-5.2-3,8-13.86,5.2,3Z"/></g></g></svg>