<svg xmlns="http://www.w3.org/2000/svg" viewBox="0 0 72 72"><defs><style>.cls-1,.cls-2{fill:none;stroke:#e9511c;stroke-width:2px;}.cls-1{stroke-miterlimit:10;stroke-dasharray:2 2;}.cls-2{stroke-linecap:round;stroke-linejoin:round;}</style></defs><g id="Layer_2" data-name="Layer 2"><g id="Layer_1-2" data-name="Layer 1"><circle class="cls-1" cx="36" cy="36" r="35"/><path class="cls-2" d="M31.43,20.59A4.56,4.56,0,1,1,26.87,16,4.57,4.57,0,0,1,31.43,20.59Z"/><path class="cls-2" d="M26.87,42.28V53.69a2.28,2.28,0,0,1-4.56,0V40a2.29,2.29,0,1,1-4.57,0V30.87a4.56,4.56,0,0,1,4.57-4.57,6.4,6.4,0,0,0,2.09,1.4,6.47,6.47,0,0,0,4.94,0,6.4,6.4,0,0,0,2.09-1.4A4.56,4.56,0,0,1,36,30.87V40a2.29,2.29,0,1,1-4.57,0v13.7a2.28,2.28,0,0,1-4.56,0Z"/><path class="cls-2" d="M49.7,20.59A4.57,4.57,0,1,1,45.13,16,4.58,4.58,0,0,1,49.7,20.59Z"/><polygon class="cls-2" points="38.28 42.28 40.57 37.14 40.57 33.15 40.57 37.14 38.28 42.28"/><polygon class="cls-2" points="51.98 42.28 49.7 37.14 49.7 37.14 51.98 42.28"/><path class="cls-2" d="M38.28,42.28A2.28,2.28,0,0,1,36,40V30.86a4.56,4.56,0,0,1,4.57-4.56,6.51,6.51,0,0,0,2.09,1.4,6.47,6.47,0,0,0,4.94,0,6.4,6.4,0,0,0,2.09-1.4,4.56,4.56,0,0,1,4.57,4.56V40A2.28,2.28,0,0,1,52,42.28h0l2.28,5.13H49.69v6.28a2.28,2.28,0,0,1-4.56,0v0a2.28,2.28,0,0,1-4.56,0V47.41H36Z"/></g></g></svg>