<svg xmlns="http://www.w3.org/2000/svg" viewBox="0 0 72 72"><defs><style>.cls-1{fill:none;stroke:#e9511c;stroke-miterlimit:10;stroke-width:2px;stroke-dasharray:2 2;}.cls-2{fill:#e9511c;}</style></defs><g id="Layer_2" data-name="Layer 2"><g id="Layer_1-2" data-name="Layer 1"><circle class="cls-1" cx="36" cy="36" r="35"/><path class="cls-2" d="M57.79,53.14a3.66,3.66,0,0,1-2,2.18,3.61,3.61,0,0,1-3.08,0l-.31-.15h0a2.37,2.37,0,0,1-4.21.9c-1.53.59-2.25.46-3.22-.6a2.37,2.37,0,0,1-3.24-.59,2.33,2.33,0,0,1-1.87.33,2.3,2.3,0,0,1-1.72-1.8.93.93,0,0,0-.39-.54c-2.49-1.48-5-2.93-7.5-4.39a3.38,3.38,0,0,1-.55-.34.6.6,0,0,1-.16-.84.62.62,0,0,1,.78-.28,2.19,2.19,0,0,1,.3.16c2.77,1.61,5.53,3.23,8.3,4.83a.91.91,0,0,1,.53.93.91.91,0,0,0,.84,1,1,1,0,0,0,1.08-.82,3,3,0,0,0-.4-2.07,1.06,1.06,0,0,1-.12-.71A.65.65,0,0,1,41.3,50a1,1,0,0,1,.68.33,4,4,0,0,1,.67,3,1,1,0,1,0,2,.25A4.49,4.49,0,0,0,44.18,51a.69.69,0,0,1,.26-1c.36-.16.72,0,.93.45a5.47,5.47,0,0,1,.53,3.26,2.22,2.22,0,0,0,0,.77,1,1,0,0,0,.95.67,1,1,0,0,0,.92-.77,5.77,5.77,0,0,0-.31-3.21c0-.11-.09-.21-.12-.32a.66.66,0,0,1,.35-.86.65.65,0,0,1,.85.37,6.91,6.91,0,0,1,.56,4c-.1.72.2,1.23.82,1.31s1-.33,1.13-1a7.26,7.26,0,0,0-.44-3.72c-.17-.46,0-.84.33-1a.65.65,0,0,1,.89.5A17.33,17.33,0,0,1,52.41,53,1.06,1.06,0,0,0,53,54a2.38,2.38,0,0,0,3-.38,1.34,1.34,0,0,0-.32-2.28,30.14,30.14,0,0,1-9.79-8.87,2.59,2.59,0,0,1-.25-.39.59.59,0,0,1,.21-.8.59.59,0,0,1,.79,0,1.81,1.81,0,0,1,.28.33A28.53,28.53,0,0,0,56,50,3.5,3.5,0,0,1,57.79,52Z"/><path class="cls-2" d="M57.79,36.06a.93.93,0,0,1-.92.42c-.25,0-.51,0-.81,0,0,.62,0,1.21,0,1.79s-.26.8-.65.79-.64-.31-.64-.8V36.48c-.33,0-.64,0-1,0-.49,0-.78-.26-.77-.67s.26-.64.74-.65h1V33.35c0-.49.25-.78.66-.77s.63.28.63.75,0,1.18,0,1.77c.59.17,1.29-.18,1.73.44Z"/><path class="cls-2" d="M16.67,36.94A6.88,6.88,0,0,1,18,32.84c.81-1.09,1.61-2.2,2.44-3.28a.61.61,0,0,0,.06-.82Q17.19,23,13.89,17.26a1.68,1.68,0,0,1-.22-.42.65.65,0,0,1,1.1-.64,2.74,2.74,0,0,1,.23.36q3.48,6,7,12a1,1,0,0,1-.07,1.25c-.93,1.21-1.82,2.44-2.73,3.66a5.24,5.24,0,0,0,1.63,7.94l7.13,4.16c.13.08.26.14.37.22a.64.64,0,0,1,.24.87.66.66,0,0,1-.89.26c-.29-.14-.55-.31-.82-.47-2.29-1.33-4.58-2.64-6.84-4A6.48,6.48,0,0,1,16.67,36.94Z"/><path class="cls-2" d="M31.69,15.91a3.86,3.86,0,0,1,.56.58c1.24,2.12,2.46,4.25,3.69,6.37L45.3,39.08a4.59,4.59,0,0,1,.26.49.59.59,0,0,1-.25.79.61.61,0,0,1-.82-.11,1.51,1.51,0,0,1-.22-.32L31.13,17.16c-.3-.51-.24-.91.16-1.11A2.06,2.06,0,0,1,31.69,15.91Z"/><path class="cls-2" d="M39.41,42.53h-.88c-.56,0-.84-.21-.84-.64s.27-.66.85-.66h.87c0-.62,0-1.21,0-1.79s.22-.79.63-.79.67.27.67.81v1.77h1a.65.65,0,0,1,.71.64c0,.39-.28.65-.73.66h-.91l-.08.06v1.71c0,.51-.24.79-.64.8s-.66-.27-.66-.77S39.41,43.17,39.41,42.53Z"/><path class="cls-2" d="M15.36,50.54h-1a.66.66,0,0,1-.73-.67c0-.38.26-.62.71-.64h1c0-.64,0-1.23,0-1.81s.24-.78.66-.77.63.28.63.75v1.83h.87c.58,0,.86.23.85.67s-.29.64-.84.64h-.88c0,.64,0,1.27,0,1.89a.86.86,0,0,1-.37.6.68.68,0,0,1-.62-.05.84.84,0,0,1-.27-.58C15.33,51.8,15.36,51.2,15.36,50.54Z"/><path class="cls-2" d="M44,25.79a1.94,1.94,0,1,1-3.88,0,1.94,1.94,0,1,1,3.88,0Zm-1.92.62a.65.65,0,0,0,.62-.64.64.64,0,0,0-.66-.6.62.62,0,0,0-.62.63A.64.64,0,0,0,42.07,26.41Z"/><path class="cls-2" d="M24,46.74A1.92,1.92,0,0,1,26,48.66a2,2,0,0,1-1.91,2,2,2,0,0,1-2-2A2,2,0,0,1,24,46.74Zm0,1.31a.61.61,0,0,0-.64.61.63.63,0,0,0,.6.65.63.63,0,1,0,0-1.26Z"/><path class="cls-2" d="M23.81,31.62a4.18,4.18,0,0,1,.78-2.46.65.65,0,0,1,.92-.25.64.64,0,0,1,.17,1,3,3,0,0,0,.87,4.33.64.64,0,0,1,.26.95c-.22.34-.57.38-1,.14A4.29,4.29,0,0,1,23.81,31.62Z"/></g></g></svg>