<svg xmlns="http://www.w3.org/2000/svg" viewBox="0 0 72 72"><defs><style>.cls-1{fill:none;stroke:#e9511c;stroke-miterlimit:10;stroke-width:2px;stroke-dasharray:2 2;}.cls-2{fill:#e9511c;}</style></defs><g id="Layer_2" data-name="Layer 2"><g id="Layer_1-2" data-name="Layer 1"><circle class="cls-1" cx="36" cy="36" r="35"/><path class="cls-2" d="M47.08,35.41V53.27c0,.64-.16.8-.79.8H38a1,1,0,0,1-.77-.32c-.37-.4-.76-.79-1.19-1.23-.42.44-.81.84-1.19,1.25a.88.88,0,0,1-.7.3H25.68c-.58,0-.76-.17-.76-.75V35.41H18.68c-.58,0-.76-.17-.76-.75V25.8a4.07,4.07,0,0,1,2.94-3.94c2.31-.69,4.63-1.36,6.94-2a3.59,3.59,0,0,0,.72-.32c.79-.46,1.56-.94,2.35-1.4a1.3,1.3,0,0,1,.61-.17h9a1,1,0,0,1,.58.15,19,19,0,0,0,6.58,2.76c1.22.33,2.42.69,3.62,1.08a4,4,0,0,1,2.78,3.87v8.86c0,.58-.18.76-.75.76H47.08Zm-21-7.56V38.91c.34,0,.64,0,.94,0a4.53,4.53,0,0,0,2.89-.83,2,2,0,0,1,1-.32A2,2,0,0,1,33,39a2,2,0,0,1-.59,2.37c-.41.36-.85.69-1.28,1-.23.18-.4.39-.28.71a.62.62,0,0,0,.68.43h1.35a2,2,0,0,1,0,4.08H30.74A8.23,8.23,0,0,0,26.31,49a1.75,1.75,0,0,0-.31.39h9.38V24.6l-1.15,1.17c-.44.44-.69.44-1.13,0-1.54-1.54-3.08-3.07-4.61-4.62a.49.49,0,0,0-.57-.14l-6.51,1.93A3,3,0,0,0,19.09,26v5.85h5.84v-4ZM45.91,42.41c0-.65,0-1.27,0-1.89a.42.42,0,0,0-.18-.24A7.5,7.5,0,0,0,42.11,39c-1-.07-1.91-.06-2.87-.08a2,2,0,1,1,0-4.08H40.5a.63.63,0,0,0,.71-.44.62.62,0,0,0-.3-.71c-.46-.37-.93-.71-1.36-1.1a2.06,2.06,0,0,1,.57-3.4,2,2,0,0,1,2.12.26,5.38,5.38,0,0,0,3.68.71V27.86H47.1v4h5.81V26a2.93,2.93,0,0,0-2.27-3L44.06,21a.47.47,0,0,0-.54.14c-1.5,1.52-3,3-4.53,4.54-.57.57-.75.57-1.32,0-.34-.35-.68-.69-1.07-1.07V49.39h9.28V48.24H44.69A1.73,1.73,0,0,1,43,46.65c0-.55-.23-.73-.77-.74a8.67,8.67,0,0,1-1.35,0,1.74,1.74,0,0,1-1.38-1.94,1.77,1.77,0,0,1,1.77-1.52Zm0-11.08h-.54a5.69,5.69,0,0,1-4-1,.91.91,0,0,0-.59-.11.82.82,0,0,0-.72.64.87.87,0,0,0,.3.91l1.34,1.07A1.77,1.77,0,0,1,40.61,36H39.37a.89.89,0,1,0,0,1.75h1.93a9.22,9.22,0,0,1,4.3,1.07l.33.16ZM26.1,40.08v7.64l.37-.18a9.15,9.15,0,0,1,4.16-1h2.08a.87.87,0,1,0,0-1.74H31.44a1.77,1.77,0,0,1-1.13-3.2c.42-.34.86-.67,1.27-1a.86.86,0,0,0,.11-1.29.89.89,0,0,0-1.24-.08,4.94,4.94,0,0,1-3.08.93Zm0,12.83c2.2,0,4.36,0,6.52,0A2.69,2.69,0,0,0,35,52a1.53,1.53,0,0,0,.4-1.36H26.1Zm10.52-2.32A1.22,1.22,0,0,0,37,52a4.46,4.46,0,0,1,.72.72.66.66,0,0,0,.57.23H45.9V50.59ZM29.45,20.33l4.21,4.21,1.39-1.39-3.87-3.87Zm7.47,2.8,1.43,1.42,4.22-4.22-1.78-1.06Zm9,24v-3.5h-4.6a.6.6,0,0,0-.62.59.61.61,0,0,0,.64.57h.94a1.74,1.74,0,0,1,1.92,1.73.59.59,0,0,0,.61.59C45.14,47.09,45.5,47.08,45.89,47.08Zm-13-28L36,22.2l3.1-3.1ZM19.1,34.22h5.79V33.1H19.1Zm28,0h5.78V33.1H47.1Z"/><path class="cls-2" d="M28.28,36.43l-.85-.87c.39-.39.79-.8,1.2-1.19a3.09,3.09,0,0,0,1-2.25,3.72,3.72,0,0,1,.95-2.53c.48-.55,1-1,1.59-1.53l.75.87c-.26.25-.59.57-.93.87a3.44,3.44,0,0,0-1.22,2.73,3.16,3.16,0,0,1-.72,2C29.47,35.21,28.87,35.8,28.28,36.43Z"/><path class="cls-2" d="M43.15,24.2l.88-.85,1.19,1.2a3,3,0,0,0,2.25.95,3.65,3.65,0,0,1,2.39.85c.6.5,1.14,1.07,1.73,1.63l-.88.83c-.35-.35-.73-.72-1.09-1.11a3.2,3.2,0,0,0-2.43-1A3.35,3.35,0,0,1,45.11,26C44.42,25.44,43.8,24.8,43.15,24.2Z"/></g></g></svg>