<svg width="40" height="40" viewBox="0 0 40 40" fill="none" xmlns="http://www.w3.org/2000/svg">
<circle cx="20" cy="20" r="20" fill="#F46440"/>
<path d="M24.9025 12.0015H11V27.0015H14.8695V22.1214H22.2841L25.6671 27.0015H30L26.2695 22.099C27.2402 22.0189 28.1398 21.5581 28.772 20.8171C29.3548 19.8589 29.6223 18.742 29.5366 17.6237V16.4993C29.554 15.8082 29.4681 15.1184 29.2817 14.4527C29.1172 13.9354 28.8312 13.4651 28.4476 13.081C28.0359 12.7011 27.5454 12.4169 27.011 12.2489C26.3227 12.0708 25.6133 11.9876 24.9025 12.0015V12.0015ZM24.2769 18.8156H14.8695V15.3073H24.2769C24.6571 15.2705 25.039 15.3573 25.3659 15.5547C25.4761 15.6707 25.56 15.8091 25.612 15.9605C25.664 16.1118 25.6828 16.2726 25.6671 16.4318V17.6912C25.6846 17.854 25.6668 18.0186 25.6148 18.1739C25.5628 18.3291 25.4779 18.4713 25.3659 18.5907C25.0357 18.7785 24.6545 18.8573 24.2769 18.8156V18.8156Z" fill="white"/>
<path d="M31.62 12.2524C32.1397 12.2536 32.648 12.1006 33.0807 11.8128C33.5134 11.5249 33.851 11.1152 34.0507 10.6355C34.2504 10.1557 34.3033 9.62746 34.2027 9.11763C34.102 8.60779 33.8524 8.13927 33.4854 7.77138C33.1183 7.40348 32.6504 7.15275 32.1408 7.05092C31.6312 6.94908 31.1028 7.00073 30.6226 7.19932C30.1424 7.39791 29.7319 7.73451 29.443 8.16651C29.1542 8.59852 29 9.10651 29 9.62618C28.9996 9.97066 29.067 10.3118 29.1984 10.6303C29.3299 10.9487 29.5228 11.2381 29.766 11.482C30.0093 11.7258 30.2983 11.9194 30.6164 12.0516C30.9345 12.1837 31.2755 12.252 31.62 12.2524V12.2524Z" fill="white"/>
</svg>
