<svg xmlns="http://www.w3.org/2000/svg" viewBox="0 0 72 72"><defs><style>.cls-1{fill:#e9511c;}.cls-2{fill:none;stroke:#e9511c;stroke-miterlimit:10;stroke-width:2px;stroke-dasharray:2 2;}</style></defs><g id="Layer_2" data-name="Layer 2"><g id="Layer_1-2" data-name="Layer 1"><path class="cls-1" d="M59.85,52.19a3.57,3.57,0,0,1-2.78,2.91,7.87,7.87,0,0,1-1.92.32q-5.77,0-11.55,0a4.73,4.73,0,0,1-2.76-1.1,16.24,16.24,0,0,1-3.08-3.28c-.65-.85-1.28-1.72-1.94-2.55a11.85,11.85,0,0,0-4-3.21,20.27,20.27,0,0,1-4.19-2.58,7.9,7.9,0,0,1-2.77-6.65A7.45,7.45,0,0,1,27,31.22c1.12-1.23,2.3-2.4,3.4-3.63a19.56,19.56,0,0,0,4.51-8.89,2.6,2.6,0,0,1,2.74-2.16c3,.06,6,.08,9,0a2.46,2.46,0,0,1,2.3,3.66,34.82,34.82,0,0,0-3,8.58,17.61,17.61,0,0,0,2.2,13.34,27.45,27.45,0,0,0,3.49,4.81l.67.64a2.5,2.5,0,0,0,1.88.74,16.07,16.07,0,0,1,2.5.16c1.49.2,2.75.74,3.26,2.32ZM49.39,53.86h0c1.75,0,3.51,0,5.26,0a9.18,9.18,0,0,0,2.53-.51,1.69,1.69,0,0,0,1.07-1.91c-.08-.66-.51-1.11-1.41-1.25a16.18,16.18,0,0,0-2.69-.22,4.08,4.08,0,0,1-2.73-1,13.24,13.24,0,0,1-1-.93,26.9,26.9,0,0,1-4.46-6.48A18.49,18.49,0,0,1,44,29.77,37,37,0,0,1,47.4,19.55c.43-.89.12-1.4-.87-1.4H37.59c-.75,0-1,.16-1.13.89a21.79,21.79,0,0,1-5.31,10.11C30.08,30.28,29,31.39,28,32.54A6.38,6.38,0,0,0,29,41.75a19.32,19.32,0,0,0,3,1.81,15.88,15.88,0,0,1,6.28,5.52,19.31,19.31,0,0,0,3.2,3.73,4.21,4.21,0,0,0,2.9,1.06C46.07,53.84,47.73,53.86,49.39,53.86Z"/><path class="cls-1" d="M12.15,34.7c.12-.73.23-1.46.37-2.18a19.27,19.27,0,0,1,3.81-8.36c.38-.48.85-.59,1.24-.29s.43.77,0,1.27a16.87,16.87,0,0,0-3.45,7.42c-1.28,7.11.47,13.3,5.94,18.21a47.8,47.8,0,0,0,4.12,3l.27.17a.8.8,0,1,1-.83,1.36c-1.07-.68-2.17-1.34-3.18-2.1a19.64,19.64,0,0,1-7.4-10.36c-.41-1.41-.57-2.9-.84-4.36l-.09-.35Z"/><path class="cls-1" d="M26.93,26.92a3.92,3.92,0,0,1,.67.59.67.67,0,0,1-.14.89c-.48.51-1,1-1.44,1.52A9.3,9.3,0,0,0,23.41,35a9.44,9.44,0,0,0,4.27,9.71,24.55,24.55,0,0,0,3.06,1.77A12,12,0,0,1,35.05,50c1.06,1.38,2.14,2.74,3.21,4.1a.76.76,0,0,1,.1,1,.71.71,0,0,1-.88.34,1.31,1.31,0,0,1-.55-.41c-1.07-1.34-2.14-2.69-3.19-4a10.27,10.27,0,0,0-3.7-3,18.37,18.37,0,0,1-5.32-3.62,10.82,10.82,0,0,1-3-6.54,11.11,11.11,0,0,1,3.33-9.2c.39-.42.78-.84,1.2-1.23A4.25,4.25,0,0,1,26.93,26.92Z"/><path class="cls-1" d="M16.9,36.12a15.39,15.39,0,0,1,4.57-10.68c.67-.72,1.35-1.44,2.06-2.14a12.49,12.49,0,0,0,3.5-6,.89.89,0,0,1,.66-.76.81.81,0,0,1,.91,1.12c-.28.88-.58,1.76-.94,2.61a14.37,14.37,0,0,1-3.17,4.32,27.2,27.2,0,0,0-3.93,4.64,13.51,13.51,0,0,0-1.91,9.13c.13,1,.37,1.9.59,2.85.13.57,0,1-.51,1.12s-.85-.11-1-.67A18.23,18.23,0,0,1,16.9,36.12Z"/><path class="cls-1" d="M32.43,54.76c-.22.22-.39.52-.65.64a.72.72,0,0,1-.91-.28c-.47-.62-.92-1.24-1.42-1.84a2.8,2.8,0,0,0-.77-.64,32.61,32.61,0,0,1-5.2-3.13c-.8-.65-1.56-1.33-2.31-2a.79.79,0,0,1-.06-1.16.75.75,0,0,1,1.15,0A24.69,24.69,0,0,0,29.05,51,5,5,0,0,1,31,52.57c.38.5.77,1,1.14,1.52A5.23,5.23,0,0,1,32.43,54.76Z"/><path class="cls-1" d="M33.59,17.55c-.23.8-.43,1.79-.79,2.72-.46,1.19-1,2.35-1.58,3.5a.81.81,0,0,1-1.17.48A.83.83,0,0,1,29.82,23a19.62,19.62,0,0,0,2.08-5.42,2.44,2.44,0,0,1,.21-.61.73.73,0,0,1,.91-.38C33.4,16.69,33.6,17,33.59,17.55Z"/><path class="cls-1" d="M23.67,17.39c0,.11-.08.27-.14.43a10.77,10.77,0,0,1-2.94,3.94.76.76,0,0,1-1.09,0,.79.79,0,0,1,0-1.09A6.42,6.42,0,0,1,20,20.1a8.6,8.6,0,0,0,2.11-3,.75.75,0,0,1,.93-.51C23.43,16.65,23.61,16.94,23.67,17.39Z"/><path class="cls-1" d="M33.17,32.54a3.34,3.34,0,0,1,2.6-3.25.78.78,0,0,1,1,.53.79.79,0,0,1-.48,1l-.17.07a1.71,1.71,0,0,0-1,2.65c.16.33.26.68,0,.94a1.12,1.12,0,0,1-.76.31.85.85,0,0,1-.6-.43c-.25-.56-.43-1.17-.63-1.76Z"/><circle class="cls-2" cx="36" cy="36" r="35"/></g></g></svg>