<svg xmlns="http://www.w3.org/2000/svg" viewBox="0 0 72 72"><defs><style>.cls-1{fill:none;stroke:#e9511c;stroke-miterlimit:10;stroke-width:2px;stroke-dasharray:2 2;}.cls-2{fill:#e9511c;}</style></defs><g id="Layer_2" data-name="Layer 2"><g id="Layer_1-2" data-name="Layer 1"><circle class="cls-1" cx="36" cy="36" r="35"/><path class="cls-2" d="M46,49.2a8.7,8.7,0,0,1-6.65,0,8.68,8.68,0,0,0-6.66,0,8.7,8.7,0,0,1-6.65,0,8.68,8.68,0,0,0-6.66,0l1.06,2.56a5.86,5.86,0,0,1,4.54,0,11.4,11.4,0,0,0,8.77,0,5.86,5.86,0,0,1,4.54,0,11.37,11.37,0,0,0,8.77,0Z"/><path class="cls-2" d="M25,46.21a11.35,11.35,0,0,0,8.77,0,6,6,0,0,1,4.54,0,11.37,11.37,0,0,0,8.77,0,6,6,0,0,1,4.54,0l1.06-2.56a8.68,8.68,0,0,0-6.66,0,8.66,8.66,0,0,1-6.65,0,8.68,8.68,0,0,0-6.66,0,8.66,8.66,0,0,1-6.65,0Z"/><path class="cls-2" d="M32.67,38.1a8.61,8.61,0,0,1-6.65,0,8.73,8.73,0,0,0-6.66,0l1.06,2.57a5.86,5.86,0,0,1,4.54,0,11.4,11.4,0,0,0,8.77,0Z"/><path class="cls-2" d="M52.64,30.45V27.68H48.28a5.33,5.33,0,0,0-.59-1.41l3.09-3.08-2-2-3.08,3.09a5.47,5.47,0,0,0-1.41-.59V19.36H41.55v4.36a5.39,5.39,0,0,0-1.42.59l-3.08-3.09-2,2,3.08,3.08a5.33,5.33,0,0,0-.59,1.41H33.23v2.77h4.35a5.39,5.39,0,0,0,.59,1.42L35.09,35l2,2,3.08-3.08a5.39,5.39,0,0,0,1.42.59v4.35h2.77V34.42a5.33,5.33,0,0,0,1.41-.59l3.08,3.08,2-2-3.09-3.08a5.39,5.39,0,0,0,.59-1.42Zm-9.71,1.39a2.78,2.78,0,1,1,2.78-2.77A2.77,2.77,0,0,1,42.93,31.84Z"/></g></g></svg>