<svg xmlns="http://www.w3.org/2000/svg" viewBox="0 0 72 72"><defs><style>.cls-1{fill:none;stroke:#e9511c;stroke-miterlimit:10;stroke-width:2px;stroke-dasharray:2 2;}.cls-2{fill:#e9511c;}</style></defs><g id="Layer_2" data-name="Layer 2"><g id="Layer_1-2" data-name="Layer 1"><circle class="cls-1" cx="36" cy="36" r="35"/><path class="cls-2" d="M38.85,46a5.08,5.08,0,0,1-5.19,0c-.13.64-.2,1.22-.36,1.77a4.1,4.1,0,0,1-2.48,2.77c-1.42.57-2.87,1-4.31,1.58-.52.19-1.05.4-1.57.62a6.71,6.71,0,0,0-3.3,3.61c-.07.14-.11.29-.18.42a.48.48,0,0,1-.67.23.47.47,0,0,1-.26-.63,7.66,7.66,0,0,1,3.92-4.5c1.47-.62,3-1.1,4.5-1.65.47-.18.95-.37,1.41-.57a3.66,3.66,0,0,0,2.16-2.93,1.52,1.52,0,0,0-.79-1.84,9.88,9.88,0,0,1-3.94-5,.55.55,0,0,0-.34-.27A4.39,4.39,0,0,1,24.13,36a.42.42,0,0,0-.18-.32,2,2,0,0,1-.86-1.94,2.87,2.87,0,0,1,.13-.82,5.25,5.25,0,0,0,.08-2.43,15.34,15.34,0,0,1,2.54-10.68A11.49,11.49,0,0,1,33.1,15a5.22,5.22,0,0,1,2.9.18.65.65,0,0,0,.39,0,6.65,6.65,0,0,1,5,.4,12.28,12.28,0,0,1,7.29,8.56A15.85,15.85,0,0,1,49,31.54a1.34,1.34,0,0,0,0,.56,5.71,5.71,0,0,1,.28,2.28,1.81,1.81,0,0,1-.81,1.29.45.45,0,0,0-.19.31A4.4,4.4,0,0,1,45,39.62a.42.42,0,0,0-.3.25,10.61,10.61,0,0,1-4.48,5.42.64.64,0,0,0-.34.67c.1,1.54.52,2.92,2,3.61,1.08.49,2.22.83,3.32,1.26a32.26,32.26,0,0,1,3.22,1.29A7.76,7.76,0,0,1,52,56.43a.42.42,0,0,1-.29.59,1.1,1.1,0,0,1-.61-.18c-.08,0-.1-.19-.14-.29a6.9,6.9,0,0,0-4.28-4.16c-1.42-.47-2.84-1-4.24-1.5A7.92,7.92,0,0,1,40.65,50,4.33,4.33,0,0,1,39,47C38.94,46.68,38.91,46.4,38.85,46ZM31.72,29.73c.62.14,1.2.27,1.79.42.24.06.45.21.38.5s-.3.34-.59.32c-.77-.07-1.54-.12-2.31-.14a.93.93,0,0,0-.57.23c-.83.79-1.64,1.6-2.44,2.42a.77.77,0,0,0-.2.5,17.33,17.33,0,0,0,.58,4.3,9.84,9.84,0,0,0,7.17,7.35,2.38,2.38,0,0,0,1.09.07,9.67,9.67,0,0,0,6.3-4.49,14.29,14.29,0,0,0,1.78-7.39.56.56,0,0,0-.19-.34c-.82-.82-1.64-1.64-2.48-2.45a.82.82,0,0,0-.5-.2c-.8,0-1.6.08-2.39.14-.32,0-.55-.08-.55-.4a.58.58,0,0,1,.34-.39c.6-.18,1.22-.3,1.83-.45l-4.52-5Zm5.17-5.83c.82.92,1.6,1.81,2.4,2.69a89.09,89.09,0,0,0,7.08,7.2c.36.32.71.62,1.09.9s.69.16.82-.28a1.37,1.37,0,0,0,.07-.45A4.45,4.45,0,0,0,47,30.64c-.39-.4-.43-.68-.17-.92s.53-.16.91.24l.41.45c0-.29.07-.5.08-.72a16.64,16.64,0,0,0-.41-4.56,11.44,11.44,0,0,0-6.12-8.19,7.25,7.25,0,0,0-4-1c-.37,0-.93.13-1.07.38a2.89,2.89,0,0,0-.4,2.6c.23.59.51,1.16.76,1.74A3.22,3.22,0,0,1,36.89,23.9ZM35.5,16.12A4.29,4.29,0,0,0,33.43,16,10.48,10.48,0,0,0,27,20a14.53,14.53,0,0,0-2.77,10c0,.14.06.28.09.45.2-.21.35-.39.51-.55s.57-.32.79-.11.2.49-.06.8a10.82,10.82,0,0,0-.92,1.22,4,4,0,0,0-.49,2.43.84.84,0,0,0,.35.59c.15.07.43-.07.63-.17a2.16,2.16,0,0,0,.45-.36A106.43,106.43,0,0,0,35.94,23.47a1.6,1.6,0,0,0,.33-1.6c-.21-.62-.47-1.23-.74-1.83a3.87,3.87,0,0,1-.44-2.4C35.2,17.15,35.35,16.66,35.5,16.12ZM46.65,35.36c-.09.51-.14.53-.59.64-.19,0-.46.2-.5.36-.17.71-.28,1.44-.42,2.17a3.49,3.49,0,0,0,2-2c.23-.58.2-.69-.31-1Zm-20.81,0-.68.42a3.25,3.25,0,0,0,2.17,2.71c-.13-.7-.23-1.41-.4-2.1a.69.69,0,0,0-.49-.4A.59.59,0,0,1,25.84,35.38Z"/><path class="cls-2" d="M48.68,47.52a2.58,2.58,0,0,1,0-5.16,2.58,2.58,0,0,1,2.61,2.55A2.55,2.55,0,0,1,48.68,47.52Zm0-1a1.58,1.58,0,0,0,1.57-1.58,1.58,1.58,0,0,0-3.15,0A1.55,1.55,0,0,0,48.68,46.51Z"/><path class="cls-2" d="M16.09,36.37a2.39,2.39,0,1,1,2.4,2.39A2.39,2.39,0,0,1,16.09,36.37Zm2.4,1.36a1.32,1.32,0,0,0,1.35-1.37A1.37,1.37,0,0,0,18.46,35a1.42,1.42,0,0,0-1.36,1.4A1.36,1.36,0,0,0,18.49,37.73Z"/><path class="cls-2" d="M55.91,37.44a1.76,1.76,0,0,1-1.78,1.79,1.79,1.79,0,0,1-1.8-1.78,1.82,1.82,0,0,1,1.8-1.8A1.79,1.79,0,0,1,55.91,37.44Zm-1.8.78a.77.77,0,0,0,.79-.77.77.77,0,0,0-.75-.77.78.78,0,0,0-.8.77A.79.79,0,0,0,54.11,38.22Z"/><path class="cls-2" d="M20.73,29.23a1.79,1.79,0,1,1-1.8-1.79A1.82,1.82,0,0,1,20.73,29.23Zm-1.8.78a.77.77,0,1,0,0-1.54.78.78,0,0,0-.79.78A.79.79,0,0,0,18.93,30Z"/><path class="cls-2" d="M52,26.6a1.7,1.7,0,0,1,1.71-1.75,1.74,1.74,0,0,1,1.78,1.74,1.79,1.79,0,0,1-1.75,1.75A1.75,1.75,0,0,1,52,26.6Zm1.72.72a.74.74,0,0,0,.75-.73.74.74,0,0,0-.7-.74.76.76,0,0,0-.77.71A.74.74,0,0,0,53.71,27.32Z"/><path class="cls-2" d="M25,46.45a1.51,1.51,0,1,1-1.52-1.51A1.51,1.51,0,0,1,25,46.45Zm-1.53.5a.48.48,0,0,0,.53-.47.46.46,0,0,0-.48-.51.45.45,0,0,0-.51.47A.46.46,0,0,0,23.51,47Z"/><path class="cls-2" d="M37.45,40.72a5.84,5.84,0,0,1-.82.22,3.22,3.22,0,0,1-.76,0,8.05,8.05,0,0,1-1-.17c-.41-.08-.83-.14-1.24-.26a.48.48,0,0,1-.22-.41.51.51,0,0,1,.38-.28c.52,0,1,0,1.56,0a3.85,3.85,0,0,1,.68.1c.07,0,.16.07.19.05.56-.34,1.14,0,1.7-.07a3.28,3.28,0,0,1,.62,0c.16,0,.4.13.44.25a.49.49,0,0,1-.23.43c-.42.15-.87.23-1.3.34Z"/><path class="cls-2" d="M40,34.9a8.59,8.59,0,0,1-1-.42.49.49,0,0,1-.13-.45.44.44,0,0,1,.39-.19,4,4,0,0,0,2.53-.4,1.19,1.19,0,0,1,1.14-.07c.14.09.22.29.33.44l-.41.19a5.11,5.11,0,0,0-.63.29A4.31,4.31,0,0,1,40,34.9Z"/><path class="cls-2" d="M32.29,35a5.58,5.58,0,0,1-2-.64,5.3,5.3,0,0,0-.86-.34c-.27-.08-.31-.23-.15-.42a.84.84,0,0,1,1-.27c.58.18,1.15.41,1.73.54a8.05,8.05,0,0,0,1.1,0,2,2,0,0,1,.53.17c-.07.17-.1.43-.23.5A8.54,8.54,0,0,1,32.29,35Z"/><path class="cls-2" d="M36.24,38.14a1.77,1.77,0,0,1-1.23-.5.47.47,0,0,1-.08-.7.48.48,0,0,1,.73-.07c.54.37.62.37,1.16,0a.48.48,0,0,1,.73.07.47.47,0,0,1-.11.72,11.24,11.24,0,0,1-1.15.58Z"/><path class="cls-2" d="M36.24,42.69a4,4,0,0,1-.72-.22.42.42,0,0,1-.23-.62,1,1,0,0,1,.56-.3,7.06,7.06,0,0,1,.8,0c.28,0,.49,0,.6.31a.46.46,0,0,1-.26.62A5,5,0,0,1,36.24,42.69Z"/><path class="cls-2" d="M38.67,20.35a21.22,21.22,0,0,1,2.2.77,16.29,16.29,0,0,1,4.66,3.59c.31.31.61.64.9,1s.25.6,0,.8-.53.16-.79-.14a21.29,21.29,0,0,0-4-3.61,6.52,6.52,0,0,0-3.35-1.29.45.45,0,0,1-.47-.51.46.46,0,0,1,.51-.48h.25Z"/><path class="cls-2" d="M34.64,21.08c-.13.1-.29.35-.47.36a7.63,7.63,0,0,0-4.42,2.09c-1,.84-1.9,1.81-2.84,2.72-.07.06-.12.15-.2.21a.48.48,0,0,1-.67,0,.46.46,0,0,1-.07-.7,9.87,9.87,0,0,1,.74-.84,16.82,16.82,0,0,1,5.16-4,5.16,5.16,0,0,1,2.19-.53C34.4,20.47,34.57,20.63,34.64,21.08Z"/></g></g></svg>